%TF.GenerationSoftware,KiCad,Pcbnew,10.0.6*%
%TF.CreationDate,2026-09-14T21:58:46+09:00*%
%TF.ProjectId,stamp_s3a_interposer_pcba,7374616d-705f-4733-9361-5f696e746572,rev?*%
%TF.SameCoordinates,Original*%
%TF.FileFunction,Copper,L1,Top*%
%TF.FilePolarity,Positive*%
%FSLAX46Y46*%
G04 Gerber Fmt 4.6, Leading zero omitted, Abs format (unit mm)*
G04 Created by KiCad (PCBNEW 10.0.6) date 2026-09-14 21:58:46*
%MOMM*%
%LPD*%
G01*
G04 APERTURE LIST*
G04 Aperture macros list*
%AMRoundRect*
0 Rectangle with rounded corners*
0 $1 Rounding radius*
0 $2 $3 $4 $5 $6 $7 $8 $9 X,Y pos of 4 corners*
0 Add a 4 corners polygon primitive as box body*
4,1,4,$2,$3,$4,$5,$6,$7,$8,$9,$2,$3,0*
0 Add four circle primitives for the rounded corners*
1,1,$1+$1,$2,$3*
1,1,$1+$1,$4,$5*
1,1,$1+$1,$6,$7*
1,1,$1+$1,$8,$9*
0 Add four rect primitives between the rounded corners*
20,1,$1+$1,$2,$3,$4,$5,0*
20,1,$1+$1,$4,$5,$6,$7,0*
20,1,$1+$1,$6,$7,$8,$9,0*
20,1,$1+$1,$8,$9,$2,$3,0*%
G04 Aperture macros list end*
%TA.AperFunction,ComponentPad*%
%ADD10R,1.700000X1.700000*%
%TD*%
%TA.AperFunction,ComponentPad*%
%ADD11C,1.700000*%
%TD*%
%TA.AperFunction,SMDPad,CuDef*%
%ADD12RoundRect,0.200000X-0.200000X-0.275000X0.200000X-0.275000X0.200000X0.275000X-0.200000X0.275000X0*%
%TD*%
%TA.AperFunction,ComponentPad*%
%ADD13RoundRect,0.250000X-0.750000X-0.750000X0.750000X-0.750000X0.750000X0.750000X-0.750000X0.750000X0*%
%TD*%
%TA.AperFunction,ComponentPad*%
%ADD14C,2.000000*%
%TD*%
%TA.AperFunction,ComponentPad*%
%ADD15RoundRect,0.250000X-0.600000X-0.750000X0.600000X-0.750000X0.600000X0.750000X-0.600000X0.750000X0*%
%TD*%
%TA.AperFunction,ComponentPad*%
%ADD16O,1.700000X2.000000*%
%TD*%
%TA.AperFunction,ComponentPad*%
%ADD17RoundRect,0.250000X0.750000X-0.600000X0.750000X0.600000X-0.750000X0.600000X-0.750000X-0.600000X0*%
%TD*%
%TA.AperFunction,ComponentPad*%
%ADD18O,2.000000X1.700000*%
%TD*%
%TA.AperFunction,ComponentPad*%
%ADD19RoundRect,0.250001X-0.949999X-0.949999X0.949999X-0.949999X0.949999X0.949999X-0.949999X0.949999X0*%
%TD*%
%TA.AperFunction,ComponentPad*%
%ADD20C,2.400000*%
%TD*%
%TA.AperFunction,ComponentPad*%
%ADD21RoundRect,0.250000X0.725000X-0.600000X0.725000X0.600000X-0.725000X0.600000X-0.725000X-0.600000X0*%
%TD*%
%TA.AperFunction,ComponentPad*%
%ADD22O,1.950000X1.700000*%
%TD*%
%TA.AperFunction,SMDPad,CuDef*%
%ADD23RoundRect,0.225000X-0.225000X-0.250000X0.225000X-0.250000X0.225000X0.250000X-0.225000X0.250000X0*%
%TD*%
%TA.AperFunction,ComponentPad*%
%ADD24RoundRect,0.250000X-0.550000X-0.550000X0.550000X-0.550000X0.550000X0.550000X-0.550000X0.550000X0*%
%TD*%
%TA.AperFunction,ComponentPad*%
%ADD25C,1.600000*%
%TD*%
%TA.AperFunction,ComponentPad*%
%ADD26RoundRect,0.250000X-0.600000X-0.725000X0.600000X-0.725000X0.600000X0.725000X-0.600000X0.725000X0*%
%TD*%
%TA.AperFunction,ComponentPad*%
%ADD27O,1.700000X1.950000*%
%TD*%
%TA.AperFunction,ComponentPad*%
%ADD28R,1.000000X1.000000*%
%TD*%
%TA.AperFunction,ComponentPad*%
%ADD29C,1.000000*%
%TD*%
%TA.AperFunction,ViaPad*%
%ADD30C,0.800000*%
%TD*%
%TA.AperFunction,Conductor*%
%ADD31C,0.400000*%
%TD*%
%TA.AperFunction,Conductor*%
%ADD32C,1.000000*%
%TD*%
%TA.AperFunction,Conductor*%
%ADD33C,0.200000*%
%TD*%
%TA.AperFunction,Conductor*%
%ADD34C,0.300000*%
%TD*%
G04 APERTURE END LIST*
D10*
%TO.P,JP_STAMP_5V,1*%
%TO.N,+5V_LOGIC*%
X84000000Y-63000000D03*
D11*
%TO.P,JP_STAMP_5V,2*%
%TO.N,+5V_STAMP*%
X84000000Y-65540000D03*
%TD*%
D12*
%TO.P,R8,1*%
%TO.N,PCA_OE*%
X42175000Y-65000000D03*
%TO.P,R8,2*%
%TO.N,+3V3_STAMP*%
X43825000Y-65000000D03*
%TD*%
D13*
%TO.P,C1,1*%
%TO.N,+5V_LOGIC*%
X94000000Y-62000000D03*
D14*
%TO.P,C1,2*%
%TO.N,GND*%
X99000000Y-62000000D03*
%TD*%
D11*
%TO.P,J_STAMP_6,18*%
%TO.N,GND*%
X53380000Y-32160000D03*
%TO.P,J_STAMP_6,20*%
%TO.N,N/C*%
X53380000Y-29620000D03*
%TO.P,J_STAMP_6,22*%
X53380000Y-27080000D03*
%TO.P,J_STAMP_6,24*%
%TO.N,SW_WIN_A*%
X53380000Y-24540000D03*
%TO.P,J_STAMP_6,26*%
%TO.N,I2S_BCLK_SRC*%
X53380000Y-22000000D03*
D10*
%TO.P,J_STAMP_6,28*%
%TO.N,+3V3_STAMP*%
X53380000Y-19460000D03*
%TD*%
D15*
%TO.P,J_PWR_SERVO,1*%
%TO.N,+5V_LOGIC*%
X105000000Y-75000000D03*
D16*
%TO.P,J_PWR_SERVO,2*%
%TO.N,GND*%
X107500000Y-75000000D03*
%TD*%
D12*
%TO.P,R5,1*%
%TO.N,I2S_DOUT_SRC*%
X78175000Y-44000000D03*
%TO.P,R5,2*%
%TO.N,I2S_DOUT_AMP*%
X79825000Y-44000000D03*
%TD*%
D17*
%TO.P,J_WIN_B,1*%
%TO.N,SW_WIN_B*%
X14000000Y-33000000D03*
D18*
%TO.P,J_WIN_B,2*%
%TO.N,GND*%
X14000000Y-30500000D03*
%TD*%
D19*
%TO.P,C3,1*%
%TO.N,+5V_LOGIC*%
X108000000Y-65000000D03*
D20*
%TO.P,C3,2*%
%TO.N,GND*%
X113000000Y-65000000D03*
%TD*%
D21*
%TO.P,J_MIC,1*%
%TO.N,GND*%
X108000000Y-26000000D03*
D22*
%TO.P,J_MIC,2*%
%TO.N,+3V3_STAMP*%
X108000000Y-23500000D03*
%TO.P,J_MIC,3*%
%TO.N,I2S_DIN_MIC*%
X108000000Y-21000000D03*
%TO.P,J_MIC,4*%
%TO.N,I2S_BCLK_MIC*%
X108000000Y-18500000D03*
%TO.P,J_MIC,5*%
%TO.N,I2S_WS_MIC*%
X108000000Y-16000000D03*
%TO.P,J_MIC,6*%
%TO.N,GND*%
X108000000Y-13500000D03*
%TD*%
D12*
%TO.P,R3,1*%
%TO.N,I2S_WS_SRC*%
X78175000Y-30000000D03*
%TO.P,R3,2*%
%TO.N,I2S_WS_MIC*%
X79825000Y-30000000D03*
%TD*%
D10*
%TO.P,J_SOLIST,1*%
%TO.N,I2C_SCL*%
X24000000Y-53000000D03*
D11*
%TO.P,J_SOLIST,2*%
%TO.N,GND*%
X21460000Y-53000000D03*
%TO.P,J_SOLIST,3*%
%TO.N,I2C_SDA*%
X24000000Y-55540000D03*
%TO.P,J_SOLIST,4*%
%TO.N,GND*%
X21460000Y-55540000D03*
%TO.P,J_SOLIST,5*%
%TO.N,N/C*%
X24000000Y-58080000D03*
%TO.P,J_SOLIST,6*%
%TO.N,TFT_RST_N*%
X21460000Y-58080000D03*
%TO.P,J_SOLIST,7*%
%TO.N,TFT_DC*%
X24000000Y-60620000D03*
%TO.P,J_SOLIST,8*%
%TO.N,N/C*%
X21460000Y-60620000D03*
%TO.P,J_SOLIST,9*%
%TO.N,TFT_MOSI*%
X24000000Y-63160000D03*
%TO.P,J_SOLIST,10*%
%TO.N,PCA_OE*%
X21460000Y-63160000D03*
%TO.P,J_SOLIST,11*%
%TO.N,GND*%
X24000000Y-65700000D03*
%TO.P,J_SOLIST,12*%
%TO.N,TFT_SCK*%
X21460000Y-65700000D03*
%TO.P,J_SOLIST,13*%
%TO.N,GND*%
X24000000Y-68240000D03*
%TO.P,J_SOLIST,14*%
%TO.N,TFT_CS_N*%
X21460000Y-68240000D03*
%TD*%
D12*
%TO.P,R4,1*%
%TO.N,I2S_WS_SRC*%
X78175000Y-36000000D03*
%TO.P,R4,2*%
%TO.N,I2S_WS_AMP*%
X79825000Y-36000000D03*
%TD*%
%TO.P,R1,1*%
%TO.N,I2S_BCLK_SRC*%
X78175000Y-18000000D03*
%TO.P,R1,2*%
%TO.N,I2S_BCLK_MIC*%
X79825000Y-18000000D03*
%TD*%
D15*
%TO.P,J_PCA_OE,1*%
%TO.N,PCA_OE*%
X61000000Y-75000000D03*
D16*
%TO.P,J_PCA_OE,2*%
%TO.N,GND*%
X63500000Y-75000000D03*
%TD*%
D17*
%TO.P,J_WIN_A,1*%
%TO.N,SW_WIN_A*%
X14000000Y-23000000D03*
D18*
%TO.P,J_WIN_A,2*%
%TO.N,GND*%
X14000000Y-20500000D03*
%TD*%
D12*
%TO.P,R9,1*%
%TO.N,TFT_CS_N*%
X29175000Y-26000000D03*
%TO.P,R9,2*%
%TO.N,+3V3_STAMP*%
X30825000Y-26000000D03*
%TD*%
%TO.P,R6,1*%
%TO.N,AMP_SD*%
X78175000Y-52000000D03*
%TO.P,R6,2*%
%TO.N,GND*%
X79825000Y-52000000D03*
%TD*%
D23*
%TO.P,C4,1*%
%TO.N,+3V3_STAMP*%
X97225000Y-28000000D03*
%TO.P,C4,2*%
%TO.N,GND*%
X98775000Y-28000000D03*
%TD*%
D21*
%TO.P,J_AMP_SIG,1*%
%TO.N,I2S_WS_AMP*%
X108000000Y-42000000D03*
D22*
%TO.P,J_AMP_SIG,2*%
%TO.N,I2S_BCLK_AMP*%
X108000000Y-39500000D03*
%TO.P,J_AMP_SIG,3*%
%TO.N,I2S_DOUT_AMP*%
X108000000Y-37000000D03*
%TO.P,J_AMP_SIG,4*%
%TO.N,GND*%
X108000000Y-34500000D03*
%TD*%
D24*
%TO.P,C5,1*%
%TO.N,+5V_LOGIC*%
X98000000Y-49000000D03*
D25*
%TO.P,C5,2*%
%TO.N,GND*%
X100000000Y-49000000D03*
%TD*%
D23*
%TO.P,C2,1*%
%TO.N,+5V_LOGIC*%
X69225000Y-66000000D03*
%TO.P,C2,2*%
%TO.N,GND*%
X70775000Y-66000000D03*
%TD*%
D26*
%TO.P,J_SERVO_CTRL,1*%
%TO.N,GND*%
X47000000Y-75000000D03*
D27*
%TO.P,J_SERVO_CTRL,2*%
%TO.N,I2C_SCL*%
X49500000Y-75000000D03*
%TO.P,J_SERVO_CTRL,3*%
%TO.N,I2C_SDA*%
X52000000Y-75000000D03*
%TO.P,J_SERVO_CTRL,4*%
%TO.N,+3V3_STAMP*%
X54500000Y-75000000D03*
%TD*%
D17*
%TO.P,J_WIN_C,1*%
%TO.N,SW_WIN_C*%
X14000000Y-43000000D03*
D18*
%TO.P,J_WIN_C,2*%
%TO.N,GND*%
X14000000Y-40500000D03*
%TD*%
D17*
%TO.P,J_DOOR_AB,1*%
%TO.N,SW_DOOR_AB*%
X14000000Y-53000000D03*
D18*
%TO.P,J_DOOR_AB,2*%
%TO.N,GND*%
X14000000Y-50500000D03*
%TD*%
D26*
%TO.P,J_TFT_PWR,1*%
%TO.N,TFT_RST_N*%
X40000000Y-20000000D03*
D27*
%TO.P,J_TFT_PWR,2*%
%TO.N,TFT_CS_N*%
X42500000Y-20000000D03*
%TO.P,J_TFT_PWR,3*%
%TO.N,GND*%
X45000000Y-20000000D03*
%TO.P,J_TFT_PWR,4*%
%TO.N,+5V_LOGIC*%
X47500000Y-20000000D03*
%TD*%
D12*
%TO.P,R7,1*%
%TO.N,I2S_DIN_MIC*%
X78175000Y-58000000D03*
%TO.P,R7,2*%
%TO.N,GND*%
X79825000Y-58000000D03*
%TD*%
D15*
%TO.P,J_PWR_LOGIC,1*%
%TO.N,+5V_LOGIC*%
X82000000Y-75000000D03*
D16*
%TO.P,J_PWR_LOGIC,2*%
%TO.N,GND*%
X84500000Y-75000000D03*
%TD*%
D21*
%TO.P,J_AMP_PWR,1*%
%TO.N,AMP_SD*%
X108000000Y-55000000D03*
D22*
%TO.P,J_AMP_PWR,2*%
%TO.N,GND*%
X108000000Y-52500000D03*
%TO.P,J_AMP_PWR,3*%
%TO.N,+5V_LOGIC*%
X108000000Y-50000000D03*
%TD*%
D28*
%TO.P,J_STAMP_17,1*%
%TO.N,AMP_SD*%
X68620000Y-11840000D03*
D29*
%TO.P,J_STAMP_17,2*%
%TO.N,SW_WIN_B*%
X68620000Y-13110000D03*
%TO.P,J_STAMP_17,3*%
%TO.N,N/C*%
X68620000Y-14380000D03*
%TO.P,J_STAMP_17,4*%
%TO.N,SW_WIN_C*%
X68620000Y-15650000D03*
%TO.P,J_STAMP_17,5*%
%TO.N,I2S_WS_SRC*%
X68620000Y-16920000D03*
%TO.P,J_STAMP_17,6*%
%TO.N,SW_DOOR_AB*%
X68620000Y-18190000D03*
%TO.P,J_STAMP_17,7*%
%TO.N,I2S_DOUT_SRC*%
X68620000Y-19460000D03*
%TO.P,J_STAMP_17,8*%
%TO.N,SW_DOOR_BC*%
X68620000Y-20730000D03*
%TO.P,J_STAMP_17,9*%
%TO.N,I2S_DIN_MIC*%
X68620000Y-22000000D03*
%TO.P,J_STAMP_17,10*%
%TO.N,EXEC_N*%
X68620000Y-23270000D03*
%TO.P,J_STAMP_17,11*%
%TO.N,GND*%
X68620000Y-24540000D03*
%TO.P,J_STAMP_17,12*%
%TO.N,N/C*%
X68620000Y-25810000D03*
%TO.P,J_STAMP_17,13*%
%TO.N,+5V_STAMP*%
X68620000Y-27080000D03*
%TO.P,J_STAMP_17,14*%
%TO.N,N/C*%
X68620000Y-28350000D03*
%TO.P,J_STAMP_17,15*%
%TO.N,I2C_SDA*%
X68620000Y-29620000D03*
%TO.P,J_STAMP_17,16*%
%TO.N,N/C*%
X68620000Y-30890000D03*
%TO.P,J_STAMP_17,17*%
%TO.N,I2C_SCL*%
X68620000Y-32160000D03*
%TD*%
D17*
%TO.P,J_DOOR_BC,1*%
%TO.N,SW_DOOR_BC*%
X14000000Y-64000000D03*
D18*
%TO.P,J_DOOR_BC,2*%
%TO.N,GND*%
X14000000Y-61500000D03*
%TD*%
D12*
%TO.P,R2,1*%
%TO.N,I2S_BCLK_SRC*%
X78175000Y-24000000D03*
%TO.P,R2,2*%
%TO.N,I2S_BCLK_AMP*%
X79825000Y-24000000D03*
%TD*%
D15*
%TO.P,J_SERVO_5V_OUT,1*%
%TO.N,+5V_LOGIC*%
X94000000Y-75000000D03*
D16*
%TO.P,J_SERVO_5V_OUT,2*%
%TO.N,GND*%
X96500000Y-75000000D03*
%TD*%
D15*
%TO.P,J_EXEC,1*%
%TO.N,EXEC_N*%
X95000000Y-15000000D03*
D16*
%TO.P,J_EXEC,2*%
%TO.N,GND*%
X97500000Y-15000000D03*
%TD*%
D26*
%TO.P,J_TFT_SIG,1*%
%TO.N,N/C*%
X24000000Y-15000000D03*
D27*
%TO.P,J_TFT_SIG,2*%
%TO.N,+5V_LOGIC*%
X26500000Y-15000000D03*
%TO.P,J_TFT_SIG,3*%
%TO.N,TFT_SCK*%
X29000000Y-15000000D03*
%TO.P,J_TFT_SIG,4*%
%TO.N,TFT_MOSI*%
X31500000Y-15000000D03*
%TO.P,J_TFT_SIG,5*%
%TO.N,TFT_DC*%
X34000000Y-15000000D03*
%TD*%
D30*
%TO.N,+5V_LOGIC*%
X68350000Y-65125000D03*
%TO.N,+3V3_STAMP*%
X68706000Y-33720800D03*
X44853700Y-65000000D03*
%TO.N,GND*%
X71618800Y-65193500D03*
X99618800Y-27156200D03*
%TO.N,I2S_BCLK_SRC*%
X66914000Y-34867200D03*
X55708100Y-23827500D03*
%TO.N,I2S_DOUT_SRC*%
X77359400Y-43184400D03*
%TO.N,SW_WIN_B*%
X20428200Y-30800000D03*
%TO.N,I2S_DIN_MIC*%
X77361500Y-57186500D03*
X75404500Y-26666400D03*
%TO.N,I2S_WS_MIC*%
X80641200Y-30816200D03*
%TO.N,I2S_WS_SRC*%
X78175000Y-31637900D03*
%TO.N,TFT_DC*%
X35778700Y-57104000D03*
%TO.N,TFT_CS_N*%
X29768000Y-24978900D03*
%TO.N,AMP_SD*%
X79000000Y-51175000D03*
%TO.N,I2S_BCLK_AMP*%
X80645300Y-24817100D03*
%TD*%
%TO.N,+5V_LOGIC*%
D31*
X84000000Y-63000000D02*
X82748300Y-63000000D01*
D32*
X94000000Y-75000000D02*
X95737800Y-76737800D01*
D31*
X86251700Y-62000000D02*
X85251700Y-63000000D01*
D32*
X95737800Y-76737800D02*
X103262200Y-76737800D01*
D31*
X98000000Y-49000000D02*
X99224400Y-47775600D01*
D32*
X103262200Y-76737800D02*
X105000000Y-75000000D01*
D31*
X26500000Y-15000000D02*
X27927300Y-13572700D01*
X107027300Y-47775600D02*
X108000000Y-48748300D01*
X70474900Y-63000100D02*
X82748300Y-63000100D01*
X68350000Y-65125000D02*
X70474900Y-63000100D01*
X94000000Y-62000000D02*
X86251700Y-62000000D01*
X82748300Y-63000100D02*
X82748300Y-63000000D01*
X27927300Y-13572700D02*
X41072700Y-13572700D01*
X84000000Y-63000000D02*
X85251700Y-63000000D01*
X99224400Y-47775600D02*
X107027300Y-47775600D01*
X41072700Y-13572700D02*
X47500000Y-20000000D01*
X108000000Y-50000000D02*
X108000000Y-48748300D01*
X68350000Y-65125000D02*
X69225000Y-66000000D01*
%TO.N,PCA_OE*%
D33*
X42175000Y-65000000D02*
X41603400Y-64428400D01*
X43673300Y-66498300D02*
X42175000Y-65000000D01*
X52498300Y-66498300D02*
X43673300Y-66498300D01*
X61000000Y-75000000D02*
X52498300Y-66498300D01*
X41603400Y-64428400D02*
X22728400Y-64428400D01*
X22728400Y-64428400D02*
X21460000Y-63160000D01*
%TO.N,+3V3_STAMP*%
D34*
X96350000Y-27125000D02*
X76008900Y-27125000D01*
X108000000Y-23500000D02*
X99975000Y-23500000D01*
X45638300Y-26000000D02*
X30825000Y-26000000D01*
X76008900Y-27125000D02*
X69413100Y-33720800D01*
X69413100Y-33720800D02*
X68706000Y-33720800D01*
X44853700Y-65000000D02*
X43825000Y-65000000D01*
X53380000Y-19460000D02*
X52178300Y-19460000D01*
X52178300Y-19460000D02*
X45638300Y-26000000D01*
X96350000Y-27125000D02*
X97225000Y-28000000D01*
X99975000Y-23500000D02*
X96350000Y-27125000D01*
%TO.N,GND*%
D33*
X97500000Y-15000000D02*
X98651700Y-15000000D01*
X99618800Y-27156200D02*
X106843800Y-27156200D01*
X106348300Y-74110500D02*
X106348300Y-75000000D01*
X14633200Y-18715100D02*
X14000000Y-19348300D01*
X100000000Y-49000000D02*
X102348300Y-51348300D01*
X43848300Y-19568100D02*
X42995300Y-18715100D01*
X62348300Y-75889500D02*
X62348300Y-75000000D01*
X79825000Y-52000000D02*
X79825000Y-58000000D01*
X43848300Y-20000000D02*
X43848300Y-19568100D01*
X53380000Y-32160000D02*
X61000000Y-24540000D01*
X14000000Y-20500000D02*
X14000000Y-19348300D01*
X106843800Y-27156200D02*
X108000000Y-26000000D01*
X70775000Y-66000000D02*
X71581500Y-65193500D01*
X71581500Y-65193500D02*
X71618800Y-65193500D01*
X96290800Y-73639100D02*
X97651700Y-75000000D01*
X97651700Y-75000000D02*
X98954400Y-73697300D01*
X95000000Y-58000000D02*
X79825000Y-58000000D01*
X98954400Y-73697300D02*
X105935100Y-73697300D01*
X48336700Y-76336700D02*
X61901100Y-76336700D01*
X47000000Y-75000000D02*
X48336700Y-76336700D01*
X45000000Y-20000000D02*
X43848300Y-20000000D01*
X100151700Y-13500000D02*
X108000000Y-13500000D01*
X96500000Y-75000000D02*
X97651700Y-75000000D01*
X42995300Y-18715100D02*
X14633200Y-18715100D01*
X61901100Y-76336700D02*
X62348300Y-75889500D01*
X105935100Y-73697300D02*
X106348300Y-74110500D01*
X85651700Y-75000000D02*
X87012600Y-73639100D01*
X108000000Y-52500000D02*
X108000000Y-51348300D01*
X61000000Y-24540000D02*
X68620000Y-24540000D01*
X40240000Y-68240000D02*
X47000000Y-75000000D01*
X98651700Y-15000000D02*
X100151700Y-13500000D01*
X99618800Y-27156200D02*
X98775000Y-28000000D01*
X87012600Y-73639100D02*
X96290800Y-73639100D01*
X24000000Y-68240000D02*
X40240000Y-68240000D01*
X102348300Y-51348300D02*
X108000000Y-51348300D01*
X84500000Y-75000000D02*
X85651700Y-75000000D01*
X99000000Y-62000000D02*
X95000000Y-58000000D01*
X63500000Y-75000000D02*
X62348300Y-75000000D01*
X107500000Y-75000000D02*
X106348300Y-75000000D01*
%TO.N,SW_WIN_A*%
X53380000Y-24540000D02*
X51127700Y-26792300D01*
X17792300Y-26792300D02*
X14000000Y-23000000D01*
X51127700Y-26792300D02*
X17792300Y-26792300D01*
%TO.N,I2S_BCLK_SRC*%
X77007600Y-24000000D02*
X78175000Y-24000000D01*
X78175000Y-18000000D02*
X78175000Y-24000000D01*
X68422000Y-32968200D02*
X68967900Y-32968200D01*
X68967900Y-32968200D02*
X74481800Y-27454300D01*
X55207500Y-23827500D02*
X55708100Y-23827500D01*
X74481800Y-27454300D02*
X74481800Y-26525800D01*
X53380000Y-22000000D02*
X55207500Y-23827500D01*
X66914000Y-34476200D02*
X68422000Y-32968200D01*
X74481800Y-26525800D02*
X77007600Y-24000000D01*
X66914000Y-34867200D02*
X66914000Y-34476200D01*
%TO.N,I2S_DOUT_SRC*%
X77359400Y-43184400D02*
X78175000Y-44000000D01*
%TO.N,I2S_DOUT_AMP*%
X108000000Y-38151700D02*
X108431900Y-38151700D01*
X108163000Y-44000000D02*
X79825000Y-44000000D01*
X109291200Y-42871800D02*
X108163000Y-44000000D01*
X109291200Y-39011000D02*
X109291200Y-42871800D01*
X108431900Y-38151700D02*
X109291200Y-39011000D01*
X108000000Y-37000000D02*
X108000000Y-38151700D01*
%TO.N,SW_WIN_B*%
X14000000Y-33000000D02*
X16200000Y-30800000D01*
X16200000Y-30800000D02*
X20428200Y-30800000D01*
%TO.N,I2S_DIN_MIC*%
X90393600Y-26666400D02*
X96060000Y-21000000D01*
X78175000Y-58000000D02*
X77361500Y-57186500D01*
X96060000Y-21000000D02*
X108000000Y-21000000D01*
X75404500Y-26666400D02*
X90393600Y-26666400D01*
%TO.N,I2S_BCLK_MIC*%
X108000000Y-18500000D02*
X80325000Y-18500000D01*
X80325000Y-18500000D02*
X79825000Y-18000000D01*
%TO.N,I2S_WS_MIC*%
X79825000Y-30000000D02*
X80641200Y-30816200D01*
%TO.N,I2S_WS_SRC*%
X78175000Y-31637900D02*
X78175000Y-30000000D01*
X78175000Y-36000000D02*
X78175000Y-31637900D01*
%TO.N,I2C_SCL*%
X68620000Y-32160000D02*
X47780000Y-53000000D01*
X47780000Y-53000000D02*
X24000000Y-53000000D01*
%TO.N,TFT_DC*%
X27516000Y-57104000D02*
X24000000Y-60620000D01*
X35778700Y-57104000D02*
X27516000Y-57104000D01*
%TO.N,TFT_CS_N*%
X29768000Y-24978900D02*
X29175000Y-25571900D01*
X41348300Y-20000000D02*
X41348300Y-20791800D01*
X41348300Y-20791800D02*
X37161200Y-24978900D01*
X37161200Y-24978900D02*
X29768000Y-24978900D01*
X29175000Y-25571900D02*
X29175000Y-26000000D01*
X42500000Y-20000000D02*
X41348300Y-20000000D01*
%TO.N,I2S_WS_AMP*%
X85825000Y-42000000D02*
X108000000Y-42000000D01*
X79825000Y-36000000D02*
X85825000Y-42000000D01*
%TO.N,AMP_SD*%
X79000000Y-51175000D02*
X96111700Y-51175000D01*
X79000000Y-51175000D02*
X78175000Y-52000000D01*
X99936700Y-55000000D02*
X108000000Y-55000000D01*
X96111700Y-51175000D02*
X99936700Y-55000000D01*
%TO.N,I2S_BCLK_AMP*%
X80642100Y-24817100D02*
X80645300Y-24817100D01*
X79825000Y-24000000D02*
X80642100Y-24817100D01*
%TO.N,SW_WIN_C*%
X50846000Y-27726800D02*
X52762800Y-25810000D01*
X67418500Y-18077400D02*
X67418500Y-16851500D01*
X67077500Y-18418400D02*
X67418500Y-18077400D01*
X29273200Y-27726800D02*
X50846000Y-27726800D01*
X52762800Y-25810000D02*
X54730200Y-25810000D01*
X14000000Y-43000000D02*
X29273200Y-27726800D01*
X54730200Y-25810000D02*
X62121800Y-18418400D01*
X67418500Y-16851500D02*
X68620000Y-15650000D01*
X62121800Y-18418400D02*
X67077500Y-18418400D01*
%TO.N,SW_DOOR_AB*%
X38621600Y-28378400D02*
X55885000Y-28378400D01*
X14000000Y-53000000D02*
X38621600Y-28378400D01*
X67636600Y-19173500D02*
X67636600Y-19173400D01*
X55885000Y-28378400D02*
X65089900Y-19173500D01*
X65089900Y-19173500D02*
X67636600Y-19173500D01*
X67636600Y-19173400D02*
X68620000Y-18190000D01*
%TO.N,SW_DOOR_BC*%
X14000000Y-64000000D02*
X15349800Y-62650200D01*
X41919700Y-30890000D02*
X54038900Y-30890000D01*
X15349800Y-62650200D02*
X15349800Y-57459900D01*
X54038900Y-30890000D02*
X64198900Y-20730000D01*
X64198900Y-20730000D02*
X68620000Y-20730000D01*
X15349800Y-57459900D02*
X41919700Y-30890000D01*
%TO.N,EXEC_N*%
X68620000Y-23270000D02*
X76890000Y-15000000D01*
X76890000Y-15000000D02*
X95000000Y-15000000D01*
%TD*%
%TA.AperFunction,Conductor*%
%TO.N,GND*%
G36*
X51943039Y-10520185D02*
G01*
X51988794Y-10572989D01*
X52000000Y-10624500D01*
X52000000Y-18000000D01*
X54000000Y-18000000D01*
X61674445Y-18000000D01*
X61741484Y-18019685D01*
X61787239Y-18072489D01*
X61797183Y-18141647D01*
X61768158Y-18205203D01*
X61762126Y-18211681D01*
X56495493Y-23478312D01*
X56434170Y-23511797D01*
X56364478Y-23506813D01*
X56308545Y-23464941D01*
X56304710Y-23459522D01*
X56252214Y-23380958D01*
X56252211Y-23380954D01*
X56154645Y-23283388D01*
X56154641Y-23283385D01*
X56039917Y-23206728D01*
X56039904Y-23206721D01*
X55912432Y-23153921D01*
X55912422Y-23153918D01*
X55777095Y-23127000D01*
X55777093Y-23127000D01*
X55639107Y-23127000D01*
X55639105Y-23127000D01*
X55503777Y-23153918D01*
X55503767Y-23153921D01*
X55376295Y-23206721D01*
X55376284Y-23206727D01*
X55327120Y-23239578D01*
X55260443Y-23260455D01*
X55193063Y-23241970D01*
X55170549Y-23224156D01*
X54485674Y-22539281D01*
X54452189Y-22477958D01*
X54455423Y-22413284D01*
X54502171Y-22269409D01*
X54507860Y-22233489D01*
X54530500Y-22090551D01*
X54530500Y-21909448D01*
X54514019Y-21805397D01*
X54502171Y-21730591D01*
X54446211Y-21558361D01*
X54446211Y-21558360D01*
X54392364Y-21452681D01*
X54363996Y-21397006D01*
X54309259Y-21321666D01*
X54257558Y-21250505D01*
X54257554Y-21250500D01*
X54129499Y-21122445D01*
X54129494Y-21122441D01*
X53982997Y-21016006D01*
X53982996Y-21016005D01*
X53982994Y-21016004D01*
X53931300Y-20989664D01*
X53821639Y-20933788D01*
X53821636Y-20933787D01*
X53649410Y-20877829D01*
X53517728Y-20856972D01*
X53454594Y-20827042D01*
X53417663Y-20767731D01*
X53418661Y-20697868D01*
X53457271Y-20639636D01*
X53521235Y-20611522D01*
X53537120Y-20610499D01*
X54274864Y-20610499D01*
X54274879Y-20610497D01*
X54274882Y-20610497D01*
X54299987Y-20607586D01*
X54299988Y-20607585D01*
X54299991Y-20607585D01*
X54402765Y-20562206D01*
X54482206Y-20482765D01*
X54527585Y-20379991D01*
X54530500Y-20354865D01*
X54530499Y-18565136D01*
X54530497Y-18565117D01*
X54527586Y-18540012D01*
X54527585Y-18540010D01*
X54527585Y-18540009D01*
X54482206Y-18437235D01*
X54402765Y-18357794D01*
X54324673Y-18323313D01*
X54299992Y-18312415D01*
X54274865Y-18309500D01*
X52485143Y-18309500D01*
X52485117Y-18309502D01*
X52460012Y-18312413D01*
X52460008Y-18312415D01*
X52357235Y-18357793D01*
X52277794Y-18437234D01*
X52232415Y-18540006D01*
X52232415Y-18540008D01*
X52229500Y-18565131D01*
X52229500Y-18886206D01*
X52209815Y-18953245D01*
X52157011Y-18999000D01*
X52121691Y-19009144D01*
X52118996Y-19009498D01*
X52028625Y-19033713D01*
X52028624Y-19033712D01*
X52004415Y-19040200D01*
X52004406Y-19040204D01*
X51901692Y-19099505D01*
X51901684Y-19099511D01*
X45488016Y-25513181D01*
X45426693Y-25546666D01*
X45400335Y-25549500D01*
X37436667Y-25549500D01*
X37369628Y-25529815D01*
X37323873Y-25477011D01*
X37313929Y-25407853D01*
X37342954Y-25344297D01*
X37374664Y-25318114D01*
X37407113Y-25299380D01*
X41594210Y-21112281D01*
X41594213Y-21112280D01*
X41648648Y-21057844D01*
X41709967Y-21024362D01*
X41779659Y-21029346D01*
X41809211Y-21045210D01*
X41882179Y-21098223D01*
X41897006Y-21108996D01*
X42002484Y-21162740D01*
X42058360Y-21191211D01*
X42058363Y-21191212D01*
X42144476Y-21219191D01*
X42230591Y-21247171D01*
X42313429Y-21260291D01*
X42409449Y-21275500D01*
X42409454Y-21275500D01*
X42590551Y-21275500D01*
X42677259Y-21261765D01*
X42769409Y-21247171D01*
X42941639Y-21191211D01*
X43102994Y-21108996D01*
X43249501Y-21002553D01*
X43377553Y-20874501D01*
X43483996Y-20727994D01*
X43566211Y-20566639D01*
X43622171Y-20394409D01*
X43641180Y-20274390D01*
X43650500Y-20215551D01*
X43650500Y-19784448D01*
X43625529Y-19626793D01*
X43622171Y-19605591D01*
X43566211Y-19433361D01*
X43566211Y-19433360D01*
X43537740Y-19377484D01*
X43483996Y-19272006D01*
X43454856Y-19231898D01*
X43377558Y-19125505D01*
X43377554Y-19125500D01*
X43249499Y-18997445D01*
X43249494Y-18997441D01*
X43102997Y-18891006D01*
X43102996Y-18891005D01*
X43102994Y-18891004D01*
X43051300Y-18864664D01*
X42941639Y-18808788D01*
X42941636Y-18808787D01*
X42769410Y-18752829D01*
X42590551Y-18724500D01*
X42590546Y-18724500D01*
X42409454Y-18724500D01*
X42409449Y-18724500D01*
X42230589Y-18752829D01*
X42058363Y-18808787D01*
X42058360Y-18808788D01*
X41897002Y-18891006D01*
X41750505Y-18997441D01*
X41750500Y-18997445D01*
X41622445Y-19125500D01*
X41622441Y-19125505D01*
X41516006Y-19272002D01*
X41433788Y-19433360D01*
X41433787Y-19433363D01*
X41407647Y-19513818D01*
X41368210Y-19571493D01*
X41303851Y-19598692D01*
X41300072Y-19598907D01*
X41290682Y-19600144D01*
X41221647Y-19589376D01*
X41169392Y-19542994D01*
X41150500Y-19477204D01*
X41150500Y-19231903D01*
X41150500Y-19231898D01*
X41139877Y-19143436D01*
X41084361Y-19002658D01*
X41084360Y-19002657D01*
X41084360Y-19002656D01*
X40992922Y-18882077D01*
X40872343Y-18790639D01*
X40741091Y-18738880D01*
X40731564Y-18735123D01*
X40731563Y-18735122D01*
X40731561Y-18735122D01*
X40685926Y-18729642D01*
X40643102Y-18724500D01*
X39356898Y-18724500D01*
X39317853Y-18729188D01*
X39268438Y-18735122D01*
X39127656Y-18790639D01*
X39007077Y-18882077D01*
X38915639Y-19002656D01*
X38860122Y-19143438D01*
X38854188Y-19192853D01*
X38849500Y-19231898D01*
X38849500Y-20768102D01*
X38854392Y-20808842D01*
X38860122Y-20856561D01*
X38860122Y-20856563D01*
X38860123Y-20856564D01*
X38868509Y-20877829D01*
X38915639Y-20997343D01*
X39007077Y-21117922D01*
X39127656Y-21209360D01*
X39127657Y-21209360D01*
X39127658Y-21209361D01*
X39268436Y-21264877D01*
X39356898Y-21275500D01*
X39998846Y-21275500D01*
X40065885Y-21295185D01*
X40111640Y-21347989D01*
X40121584Y-21417147D01*
X40092559Y-21480703D01*
X40086527Y-21487180D01*
X38558922Y-23014785D01*
X37031626Y-24542081D01*
X36970303Y-24575566D01*
X36943945Y-24578400D01*
X30408547Y-24578400D01*
X30341508Y-24558715D01*
X30316572Y-24536514D01*
X30316422Y-24536665D01*
X30313835Y-24534078D01*
X30312687Y-24533056D01*
X30312110Y-24532353D01*
X30214545Y-24434788D01*
X30214541Y-24434785D01*
X30099817Y-24358128D01*
X30099804Y-24358121D01*
X29972332Y-24305321D01*
X29972322Y-24305318D01*
X29836995Y-24278400D01*
X29836993Y-24278400D01*
X29699007Y-24278400D01*
X29699005Y-24278400D01*
X29563677Y-24305318D01*
X29563667Y-24305321D01*
X29436195Y-24358121D01*
X29436182Y-24358128D01*
X29321458Y-24434785D01*
X29321454Y-24434788D01*
X29223888Y-24532354D01*
X29223885Y-24532358D01*
X29147228Y-24647082D01*
X29147221Y-24647095D01*
X29094421Y-24774567D01*
X29094418Y-24774577D01*
X29067500Y-24909904D01*
X29067500Y-25047900D01*
X29067590Y-25048815D01*
X29067500Y-25049289D01*
X29067500Y-25053985D01*
X29066609Y-25053985D01*
X29054565Y-25117460D01*
X29031867Y-25148638D01*
X28990415Y-25190090D01*
X28929092Y-25223575D01*
X28915990Y-25225698D01*
X28906510Y-25226717D01*
X28867516Y-25230908D01*
X28732671Y-25281202D01*
X28732664Y-25281206D01*
X28617455Y-25367452D01*
X28617452Y-25367455D01*
X28531206Y-25482664D01*
X28531202Y-25482671D01*
X28480910Y-25617513D01*
X28480909Y-25617517D01*
X28474500Y-25677127D01*
X28474500Y-25992820D01*
X28474501Y-26267800D01*
X28454817Y-26334839D01*
X28402013Y-26380594D01*
X28350501Y-26391800D01*
X18009555Y-26391800D01*
X17942516Y-26372115D01*
X17921874Y-26355481D01*
X15333363Y-23766970D01*
X15299878Y-23705647D01*
X15297929Y-23664507D01*
X15300500Y-23643102D01*
X15300500Y-22356898D01*
X15289877Y-22268436D01*
X15234361Y-22127658D01*
X15234360Y-22127657D01*
X15234360Y-22127656D01*
X15142922Y-22007077D01*
X15022343Y-21915639D01*
X14881561Y-21860122D01*
X14835926Y-21854642D01*
X14793102Y-21849500D01*
X13206898Y-21849500D01*
X13167853Y-21854188D01*
X13118438Y-21860122D01*
X12977656Y-21915639D01*
X12857077Y-22007077D01*
X12765639Y-22127656D01*
X12710122Y-22268438D01*
X12708346Y-22283232D01*
X12699500Y-22356898D01*
X12699500Y-23643102D01*
X12703586Y-23677127D01*
X12710122Y-23731561D01*
X12765639Y-23872343D01*
X12857077Y-23992922D01*
X12977656Y-24084360D01*
X12977657Y-24084360D01*
X12977658Y-24084361D01*
X13118436Y-24139877D01*
X13206898Y-24150500D01*
X14532745Y-24150500D01*
X14599784Y-24170185D01*
X14620426Y-24186819D01*
X17546387Y-27112780D01*
X17637712Y-27165507D01*
X17739573Y-27192800D01*
X28941445Y-27192800D01*
X29008484Y-27212485D01*
X29054239Y-27265289D01*
X29064183Y-27334447D01*
X29035158Y-27398003D01*
X29029126Y-27404481D01*
X14620426Y-41813181D01*
X14559103Y-41846666D01*
X14532745Y-41849500D01*
X13206898Y-41849500D01*
X13167853Y-41854188D01*
X13118438Y-41860122D01*
X12977656Y-41915639D01*
X12857077Y-42007077D01*
X12765639Y-42127656D01*
X12710122Y-42268438D01*
X12704188Y-42317853D01*
X12699500Y-42356898D01*
X12699500Y-43643102D01*
X12703586Y-43677127D01*
X12710122Y-43731561D01*
X12765639Y-43872343D01*
X12857077Y-43992922D01*
X12977656Y-44084360D01*
X12977657Y-44084360D01*
X12977658Y-44084361D01*
X13118436Y-44139877D01*
X13206898Y-44150500D01*
X13206903Y-44150500D01*
X14793097Y-44150500D01*
X14793102Y-44150500D01*
X14881564Y-44139877D01*
X15022342Y-44084361D01*
X15142922Y-43992922D01*
X15234361Y-43872342D01*
X15289877Y-43731564D01*
X15300500Y-43643102D01*
X15300500Y-42356898D01*
X15297929Y-42335493D01*
X15309478Y-42266589D01*
X15333360Y-42233031D01*
X29402773Y-28163619D01*
X29464096Y-28130134D01*
X29490454Y-28127300D01*
X38006945Y-28127300D01*
X38073984Y-28146985D01*
X38119739Y-28199789D01*
X38129683Y-28268947D01*
X38100658Y-28332503D01*
X38094626Y-28338981D01*
X14620426Y-51813181D01*
X14559103Y-51846666D01*
X14532745Y-51849500D01*
X13206898Y-51849500D01*
X13167853Y-51854188D01*
X13118438Y-51860122D01*
X12977656Y-51915639D01*
X12857077Y-52007077D01*
X12765639Y-52127656D01*
X12710122Y-52268438D01*
X12704188Y-52317853D01*
X12699500Y-52356898D01*
X12699500Y-53643102D01*
X12705126Y-53689954D01*
X12710122Y-53731561D01*
X12765639Y-53872343D01*
X12857077Y-53992922D01*
X12977656Y-54084360D01*
X12977657Y-54084360D01*
X12977658Y-54084361D01*
X13118436Y-54139877D01*
X13206898Y-54150500D01*
X13206903Y-54150500D01*
X14793097Y-54150500D01*
X14793102Y-54150500D01*
X14881564Y-54139877D01*
X15022342Y-54084361D01*
X15142922Y-53992922D01*
X15234361Y-53872342D01*
X15289877Y-53731564D01*
X15300500Y-53643102D01*
X15300500Y-52356898D01*
X15297929Y-52335493D01*
X15309478Y-52266589D01*
X15333360Y-52233031D01*
X38751173Y-28815219D01*
X38812496Y-28781734D01*
X38838854Y-28778900D01*
X52325634Y-28778900D01*
X52392673Y-28798585D01*
X52438428Y-28851389D01*
X52448372Y-28920547D01*
X52425952Y-28975785D01*
X52396006Y-29017002D01*
X52313788Y-29178360D01*
X52313787Y-29178363D01*
X52257829Y-29350589D01*
X52229500Y-29529448D01*
X52229500Y-29710551D01*
X52257829Y-29889410D01*
X52313787Y-30061636D01*
X52313788Y-30061639D01*
X52396003Y-30222993D01*
X52446586Y-30292615D01*
X52470065Y-30358422D01*
X52454239Y-30426476D01*
X52404133Y-30475170D01*
X52346267Y-30489500D01*
X41866973Y-30489500D01*
X41765110Y-30516793D01*
X41673787Y-30569520D01*
X41673784Y-30569522D01*
X15029322Y-57213984D01*
X15029320Y-57213987D01*
X14976593Y-57305311D01*
X14959098Y-57370606D01*
X14949300Y-57407171D01*
X14949300Y-62432945D01*
X14929615Y-62499984D01*
X14912981Y-62520626D01*
X14620426Y-62813181D01*
X14559103Y-62846666D01*
X14532745Y-62849500D01*
X13206898Y-62849500D01*
X13167853Y-62854188D01*
X13118438Y-62860122D01*
X12977656Y-62915639D01*
X12857077Y-63007077D01*
X12765639Y-63127656D01*
X12710122Y-63268438D01*
X12704188Y-63317853D01*
X12699500Y-63356898D01*
X12699500Y-64643102D01*
X12703586Y-64677127D01*
X12710122Y-64731561D01*
X12765639Y-64872343D01*
X12857077Y-64992922D01*
X12977656Y-65084360D01*
X12977657Y-65084360D01*
X12977658Y-65084361D01*
X13118436Y-65139877D01*
X13206898Y-65150500D01*
X13206903Y-65150500D01*
X14793097Y-65150500D01*
X14793102Y-65150500D01*
X14881564Y-65139877D01*
X15022342Y-65084361D01*
X15142922Y-64992922D01*
X15234361Y-64872342D01*
X15289877Y-64731564D01*
X15300500Y-64643102D01*
X15300500Y-63356898D01*
X15297929Y-63335493D01*
X15309478Y-63266589D01*
X15333360Y-63233031D01*
X15670280Y-62896113D01*
X15721779Y-62806914D01*
X15723007Y-62804787D01*
X15750300Y-62702927D01*
X15750300Y-57989448D01*
X20309500Y-57989448D01*
X20309500Y-58170551D01*
X20337829Y-58349410D01*
X20393787Y-58521636D01*
X20393788Y-58521639D01*
X20476006Y-58682997D01*
X20582441Y-58829494D01*
X20582445Y-58829499D01*
X20710500Y-58957554D01*
X20710505Y-58957558D01*
X20838287Y-59050396D01*
X20857006Y-59063996D01*
X20962484Y-59117740D01*
X21018360Y-59146211D01*
X21018363Y-59146212D01*
X21104476Y-59174191D01*
X21190591Y-59202171D01*
X21263639Y-59213740D01*
X21350678Y-59227527D01*
X21413813Y-59257456D01*
X21450744Y-59316768D01*
X21449746Y-59386631D01*
X21411136Y-59444863D01*
X21350678Y-59472473D01*
X21190589Y-59497829D01*
X21018363Y-59553787D01*
X21018360Y-59553788D01*
X20857002Y-59636006D01*
X20710505Y-59742441D01*
X20710500Y-59742445D01*
X20582445Y-59870500D01*
X20582441Y-59870505D01*
X20476006Y-60017002D01*
X20393788Y-60178360D01*
X20393787Y-60178363D01*
X20337829Y-60350589D01*
X20309500Y-60529448D01*
X20309500Y-60710551D01*
X20337829Y-60889410D01*
X20393787Y-61061636D01*
X20393788Y-61061639D01*
X20476006Y-61222997D01*
X20582441Y-61369494D01*
X20582445Y-61369499D01*
X20710500Y-61497554D01*
X20710505Y-61497558D01*
X20838287Y-61590396D01*
X20857006Y-61603996D01*
X20962484Y-61657740D01*
X21018360Y-61686211D01*
X21018363Y-61686212D01*
X21104476Y-61714191D01*
X21190591Y-61742171D01*
X21263639Y-61753740D01*
X21350678Y-61767527D01*
X21413813Y-61797456D01*
X21450744Y-61856768D01*
X21449746Y-61926631D01*
X21411136Y-61984863D01*
X21350678Y-62012473D01*
X21190589Y-62037829D01*
X21018363Y-62093787D01*
X21018360Y-62093788D01*
X20857002Y-62176006D01*
X20710505Y-62282441D01*
X20710500Y-62282445D01*
X20582445Y-62410500D01*
X20582441Y-62410505D01*
X20476006Y-62557002D01*
X20393788Y-62718360D01*
X20393787Y-62718363D01*
X20337829Y-62890589D01*
X20309500Y-63069448D01*
X20309500Y-63250551D01*
X20337829Y-63429410D01*
X20393787Y-63601636D01*
X20393788Y-63601639D01*
X20476006Y-63762997D01*
X20582441Y-63909494D01*
X20582445Y-63909499D01*
X20710500Y-64037554D01*
X20710505Y-64037558D01*
X20807351Y-64107920D01*
X20857006Y-64143996D01*
X20962484Y-64197740D01*
X21018360Y-64226211D01*
X21018363Y-64226212D01*
X21054238Y-64237868D01*
X21190591Y-64282171D01*
X21263639Y-64293740D01*
X21350678Y-64307527D01*
X21413813Y-64337456D01*
X21450744Y-64396768D01*
X21449746Y-64466631D01*
X21411136Y-64524863D01*
X21350678Y-64552473D01*
X21190589Y-64577829D01*
X21018363Y-64633787D01*
X21018360Y-64633788D01*
X20857002Y-64716006D01*
X20710505Y-64822441D01*
X20710500Y-64822445D01*
X20582445Y-64950500D01*
X20582441Y-64950505D01*
X20476006Y-65097002D01*
X20393788Y-65258360D01*
X20393787Y-65258363D01*
X20337829Y-65430589D01*
X20309500Y-65609448D01*
X20309500Y-65790551D01*
X20337829Y-65969410D01*
X20393787Y-66141636D01*
X20393788Y-66141639D01*
X20449664Y-66251300D01*
X20469125Y-66289494D01*
X20476006Y-66302997D01*
X20582441Y-66449494D01*
X20582445Y-66449499D01*
X20710500Y-66577554D01*
X20710505Y-66577558D01*
X20826965Y-66662170D01*
X20857006Y-66683996D01*
X20962484Y-66737740D01*
X21018360Y-66766211D01*
X21018363Y-66766212D01*
X21104476Y-66794191D01*
X21190591Y-66822171D01*
X21263639Y-66833740D01*
X21350678Y-66847527D01*
X21413813Y-66877456D01*
X21450744Y-66936768D01*
X21449746Y-67006631D01*
X21411136Y-67064863D01*
X21350678Y-67092473D01*
X21190589Y-67117829D01*
X21018363Y-67173787D01*
X21018360Y-67173788D01*
X20857002Y-67256006D01*
X20710505Y-67362441D01*
X20710500Y-67362445D01*
X20582445Y-67490500D01*
X20582441Y-67490505D01*
X20476006Y-67637002D01*
X20393788Y-67798360D01*
X20393787Y-67798363D01*
X20337829Y-67970589D01*
X20309500Y-68149448D01*
X20309500Y-68330551D01*
X20337829Y-68509410D01*
X20393787Y-68681636D01*
X20393788Y-68681639D01*
X20476006Y-68842997D01*
X20582441Y-68989494D01*
X20582445Y-68989499D01*
X20710500Y-69117554D01*
X20710505Y-69117558D01*
X20838287Y-69210396D01*
X20857006Y-69223996D01*
X20962484Y-69277740D01*
X21018360Y-69306211D01*
X21018363Y-69306212D01*
X21104476Y-69334191D01*
X21190591Y-69362171D01*
X21273429Y-69375291D01*
X21369449Y-69390500D01*
X21369454Y-69390500D01*
X21550551Y-69390500D01*
X21637259Y-69376765D01*
X21729409Y-69362171D01*
X21901639Y-69306211D01*
X22062994Y-69223996D01*
X22209501Y-69117553D01*
X22337553Y-68989501D01*
X22443996Y-68842994D01*
X22526211Y-68681639D01*
X22582171Y-68509409D01*
X22596765Y-68417259D01*
X22610500Y-68330551D01*
X22610500Y-68149448D01*
X22594019Y-68045397D01*
X22582171Y-67970591D01*
X22526211Y-67798361D01*
X22526211Y-67798360D01*
X22497740Y-67742484D01*
X22443996Y-67637006D01*
X22430396Y-67618287D01*
X22337558Y-67490505D01*
X22337554Y-67490500D01*
X22209499Y-67362445D01*
X22209494Y-67362441D01*
X22062997Y-67256006D01*
X22062996Y-67256005D01*
X22062994Y-67256004D01*
X22011300Y-67229664D01*
X21901639Y-67173788D01*
X21901636Y-67173787D01*
X21729410Y-67117829D01*
X21569321Y-67092473D01*
X21506186Y-67062544D01*
X21469255Y-67003232D01*
X21470253Y-66933370D01*
X21508863Y-66875137D01*
X21569321Y-66847527D01*
X21639425Y-66836422D01*
X21729409Y-66822171D01*
X21901639Y-66766211D01*
X22062994Y-66683996D01*
X22209501Y-66577553D01*
X22337553Y-66449501D01*
X22443996Y-66302994D01*
X22526211Y-66141639D01*
X22582171Y-65969409D01*
X22607131Y-65811818D01*
X22610500Y-65790551D01*
X22610500Y-65609448D01*
X22591584Y-65490023D01*
X22582171Y-65430591D01*
X22550074Y-65331804D01*
X22526212Y-65258363D01*
X22526211Y-65258360D01*
X22493414Y-65193993D01*
X22443996Y-65097006D01*
X22423645Y-65068995D01*
X22337558Y-64950505D01*
X22337554Y-64950500D01*
X22329216Y-64942162D01*
X22209501Y-64822447D01*
X22195002Y-64811913D01*
X22194997Y-64811908D01*
X22062997Y-64716006D01*
X22062996Y-64716005D01*
X22062994Y-64716004D01*
X22011300Y-64689664D01*
X21901639Y-64633788D01*
X21901636Y-64633787D01*
X21729410Y-64577829D01*
X21569321Y-64552473D01*
X21506186Y-64522544D01*
X21469255Y-64463232D01*
X21470253Y-64393370D01*
X21508863Y-64335137D01*
X21569321Y-64307527D01*
X21729409Y-64282171D01*
X21780182Y-64265674D01*
X21873284Y-64235423D01*
X21943123Y-64233429D01*
X21999281Y-64265674D01*
X22407919Y-64674312D01*
X22407920Y-64674313D01*
X22482487Y-64748880D01*
X22573813Y-64801607D01*
X22675673Y-64828900D01*
X22781126Y-64828900D01*
X41350500Y-64828900D01*
X41417539Y-64848585D01*
X41463294Y-64901389D01*
X41474500Y-64952900D01*
X41474500Y-65322869D01*
X41474501Y-65322876D01*
X41480908Y-65382483D01*
X41531202Y-65517328D01*
X41531206Y-65517335D01*
X41617452Y-65632544D01*
X41617455Y-65632547D01*
X41732664Y-65718793D01*
X41732671Y-65718797D01*
X41777618Y-65735561D01*
X41867517Y-65769091D01*
X41927127Y-65775500D01*
X42332744Y-65775499D01*
X42399783Y-65795183D01*
X42420425Y-65811818D01*
X43427387Y-66818780D01*
X43518712Y-66871507D01*
X43620573Y-66898800D01*
X52281045Y-66898800D01*
X52348084Y-66918485D01*
X52368726Y-66935119D01*
X59813181Y-74379574D01*
X59846666Y-74440897D01*
X59849500Y-74467255D01*
X59849500Y-75793102D01*
X59855126Y-75839954D01*
X59860122Y-75881561D01*
X59915639Y-76022343D01*
X60007077Y-76142922D01*
X60127656Y-76234360D01*
X60127657Y-76234360D01*
X60127658Y-76234361D01*
X60268436Y-76289877D01*
X60356898Y-76300500D01*
X60356903Y-76300500D01*
X61643097Y-76300500D01*
X61643102Y-76300500D01*
X61731564Y-76289877D01*
X61872342Y-76234361D01*
X61992922Y-76142922D01*
X62084361Y-76022342D01*
X62139877Y-75881564D01*
X62150500Y-75793102D01*
X62150500Y-74206898D01*
X80849500Y-74206898D01*
X80849500Y-75793102D01*
X80855126Y-75839954D01*
X80860122Y-75881561D01*
X80915639Y-76022343D01*
X81007077Y-76142922D01*
X81127656Y-76234360D01*
X81127657Y-76234360D01*
X81127658Y-76234361D01*
X81268436Y-76289877D01*
X81356898Y-76300500D01*
X81356903Y-76300500D01*
X82643097Y-76300500D01*
X82643102Y-76300500D01*
X82731564Y-76289877D01*
X82872342Y-76234361D01*
X82992922Y-76142922D01*
X83084361Y-76022342D01*
X83139877Y-75881564D01*
X83150500Y-75793102D01*
X83150500Y-74206898D01*
X92849500Y-74206898D01*
X92849500Y-75793102D01*
X92855126Y-75839954D01*
X92860122Y-75881561D01*
X92915639Y-76022343D01*
X93007077Y-76142922D01*
X93127656Y-76234360D01*
X93127657Y-76234360D01*
X93127658Y-76234361D01*
X93268436Y-76289877D01*
X93356898Y-76300500D01*
X94117060Y-76300500D01*
X94184099Y-76320185D01*
X94204741Y-76336819D01*
X95111670Y-77243747D01*
X95111691Y-77243770D01*
X95227507Y-77359586D01*
X95227511Y-77359589D01*
X95358614Y-77447190D01*
X95358627Y-77447197D01*
X95504298Y-77507535D01*
X95504303Y-77507537D01*
X95504307Y-77507537D01*
X95504308Y-77507538D01*
X95658954Y-77538300D01*
X95658957Y-77538300D01*
X103341044Y-77538300D01*
X103341045Y-77538299D01*
X103495697Y-77507537D01*
X103641379Y-77447194D01*
X103772489Y-77359589D01*
X104795258Y-76336818D01*
X104856581Y-76303334D01*
X104882939Y-76300500D01*
X105643097Y-76300500D01*
X105643102Y-76300500D01*
X105731564Y-76289877D01*
X105872342Y-76234361D01*
X105992922Y-76142922D01*
X106084361Y-76022342D01*
X106139877Y-75881564D01*
X106150500Y-75793102D01*
X106150500Y-74206898D01*
X106139877Y-74118436D01*
X106084361Y-73977658D01*
X106084360Y-73977657D01*
X106084360Y-73977656D01*
X105992922Y-73857077D01*
X105872343Y-73765639D01*
X105731561Y-73710122D01*
X105685926Y-73704642D01*
X105643102Y-73699500D01*
X104356898Y-73699500D01*
X104317853Y-73704188D01*
X104268438Y-73710122D01*
X104127656Y-73765639D01*
X104007077Y-73857077D01*
X103915639Y-73977656D01*
X103860122Y-74118438D01*
X103854188Y-74167853D01*
X103849500Y-74206898D01*
X103849500Y-74206903D01*
X103849500Y-74967060D01*
X103829815Y-75034099D01*
X103813181Y-75054741D01*
X102966941Y-75900981D01*
X102905618Y-75934466D01*
X102879260Y-75937300D01*
X96120739Y-75937300D01*
X96053700Y-75917615D01*
X96033058Y-75900981D01*
X95186819Y-75054741D01*
X95153334Y-74993418D01*
X95150500Y-74967060D01*
X95150500Y-74206903D01*
X95150500Y-74206898D01*
X95139877Y-74118436D01*
X95084361Y-73977658D01*
X95084360Y-73977657D01*
X95084360Y-73977656D01*
X94992922Y-73857077D01*
X94872343Y-73765639D01*
X94731561Y-73710122D01*
X94685926Y-73704642D01*
X94643102Y-73699500D01*
X93356898Y-73699500D01*
X93317853Y-73704188D01*
X93268438Y-73710122D01*
X93127656Y-73765639D01*
X93007077Y-73857077D01*
X92915639Y-73977656D01*
X92860122Y-74118438D01*
X92854188Y-74167853D01*
X92849500Y-74206898D01*
X83150500Y-74206898D01*
X83139877Y-74118436D01*
X83084361Y-73977658D01*
X83084360Y-73977657D01*
X83084360Y-73977656D01*
X82992922Y-73857077D01*
X82872343Y-73765639D01*
X82731561Y-73710122D01*
X82685926Y-73704642D01*
X82643102Y-73699500D01*
X81356898Y-73699500D01*
X81317853Y-73704188D01*
X81268438Y-73710122D01*
X81127656Y-73765639D01*
X81007077Y-73857077D01*
X80915639Y-73977656D01*
X80860122Y-74118438D01*
X80854188Y-74167853D01*
X80849500Y-74206898D01*
X62150500Y-74206898D01*
X62139877Y-74118436D01*
X62084361Y-73977658D01*
X62084360Y-73977657D01*
X62084360Y-73977656D01*
X61992922Y-73857077D01*
X61872343Y-73765639D01*
X61731561Y-73710122D01*
X61685926Y-73704642D01*
X61643102Y-73699500D01*
X60356898Y-73699500D01*
X60335487Y-73702070D01*
X60266579Y-73690516D01*
X60233028Y-73666635D01*
X52744215Y-66177822D01*
X52744213Y-66177820D01*
X52698550Y-66151456D01*
X52652889Y-66125093D01*
X52601957Y-66111446D01*
X52551027Y-66097800D01*
X52551026Y-66097800D01*
X43890555Y-66097800D01*
X43823516Y-66078115D01*
X43802874Y-66061481D01*
X43728573Y-65987180D01*
X43695088Y-65925857D01*
X43700072Y-65856165D01*
X43741944Y-65800232D01*
X43807408Y-65775815D01*
X43816239Y-65775499D01*
X44072872Y-65775499D01*
X44132483Y-65769091D01*
X44267331Y-65718796D01*
X44382546Y-65632546D01*
X44382545Y-65632546D01*
X44386595Y-65629515D01*
X44452059Y-65605097D01*
X44516138Y-65618737D01*
X44516260Y-65618444D01*
X44517847Y-65619101D01*
X44519362Y-65619424D01*
X44521895Y-65620778D01*
X44638583Y-65669111D01*
X44649372Y-65673580D01*
X44649376Y-65673580D01*
X44649377Y-65673581D01*
X44784704Y-65700500D01*
X44784707Y-65700500D01*
X44922695Y-65700500D01*
X45013741Y-65682389D01*
X45058028Y-65673580D01*
X45185511Y-65620775D01*
X45300242Y-65544114D01*
X45397814Y-65446542D01*
X45474475Y-65331811D01*
X45475504Y-65329328D01*
X45514724Y-65234640D01*
X45527280Y-65204328D01*
X45529335Y-65193995D01*
X67649499Y-65193995D01*
X67676418Y-65329322D01*
X67676421Y-65329332D01*
X67729221Y-65456804D01*
X67729228Y-65456817D01*
X67805885Y-65571541D01*
X67805888Y-65571545D01*
X67903454Y-65669111D01*
X67903458Y-65669114D01*
X68018182Y-65745771D01*
X68018195Y-65745778D01*
X68090712Y-65775815D01*
X68145672Y-65798580D01*
X68145676Y-65798580D01*
X68145677Y-65798581D01*
X68281004Y-65825500D01*
X68281007Y-65825500D01*
X68291324Y-65825500D01*
X68358363Y-65845185D01*
X68379005Y-65861819D01*
X68438181Y-65920995D01*
X68471666Y-65982318D01*
X68474500Y-66008676D01*
X68474500Y-66291144D01*
X68479825Y-66335494D01*
X68484640Y-66375588D01*
X68537636Y-66509976D01*
X68624921Y-66625078D01*
X68740023Y-66712363D01*
X68740024Y-66712363D01*
X68740025Y-66712364D01*
X68874410Y-66765359D01*
X68958856Y-66775500D01*
X68958862Y-66775500D01*
X69491138Y-66775500D01*
X69491144Y-66775500D01*
X69575590Y-66765359D01*
X69709975Y-66712364D01*
X69825078Y-66625078D01*
X69912364Y-66509975D01*
X69965359Y-66375590D01*
X69975500Y-66291144D01*
X69975500Y-65708856D01*
X69965359Y-65624410D01*
X69912364Y-65490025D01*
X69912363Y-65490024D01*
X69912363Y-65490023D01*
X69825078Y-65374921D01*
X69709976Y-65287636D01*
X69575588Y-65234640D01*
X69532242Y-65229435D01*
X69491144Y-65224500D01*
X69491138Y-65224500D01*
X69257676Y-65224500D01*
X69190637Y-65204815D01*
X69144882Y-65152011D01*
X69134938Y-65082853D01*
X69163963Y-65019297D01*
X69169995Y-65012819D01*
X70645895Y-63536919D01*
X70707218Y-63503434D01*
X70733576Y-63500600D01*
X82725501Y-63500600D01*
X82792540Y-63520285D01*
X82838295Y-63573089D01*
X82849501Y-63624600D01*
X82849501Y-63894856D01*
X82849502Y-63894882D01*
X82852413Y-63919987D01*
X82852415Y-63919991D01*
X82897793Y-64022764D01*
X82897794Y-64022765D01*
X82977235Y-64102206D01*
X83080009Y-64147585D01*
X83105135Y-64150500D01*
X83842873Y-64150499D01*
X83909910Y-64170183D01*
X83955665Y-64222987D01*
X83965609Y-64292146D01*
X83936584Y-64355702D01*
X83877806Y-64393476D01*
X83862270Y-64396972D01*
X83730589Y-64417829D01*
X83558363Y-64473787D01*
X83558360Y-64473788D01*
X83397002Y-64556006D01*
X83250505Y-64662441D01*
X83250500Y-64662445D01*
X83122445Y-64790500D01*
X83122441Y-64790505D01*
X83016006Y-64937002D01*
X82933788Y-65098360D01*
X82933787Y-65098363D01*
X82877829Y-65270589D01*
X82849500Y-65449448D01*
X82849500Y-65630551D01*
X82877829Y-65809410D01*
X82933787Y-65981636D01*
X82933788Y-65981639D01*
X82974471Y-66061481D01*
X83015312Y-66141636D01*
X83016006Y-66142997D01*
X83122441Y-66289494D01*
X83122445Y-66289499D01*
X83250500Y-66417554D01*
X83250505Y-66417558D01*
X83364665Y-66500499D01*
X83397006Y-66523996D01*
X83502117Y-66577553D01*
X83558360Y-66606211D01*
X83558363Y-66606212D01*
X83644476Y-66634191D01*
X83730591Y-66662171D01*
X83813429Y-66675291D01*
X83909449Y-66690500D01*
X83909454Y-66690500D01*
X84090551Y-66690500D01*
X84177259Y-66676765D01*
X84269409Y-66662171D01*
X84441639Y-66606211D01*
X84602994Y-66523996D01*
X84749501Y-66417553D01*
X84877553Y-66289501D01*
X84983996Y-66142994D01*
X85066211Y-65981639D01*
X85122171Y-65809409D01*
X85138097Y-65708856D01*
X85150500Y-65630551D01*
X85150500Y-65449448D01*
X85131866Y-65331804D01*
X85122171Y-65270591D01*
X85077825Y-65134106D01*
X85066212Y-65098363D01*
X85066211Y-65098360D01*
X85037740Y-65042484D01*
X84983996Y-64937006D01*
X84905453Y-64828900D01*
X84877558Y-64790505D01*
X84877554Y-64790500D01*
X84749499Y-64662445D01*
X84749494Y-64662441D01*
X84602997Y-64556006D01*
X84602996Y-64556005D01*
X84602994Y-64556004D01*
X84541877Y-64524863D01*
X84441639Y-64473788D01*
X84441636Y-64473787D01*
X84269410Y-64417829D01*
X84137728Y-64396972D01*
X84074594Y-64367042D01*
X84037663Y-64307731D01*
X84038661Y-64237868D01*
X84077271Y-64179636D01*
X84141235Y-64151522D01*
X84157120Y-64150499D01*
X84894864Y-64150499D01*
X84894879Y-64150497D01*
X84894882Y-64150497D01*
X84919987Y-64147586D01*
X84919988Y-64147585D01*
X84919991Y-64147585D01*
X85022765Y-64102206D01*
X85102206Y-64022765D01*
X85109211Y-64006900D01*
X106499500Y-64006900D01*
X106499500Y-65993091D01*
X106510123Y-66081562D01*
X106565639Y-66222342D01*
X106565640Y-66222344D01*
X106657077Y-66342922D01*
X106755500Y-66417558D01*
X106777658Y-66434361D01*
X106918436Y-66489876D01*
X107006901Y-66500500D01*
X108993098Y-66500499D01*
X109081564Y-66489876D01*
X109222342Y-66434361D01*
X109342922Y-66342922D01*
X109434361Y-66222342D01*
X109489876Y-66081564D01*
X109500500Y-65993099D01*
X109500499Y-64006902D01*
X109489876Y-63918436D01*
X109434361Y-63777658D01*
X109434359Y-63777655D01*
X109342922Y-63657077D01*
X109222344Y-63565640D01*
X109222342Y-63565639D01*
X109081564Y-63510124D01*
X109081561Y-63510123D01*
X108993099Y-63499500D01*
X107006908Y-63499500D01*
X106918437Y-63510123D01*
X106777657Y-63565639D01*
X106777655Y-63565640D01*
X106657077Y-63657077D01*
X106565640Y-63777655D01*
X106565639Y-63777658D01*
X106513648Y-63909501D01*
X106510124Y-63918437D01*
X106510123Y-63918438D01*
X106499500Y-64006900D01*
X85109211Y-64006900D01*
X85147585Y-63919991D01*
X85150500Y-63894865D01*
X85150500Y-63624500D01*
X85170185Y-63557461D01*
X85222989Y-63511706D01*
X85274500Y-63500500D01*
X85317590Y-63500500D01*
X85317592Y-63500500D01*
X85444886Y-63466392D01*
X85559014Y-63400500D01*
X86422695Y-62536819D01*
X86484018Y-62503334D01*
X86510376Y-62500500D01*
X92575500Y-62500500D01*
X92642539Y-62520185D01*
X92688294Y-62572989D01*
X92699500Y-62624500D01*
X92699500Y-62793102D01*
X92705126Y-62839954D01*
X92710122Y-62881561D01*
X92710122Y-62881563D01*
X92710123Y-62881564D01*
X92715861Y-62896115D01*
X92765639Y-63022343D01*
X92857077Y-63142922D01*
X92977656Y-63234360D01*
X92977657Y-63234360D01*
X92977658Y-63234361D01*
X93118436Y-63289877D01*
X93206898Y-63300500D01*
X93206903Y-63300500D01*
X94793097Y-63300500D01*
X94793102Y-63300500D01*
X94881564Y-63289877D01*
X95022342Y-63234361D01*
X95142922Y-63142922D01*
X95234361Y-63022342D01*
X95289877Y-62881564D01*
X95300500Y-62793102D01*
X95300500Y-61206898D01*
X95289877Y-61118436D01*
X95234361Y-60977658D01*
X95234360Y-60977657D01*
X95234360Y-60977656D01*
X95142922Y-60857077D01*
X95022343Y-60765639D01*
X94882649Y-60710551D01*
X94881564Y-60710123D01*
X94881563Y-60710122D01*
X94881561Y-60710122D01*
X94835926Y-60704642D01*
X94793102Y-60699500D01*
X93206898Y-60699500D01*
X93167853Y-60704188D01*
X93118438Y-60710122D01*
X92977656Y-60765639D01*
X92857077Y-60857077D01*
X92765639Y-60977656D01*
X92710122Y-61118438D01*
X92704188Y-61167853D01*
X92699500Y-61206898D01*
X92699500Y-61206903D01*
X92699500Y-61375500D01*
X92679815Y-61442539D01*
X92627011Y-61488294D01*
X92575500Y-61499500D01*
X86185808Y-61499500D01*
X86058512Y-61533608D01*
X85944386Y-61599500D01*
X85944383Y-61599502D01*
X85361768Y-62182116D01*
X85300445Y-62215601D01*
X85230753Y-62210617D01*
X85174820Y-62168745D01*
X85152358Y-62108524D01*
X85150912Y-62108692D01*
X85147586Y-62080012D01*
X85147585Y-62080010D01*
X85147585Y-62080009D01*
X85102206Y-61977235D01*
X85022765Y-61897794D01*
X85022763Y-61897793D01*
X84919992Y-61852415D01*
X84894865Y-61849500D01*
X83105143Y-61849500D01*
X83105117Y-61849502D01*
X83080012Y-61852413D01*
X83080008Y-61852415D01*
X82977235Y-61897793D01*
X82897794Y-61977234D01*
X82852415Y-62080006D01*
X82852415Y-62080008D01*
X82849500Y-62105131D01*
X82849500Y-62375500D01*
X82829815Y-62442539D01*
X82777011Y-62488294D01*
X82725500Y-62499500D01*
X82675042Y-62499500D01*
X82673517Y-62499600D01*
X70409007Y-62499600D01*
X70282078Y-62533610D01*
X70281715Y-62533706D01*
X70281713Y-62533708D01*
X70167589Y-62599598D01*
X70167583Y-62599602D01*
X68379005Y-64388181D01*
X68317682Y-64421666D01*
X68291324Y-64424500D01*
X68281005Y-64424500D01*
X68145677Y-64451418D01*
X68145667Y-64451421D01*
X68018195Y-64504221D01*
X68018182Y-64504228D01*
X67903458Y-64580885D01*
X67903454Y-64580888D01*
X67805888Y-64678454D01*
X67805885Y-64678458D01*
X67729228Y-64793182D01*
X67729221Y-64793195D01*
X67676421Y-64920667D01*
X67676418Y-64920677D01*
X67649500Y-65056004D01*
X67649500Y-65056007D01*
X67649500Y-65193993D01*
X67649500Y-65193995D01*
X67649499Y-65193995D01*
X45529335Y-65193995D01*
X45541248Y-65134106D01*
X45554200Y-65068995D01*
X45554200Y-64931004D01*
X45527281Y-64795677D01*
X45527280Y-64795676D01*
X45527280Y-64795672D01*
X45500726Y-64731564D01*
X45474478Y-64668195D01*
X45474471Y-64668182D01*
X45397814Y-64553458D01*
X45397811Y-64553454D01*
X45300245Y-64455888D01*
X45300241Y-64455885D01*
X45185517Y-64379228D01*
X45185504Y-64379221D01*
X45058032Y-64326421D01*
X45058022Y-64326418D01*
X44922695Y-64299500D01*
X44922693Y-64299500D01*
X44784707Y-64299500D01*
X44784705Y-64299500D01*
X44649377Y-64326418D01*
X44649371Y-64326420D01*
X44521879Y-64379228D01*
X44519346Y-64380583D01*
X44517869Y-64380890D01*
X44516262Y-64381556D01*
X44516135Y-64381251D01*
X44450941Y-64394817D01*
X44386595Y-64370485D01*
X44327733Y-64326421D01*
X44267331Y-64281204D01*
X44267329Y-64281203D01*
X44267328Y-64281202D01*
X44132486Y-64230910D01*
X44132485Y-64230909D01*
X44132483Y-64230909D01*
X44072873Y-64224500D01*
X44072863Y-64224500D01*
X43577129Y-64224500D01*
X43577123Y-64224501D01*
X43517516Y-64230908D01*
X43382671Y-64281202D01*
X43382664Y-64281206D01*
X43267455Y-64367452D01*
X43267452Y-64367455D01*
X43181206Y-64482664D01*
X43181202Y-64482671D01*
X43130910Y-64617513D01*
X43130909Y-64617517D01*
X43124500Y-64677127D01*
X43124500Y-64677134D01*
X43124500Y-64677135D01*
X43124500Y-65083745D01*
X43104815Y-65150784D01*
X43052011Y-65196539D01*
X42982853Y-65206483D01*
X42919297Y-65177458D01*
X42912819Y-65171426D01*
X42911818Y-65170425D01*
X42878333Y-65109102D01*
X42875499Y-65082744D01*
X42875499Y-64677129D01*
X42875498Y-64677123D01*
X42874538Y-64668195D01*
X42869091Y-64617517D01*
X42855429Y-64580888D01*
X42818797Y-64482671D01*
X42818793Y-64482664D01*
X42732547Y-64367455D01*
X42732544Y-64367452D01*
X42617335Y-64281206D01*
X42617328Y-64281202D01*
X42482482Y-64230908D01*
X42482483Y-64230908D01*
X42422883Y-64224501D01*
X42422881Y-64224500D01*
X42422873Y-64224500D01*
X42422865Y-64224500D01*
X42017255Y-64224500D01*
X41950216Y-64204815D01*
X41929574Y-64188181D01*
X41849315Y-64107922D01*
X41849313Y-64107920D01*
X41803650Y-64081556D01*
X41757989Y-64055193D01*
X41692153Y-64037553D01*
X41656127Y-64027900D01*
X41656126Y-64027900D01*
X25034895Y-64027900D01*
X24967856Y-64008215D01*
X24922101Y-63955411D01*
X24912157Y-63886253D01*
X24934577Y-63831015D01*
X24973342Y-63777658D01*
X24983996Y-63762994D01*
X25066211Y-63601639D01*
X25122171Y-63429409D01*
X25144271Y-63289877D01*
X25150500Y-63250551D01*
X25150500Y-63069448D01*
X25126138Y-62915639D01*
X25122171Y-62890591D01*
X25090495Y-62793102D01*
X25066212Y-62718363D01*
X25066211Y-62718360D01*
X25018386Y-62624500D01*
X24983996Y-62557006D01*
X24942942Y-62500500D01*
X24877558Y-62410505D01*
X24877554Y-62410500D01*
X24749499Y-62282445D01*
X24749494Y-62282441D01*
X24602997Y-62176006D01*
X24602996Y-62176005D01*
X24602994Y-62176004D01*
X24551300Y-62149664D01*
X24441639Y-62093788D01*
X24441636Y-62093787D01*
X24269410Y-62037829D01*
X24109321Y-62012473D01*
X24046186Y-61982544D01*
X24009255Y-61923232D01*
X24010253Y-61853370D01*
X24048863Y-61795137D01*
X24109321Y-61767527D01*
X24179425Y-61756422D01*
X24269409Y-61742171D01*
X24441639Y-61686211D01*
X24602994Y-61603996D01*
X24749501Y-61497553D01*
X24877553Y-61369501D01*
X24983996Y-61222994D01*
X25066211Y-61061639D01*
X25122171Y-60889409D01*
X25141774Y-60765639D01*
X25150500Y-60710551D01*
X25150500Y-60529448D01*
X25134019Y-60425397D01*
X25122171Y-60350591D01*
X25075424Y-60206716D01*
X25073429Y-60136875D01*
X25105672Y-60080719D01*
X27645574Y-57540819D01*
X27706897Y-57507334D01*
X27733255Y-57504500D01*
X35138153Y-57504500D01*
X35205192Y-57524185D01*
X35230127Y-57546385D01*
X35230278Y-57546235D01*
X35232864Y-57548821D01*
X35234013Y-57549844D01*
X35234589Y-57550546D01*
X35332154Y-57648111D01*
X35332158Y-57648114D01*
X35446882Y-57724771D01*
X35446895Y-57724778D01*
X35574367Y-57777578D01*
X35574372Y-57777580D01*
X35574376Y-57777580D01*
X35574377Y-57777581D01*
X35709704Y-57804500D01*
X35709707Y-57804500D01*
X35847695Y-57804500D01*
X35938741Y-57786389D01*
X35983028Y-57777580D01*
X36110511Y-57724775D01*
X36225242Y-57648114D01*
X36322814Y-57550542D01*
X36399475Y-57435811D01*
X36452280Y-57308328D01*
X36462789Y-57255495D01*
X76660999Y-57255495D01*
X76687918Y-57390822D01*
X76687921Y-57390832D01*
X76740721Y-57518304D01*
X76740728Y-57518317D01*
X76817385Y-57633041D01*
X76817388Y-57633045D01*
X76914954Y-57730611D01*
X76914958Y-57730614D01*
X77029682Y-57807271D01*
X77029695Y-57807278D01*
X77157167Y-57860078D01*
X77157172Y-57860080D01*
X77157176Y-57860080D01*
X77157177Y-57860081D01*
X77292504Y-57887000D01*
X77350500Y-57887000D01*
X77417539Y-57906685D01*
X77463294Y-57959489D01*
X77474500Y-58011000D01*
X77474500Y-58322869D01*
X77474501Y-58322876D01*
X77480908Y-58382483D01*
X77531202Y-58517328D01*
X77531206Y-58517335D01*
X77617452Y-58632544D01*
X77617455Y-58632547D01*
X77732664Y-58718793D01*
X77732671Y-58718797D01*
X77777618Y-58735561D01*
X77867517Y-58769091D01*
X77927127Y-58775500D01*
X78422872Y-58775499D01*
X78482483Y-58769091D01*
X78617331Y-58718796D01*
X78732546Y-58632546D01*
X78818796Y-58517331D01*
X78869091Y-58382483D01*
X78875500Y-58322873D01*
X78875499Y-57677128D01*
X78869091Y-57617517D01*
X78844112Y-57550546D01*
X78818797Y-57482671D01*
X78818793Y-57482664D01*
X78732547Y-57367455D01*
X78732544Y-57367452D01*
X78617335Y-57281206D01*
X78617328Y-57281202D01*
X78482482Y-57230908D01*
X78482483Y-57230908D01*
X78422883Y-57224501D01*
X78422881Y-57224500D01*
X78422873Y-57224500D01*
X78422865Y-57224500D01*
X78184925Y-57224500D01*
X78117886Y-57204815D01*
X78072131Y-57152011D01*
X78064379Y-57123245D01*
X78063189Y-57123482D01*
X78035081Y-56982177D01*
X78035080Y-56982176D01*
X78035080Y-56982172D01*
X78000908Y-56899672D01*
X77982278Y-56854695D01*
X77982271Y-56854682D01*
X77905614Y-56739958D01*
X77905611Y-56739954D01*
X77808045Y-56642388D01*
X77808041Y-56642385D01*
X77693317Y-56565728D01*
X77693304Y-56565721D01*
X77565832Y-56512921D01*
X77565822Y-56512918D01*
X77430495Y-56486000D01*
X77430493Y-56486000D01*
X77292507Y-56486000D01*
X77292505Y-56486000D01*
X77157177Y-56512918D01*
X77157167Y-56512921D01*
X77029695Y-56565721D01*
X77029682Y-56565728D01*
X76914958Y-56642385D01*
X76914954Y-56642388D01*
X76817388Y-56739954D01*
X76817385Y-56739958D01*
X76740728Y-56854682D01*
X76740721Y-56854695D01*
X76687921Y-56982167D01*
X76687918Y-56982177D01*
X76661000Y-57117504D01*
X76661000Y-57117507D01*
X76661000Y-57255493D01*
X76661000Y-57255495D01*
X76660999Y-57255495D01*
X36462789Y-57255495D01*
X36467680Y-57230908D01*
X36479200Y-57172995D01*
X36479200Y-57035004D01*
X36452281Y-56899677D01*
X36452280Y-56899676D01*
X36452280Y-56899672D01*
X36433650Y-56854695D01*
X36399478Y-56772195D01*
X36399471Y-56772182D01*
X36322814Y-56657458D01*
X36322811Y-56657454D01*
X36225245Y-56559888D01*
X36225241Y-56559885D01*
X36110517Y-56483228D01*
X36110504Y-56483221D01*
X35983032Y-56430421D01*
X35983022Y-56430418D01*
X35847695Y-56403500D01*
X35847693Y-56403500D01*
X35709707Y-56403500D01*
X35709705Y-56403500D01*
X35574377Y-56430418D01*
X35574367Y-56430421D01*
X35446895Y-56483221D01*
X35446882Y-56483228D01*
X35332158Y-56559885D01*
X35332154Y-56559888D01*
X35234589Y-56657453D01*
X35234013Y-56658156D01*
X35233617Y-56658425D01*
X35230278Y-56661765D01*
X35229644Y-56661131D01*
X35176271Y-56697496D01*
X35138153Y-56703500D01*
X27463273Y-56703500D01*
X27361410Y-56730793D01*
X27270087Y-56783520D01*
X27270084Y-56783522D01*
X25070903Y-58982702D01*
X24539280Y-59514325D01*
X24477957Y-59547810D01*
X24413281Y-59544575D01*
X24269410Y-59497829D01*
X24109321Y-59472473D01*
X24046186Y-59442544D01*
X24009255Y-59383232D01*
X24010253Y-59313370D01*
X24048863Y-59255137D01*
X24109321Y-59227527D01*
X24179425Y-59216422D01*
X24269409Y-59202171D01*
X24441639Y-59146211D01*
X24602994Y-59063996D01*
X24749501Y-58957553D01*
X24877553Y-58829501D01*
X24983996Y-58682994D01*
X25066211Y-58521639D01*
X25122171Y-58349409D01*
X25136765Y-58257259D01*
X25150500Y-58170551D01*
X25150500Y-57989448D01*
X25130009Y-57860078D01*
X25122171Y-57810591D01*
X25078807Y-57677128D01*
X25066212Y-57638363D01*
X25066211Y-57638360D01*
X25037740Y-57582484D01*
X24983996Y-57477006D01*
X24933258Y-57407171D01*
X24877558Y-57330505D01*
X24877554Y-57330500D01*
X24749499Y-57202445D01*
X24749494Y-57202441D01*
X24602997Y-57096006D01*
X24602996Y-57096005D01*
X24602994Y-57096004D01*
X24551300Y-57069664D01*
X24441639Y-57013788D01*
X24441636Y-57013787D01*
X24269410Y-56957829D01*
X24109321Y-56932473D01*
X24046186Y-56902544D01*
X24009255Y-56843232D01*
X24010253Y-56773370D01*
X24048863Y-56715137D01*
X24109321Y-56687527D01*
X24179425Y-56676422D01*
X24269409Y-56662171D01*
X24441639Y-56606211D01*
X24602994Y-56523996D01*
X24749501Y-56417553D01*
X24877553Y-56289501D01*
X24983996Y-56142994D01*
X25066211Y-55981639D01*
X25122171Y-55809409D01*
X25136765Y-55717259D01*
X25150500Y-55630551D01*
X25150500Y-55449448D01*
X25134019Y-55345397D01*
X25122171Y-55270591D01*
X25066211Y-55098361D01*
X25066211Y-55098360D01*
X25037740Y-55042484D01*
X24983996Y-54937006D01*
X24970396Y-54918287D01*
X24877558Y-54790505D01*
X24877554Y-54790500D01*
X24749499Y-54662445D01*
X24749494Y-54662441D01*
X24602997Y-54556006D01*
X24602996Y-54556005D01*
X24602994Y-54556004D01*
X24551300Y-54529664D01*
X24441639Y-54473788D01*
X24441636Y-54473787D01*
X24269410Y-54417829D01*
X24137728Y-54396972D01*
X24074594Y-54367042D01*
X24037663Y-54307731D01*
X24038661Y-54237868D01*
X24077271Y-54179636D01*
X24141235Y-54151522D01*
X24157120Y-54150499D01*
X24894864Y-54150499D01*
X24894879Y-54150497D01*
X24894882Y-54150497D01*
X24919987Y-54147586D01*
X24919988Y-54147585D01*
X24919991Y-54147585D01*
X25022765Y-54102206D01*
X25102206Y-54022765D01*
X25147585Y-53919991D01*
X25150500Y-53894865D01*
X25150500Y-53524500D01*
X25170185Y-53457461D01*
X25222989Y-53411706D01*
X25274500Y-53400500D01*
X47832725Y-53400500D01*
X47832727Y-53400500D01*
X47934588Y-53373207D01*
X48025913Y-53320480D01*
X49669266Y-51677127D01*
X77474500Y-51677127D01*
X77474500Y-51677134D01*
X77474500Y-51677135D01*
X77474500Y-52322870D01*
X77474501Y-52322876D01*
X77480908Y-52382483D01*
X77531202Y-52517328D01*
X77531206Y-52517335D01*
X77617452Y-52632544D01*
X77617455Y-52632547D01*
X77732664Y-52718793D01*
X77732671Y-52718797D01*
X77777618Y-52735561D01*
X77867517Y-52769091D01*
X77927127Y-52775500D01*
X78422872Y-52775499D01*
X78482483Y-52769091D01*
X78617331Y-52718796D01*
X78732546Y-52632546D01*
X78818796Y-52517331D01*
X78869091Y-52382483D01*
X78875500Y-52322873D01*
X78875499Y-51999499D01*
X78895183Y-51932461D01*
X78947987Y-51886706D01*
X78999499Y-51875500D01*
X79068995Y-51875500D01*
X79185058Y-51852413D01*
X79204328Y-51848580D01*
X79331811Y-51795775D01*
X79446542Y-51719114D01*
X79544114Y-51621542D01*
X79544117Y-51621537D01*
X79544687Y-51620844D01*
X79545082Y-51620574D01*
X79548422Y-51617235D01*
X79549055Y-51617868D01*
X79602429Y-51581504D01*
X79640547Y-51575500D01*
X95894445Y-51575500D01*
X95961484Y-51595185D01*
X95982126Y-51611819D01*
X99690787Y-55320480D01*
X99782112Y-55373207D01*
X99883973Y-55400500D01*
X99989427Y-55400500D01*
X106600500Y-55400500D01*
X106667539Y-55420185D01*
X106713294Y-55472989D01*
X106724500Y-55524500D01*
X106724500Y-55643102D01*
X106730126Y-55689954D01*
X106735122Y-55731561D01*
X106790639Y-55872343D01*
X106882077Y-55992922D01*
X107002656Y-56084360D01*
X107002657Y-56084360D01*
X107002658Y-56084361D01*
X107143436Y-56139877D01*
X107231898Y-56150500D01*
X107231903Y-56150500D01*
X108768097Y-56150500D01*
X108768102Y-56150500D01*
X108856564Y-56139877D01*
X108997342Y-56084361D01*
X109117922Y-55992922D01*
X109209361Y-55872342D01*
X109264877Y-55731564D01*
X109275500Y-55643102D01*
X109275500Y-54356898D01*
X109264877Y-54268436D01*
X109209361Y-54127658D01*
X109209360Y-54127657D01*
X109209360Y-54127656D01*
X109117922Y-54007077D01*
X108997343Y-53915639D01*
X108901192Y-53877722D01*
X108856564Y-53860123D01*
X108856563Y-53860122D01*
X108856561Y-53860122D01*
X108810926Y-53854642D01*
X108768102Y-53849500D01*
X107231898Y-53849500D01*
X107192853Y-53854188D01*
X107143438Y-53860122D01*
X107002656Y-53915639D01*
X106882077Y-54007077D01*
X106790639Y-54127656D01*
X106735122Y-54268438D01*
X106730404Y-54307731D01*
X106724500Y-54356898D01*
X106724500Y-54356903D01*
X106724500Y-54475500D01*
X106704815Y-54542539D01*
X106652011Y-54588294D01*
X106600500Y-54599500D01*
X100153955Y-54599500D01*
X100086916Y-54579815D01*
X100066274Y-54563181D01*
X96357615Y-50854522D01*
X96357613Y-50854520D01*
X96311950Y-50828156D01*
X96266289Y-50801793D01*
X96215357Y-50788146D01*
X96164427Y-50774500D01*
X96164426Y-50774500D01*
X79640547Y-50774500D01*
X79573508Y-50754815D01*
X79548572Y-50732614D01*
X79548422Y-50732765D01*
X79545835Y-50730178D01*
X79544687Y-50729156D01*
X79544110Y-50728453D01*
X79446545Y-50630888D01*
X79446541Y-50630885D01*
X79331817Y-50554228D01*
X79331804Y-50554221D01*
X79204332Y-50501421D01*
X79204322Y-50501418D01*
X79068995Y-50474500D01*
X79068993Y-50474500D01*
X78931007Y-50474500D01*
X78931005Y-50474500D01*
X78795677Y-50501418D01*
X78795667Y-50501421D01*
X78668195Y-50554221D01*
X78668182Y-50554228D01*
X78553458Y-50630885D01*
X78553454Y-50630888D01*
X78455888Y-50728454D01*
X78455885Y-50728458D01*
X78379228Y-50843182D01*
X78379221Y-50843195D01*
X78326421Y-50970667D01*
X78326418Y-50970677D01*
X78299499Y-51106004D01*
X78298903Y-51112067D01*
X78296182Y-51111799D01*
X78279815Y-51167539D01*
X78227011Y-51213294D01*
X78175500Y-51224500D01*
X77927130Y-51224500D01*
X77927123Y-51224501D01*
X77867516Y-51230908D01*
X77732671Y-51281202D01*
X77732664Y-51281206D01*
X77617455Y-51367452D01*
X77617452Y-51367455D01*
X77531206Y-51482664D01*
X77531202Y-51482671D01*
X77492617Y-51586125D01*
X77480909Y-51617517D01*
X77474500Y-51677127D01*
X49669266Y-51677127D01*
X52939494Y-48406898D01*
X96899500Y-48406898D01*
X96899500Y-49593102D01*
X96905126Y-49639954D01*
X96910122Y-49681561D01*
X96965639Y-49822343D01*
X97057077Y-49942922D01*
X97177656Y-50034360D01*
X97177657Y-50034360D01*
X97177658Y-50034361D01*
X97318436Y-50089877D01*
X97406898Y-50100500D01*
X97406903Y-50100500D01*
X98593097Y-50100500D01*
X98593102Y-50100500D01*
X98681564Y-50089877D01*
X98822342Y-50034361D01*
X98942922Y-49942922D01*
X99034361Y-49822342D01*
X99089877Y-49681564D01*
X99100500Y-49593102D01*
X99100500Y-48658676D01*
X99120185Y-48591637D01*
X99136819Y-48570995D01*
X99395395Y-48312419D01*
X99456718Y-48278934D01*
X99483076Y-48276100D01*
X106768624Y-48276100D01*
X106835663Y-48295785D01*
X106856305Y-48312419D01*
X107342034Y-48798148D01*
X107375519Y-48859471D01*
X107370535Y-48929163D01*
X107328663Y-48985096D01*
X107310650Y-48996313D01*
X107272002Y-49016005D01*
X107125505Y-49122441D01*
X107125500Y-49122445D01*
X106997445Y-49250500D01*
X106997441Y-49250505D01*
X106891006Y-49397002D01*
X106808788Y-49558360D01*
X106808787Y-49558363D01*
X106752829Y-49730589D01*
X106724500Y-49909448D01*
X106724500Y-50090551D01*
X106752829Y-50269410D01*
X106808787Y-50441636D01*
X106808788Y-50441639D01*
X106891006Y-50602997D01*
X106997441Y-50749494D01*
X106997445Y-50749499D01*
X107125500Y-50877554D01*
X107125505Y-50877558D01*
X107253287Y-50970396D01*
X107272006Y-50983996D01*
X107377484Y-51037740D01*
X107433360Y-51066211D01*
X107433363Y-51066212D01*
X107519476Y-51094191D01*
X107605591Y-51122171D01*
X107688429Y-51135291D01*
X107784449Y-51150500D01*
X107784454Y-51150500D01*
X108215551Y-51150500D01*
X108302259Y-51136765D01*
X108394409Y-51122171D01*
X108566639Y-51066211D01*
X108727994Y-50983996D01*
X108874501Y-50877553D01*
X109002553Y-50749501D01*
X109108996Y-50602994D01*
X109191211Y-50441639D01*
X109247171Y-50269409D01*
X109261765Y-50177259D01*
X109275500Y-50090551D01*
X109275500Y-49909448D01*
X109259019Y-49805397D01*
X109247171Y-49730591D01*
X109191211Y-49558361D01*
X109191211Y-49558360D01*
X109162740Y-49502484D01*
X109108996Y-49397006D01*
X109095396Y-49378287D01*
X109002558Y-49250505D01*
X109002554Y-49250500D01*
X108874499Y-49122445D01*
X108874494Y-49122441D01*
X108727995Y-49016004D01*
X108568204Y-48934585D01*
X108517409Y-48886611D01*
X108500500Y-48824101D01*
X108500500Y-48682410D01*
X108500500Y-48682408D01*
X108466392Y-48555114D01*
X108400500Y-48440986D01*
X108307314Y-48347800D01*
X107334614Y-47375100D01*
X107277550Y-47342154D01*
X107220487Y-47309208D01*
X107156839Y-47292154D01*
X107093192Y-47275100D01*
X99290292Y-47275100D01*
X99158507Y-47275100D01*
X99031212Y-47309208D01*
X98917086Y-47375100D01*
X98917083Y-47375102D01*
X98429005Y-47863181D01*
X98367682Y-47896666D01*
X98341324Y-47899500D01*
X97406898Y-47899500D01*
X97367853Y-47904188D01*
X97318438Y-47910122D01*
X97177656Y-47965639D01*
X97057077Y-48057077D01*
X96965639Y-48177656D01*
X96910122Y-48318438D01*
X96906597Y-48347800D01*
X96899500Y-48406898D01*
X52939494Y-48406898D01*
X58092996Y-43253395D01*
X76658899Y-43253395D01*
X76685818Y-43388722D01*
X76685821Y-43388732D01*
X76738621Y-43516204D01*
X76738628Y-43516217D01*
X76815285Y-43630941D01*
X76815288Y-43630945D01*
X76912854Y-43728511D01*
X76912858Y-43728514D01*
X77027582Y-43805171D01*
X77027595Y-43805178D01*
X77155067Y-43857978D01*
X77155072Y-43857980D01*
X77155076Y-43857980D01*
X77155077Y-43857981D01*
X77290404Y-43884900D01*
X77350500Y-43884900D01*
X77417539Y-43904585D01*
X77463294Y-43957389D01*
X77474500Y-44008900D01*
X77474500Y-44322869D01*
X77474501Y-44322876D01*
X77480908Y-44382483D01*
X77531202Y-44517328D01*
X77531206Y-44517335D01*
X77617452Y-44632544D01*
X77617455Y-44632547D01*
X77732664Y-44718793D01*
X77732671Y-44718797D01*
X77777618Y-44735561D01*
X77867517Y-44769091D01*
X77927127Y-44775500D01*
X78422872Y-44775499D01*
X78482483Y-44769091D01*
X78617331Y-44718796D01*
X78732546Y-44632546D01*
X78818796Y-44517331D01*
X78869091Y-44382483D01*
X78875500Y-44322873D01*
X78875499Y-43677128D01*
X78869091Y-43617517D01*
X78835334Y-43527011D01*
X78818797Y-43482671D01*
X78818793Y-43482664D01*
X78732547Y-43367455D01*
X78732544Y-43367452D01*
X78617335Y-43281206D01*
X78617328Y-43281202D01*
X78482482Y-43230908D01*
X78482483Y-43230908D01*
X78422883Y-43224501D01*
X78422881Y-43224500D01*
X78422873Y-43224500D01*
X78422865Y-43224500D01*
X78183032Y-43224500D01*
X78115993Y-43204815D01*
X78070238Y-43152011D01*
X78061936Y-43121213D01*
X78061089Y-43121382D01*
X78032981Y-42980077D01*
X78032980Y-42980076D01*
X78032980Y-42980072D01*
X78009973Y-42924527D01*
X77980178Y-42852595D01*
X77980171Y-42852582D01*
X77903514Y-42737858D01*
X77903511Y-42737854D01*
X77805945Y-42640288D01*
X77805941Y-42640285D01*
X77691217Y-42563628D01*
X77691204Y-42563621D01*
X77563732Y-42510821D01*
X77563722Y-42510818D01*
X77428395Y-42483900D01*
X77428393Y-42483900D01*
X77290407Y-42483900D01*
X77290405Y-42483900D01*
X77155077Y-42510818D01*
X77155067Y-42510821D01*
X77027595Y-42563621D01*
X77027582Y-42563628D01*
X76912858Y-42640285D01*
X76912854Y-42640288D01*
X76815288Y-42737854D01*
X76815285Y-42737858D01*
X76738628Y-42852582D01*
X76738621Y-42852595D01*
X76685821Y-42980067D01*
X76685818Y-42980077D01*
X76658900Y-43115404D01*
X76658900Y-43115407D01*
X76658900Y-43253393D01*
X76658900Y-43253395D01*
X76658899Y-43253395D01*
X58092996Y-43253395D01*
X66127969Y-35218421D01*
X66189290Y-35184938D01*
X66258982Y-35189922D01*
X66314915Y-35231794D01*
X66318750Y-35237213D01*
X66369885Y-35313741D01*
X66369888Y-35313745D01*
X66467454Y-35411311D01*
X66467458Y-35411314D01*
X66582182Y-35487971D01*
X66582195Y-35487978D01*
X66709667Y-35540778D01*
X66709672Y-35540780D01*
X66709676Y-35540780D01*
X66709677Y-35540781D01*
X66845004Y-35567700D01*
X66845007Y-35567700D01*
X66982995Y-35567700D01*
X67074041Y-35549589D01*
X67118328Y-35540780D01*
X67245811Y-35487975D01*
X67360542Y-35411314D01*
X67458114Y-35313742D01*
X67534775Y-35199011D01*
X67587580Y-35071528D01*
X67614500Y-34936193D01*
X67614500Y-34798207D01*
X67614500Y-34798204D01*
X67587581Y-34662877D01*
X67587580Y-34662876D01*
X67587580Y-34662872D01*
X67534775Y-34535389D01*
X67534774Y-34535388D01*
X67533217Y-34531628D01*
X67525748Y-34462158D01*
X67557023Y-34399679D01*
X67560069Y-34396522D01*
X67905790Y-34050801D01*
X67967111Y-34017318D01*
X68036803Y-34022302D01*
X68092736Y-34064174D01*
X68096571Y-34069593D01*
X68161885Y-34167341D01*
X68161888Y-34167345D01*
X68259454Y-34264911D01*
X68259458Y-34264914D01*
X68374182Y-34341571D01*
X68374195Y-34341578D01*
X68501667Y-34394378D01*
X68501672Y-34394380D01*
X68501676Y-34394380D01*
X68501677Y-34394381D01*
X68637004Y-34421300D01*
X68637007Y-34421300D01*
X68774995Y-34421300D01*
X68899700Y-34396494D01*
X68910328Y-34394380D01*
X69037811Y-34341575D01*
X69152542Y-34264914D01*
X69209838Y-34207617D01*
X69271159Y-34174134D01*
X69297518Y-34171300D01*
X69472408Y-34171300D01*
X69472409Y-34171300D01*
X69562773Y-34147086D01*
X69586987Y-34140599D01*
X69689714Y-34081289D01*
X72064108Y-31706895D01*
X77474499Y-31706895D01*
X77501418Y-31842222D01*
X77501421Y-31842232D01*
X77554221Y-31969704D01*
X77554228Y-31969717D01*
X77630885Y-32084441D01*
X77630888Y-32084445D01*
X77728453Y-32182010D01*
X77729156Y-32182587D01*
X77729425Y-32182982D01*
X77732765Y-32186322D01*
X77732131Y-32186955D01*
X77768496Y-32240329D01*
X77774500Y-32278447D01*
X77774500Y-35187819D01*
X77754815Y-35254858D01*
X77724812Y-35287085D01*
X77617452Y-35367455D01*
X77531206Y-35482664D01*
X77531202Y-35482671D01*
X77480910Y-35617513D01*
X77480909Y-35617517D01*
X77474500Y-35677127D01*
X77474500Y-35677134D01*
X77474500Y-35677135D01*
X77474500Y-36322870D01*
X77474501Y-36322876D01*
X77480908Y-36382483D01*
X77531202Y-36517328D01*
X77531206Y-36517335D01*
X77617452Y-36632544D01*
X77617455Y-36632547D01*
X77732664Y-36718793D01*
X77732671Y-36718797D01*
X77764293Y-36730591D01*
X77867517Y-36769091D01*
X77927127Y-36775500D01*
X78422872Y-36775499D01*
X78482483Y-36769091D01*
X78617331Y-36718796D01*
X78732546Y-36632546D01*
X78818796Y-36517331D01*
X78869091Y-36382483D01*
X78875500Y-36322873D01*
X78875499Y-35677128D01*
X78875499Y-35677127D01*
X79124500Y-35677127D01*
X79124500Y-35677134D01*
X79124500Y-35677135D01*
X79124500Y-36322870D01*
X79124501Y-36322876D01*
X79130908Y-36382483D01*
X79181202Y-36517328D01*
X79181206Y-36517335D01*
X79267452Y-36632544D01*
X79267455Y-36632547D01*
X79382664Y-36718793D01*
X79382671Y-36718797D01*
X79414293Y-36730591D01*
X79517517Y-36769091D01*
X79577127Y-36775500D01*
X79982744Y-36775499D01*
X80049783Y-36795183D01*
X80070425Y-36811818D01*
X85504519Y-42245912D01*
X85504520Y-42245913D01*
X85579087Y-42320480D01*
X85670413Y-42373207D01*
X85772273Y-42400500D01*
X85877727Y-42400500D01*
X106600500Y-42400500D01*
X106667539Y-42420185D01*
X106713294Y-42472989D01*
X106724500Y-42524500D01*
X106724500Y-42643102D01*
X106730126Y-42689954D01*
X106735122Y-42731561D01*
X106735122Y-42731563D01*
X106735123Y-42731564D01*
X106737605Y-42737858D01*
X106790639Y-42872343D01*
X106882077Y-42992922D01*
X107002656Y-43084360D01*
X107002657Y-43084360D01*
X107002658Y-43084361D01*
X107143436Y-43139877D01*
X107231898Y-43150500D01*
X108146746Y-43150500D01*
X108213785Y-43170185D01*
X108259540Y-43222989D01*
X108269484Y-43292147D01*
X108240459Y-43355703D01*
X108234433Y-43362174D01*
X108113943Y-43482664D01*
X108033426Y-43563181D01*
X107972103Y-43596666D01*
X107945745Y-43599500D01*
X80598467Y-43599500D01*
X80531428Y-43579815D01*
X80485673Y-43527011D01*
X80482285Y-43518834D01*
X80468796Y-43482669D01*
X80468793Y-43482664D01*
X80382547Y-43367455D01*
X80382544Y-43367452D01*
X80267335Y-43281206D01*
X80267328Y-43281202D01*
X80132486Y-43230910D01*
X80132485Y-43230909D01*
X80132483Y-43230909D01*
X80072873Y-43224500D01*
X80072863Y-43224500D01*
X79577129Y-43224500D01*
X79577123Y-43224501D01*
X79517516Y-43230908D01*
X79382671Y-43281202D01*
X79382664Y-43281206D01*
X79267455Y-43367452D01*
X79267452Y-43367455D01*
X79181206Y-43482664D01*
X79181202Y-43482671D01*
X79130910Y-43617513D01*
X79130909Y-43617517D01*
X79124500Y-43677127D01*
X79124500Y-43677134D01*
X79124500Y-43677135D01*
X79124500Y-44322870D01*
X79124501Y-44322876D01*
X79130908Y-44382483D01*
X79181202Y-44517328D01*
X79181206Y-44517335D01*
X79267452Y-44632544D01*
X79267455Y-44632547D01*
X79382664Y-44718793D01*
X79382671Y-44718797D01*
X79427618Y-44735561D01*
X79517517Y-44769091D01*
X79577127Y-44775500D01*
X80072872Y-44775499D01*
X80132483Y-44769091D01*
X80267331Y-44718796D01*
X80382546Y-44632546D01*
X80468796Y-44517331D01*
X80482285Y-44481166D01*
X80524157Y-44425233D01*
X80589621Y-44400816D01*
X80598467Y-44400500D01*
X108215725Y-44400500D01*
X108215727Y-44400500D01*
X108317588Y-44373207D01*
X108408913Y-44320480D01*
X109526903Y-43202487D01*
X109526908Y-43202484D01*
X109537111Y-43192280D01*
X109537113Y-43192280D01*
X109611680Y-43117713D01*
X109662430Y-43029812D01*
X109664407Y-43026388D01*
X109691701Y-42924527D01*
X109691701Y-42819073D01*
X109691701Y-42811478D01*
X109691700Y-42811460D01*
X109691700Y-39073729D01*
X109691701Y-39073716D01*
X109691701Y-38958274D01*
X109675283Y-38897002D01*
X109664407Y-38856413D01*
X109611680Y-38765087D01*
X109537113Y-38690520D01*
X109537112Y-38690519D01*
X109532782Y-38686189D01*
X109532771Y-38686179D01*
X108887004Y-38040411D01*
X108853519Y-37979088D01*
X108858503Y-37909396D01*
X108887000Y-37865053D01*
X109002553Y-37749501D01*
X109108996Y-37602994D01*
X109191211Y-37441639D01*
X109247171Y-37269409D01*
X109261765Y-37177259D01*
X109275500Y-37090551D01*
X109275500Y-36909448D01*
X109254284Y-36775500D01*
X109247171Y-36730591D01*
X109191211Y-36558361D01*
X109191211Y-36558360D01*
X109162740Y-36502484D01*
X109108996Y-36397006D01*
X109055135Y-36322872D01*
X109002558Y-36250505D01*
X109002554Y-36250500D01*
X108874499Y-36122445D01*
X108874494Y-36122441D01*
X108727997Y-36016006D01*
X108727996Y-36016005D01*
X108727994Y-36016004D01*
X108676300Y-35989664D01*
X108566639Y-35933788D01*
X108566636Y-35933787D01*
X108394410Y-35877829D01*
X108215551Y-35849500D01*
X108215546Y-35849500D01*
X107784454Y-35849500D01*
X107784449Y-35849500D01*
X107605589Y-35877829D01*
X107433363Y-35933787D01*
X107433360Y-35933788D01*
X107272002Y-36016006D01*
X107125505Y-36122441D01*
X107125500Y-36122445D01*
X106997445Y-36250500D01*
X106997441Y-36250505D01*
X106891006Y-36397002D01*
X106808788Y-36558360D01*
X106808787Y-36558363D01*
X106752829Y-36730589D01*
X106724500Y-36909448D01*
X106724500Y-37090551D01*
X106752829Y-37269410D01*
X106808787Y-37441636D01*
X106808788Y-37441639D01*
X106891006Y-37602997D01*
X106997441Y-37749494D01*
X106997445Y-37749499D01*
X107125500Y-37877554D01*
X107125505Y-37877558D01*
X107169327Y-37909396D01*
X107272006Y-37983996D01*
X107433361Y-38066211D01*
X107513817Y-38092352D01*
X107571492Y-38131788D01*
X107598692Y-38196146D01*
X107598908Y-38199931D01*
X107599500Y-38204426D01*
X107612274Y-38252099D01*
X107610611Y-38321948D01*
X107571448Y-38379811D01*
X107530817Y-38402123D01*
X107433363Y-38433787D01*
X107433360Y-38433788D01*
X107272002Y-38516006D01*
X107125505Y-38622441D01*
X107125500Y-38622445D01*
X106997445Y-38750500D01*
X106997441Y-38750505D01*
X106891006Y-38897002D01*
X106808788Y-39058360D01*
X106808787Y-39058363D01*
X106752829Y-39230589D01*
X106724500Y-39409448D01*
X106724500Y-39590551D01*
X106752829Y-39769410D01*
X106808787Y-39941636D01*
X106808788Y-39941639D01*
X106891006Y-40102997D01*
X106997441Y-40249494D01*
X106997445Y-40249499D01*
X107125500Y-40377554D01*
X107125505Y-40377558D01*
X107253287Y-40470396D01*
X107272006Y-40483996D01*
X107377484Y-40537740D01*
X107433360Y-40566211D01*
X107433363Y-40566212D01*
X107560649Y-40607569D01*
X107618324Y-40647006D01*
X107645523Y-40711364D01*
X107633609Y-40780211D01*
X107586365Y-40831687D01*
X107522331Y-40849500D01*
X107231898Y-40849500D01*
X107192853Y-40854188D01*
X107143438Y-40860122D01*
X107002656Y-40915639D01*
X106882077Y-41007077D01*
X106790639Y-41127656D01*
X106735122Y-41268438D01*
X106729188Y-41317853D01*
X106724500Y-41356898D01*
X106724500Y-41356903D01*
X106724500Y-41475500D01*
X106704815Y-41542539D01*
X106652011Y-41588294D01*
X106600500Y-41599500D01*
X86042255Y-41599500D01*
X85975216Y-41579815D01*
X85954574Y-41563181D01*
X80561818Y-36170425D01*
X80528333Y-36109102D01*
X80525499Y-36082744D01*
X80525499Y-35677129D01*
X80525498Y-35677123D01*
X80519091Y-35617516D01*
X80468797Y-35482671D01*
X80468793Y-35482664D01*
X80382547Y-35367455D01*
X80382544Y-35367452D01*
X80267335Y-35281206D01*
X80267328Y-35281202D01*
X80132486Y-35230910D01*
X80132485Y-35230909D01*
X80132483Y-35230909D01*
X80072873Y-35224500D01*
X80072863Y-35224500D01*
X79577129Y-35224500D01*
X79577123Y-35224501D01*
X79517516Y-35230908D01*
X79382671Y-35281202D01*
X79382664Y-35281206D01*
X79267455Y-35367452D01*
X79267452Y-35367455D01*
X79181206Y-35482664D01*
X79181202Y-35482671D01*
X79130910Y-35617513D01*
X79130909Y-35617517D01*
X79124500Y-35677127D01*
X78875499Y-35677127D01*
X78869091Y-35617517D01*
X78850510Y-35567700D01*
X78818797Y-35482671D01*
X78818793Y-35482664D01*
X78732547Y-35367455D01*
X78625188Y-35287085D01*
X78583318Y-35231151D01*
X78575500Y-35187819D01*
X78575500Y-32278447D01*
X78595185Y-32211408D01*
X78617385Y-32186472D01*
X78617235Y-32186322D01*
X78619821Y-32183735D01*
X78620844Y-32182587D01*
X78621537Y-32182017D01*
X78621542Y-32182014D01*
X78719114Y-32084442D01*
X78795775Y-31969711D01*
X78848580Y-31842228D01*
X78875500Y-31706893D01*
X78875500Y-31568907D01*
X78875500Y-31568904D01*
X78848581Y-31433577D01*
X78848580Y-31433576D01*
X78848580Y-31433572D01*
X78834794Y-31400289D01*
X78795778Y-31306095D01*
X78795771Y-31306082D01*
X78719114Y-31191358D01*
X78719111Y-31191354D01*
X78621546Y-31093789D01*
X78620833Y-31093204D01*
X78620559Y-31092802D01*
X78617235Y-31089478D01*
X78617865Y-31088847D01*
X78581500Y-31035457D01*
X78575500Y-30997352D01*
X78575500Y-30812180D01*
X78595185Y-30745141D01*
X78625187Y-30712914D01*
X78732546Y-30632546D01*
X78818796Y-30517331D01*
X78869091Y-30382483D01*
X78875500Y-30322873D01*
X78875499Y-29677128D01*
X78875499Y-29677127D01*
X79124500Y-29677127D01*
X79124500Y-29677134D01*
X79124500Y-29677135D01*
X79124500Y-30322870D01*
X79124501Y-30322876D01*
X79130908Y-30382483D01*
X79181202Y-30517328D01*
X79181206Y-30517335D01*
X79267452Y-30632544D01*
X79267455Y-30632547D01*
X79382664Y-30718793D01*
X79382671Y-30718797D01*
X79415400Y-30731004D01*
X79517517Y-30769091D01*
X79577127Y-30775500D01*
X79817508Y-30775499D01*
X79884547Y-30795183D01*
X79930302Y-30847987D01*
X79938763Y-30879366D01*
X79939511Y-30879218D01*
X79967618Y-31020522D01*
X79967621Y-31020532D01*
X80020421Y-31148004D01*
X80020428Y-31148017D01*
X80097085Y-31262741D01*
X80097088Y-31262745D01*
X80194654Y-31360311D01*
X80194658Y-31360314D01*
X80309382Y-31436971D01*
X80309395Y-31436978D01*
X80397764Y-31473581D01*
X80436872Y-31489780D01*
X80436876Y-31489780D01*
X80436877Y-31489781D01*
X80572204Y-31516700D01*
X80572207Y-31516700D01*
X80710195Y-31516700D01*
X80801241Y-31498589D01*
X80845528Y-31489780D01*
X80973011Y-31436975D01*
X81087742Y-31360314D01*
X81185314Y-31262742D01*
X81261975Y-31148011D01*
X81314780Y-31020528D01*
X81341700Y-30885193D01*
X81341700Y-30747207D01*
X81341700Y-30747204D01*
X81314781Y-30611877D01*
X81314780Y-30611876D01*
X81314780Y-30611872D01*
X81297238Y-30569522D01*
X81261978Y-30484395D01*
X81261971Y-30484382D01*
X81185314Y-30369658D01*
X81185311Y-30369654D01*
X81087745Y-30272088D01*
X81087741Y-30272085D01*
X80973017Y-30195428D01*
X80973004Y-30195421D01*
X80845532Y-30142621D01*
X80845522Y-30142618D01*
X80710195Y-30115700D01*
X80710193Y-30115700D01*
X80649499Y-30115700D01*
X80582460Y-30096015D01*
X80536705Y-30043211D01*
X80525499Y-29991700D01*
X80525499Y-29677129D01*
X80525498Y-29677123D01*
X80522456Y-29648826D01*
X80519091Y-29617517D01*
X80515151Y-29606954D01*
X80468797Y-29482671D01*
X80468793Y-29482664D01*
X80382547Y-29367455D01*
X80382544Y-29367452D01*
X80267335Y-29281206D01*
X80267328Y-29281202D01*
X80132486Y-29230910D01*
X80132485Y-29230909D01*
X80132483Y-29230909D01*
X80072873Y-29224500D01*
X80072863Y-29224500D01*
X79577129Y-29224500D01*
X79577123Y-29224501D01*
X79517516Y-29230908D01*
X79382671Y-29281202D01*
X79382664Y-29281206D01*
X79267455Y-29367452D01*
X79267452Y-29367455D01*
X79181206Y-29482664D01*
X79181202Y-29482671D01*
X79130910Y-29617513D01*
X79130909Y-29617517D01*
X79124500Y-29677127D01*
X78875499Y-29677127D01*
X78869091Y-29617517D01*
X78865151Y-29606954D01*
X78818797Y-29482671D01*
X78818793Y-29482664D01*
X78732547Y-29367455D01*
X78732544Y-29367452D01*
X78617335Y-29281206D01*
X78617328Y-29281202D01*
X78482486Y-29230910D01*
X78482485Y-29230909D01*
X78482483Y-29230909D01*
X78422873Y-29224500D01*
X78422863Y-29224500D01*
X77927129Y-29224500D01*
X77927123Y-29224501D01*
X77867516Y-29230908D01*
X77732671Y-29281202D01*
X77732664Y-29281206D01*
X77617455Y-29367452D01*
X77617452Y-29367455D01*
X77531206Y-29482664D01*
X77531202Y-29482671D01*
X77480910Y-29617513D01*
X77480909Y-29617517D01*
X77474500Y-29677127D01*
X77474500Y-29677134D01*
X77474500Y-29677135D01*
X77474500Y-30322870D01*
X77474501Y-30322876D01*
X77480908Y-30382483D01*
X77531202Y-30517328D01*
X77531206Y-30517335D01*
X77570274Y-30569522D01*
X77617454Y-30632546D01*
X77724811Y-30712914D01*
X77766682Y-30768847D01*
X77774500Y-30812180D01*
X77774500Y-30997352D01*
X77754815Y-31064391D01*
X77732616Y-31089329D01*
X77732765Y-31089478D01*
X77730204Y-31092038D01*
X77729167Y-31093204D01*
X77728453Y-31093789D01*
X77630888Y-31191354D01*
X77630885Y-31191358D01*
X77554228Y-31306082D01*
X77554221Y-31306095D01*
X77501421Y-31433567D01*
X77501418Y-31433577D01*
X77474500Y-31568904D01*
X77474500Y-31568907D01*
X77474500Y-31706893D01*
X77474500Y-31706895D01*
X77474499Y-31706895D01*
X72064108Y-31706895D01*
X76159185Y-27611819D01*
X76220508Y-27578334D01*
X76246866Y-27575500D01*
X96112035Y-27575500D01*
X96179074Y-27595185D01*
X96199716Y-27611819D01*
X96438181Y-27850284D01*
X96471666Y-27911607D01*
X96474500Y-27937965D01*
X96474500Y-28291144D01*
X96479467Y-28332503D01*
X96484640Y-28375588D01*
X96537636Y-28509976D01*
X96624921Y-28625078D01*
X96740023Y-28712363D01*
X96740024Y-28712363D01*
X96740025Y-28712364D01*
X96874410Y-28765359D01*
X96958856Y-28775500D01*
X96958862Y-28775500D01*
X97491138Y-28775500D01*
X97491144Y-28775500D01*
X97575590Y-28765359D01*
X97709975Y-28712364D01*
X97825078Y-28625078D01*
X97912364Y-28509975D01*
X97965359Y-28375590D01*
X97975500Y-28291144D01*
X97975500Y-27708856D01*
X97965359Y-27624410D01*
X97912364Y-27490025D01*
X97912363Y-27490024D01*
X97912363Y-27490023D01*
X97825078Y-27374921D01*
X97709976Y-27287636D01*
X97575588Y-27234640D01*
X97532242Y-27229435D01*
X97491144Y-27224500D01*
X97491138Y-27224500D01*
X97186965Y-27224500D01*
X97119926Y-27204815D01*
X97074171Y-27152011D01*
X97064227Y-27082853D01*
X97093252Y-27019297D01*
X97099284Y-27012819D01*
X100125284Y-23986819D01*
X100186607Y-23953334D01*
X100212965Y-23950500D01*
X106737317Y-23950500D01*
X106804356Y-23970185D01*
X106847801Y-24018204D01*
X106881510Y-24084361D01*
X106891006Y-24102998D01*
X106997441Y-24249494D01*
X106997445Y-24249499D01*
X107125500Y-24377554D01*
X107125505Y-24377558D01*
X107224463Y-24449454D01*
X107272006Y-24483996D01*
X107366921Y-24532358D01*
X107433360Y-24566211D01*
X107433363Y-24566212D01*
X107519476Y-24594191D01*
X107605591Y-24622171D01*
X107688429Y-24635291D01*
X107784449Y-24650500D01*
X107784454Y-24650500D01*
X108215551Y-24650500D01*
X108302259Y-24636765D01*
X108394409Y-24622171D01*
X108566639Y-24566211D01*
X108727994Y-24483996D01*
X108874501Y-24377553D01*
X109002553Y-24249501D01*
X109108996Y-24102994D01*
X109191211Y-23941639D01*
X109247171Y-23769409D01*
X109264560Y-23659618D01*
X109275500Y-23590551D01*
X109275500Y-23409448D01*
X109255533Y-23283385D01*
X109247171Y-23230591D01*
X109211944Y-23122171D01*
X109191212Y-23058363D01*
X109191211Y-23058360D01*
X109152198Y-22981795D01*
X109108996Y-22897006D01*
X109009246Y-22759711D01*
X109002558Y-22750505D01*
X109002554Y-22750500D01*
X108874499Y-22622445D01*
X108874494Y-22622441D01*
X108727997Y-22516006D01*
X108727996Y-22516005D01*
X108727994Y-22516004D01*
X108653325Y-22477958D01*
X108566639Y-22433788D01*
X108566636Y-22433787D01*
X108394410Y-22377829D01*
X108360594Y-22372473D01*
X108297459Y-22342544D01*
X108260528Y-22283232D01*
X108261526Y-22213370D01*
X108300136Y-22155137D01*
X108360594Y-22127527D01*
X108368388Y-22126292D01*
X108394409Y-22122171D01*
X108566639Y-22066211D01*
X108727994Y-21983996D01*
X108874501Y-21877553D01*
X109002553Y-21749501D01*
X109108996Y-21602994D01*
X109191211Y-21441639D01*
X109247171Y-21269409D01*
X109269172Y-21130500D01*
X109275500Y-21090551D01*
X109275500Y-20909448D01*
X109253053Y-20767731D01*
X109247171Y-20730591D01*
X109208152Y-20610500D01*
X109191212Y-20558363D01*
X109191211Y-20558360D01*
X109159690Y-20496498D01*
X109108996Y-20397006D01*
X109071397Y-20345255D01*
X109002558Y-20250505D01*
X109002554Y-20250500D01*
X108874499Y-20122445D01*
X108874494Y-20122441D01*
X108727997Y-20016006D01*
X108727996Y-20016005D01*
X108727994Y-20016004D01*
X108638280Y-19970292D01*
X108566639Y-19933788D01*
X108566636Y-19933787D01*
X108394410Y-19877829D01*
X108360594Y-19872473D01*
X108297459Y-19842544D01*
X108260528Y-19783232D01*
X108261526Y-19713370D01*
X108300136Y-19655137D01*
X108360594Y-19627527D01*
X108368388Y-19626292D01*
X108394409Y-19622171D01*
X108566639Y-19566211D01*
X108727994Y-19483996D01*
X108874501Y-19377553D01*
X109002553Y-19249501D01*
X109108996Y-19102994D01*
X109191211Y-18941639D01*
X109247171Y-18769409D01*
X109268848Y-18632546D01*
X109275500Y-18590551D01*
X109275500Y-18409448D01*
X109253230Y-18268846D01*
X109247171Y-18230591D01*
X109198182Y-18079815D01*
X109191212Y-18058363D01*
X109191211Y-18058360D01*
X109125556Y-17929507D01*
X109108996Y-17897006D01*
X109095396Y-17878287D01*
X109002558Y-17750505D01*
X109002554Y-17750500D01*
X108874499Y-17622445D01*
X108874494Y-17622441D01*
X108727997Y-17516006D01*
X108727996Y-17516005D01*
X108727994Y-17516004D01*
X108662561Y-17482664D01*
X108566639Y-17433788D01*
X108566636Y-17433787D01*
X108394410Y-17377829D01*
X108360594Y-17372473D01*
X108297459Y-17342544D01*
X108260528Y-17283232D01*
X108261526Y-17213370D01*
X108300136Y-17155137D01*
X108360594Y-17127527D01*
X108368388Y-17126292D01*
X108394409Y-17122171D01*
X108566639Y-17066211D01*
X108727994Y-16983996D01*
X108874501Y-16877553D01*
X109002553Y-16749501D01*
X109108996Y-16602994D01*
X109191211Y-16441639D01*
X109247171Y-16269409D01*
X109264454Y-16160289D01*
X109275500Y-16090551D01*
X109275500Y-15909448D01*
X109253111Y-15768096D01*
X109247171Y-15730591D01*
X109191211Y-15558361D01*
X109191211Y-15558360D01*
X109150096Y-15477669D01*
X109108996Y-15397006D01*
X109078427Y-15354931D01*
X109002558Y-15250505D01*
X109002554Y-15250500D01*
X108874499Y-15122445D01*
X108874494Y-15122441D01*
X108727997Y-15016006D01*
X108727996Y-15016005D01*
X108727994Y-15016004D01*
X108676300Y-14989664D01*
X108566639Y-14933788D01*
X108566636Y-14933787D01*
X108394410Y-14877829D01*
X108215551Y-14849500D01*
X108215546Y-14849500D01*
X107784454Y-14849500D01*
X107784449Y-14849500D01*
X107605589Y-14877829D01*
X107433363Y-14933787D01*
X107433360Y-14933788D01*
X107272002Y-15016006D01*
X107125505Y-15122441D01*
X107125500Y-15122445D01*
X106997445Y-15250500D01*
X106997441Y-15250505D01*
X106891006Y-15397002D01*
X106808788Y-15558360D01*
X106808787Y-15558363D01*
X106752829Y-15730589D01*
X106724500Y-15909448D01*
X106724500Y-16090551D01*
X106752829Y-16269410D01*
X106808787Y-16441636D01*
X106808788Y-16441639D01*
X106891006Y-16602997D01*
X106997441Y-16749494D01*
X106997445Y-16749499D01*
X107125500Y-16877554D01*
X107125505Y-16877558D01*
X107253287Y-16970396D01*
X107272006Y-16983996D01*
X107377484Y-17037740D01*
X107433360Y-17066211D01*
X107433363Y-17066212D01*
X107519476Y-17094191D01*
X107605591Y-17122171D01*
X107630291Y-17126083D01*
X107639406Y-17127527D01*
X107702540Y-17157457D01*
X107739471Y-17216768D01*
X107738473Y-17286631D01*
X107699863Y-17344863D01*
X107639406Y-17372473D01*
X107605589Y-17377829D01*
X107433363Y-17433787D01*
X107433360Y-17433788D01*
X107272002Y-17516006D01*
X107125505Y-17622441D01*
X107125500Y-17622445D01*
X106997445Y-17750500D01*
X106997441Y-17750505D01*
X106891006Y-17897002D01*
X106822325Y-18031795D01*
X106774350Y-18082591D01*
X106711840Y-18099500D01*
X80649500Y-18099500D01*
X80582461Y-18079815D01*
X80536706Y-18027011D01*
X80525500Y-17975500D01*
X80525499Y-17677130D01*
X80525498Y-17677123D01*
X80519091Y-17617516D01*
X80468797Y-17482671D01*
X80468793Y-17482664D01*
X80382547Y-17367455D01*
X80382544Y-17367452D01*
X80267335Y-17281206D01*
X80267328Y-17281202D01*
X80132486Y-17230910D01*
X80132485Y-17230909D01*
X80132483Y-17230909D01*
X80072873Y-17224500D01*
X80072863Y-17224500D01*
X79577129Y-17224500D01*
X79577123Y-17224501D01*
X79517516Y-17230908D01*
X79382671Y-17281202D01*
X79382664Y-17281206D01*
X79267455Y-17367452D01*
X79267452Y-17367455D01*
X79181206Y-17482664D01*
X79181202Y-17482671D01*
X79130910Y-17617513D01*
X79130909Y-17617517D01*
X79124500Y-17677127D01*
X79124500Y-17677134D01*
X79124500Y-17677135D01*
X79124500Y-18322870D01*
X79124501Y-18322876D01*
X79130908Y-18382483D01*
X79181202Y-18517328D01*
X79181206Y-18517335D01*
X79267452Y-18632544D01*
X79267455Y-18632547D01*
X79382664Y-18718793D01*
X79382671Y-18718797D01*
X79397962Y-18724500D01*
X79517517Y-18769091D01*
X79577127Y-18775500D01*
X79982744Y-18775499D01*
X80049783Y-18795183D01*
X80070425Y-18811818D01*
X80079087Y-18820480D01*
X80103366Y-18834497D01*
X80103368Y-18834499D01*
X80103369Y-18834499D01*
X80170412Y-18873207D01*
X80272273Y-18900500D01*
X80377727Y-18900500D01*
X106711840Y-18900500D01*
X106778879Y-18920185D01*
X106822325Y-18968205D01*
X106889229Y-19099511D01*
X106891006Y-19102997D01*
X106997441Y-19249494D01*
X106997445Y-19249499D01*
X107125500Y-19377554D01*
X107125505Y-19377558D01*
X107202315Y-19433363D01*
X107272006Y-19483996D01*
X107330535Y-19513818D01*
X107433360Y-19566211D01*
X107433363Y-19566212D01*
X107504657Y-19589376D01*
X107605591Y-19622171D01*
X107630291Y-19626083D01*
X107639406Y-19627527D01*
X107702540Y-19657457D01*
X107739471Y-19716768D01*
X107738473Y-19786631D01*
X107699863Y-19844863D01*
X107639406Y-19872473D01*
X107605589Y-19877829D01*
X107433363Y-19933787D01*
X107433360Y-19933788D01*
X107272002Y-20016006D01*
X107125505Y-20122441D01*
X107125500Y-20122445D01*
X106997445Y-20250500D01*
X106997441Y-20250505D01*
X106891006Y-20397002D01*
X106822325Y-20531795D01*
X106774350Y-20582591D01*
X106711840Y-20599500D01*
X96120339Y-20599500D01*
X96120323Y-20599499D01*
X96112727Y-20599499D01*
X96007273Y-20599499D01*
X95962404Y-20611522D01*
X95905412Y-20626793D01*
X95814084Y-20679522D01*
X90264026Y-26229581D01*
X90202703Y-26263066D01*
X90176345Y-26265900D01*
X76045047Y-26265900D01*
X75978008Y-26246215D01*
X75953072Y-26224014D01*
X75952922Y-26224165D01*
X75950335Y-26221578D01*
X75949187Y-26220556D01*
X75948610Y-26219853D01*
X75851045Y-26122288D01*
X75851041Y-26122285D01*
X75737287Y-26046277D01*
X75692482Y-25992665D01*
X75683775Y-25923340D01*
X75713929Y-25860313D01*
X75718478Y-25855513D01*
X77137173Y-24436819D01*
X77198496Y-24403334D01*
X77224854Y-24400500D01*
X77401533Y-24400500D01*
X77468572Y-24420185D01*
X77514327Y-24472989D01*
X77517715Y-24481166D01*
X77531203Y-24517330D01*
X77531206Y-24517335D01*
X77617452Y-24632544D01*
X77617455Y-24632547D01*
X77732664Y-24718793D01*
X77732671Y-24718797D01*
X77777618Y-24735561D01*
X77867517Y-24769091D01*
X77927127Y-24775500D01*
X78422872Y-24775499D01*
X78482483Y-24769091D01*
X78617331Y-24718796D01*
X78732546Y-24632546D01*
X78818796Y-24517331D01*
X78869091Y-24382483D01*
X78875500Y-24322873D01*
X78875499Y-23677128D01*
X78875499Y-23677127D01*
X79124500Y-23677127D01*
X79124500Y-23677134D01*
X79124500Y-23677135D01*
X79124500Y-24322870D01*
X79124501Y-24322876D01*
X79130908Y-24382483D01*
X79181202Y-24517328D01*
X79181206Y-24517335D01*
X79267452Y-24632544D01*
X79267455Y-24632547D01*
X79382664Y-24718793D01*
X79382671Y-24718797D01*
X79427618Y-24735561D01*
X79517517Y-24769091D01*
X79577127Y-24775500D01*
X79821520Y-24775499D01*
X79888559Y-24795183D01*
X79934314Y-24847987D01*
X79943008Y-24880237D01*
X79943611Y-24880118D01*
X79971718Y-25021422D01*
X79971721Y-25021432D01*
X80024521Y-25148904D01*
X80024528Y-25148917D01*
X80101185Y-25263641D01*
X80101188Y-25263645D01*
X80198754Y-25361211D01*
X80198758Y-25361214D01*
X80313482Y-25437871D01*
X80313495Y-25437878D01*
X80421636Y-25482671D01*
X80440972Y-25490680D01*
X80440976Y-25490680D01*
X80440977Y-25490681D01*
X80576304Y-25517600D01*
X80576307Y-25517600D01*
X80714295Y-25517600D01*
X80805341Y-25499489D01*
X80849628Y-25490680D01*
X80977111Y-25437875D01*
X81091842Y-25361214D01*
X81189414Y-25263642D01*
X81266075Y-25148911D01*
X81318880Y-25021428D01*
X81345800Y-24886093D01*
X81345800Y-24748107D01*
X81345800Y-24748104D01*
X81318881Y-24612777D01*
X81318880Y-24612776D01*
X81318880Y-24612772D01*
X81303469Y-24575566D01*
X81266078Y-24485295D01*
X81266071Y-24485282D01*
X81189414Y-24370558D01*
X81189411Y-24370554D01*
X81091845Y-24272988D01*
X81091841Y-24272985D01*
X80977117Y-24196328D01*
X80977104Y-24196321D01*
X80849632Y-24143521D01*
X80849622Y-24143518D01*
X80714295Y-24116600D01*
X80714293Y-24116600D01*
X80649499Y-24116600D01*
X80582460Y-24096915D01*
X80536705Y-24044111D01*
X80525499Y-23992600D01*
X80525499Y-23677129D01*
X80525498Y-23677123D01*
X80524141Y-23664500D01*
X80519091Y-23617517D01*
X80513012Y-23601219D01*
X80468797Y-23482671D01*
X80468793Y-23482664D01*
X80382547Y-23367455D01*
X80382544Y-23367452D01*
X80267335Y-23281206D01*
X80267328Y-23281202D01*
X80132486Y-23230910D01*
X80132485Y-23230909D01*
X80132483Y-23230909D01*
X80072873Y-23224500D01*
X80072863Y-23224500D01*
X79577129Y-23224500D01*
X79577123Y-23224501D01*
X79517516Y-23230908D01*
X79382671Y-23281202D01*
X79382664Y-23281206D01*
X79267455Y-23367452D01*
X79267452Y-23367455D01*
X79181206Y-23482664D01*
X79181202Y-23482671D01*
X79131734Y-23615305D01*
X79130909Y-23617517D01*
X79124500Y-23677127D01*
X78875499Y-23677127D01*
X78869091Y-23617517D01*
X78863012Y-23601219D01*
X78818797Y-23482671D01*
X78818793Y-23482664D01*
X78732547Y-23367455D01*
X78625188Y-23287085D01*
X78583318Y-23231151D01*
X78575500Y-23187819D01*
X78575500Y-18812180D01*
X78595185Y-18745141D01*
X78625187Y-18712914D01*
X78732546Y-18632546D01*
X78818796Y-18517331D01*
X78869091Y-18382483D01*
X78875500Y-18322873D01*
X78875499Y-17677128D01*
X78869091Y-17617517D01*
X78840846Y-17541789D01*
X78818797Y-17482671D01*
X78818793Y-17482664D01*
X78732547Y-17367455D01*
X78732544Y-17367452D01*
X78617335Y-17281206D01*
X78617328Y-17281202D01*
X78482486Y-17230910D01*
X78482485Y-17230909D01*
X78482483Y-17230909D01*
X78422873Y-17224500D01*
X78422863Y-17224500D01*
X77927129Y-17224500D01*
X77927123Y-17224501D01*
X77867516Y-17230908D01*
X77732671Y-17281202D01*
X77732664Y-17281206D01*
X77617455Y-17367452D01*
X77617452Y-17367455D01*
X77531206Y-17482664D01*
X77531202Y-17482671D01*
X77480910Y-17617513D01*
X77480909Y-17617517D01*
X77474500Y-17677127D01*
X77474500Y-17677134D01*
X77474500Y-17677135D01*
X77474500Y-18322870D01*
X77474501Y-18322876D01*
X77480908Y-18382483D01*
X77531202Y-18517328D01*
X77531206Y-18517335D01*
X77600358Y-18609709D01*
X77617454Y-18632546D01*
X77724811Y-18712914D01*
X77766682Y-18768847D01*
X77774500Y-18812180D01*
X77774500Y-23187819D01*
X77754815Y-23254858D01*
X77724812Y-23287085D01*
X77617452Y-23367455D01*
X77531206Y-23482664D01*
X77531203Y-23482669D01*
X77517715Y-23518834D01*
X77475843Y-23574767D01*
X77410379Y-23599184D01*
X77401533Y-23599500D01*
X77067939Y-23599500D01*
X77067923Y-23599499D01*
X77060327Y-23599499D01*
X76954873Y-23599499D01*
X76895886Y-23615305D01*
X76853012Y-23626793D01*
X76800525Y-23657097D01*
X76765829Y-23677129D01*
X76761684Y-23679522D01*
X74161322Y-26279884D01*
X74161320Y-26279887D01*
X74108593Y-26371212D01*
X74095390Y-26420487D01*
X74095390Y-26420488D01*
X74095389Y-26420487D01*
X74081300Y-26473071D01*
X74081300Y-27237044D01*
X74061615Y-27304083D01*
X74044981Y-27324725D01*
X69536621Y-31833084D01*
X69475298Y-31866569D01*
X69405606Y-31861585D01*
X69349673Y-31819713D01*
X69334378Y-31792854D01*
X69329394Y-31780821D01*
X69329390Y-31780814D01*
X69241789Y-31649711D01*
X69241786Y-31649707D01*
X69204760Y-31612681D01*
X69171275Y-31551358D01*
X69176259Y-31481666D01*
X69204760Y-31437319D01*
X69241786Y-31400292D01*
X69241789Y-31400289D01*
X69329394Y-31269179D01*
X69338771Y-31246542D01*
X69356668Y-31203334D01*
X69389737Y-31123497D01*
X69420500Y-30968842D01*
X69420500Y-30811158D01*
X69420500Y-30811155D01*
X69420499Y-30811153D01*
X69402127Y-30718793D01*
X69389737Y-30656503D01*
X69379813Y-30632543D01*
X69329397Y-30510827D01*
X69329390Y-30510814D01*
X69241789Y-30379711D01*
X69241786Y-30379707D01*
X69204760Y-30342681D01*
X69171275Y-30281358D01*
X69176259Y-30211666D01*
X69204760Y-30167319D01*
X69241786Y-30130292D01*
X69241789Y-30130289D01*
X69329394Y-29999179D01*
X69389737Y-29853497D01*
X69420500Y-29698842D01*
X69420500Y-29541158D01*
X69420500Y-29541155D01*
X69420499Y-29541153D01*
X69389738Y-29386510D01*
X69389737Y-29386503D01*
X69346121Y-29281204D01*
X69329397Y-29240827D01*
X69329390Y-29240814D01*
X69241789Y-29109711D01*
X69241786Y-29109707D01*
X69204760Y-29072681D01*
X69171275Y-29011358D01*
X69176259Y-28941666D01*
X69204760Y-28897319D01*
X69241786Y-28860292D01*
X69241789Y-28860289D01*
X69329394Y-28729179D01*
X69389737Y-28583497D01*
X69420500Y-28428842D01*
X69420500Y-28271158D01*
X69420500Y-28271155D01*
X69420499Y-28271153D01*
X69395800Y-28146985D01*
X69389737Y-28116503D01*
X69389735Y-28116498D01*
X69329397Y-27970827D01*
X69329390Y-27970814D01*
X69241789Y-27839711D01*
X69241786Y-27839707D01*
X69204760Y-27802681D01*
X69171275Y-27741358D01*
X69176259Y-27671666D01*
X69204760Y-27627319D01*
X69241786Y-27590292D01*
X69241789Y-27590289D01*
X69329394Y-27459179D01*
X69389737Y-27313497D01*
X69420500Y-27158842D01*
X69420500Y-27001158D01*
X69420500Y-27001155D01*
X69420499Y-27001153D01*
X69389738Y-26846510D01*
X69389737Y-26846503D01*
X69374861Y-26810589D01*
X69329397Y-26700827D01*
X69329390Y-26700814D01*
X69241789Y-26569711D01*
X69241786Y-26569707D01*
X69204760Y-26532681D01*
X69171275Y-26471358D01*
X69176259Y-26401666D01*
X69204760Y-26357319D01*
X69241786Y-26320292D01*
X69241789Y-26320289D01*
X69329394Y-26189179D01*
X69330464Y-26186597D01*
X69388585Y-26046277D01*
X69389737Y-26043497D01*
X69420500Y-25888842D01*
X69420500Y-25731158D01*
X69420500Y-25731155D01*
X69420499Y-25731153D01*
X69389738Y-25576510D01*
X69389737Y-25576503D01*
X69377378Y-25546666D01*
X69329397Y-25430827D01*
X69329390Y-25430814D01*
X69241789Y-25299711D01*
X69241786Y-25299707D01*
X69130292Y-25188213D01*
X69130288Y-25188210D01*
X68999185Y-25100609D01*
X68999172Y-25100602D01*
X68853501Y-25040264D01*
X68853489Y-25040261D01*
X68698845Y-25009500D01*
X68698842Y-25009500D01*
X68541158Y-25009500D01*
X68541155Y-25009500D01*
X68386510Y-25040261D01*
X68386498Y-25040264D01*
X68240827Y-25100602D01*
X68240814Y-25100609D01*
X68109711Y-25188210D01*
X68109707Y-25188213D01*
X67998213Y-25299707D01*
X67998210Y-25299711D01*
X67910609Y-25430814D01*
X67910602Y-25430827D01*
X67850264Y-25576498D01*
X67850261Y-25576510D01*
X67819500Y-25731153D01*
X67819500Y-25888846D01*
X67850261Y-26043489D01*
X67850264Y-26043501D01*
X67910602Y-26189172D01*
X67910609Y-26189185D01*
X67998210Y-26320288D01*
X67998213Y-26320292D01*
X68035240Y-26357319D01*
X68068725Y-26418642D01*
X68063741Y-26488334D01*
X68035240Y-26532681D01*
X67998213Y-26569707D01*
X67998210Y-26569711D01*
X67910609Y-26700814D01*
X67910602Y-26700827D01*
X67850264Y-26846498D01*
X67850261Y-26846510D01*
X67819500Y-27001153D01*
X67819500Y-27158846D01*
X67850261Y-27313489D01*
X67850264Y-27313501D01*
X67910602Y-27459172D01*
X67910609Y-27459185D01*
X67998210Y-27590288D01*
X67998213Y-27590292D01*
X68035240Y-27627319D01*
X68068725Y-27688642D01*
X68063741Y-27758334D01*
X68035240Y-27802681D01*
X67998213Y-27839707D01*
X67998210Y-27839711D01*
X67910609Y-27970814D01*
X67910602Y-27970827D01*
X67850264Y-28116498D01*
X67850261Y-28116510D01*
X67819500Y-28271153D01*
X67819500Y-28428846D01*
X67850261Y-28583489D01*
X67850264Y-28583501D01*
X67910602Y-28729172D01*
X67910609Y-28729185D01*
X67998210Y-28860288D01*
X67998213Y-28860292D01*
X68035240Y-28897319D01*
X68068725Y-28958642D01*
X68063741Y-29028334D01*
X68035240Y-29072681D01*
X67998213Y-29109707D01*
X67998210Y-29109711D01*
X67910609Y-29240814D01*
X67910602Y-29240827D01*
X67850264Y-29386498D01*
X67850261Y-29386510D01*
X67819500Y-29541153D01*
X67819500Y-29698846D01*
X67850261Y-29853489D01*
X67850264Y-29853501D01*
X67910602Y-29999172D01*
X67910609Y-29999185D01*
X67998210Y-30130288D01*
X67998213Y-30130292D01*
X68035240Y-30167319D01*
X68068725Y-30228642D01*
X68063741Y-30298334D01*
X68035240Y-30342681D01*
X67998213Y-30379707D01*
X67998210Y-30379711D01*
X67910609Y-30510814D01*
X67910602Y-30510827D01*
X67850264Y-30656498D01*
X67850261Y-30656510D01*
X67819500Y-30811153D01*
X67819500Y-30968846D01*
X67850261Y-31123489D01*
X67850264Y-31123501D01*
X67910602Y-31269172D01*
X67910609Y-31269185D01*
X67998210Y-31400288D01*
X67998213Y-31400292D01*
X68035240Y-31437319D01*
X68068725Y-31498642D01*
X68063741Y-31568334D01*
X68035240Y-31612681D01*
X67998213Y-31649707D01*
X67998210Y-31649711D01*
X67910609Y-31780814D01*
X67910602Y-31780827D01*
X67850264Y-31926498D01*
X67850261Y-31926510D01*
X67819500Y-32081153D01*
X67819500Y-32238846D01*
X67832329Y-32303341D01*
X67826102Y-32372933D01*
X67798393Y-32415213D01*
X47650426Y-52563181D01*
X47589103Y-52596666D01*
X47562745Y-52599500D01*
X25274499Y-52599500D01*
X25207460Y-52579815D01*
X25161705Y-52527011D01*
X25150499Y-52475500D01*
X25150499Y-52105143D01*
X25150499Y-52105136D01*
X25150497Y-52105117D01*
X25147586Y-52080012D01*
X25147585Y-52080010D01*
X25147585Y-52080009D01*
X25102206Y-51977235D01*
X25022765Y-51897794D01*
X24972274Y-51875500D01*
X24919992Y-51852415D01*
X24894865Y-51849500D01*
X23105143Y-51849500D01*
X23105117Y-51849502D01*
X23080012Y-51852413D01*
X23080008Y-51852415D01*
X22977235Y-51897793D01*
X22897794Y-51977234D01*
X22852415Y-52080006D01*
X22852415Y-52080008D01*
X22849500Y-52105131D01*
X22849500Y-53894856D01*
X22849502Y-53894882D01*
X22852413Y-53919987D01*
X22852415Y-53919991D01*
X22897793Y-54022764D01*
X22897794Y-54022765D01*
X22977235Y-54102206D01*
X23080009Y-54147585D01*
X23105135Y-54150500D01*
X23842873Y-54150499D01*
X23909910Y-54170183D01*
X23955665Y-54222987D01*
X23965609Y-54292146D01*
X23936584Y-54355702D01*
X23877806Y-54393476D01*
X23862270Y-54396972D01*
X23730589Y-54417829D01*
X23558363Y-54473787D01*
X23558360Y-54473788D01*
X23397002Y-54556006D01*
X23250505Y-54662441D01*
X23250500Y-54662445D01*
X23122445Y-54790500D01*
X23122441Y-54790505D01*
X23016006Y-54937002D01*
X22933788Y-55098360D01*
X22933787Y-55098363D01*
X22877829Y-55270589D01*
X22849500Y-55449448D01*
X22849500Y-55630551D01*
X22877829Y-55809410D01*
X22933787Y-55981636D01*
X22933788Y-55981639D01*
X23016006Y-56142997D01*
X23122441Y-56289494D01*
X23122445Y-56289499D01*
X23250500Y-56417554D01*
X23250505Y-56417558D01*
X23378287Y-56510396D01*
X23397006Y-56523996D01*
X23502484Y-56577740D01*
X23558360Y-56606211D01*
X23558363Y-56606212D01*
X23644476Y-56634191D01*
X23730591Y-56662171D01*
X23803639Y-56673740D01*
X23890678Y-56687527D01*
X23953813Y-56717456D01*
X23990744Y-56776768D01*
X23989746Y-56846631D01*
X23951136Y-56904863D01*
X23890678Y-56932473D01*
X23730589Y-56957829D01*
X23558363Y-57013787D01*
X23558360Y-57013788D01*
X23397002Y-57096006D01*
X23250505Y-57202441D01*
X23250500Y-57202445D01*
X23122445Y-57330500D01*
X23122441Y-57330505D01*
X23016006Y-57477002D01*
X22933788Y-57638360D01*
X22933787Y-57638363D01*
X22877829Y-57810589D01*
X22852473Y-57970678D01*
X22822544Y-58033813D01*
X22763232Y-58070744D01*
X22693369Y-58069746D01*
X22635137Y-58031136D01*
X22607527Y-57970678D01*
X22590009Y-57860078D01*
X22582171Y-57810591D01*
X22538807Y-57677128D01*
X22526212Y-57638363D01*
X22526211Y-57638360D01*
X22497740Y-57582484D01*
X22443996Y-57477006D01*
X22393258Y-57407171D01*
X22337558Y-57330505D01*
X22337554Y-57330500D01*
X22209499Y-57202445D01*
X22209494Y-57202441D01*
X22062997Y-57096006D01*
X22062996Y-57096005D01*
X22062994Y-57096004D01*
X22011300Y-57069664D01*
X21901639Y-57013788D01*
X21901636Y-57013787D01*
X21729410Y-56957829D01*
X21550551Y-56929500D01*
X21550546Y-56929500D01*
X21369454Y-56929500D01*
X21369449Y-56929500D01*
X21190589Y-56957829D01*
X21018363Y-57013787D01*
X21018360Y-57013788D01*
X20857002Y-57096006D01*
X20710505Y-57202441D01*
X20710500Y-57202445D01*
X20582445Y-57330500D01*
X20582441Y-57330505D01*
X20476006Y-57477002D01*
X20393788Y-57638360D01*
X20393787Y-57638363D01*
X20337829Y-57810589D01*
X20309500Y-57989448D01*
X15750300Y-57989448D01*
X15750300Y-57677155D01*
X15769985Y-57610116D01*
X15786619Y-57589474D01*
X42049274Y-31326819D01*
X42110597Y-31293334D01*
X42136955Y-31290500D01*
X54091625Y-31290500D01*
X54091627Y-31290500D01*
X54193488Y-31263207D01*
X54284813Y-31210480D01*
X64328474Y-21166819D01*
X64389797Y-21133334D01*
X64416155Y-21130500D01*
X67858573Y-21130500D01*
X67925612Y-21150185D01*
X67961675Y-21185610D01*
X67998207Y-21240284D01*
X67998213Y-21240292D01*
X68035240Y-21277319D01*
X68068725Y-21338642D01*
X68063741Y-21408334D01*
X68035240Y-21452681D01*
X67998213Y-21489707D01*
X67998210Y-21489711D01*
X67910609Y-21620814D01*
X67910602Y-21620827D01*
X67850264Y-21766498D01*
X67850261Y-21766510D01*
X67819500Y-21921153D01*
X67819500Y-22078846D01*
X67850261Y-22233489D01*
X67850264Y-22233501D01*
X67910602Y-22379172D01*
X67910609Y-22379185D01*
X67998210Y-22510288D01*
X67998213Y-22510292D01*
X68035240Y-22547319D01*
X68068725Y-22608642D01*
X68063741Y-22678334D01*
X68035240Y-22722681D01*
X67998213Y-22759707D01*
X67998210Y-22759711D01*
X67910609Y-22890814D01*
X67910602Y-22890827D01*
X67850264Y-23036498D01*
X67850261Y-23036510D01*
X67819500Y-23191153D01*
X67819500Y-23348846D01*
X67850261Y-23503489D01*
X67850264Y-23503501D01*
X67910602Y-23649172D01*
X67910609Y-23649185D01*
X67998210Y-23780288D01*
X67998213Y-23780292D01*
X68109707Y-23891786D01*
X68109711Y-23891789D01*
X68240814Y-23979390D01*
X68240827Y-23979397D01*
X68386498Y-24039735D01*
X68386503Y-24039737D01*
X68541153Y-24070499D01*
X68541156Y-24070500D01*
X68541158Y-24070500D01*
X68698844Y-24070500D01*
X68698845Y-24070499D01*
X68853497Y-24039737D01*
X68999179Y-23979394D01*
X69130289Y-23891789D01*
X69241789Y-23780289D01*
X69329394Y-23649179D01*
X69389737Y-23503497D01*
X69420500Y-23348842D01*
X69420500Y-23191158D01*
X69420500Y-23191155D01*
X69407670Y-23126658D01*
X69413897Y-23057067D01*
X69441604Y-23014787D01*
X77019574Y-15436819D01*
X77080897Y-15403334D01*
X77107255Y-15400500D01*
X93725500Y-15400500D01*
X93792539Y-15420185D01*
X93838294Y-15472989D01*
X93849500Y-15524500D01*
X93849500Y-15793102D01*
X93852591Y-15818838D01*
X93860122Y-15881561D01*
X93860122Y-15881563D01*
X93860123Y-15881564D01*
X93877722Y-15926192D01*
X93915639Y-16022343D01*
X94007077Y-16142922D01*
X94127656Y-16234360D01*
X94127657Y-16234360D01*
X94127658Y-16234361D01*
X94268436Y-16289877D01*
X94356898Y-16300500D01*
X94356903Y-16300500D01*
X95643097Y-16300500D01*
X95643102Y-16300500D01*
X95731564Y-16289877D01*
X95872342Y-16234361D01*
X95992922Y-16142922D01*
X96084361Y-16022342D01*
X96139877Y-15881564D01*
X96150500Y-15793102D01*
X96150500Y-14206898D01*
X96139877Y-14118436D01*
X96084361Y-13977658D01*
X96009327Y-13878711D01*
X114149500Y-13878711D01*
X114149500Y-14121288D01*
X114181161Y-14361785D01*
X114243947Y-14596104D01*
X114336773Y-14820205D01*
X114336776Y-14820212D01*
X114458064Y-15030289D01*
X114458066Y-15030292D01*
X114458067Y-15030293D01*
X114605733Y-15222736D01*
X114605739Y-15222743D01*
X114777256Y-15394260D01*
X114777263Y-15394266D01*
X114836019Y-15439351D01*
X114969711Y-15541936D01*
X115179788Y-15663224D01*
X115403900Y-15756054D01*
X115638211Y-15818838D01*
X115818586Y-15842584D01*
X115878711Y-15850500D01*
X115878712Y-15850500D01*
X116121289Y-15850500D01*
X116169388Y-15844167D01*
X116361789Y-15818838D01*
X116596100Y-15756054D01*
X116820212Y-15663224D01*
X117030289Y-15541936D01*
X117222738Y-15394265D01*
X117394265Y-15222738D01*
X117541936Y-15030289D01*
X117663224Y-14820212D01*
X117756054Y-14596100D01*
X117818838Y-14361789D01*
X117850500Y-14121288D01*
X117850500Y-13878712D01*
X117818838Y-13638211D01*
X117756054Y-13403900D01*
X117663224Y-13179788D01*
X117541936Y-12969711D01*
X117394265Y-12777262D01*
X117394260Y-12777256D01*
X117222743Y-12605739D01*
X117222736Y-12605733D01*
X117030293Y-12458067D01*
X117030292Y-12458066D01*
X117030289Y-12458064D01*
X116820212Y-12336776D01*
X116820205Y-12336773D01*
X116596104Y-12243947D01*
X116361785Y-12181161D01*
X116121289Y-12149500D01*
X116121288Y-12149500D01*
X115878712Y-12149500D01*
X115878711Y-12149500D01*
X115638214Y-12181161D01*
X115403895Y-12243947D01*
X115179794Y-12336773D01*
X115179785Y-12336777D01*
X114969706Y-12458067D01*
X114777263Y-12605733D01*
X114777256Y-12605739D01*
X114605739Y-12777256D01*
X114605733Y-12777263D01*
X114458067Y-12969706D01*
X114336777Y-13179785D01*
X114336773Y-13179794D01*
X114243947Y-13403895D01*
X114181161Y-13638214D01*
X114149500Y-13878711D01*
X96009327Y-13878711D01*
X95992922Y-13857078D01*
X95992920Y-13857077D01*
X95992920Y-13857076D01*
X95872343Y-13765639D01*
X95731561Y-13710122D01*
X95685926Y-13704642D01*
X95643102Y-13699500D01*
X94356898Y-13699500D01*
X94317853Y-13704188D01*
X94268438Y-13710122D01*
X94127656Y-13765639D01*
X94007077Y-13857077D01*
X93915639Y-13977656D01*
X93860122Y-14118438D01*
X93854188Y-14167853D01*
X93849500Y-14206898D01*
X93849500Y-14206903D01*
X93849500Y-14475500D01*
X93829815Y-14542539D01*
X93777011Y-14588294D01*
X93725500Y-14599500D01*
X76837273Y-14599500D01*
X76735410Y-14626793D01*
X76644087Y-14679520D01*
X76644084Y-14679522D01*
X69569981Y-21753624D01*
X69508658Y-21787109D01*
X69438966Y-21782125D01*
X69383033Y-21740253D01*
X69367739Y-21713395D01*
X69329397Y-21620826D01*
X69329390Y-21620814D01*
X69241789Y-21489711D01*
X69241786Y-21489707D01*
X69204760Y-21452681D01*
X69171275Y-21391358D01*
X69176259Y-21321666D01*
X69204760Y-21277319D01*
X69241786Y-21240292D01*
X69241789Y-21240289D01*
X69329394Y-21109179D01*
X69389737Y-20963497D01*
X69420500Y-20808842D01*
X69420500Y-20651158D01*
X69420500Y-20651155D01*
X69420499Y-20651153D01*
X69412616Y-20611522D01*
X69389737Y-20496503D01*
X69384046Y-20482764D01*
X69329397Y-20350827D01*
X69329390Y-20350814D01*
X69241789Y-20219711D01*
X69241786Y-20219707D01*
X69204760Y-20182681D01*
X69171275Y-20121358D01*
X69176259Y-20051666D01*
X69204760Y-20007319D01*
X69241786Y-19970292D01*
X69241789Y-19970289D01*
X69329394Y-19839179D01*
X69389737Y-19693497D01*
X69420500Y-19538842D01*
X69420500Y-19381158D01*
X69420500Y-19381155D01*
X69420499Y-19381153D01*
X69398787Y-19272002D01*
X69389737Y-19226503D01*
X69338580Y-19102997D01*
X69329397Y-19080827D01*
X69329390Y-19080814D01*
X69241789Y-18949711D01*
X69241786Y-18949707D01*
X69204760Y-18912681D01*
X69171275Y-18851358D01*
X69176259Y-18781666D01*
X69204760Y-18737319D01*
X69241786Y-18700292D01*
X69241789Y-18700289D01*
X69329394Y-18569179D01*
X69389737Y-18423497D01*
X69420500Y-18268842D01*
X69420500Y-18124000D01*
X69440185Y-18056961D01*
X69492989Y-18011206D01*
X69544500Y-18000000D01*
X70000000Y-18000000D01*
X70000000Y-10624500D01*
X70019685Y-10557461D01*
X70072489Y-10511706D01*
X70124000Y-10500500D01*
X119375500Y-10500500D01*
X119442539Y-10520185D01*
X119488294Y-10572989D01*
X119499500Y-10624500D01*
X119499500Y-81375500D01*
X119479815Y-81442539D01*
X119427011Y-81488294D01*
X119375500Y-81499500D01*
X10624500Y-81499500D01*
X10557461Y-81479815D01*
X10511706Y-81427011D01*
X10500500Y-81375500D01*
X10500500Y-77878711D01*
X12149500Y-77878711D01*
X12149500Y-78121288D01*
X12181161Y-78361785D01*
X12243947Y-78596104D01*
X12336773Y-78820205D01*
X12336776Y-78820212D01*
X12458064Y-79030289D01*
X12458066Y-79030292D01*
X12458067Y-79030293D01*
X12605733Y-79222736D01*
X12605739Y-79222743D01*
X12777256Y-79394260D01*
X12777262Y-79394265D01*
X12969711Y-79541936D01*
X13179788Y-79663224D01*
X13403900Y-79756054D01*
X13638211Y-79818838D01*
X13818586Y-79842584D01*
X13878711Y-79850500D01*
X13878712Y-79850500D01*
X14121289Y-79850500D01*
X14169388Y-79844167D01*
X14361789Y-79818838D01*
X14596100Y-79756054D01*
X14820212Y-79663224D01*
X15030289Y-79541936D01*
X15222738Y-79394265D01*
X15394265Y-79222738D01*
X15541936Y-79030289D01*
X15663224Y-78820212D01*
X15756054Y-78596100D01*
X15818838Y-78361789D01*
X15850500Y-78121288D01*
X15850500Y-77878712D01*
X15850500Y-77878711D01*
X114149500Y-77878711D01*
X114149500Y-78121288D01*
X114181161Y-78361785D01*
X114243947Y-78596104D01*
X114336773Y-78820205D01*
X114336776Y-78820212D01*
X114458064Y-79030289D01*
X114458066Y-79030292D01*
X114458067Y-79030293D01*
X114605733Y-79222736D01*
X114605739Y-79222743D01*
X114777256Y-79394260D01*
X114777262Y-79394265D01*
X114969711Y-79541936D01*
X115179788Y-79663224D01*
X115403900Y-79756054D01*
X115638211Y-79818838D01*
X115818586Y-79842584D01*
X115878711Y-79850500D01*
X115878712Y-79850500D01*
X116121289Y-79850500D01*
X116169388Y-79844167D01*
X116361789Y-79818838D01*
X116596100Y-79756054D01*
X116820212Y-79663224D01*
X117030289Y-79541936D01*
X117222738Y-79394265D01*
X117394265Y-79222738D01*
X117541936Y-79030289D01*
X117663224Y-78820212D01*
X117756054Y-78596100D01*
X117818838Y-78361789D01*
X117850500Y-78121288D01*
X117850500Y-77878712D01*
X117818838Y-77638211D01*
X117756054Y-77403900D01*
X117663224Y-77179788D01*
X117541936Y-76969711D01*
X117394265Y-76777262D01*
X117394260Y-76777256D01*
X117222743Y-76605739D01*
X117222736Y-76605733D01*
X117030293Y-76458067D01*
X117030292Y-76458066D01*
X117030289Y-76458064D01*
X116858661Y-76358974D01*
X116820214Y-76336777D01*
X116820205Y-76336773D01*
X116596104Y-76243947D01*
X116361785Y-76181161D01*
X116121289Y-76149500D01*
X116121288Y-76149500D01*
X115878712Y-76149500D01*
X115878711Y-76149500D01*
X115638214Y-76181161D01*
X115403895Y-76243947D01*
X115179794Y-76336773D01*
X115179785Y-76336777D01*
X114969706Y-76458067D01*
X114777263Y-76605733D01*
X114777256Y-76605739D01*
X114605739Y-76777256D01*
X114605733Y-76777263D01*
X114458067Y-76969706D01*
X114336777Y-77179785D01*
X114336773Y-77179794D01*
X114243947Y-77403895D01*
X114181161Y-77638214D01*
X114149500Y-77878711D01*
X15850500Y-77878711D01*
X15818838Y-77638211D01*
X15756054Y-77403900D01*
X15663224Y-77179788D01*
X15541936Y-76969711D01*
X15394265Y-76777262D01*
X15394260Y-76777256D01*
X15222743Y-76605739D01*
X15222736Y-76605733D01*
X15030293Y-76458067D01*
X15030292Y-76458066D01*
X15030289Y-76458064D01*
X14858661Y-76358974D01*
X14820214Y-76336777D01*
X14820205Y-76336773D01*
X14596104Y-76243947D01*
X14361785Y-76181161D01*
X14121289Y-76149500D01*
X14121288Y-76149500D01*
X13878712Y-76149500D01*
X13878711Y-76149500D01*
X13638214Y-76181161D01*
X13403895Y-76243947D01*
X13179794Y-76336773D01*
X13179785Y-76336777D01*
X12969706Y-76458067D01*
X12777263Y-76605733D01*
X12777256Y-76605739D01*
X12605739Y-76777256D01*
X12605733Y-76777263D01*
X12458067Y-76969706D01*
X12336777Y-77179785D01*
X12336773Y-77179794D01*
X12243947Y-77403895D01*
X12181161Y-77638214D01*
X12149500Y-77878711D01*
X10500500Y-77878711D01*
X10500500Y-74784448D01*
X48349500Y-74784448D01*
X48349500Y-75215551D01*
X48377829Y-75394410D01*
X48433787Y-75566636D01*
X48433788Y-75566639D01*
X48516006Y-75727997D01*
X48622441Y-75874494D01*
X48622445Y-75874499D01*
X48750500Y-76002554D01*
X48750505Y-76002558D01*
X48878287Y-76095396D01*
X48897006Y-76108996D01*
X49002484Y-76162740D01*
X49058360Y-76191211D01*
X49058363Y-76191212D01*
X49144476Y-76219191D01*
X49230591Y-76247171D01*
X49313429Y-76260291D01*
X49409449Y-76275500D01*
X49409454Y-76275500D01*
X49590551Y-76275500D01*
X49677259Y-76261765D01*
X49769409Y-76247171D01*
X49941639Y-76191211D01*
X50102994Y-76108996D01*
X50249501Y-76002553D01*
X50377553Y-75874501D01*
X50483996Y-75727994D01*
X50566211Y-75566639D01*
X50622171Y-75394409D01*
X50627527Y-75360594D01*
X50657456Y-75297459D01*
X50716768Y-75260528D01*
X50786630Y-75261526D01*
X50844863Y-75300136D01*
X50872473Y-75360594D01*
X50877829Y-75394410D01*
X50933787Y-75566636D01*
X50933788Y-75566639D01*
X51016006Y-75727997D01*
X51122441Y-75874494D01*
X51122445Y-75874499D01*
X51250500Y-76002554D01*
X51250505Y-76002558D01*
X51378287Y-76095396D01*
X51397006Y-76108996D01*
X51502484Y-76162740D01*
X51558360Y-76191211D01*
X51558363Y-76191212D01*
X51644476Y-76219191D01*
X51730591Y-76247171D01*
X51813429Y-76260291D01*
X51909449Y-76275500D01*
X51909454Y-76275500D01*
X52090551Y-76275500D01*
X52177259Y-76261765D01*
X52269409Y-76247171D01*
X52441639Y-76191211D01*
X52602994Y-76108996D01*
X52749501Y-76002553D01*
X52877553Y-75874501D01*
X52983996Y-75727994D01*
X53066211Y-75566639D01*
X53122171Y-75394409D01*
X53127527Y-75360594D01*
X53157456Y-75297459D01*
X53216768Y-75260528D01*
X53286630Y-75261526D01*
X53344863Y-75300136D01*
X53372473Y-75360594D01*
X53377829Y-75394410D01*
X53433787Y-75566636D01*
X53433788Y-75566639D01*
X53516006Y-75727997D01*
X53622441Y-75874494D01*
X53622445Y-75874499D01*
X53750500Y-76002554D01*
X53750505Y-76002558D01*
X53878287Y-76095396D01*
X53897006Y-76108996D01*
X54002484Y-76162740D01*
X54058360Y-76191211D01*
X54058363Y-76191212D01*
X54144476Y-76219191D01*
X54230591Y-76247171D01*
X54313429Y-76260291D01*
X54409449Y-76275500D01*
X54409454Y-76275500D01*
X54590551Y-76275500D01*
X54677259Y-76261765D01*
X54769409Y-76247171D01*
X54941639Y-76191211D01*
X55102994Y-76108996D01*
X55249501Y-76002553D01*
X55377553Y-75874501D01*
X55483996Y-75727994D01*
X55566211Y-75566639D01*
X55622171Y-75394409D01*
X55643376Y-75260528D01*
X55650500Y-75215551D01*
X55650500Y-74784448D01*
X55634019Y-74680397D01*
X55622171Y-74605591D01*
X55566211Y-74433361D01*
X55566211Y-74433360D01*
X55537740Y-74377484D01*
X55483996Y-74272006D01*
X55436693Y-74206898D01*
X55377558Y-74125505D01*
X55377554Y-74125500D01*
X55249499Y-73997445D01*
X55249494Y-73997441D01*
X55102997Y-73891006D01*
X55102996Y-73891005D01*
X55102994Y-73891004D01*
X55036409Y-73857077D01*
X54941639Y-73808788D01*
X54941636Y-73808787D01*
X54769410Y-73752829D01*
X54590551Y-73724500D01*
X54590546Y-73724500D01*
X54409454Y-73724500D01*
X54409449Y-73724500D01*
X54230589Y-73752829D01*
X54058363Y-73808787D01*
X54058360Y-73808788D01*
X53897002Y-73891006D01*
X53750505Y-73997441D01*
X53750500Y-73997445D01*
X53622445Y-74125500D01*
X53622441Y-74125505D01*
X53516006Y-74272002D01*
X53433788Y-74433360D01*
X53433787Y-74433363D01*
X53377829Y-74605589D01*
X53372473Y-74639406D01*
X53342543Y-74702540D01*
X53283232Y-74739471D01*
X53213369Y-74738473D01*
X53155137Y-74699863D01*
X53127527Y-74639406D01*
X53126083Y-74630291D01*
X53122171Y-74605591D01*
X53066211Y-74433361D01*
X53066211Y-74433360D01*
X53037740Y-74377484D01*
X52983996Y-74272006D01*
X52936693Y-74206898D01*
X52877558Y-74125505D01*
X52877554Y-74125500D01*
X52749499Y-73997445D01*
X52749494Y-73997441D01*
X52602997Y-73891006D01*
X52602996Y-73891005D01*
X52602994Y-73891004D01*
X52536409Y-73857077D01*
X52441639Y-73808788D01*
X52441636Y-73808787D01*
X52269410Y-73752829D01*
X52090551Y-73724500D01*
X52090546Y-73724500D01*
X51909454Y-73724500D01*
X51909449Y-73724500D01*
X51730589Y-73752829D01*
X51558363Y-73808787D01*
X51558360Y-73808788D01*
X51397002Y-73891006D01*
X51250505Y-73997441D01*
X51250500Y-73997445D01*
X51122445Y-74125500D01*
X51122441Y-74125505D01*
X51016006Y-74272002D01*
X50933788Y-74433360D01*
X50933787Y-74433363D01*
X50877829Y-74605589D01*
X50872473Y-74639406D01*
X50842543Y-74702540D01*
X50783232Y-74739471D01*
X50713369Y-74738473D01*
X50655137Y-74699863D01*
X50627527Y-74639406D01*
X50626083Y-74630291D01*
X50622171Y-74605591D01*
X50566211Y-74433361D01*
X50566211Y-74433360D01*
X50537740Y-74377484D01*
X50483996Y-74272006D01*
X50436693Y-74206898D01*
X50377558Y-74125505D01*
X50377554Y-74125500D01*
X50249499Y-73997445D01*
X50249494Y-73997441D01*
X50102997Y-73891006D01*
X50102996Y-73891005D01*
X50102994Y-73891004D01*
X50036409Y-73857077D01*
X49941639Y-73808788D01*
X49941636Y-73808787D01*
X49769410Y-73752829D01*
X49590551Y-73724500D01*
X49590546Y-73724500D01*
X49409454Y-73724500D01*
X49409449Y-73724500D01*
X49230589Y-73752829D01*
X49058363Y-73808787D01*
X49058360Y-73808788D01*
X48897002Y-73891006D01*
X48750505Y-73997441D01*
X48750500Y-73997445D01*
X48622445Y-74125500D01*
X48622441Y-74125505D01*
X48516006Y-74272002D01*
X48433788Y-74433360D01*
X48433787Y-74433363D01*
X48377829Y-74605589D01*
X48349500Y-74784448D01*
X10500500Y-74784448D01*
X10500500Y-32356898D01*
X12699500Y-32356898D01*
X12699500Y-33643102D01*
X12705126Y-33689954D01*
X12710122Y-33731561D01*
X12765639Y-33872343D01*
X12857077Y-33992922D01*
X12977656Y-34084360D01*
X12977657Y-34084360D01*
X12977658Y-34084361D01*
X13118436Y-34139877D01*
X13206898Y-34150500D01*
X13206903Y-34150500D01*
X14793097Y-34150500D01*
X14793102Y-34150500D01*
X14881564Y-34139877D01*
X15022342Y-34084361D01*
X15142922Y-33992922D01*
X15234361Y-33872342D01*
X15289877Y-33731564D01*
X15300500Y-33643102D01*
X15300500Y-32356898D01*
X15297929Y-32335493D01*
X15309478Y-32266589D01*
X15333360Y-32233031D01*
X16329574Y-31236819D01*
X16390897Y-31203334D01*
X16417255Y-31200500D01*
X19787653Y-31200500D01*
X19854692Y-31220185D01*
X19879627Y-31242385D01*
X19879778Y-31242235D01*
X19882364Y-31244821D01*
X19883513Y-31245844D01*
X19884089Y-31246546D01*
X19981654Y-31344111D01*
X19981658Y-31344114D01*
X20096382Y-31420771D01*
X20096395Y-31420778D01*
X20223867Y-31473578D01*
X20223872Y-31473580D01*
X20223876Y-31473580D01*
X20223877Y-31473581D01*
X20359204Y-31500500D01*
X20359207Y-31500500D01*
X20497195Y-31500500D01*
X20591877Y-31481666D01*
X20632528Y-31473580D01*
X20760011Y-31420775D01*
X20874742Y-31344114D01*
X20972314Y-31246542D01*
X21048975Y-31131811D01*
X21101780Y-31004328D01*
X21110589Y-30960041D01*
X21128700Y-30868995D01*
X21128700Y-30731004D01*
X21101781Y-30595677D01*
X21101780Y-30595676D01*
X21101780Y-30595672D01*
X21101778Y-30595667D01*
X21048978Y-30468195D01*
X21048971Y-30468182D01*
X20972314Y-30353458D01*
X20972311Y-30353454D01*
X20874745Y-30255888D01*
X20874741Y-30255885D01*
X20760017Y-30179228D01*
X20760004Y-30179221D01*
X20632532Y-30126421D01*
X20632522Y-30126418D01*
X20497195Y-30099500D01*
X20497193Y-30099500D01*
X20359207Y-30099500D01*
X20359205Y-30099500D01*
X20223877Y-30126418D01*
X20223867Y-30126421D01*
X20096395Y-30179221D01*
X20096382Y-30179228D01*
X19981658Y-30255885D01*
X19981654Y-30255888D01*
X19884089Y-30353453D01*
X19883513Y-30354156D01*
X19883117Y-30354425D01*
X19879778Y-30357765D01*
X19879144Y-30357131D01*
X19825771Y-30393496D01*
X19787653Y-30399500D01*
X16147273Y-30399500D01*
X16045410Y-30426793D01*
X15954087Y-30479520D01*
X15954084Y-30479522D01*
X14620426Y-31813181D01*
X14559103Y-31846666D01*
X14532745Y-31849500D01*
X13206898Y-31849500D01*
X13167853Y-31854188D01*
X13118438Y-31860122D01*
X12977656Y-31915639D01*
X12857077Y-32007077D01*
X12765639Y-32127656D01*
X12710122Y-32268438D01*
X12705931Y-32303341D01*
X12699500Y-32356898D01*
X10500500Y-32356898D01*
X10500500Y-13878711D01*
X12149500Y-13878711D01*
X12149500Y-14121288D01*
X12181161Y-14361785D01*
X12243947Y-14596104D01*
X12336773Y-14820205D01*
X12336776Y-14820212D01*
X12458064Y-15030289D01*
X12458066Y-15030292D01*
X12458067Y-15030293D01*
X12605733Y-15222736D01*
X12605739Y-15222743D01*
X12777256Y-15394260D01*
X12777263Y-15394266D01*
X12836019Y-15439351D01*
X12969711Y-15541936D01*
X13179788Y-15663224D01*
X13403900Y-15756054D01*
X13638211Y-15818838D01*
X13818586Y-15842584D01*
X13878711Y-15850500D01*
X13878712Y-15850500D01*
X14121289Y-15850500D01*
X14169388Y-15844167D01*
X14361789Y-15818838D01*
X14596100Y-15756054D01*
X14820212Y-15663224D01*
X15030289Y-15541936D01*
X15222738Y-15394265D01*
X15394265Y-15222738D01*
X15541936Y-15030289D01*
X15663224Y-14820212D01*
X15756054Y-14596100D01*
X15818838Y-14361789D01*
X15835939Y-14231898D01*
X22849500Y-14231898D01*
X22849500Y-15768102D01*
X22852502Y-15793102D01*
X22860122Y-15856561D01*
X22860122Y-15856563D01*
X22860123Y-15856564D01*
X22869981Y-15881561D01*
X22915639Y-15997343D01*
X23007077Y-16117922D01*
X23127656Y-16209360D01*
X23127657Y-16209360D01*
X23127658Y-16209361D01*
X23268436Y-16264877D01*
X23356898Y-16275500D01*
X23356903Y-16275500D01*
X24643097Y-16275500D01*
X24643102Y-16275500D01*
X24731564Y-16264877D01*
X24872342Y-16209361D01*
X24992922Y-16117922D01*
X25084361Y-15997342D01*
X25139877Y-15856564D01*
X25150500Y-15768102D01*
X25150500Y-15477669D01*
X25170185Y-15410630D01*
X25222989Y-15364875D01*
X25292147Y-15354931D01*
X25355703Y-15383956D01*
X25392431Y-15439351D01*
X25433787Y-15566636D01*
X25433788Y-15566639D01*
X25516006Y-15727997D01*
X25622441Y-15874494D01*
X25622445Y-15874499D01*
X25750500Y-16002554D01*
X25750505Y-16002558D01*
X25878287Y-16095396D01*
X25897006Y-16108996D01*
X25997674Y-16160289D01*
X26058360Y-16191211D01*
X26058363Y-16191212D01*
X26144476Y-16219191D01*
X26230591Y-16247171D01*
X26313429Y-16260291D01*
X26409449Y-16275500D01*
X26409454Y-16275500D01*
X26590551Y-16275500D01*
X26677259Y-16261765D01*
X26769409Y-16247171D01*
X26941639Y-16191211D01*
X27102994Y-16108996D01*
X27249501Y-16002553D01*
X27377553Y-15874501D01*
X27483996Y-15727994D01*
X27566211Y-15566639D01*
X27622171Y-15394409D01*
X27627527Y-15360594D01*
X27657456Y-15297459D01*
X27716768Y-15260528D01*
X27786630Y-15261526D01*
X27844863Y-15300136D01*
X27872473Y-15360594D01*
X27877829Y-15394410D01*
X27933787Y-15566636D01*
X27933788Y-15566639D01*
X28016006Y-15727997D01*
X28122441Y-15874494D01*
X28122445Y-15874499D01*
X28250500Y-16002554D01*
X28250505Y-16002558D01*
X28378287Y-16095396D01*
X28397006Y-16108996D01*
X28497674Y-16160289D01*
X28558360Y-16191211D01*
X28558363Y-16191212D01*
X28644476Y-16219191D01*
X28730591Y-16247171D01*
X28813429Y-16260291D01*
X28909449Y-16275500D01*
X28909454Y-16275500D01*
X29090551Y-16275500D01*
X29177259Y-16261765D01*
X29269409Y-16247171D01*
X29441639Y-16191211D01*
X29602994Y-16108996D01*
X29749501Y-16002553D01*
X29877553Y-15874501D01*
X29983996Y-15727994D01*
X30066211Y-15566639D01*
X30122171Y-15394409D01*
X30127527Y-15360594D01*
X30157456Y-15297459D01*
X30216768Y-15260528D01*
X30286630Y-15261526D01*
X30344863Y-15300136D01*
X30372473Y-15360594D01*
X30377829Y-15394410D01*
X30433787Y-15566636D01*
X30433788Y-15566639D01*
X30516006Y-15727997D01*
X30622441Y-15874494D01*
X30622445Y-15874499D01*
X30750500Y-16002554D01*
X30750505Y-16002558D01*
X30878287Y-16095396D01*
X30897006Y-16108996D01*
X30997674Y-16160289D01*
X31058360Y-16191211D01*
X31058363Y-16191212D01*
X31144476Y-16219191D01*
X31230591Y-16247171D01*
X31313429Y-16260291D01*
X31409449Y-16275500D01*
X31409454Y-16275500D01*
X31590551Y-16275500D01*
X31677259Y-16261765D01*
X31769409Y-16247171D01*
X31941639Y-16191211D01*
X32102994Y-16108996D01*
X32249501Y-16002553D01*
X32377553Y-15874501D01*
X32483996Y-15727994D01*
X32566211Y-15566639D01*
X32622171Y-15394409D01*
X32627527Y-15360594D01*
X32657456Y-15297459D01*
X32716768Y-15260528D01*
X32786630Y-15261526D01*
X32844863Y-15300136D01*
X32872473Y-15360594D01*
X32877829Y-15394410D01*
X32933787Y-15566636D01*
X32933788Y-15566639D01*
X33016006Y-15727997D01*
X33122441Y-15874494D01*
X33122445Y-15874499D01*
X33250500Y-16002554D01*
X33250505Y-16002558D01*
X33378287Y-16095396D01*
X33397006Y-16108996D01*
X33497674Y-16160289D01*
X33558360Y-16191211D01*
X33558363Y-16191212D01*
X33644476Y-16219191D01*
X33730591Y-16247171D01*
X33813429Y-16260291D01*
X33909449Y-16275500D01*
X33909454Y-16275500D01*
X34090551Y-16275500D01*
X34177259Y-16261765D01*
X34269409Y-16247171D01*
X34441639Y-16191211D01*
X34602994Y-16108996D01*
X34749501Y-16002553D01*
X34877553Y-15874501D01*
X34983996Y-15727994D01*
X35066211Y-15566639D01*
X35122171Y-15394409D01*
X35137526Y-15297459D01*
X35150500Y-15215551D01*
X35150500Y-14784448D01*
X35128495Y-14645522D01*
X35122171Y-14605591D01*
X35066211Y-14433361D01*
X35066211Y-14433360D01*
X35029741Y-14361785D01*
X34983996Y-14272006D01*
X34983824Y-14271769D01*
X34982601Y-14270085D01*
X34982296Y-14269231D01*
X34981450Y-14267850D01*
X34981740Y-14267672D01*
X34959121Y-14204279D01*
X34974946Y-14136225D01*
X35025052Y-14087530D01*
X35082919Y-14073200D01*
X40814024Y-14073200D01*
X40881063Y-14092885D01*
X40901705Y-14109519D01*
X46335880Y-19543694D01*
X46369365Y-19605017D01*
X46370672Y-19650773D01*
X46349500Y-19784448D01*
X46349500Y-20215551D01*
X46377829Y-20394410D01*
X46433787Y-20566636D01*
X46433788Y-20566639D01*
X46516006Y-20727997D01*
X46622441Y-20874494D01*
X46622445Y-20874499D01*
X46750500Y-21002554D01*
X46750505Y-21002558D01*
X46878287Y-21095396D01*
X46897006Y-21108996D01*
X47002484Y-21162740D01*
X47058360Y-21191211D01*
X47058363Y-21191212D01*
X47144476Y-21219191D01*
X47230591Y-21247171D01*
X47313429Y-21260291D01*
X47409449Y-21275500D01*
X47409454Y-21275500D01*
X47590551Y-21275500D01*
X47677259Y-21261765D01*
X47769409Y-21247171D01*
X47941639Y-21191211D01*
X48102994Y-21108996D01*
X48249501Y-21002553D01*
X48377553Y-20874501D01*
X48483996Y-20727994D01*
X48566211Y-20566639D01*
X48622171Y-20394409D01*
X48641180Y-20274390D01*
X48650500Y-20215551D01*
X48650500Y-19784448D01*
X48625529Y-19626793D01*
X48622171Y-19605591D01*
X48566211Y-19433361D01*
X48566211Y-19433360D01*
X48537740Y-19377484D01*
X48483996Y-19272006D01*
X48454856Y-19231898D01*
X48377558Y-19125505D01*
X48377554Y-19125500D01*
X48249499Y-18997445D01*
X48249494Y-18997441D01*
X48102997Y-18891006D01*
X48102996Y-18891005D01*
X48102994Y-18891004D01*
X48051300Y-18864664D01*
X47941639Y-18808788D01*
X47941636Y-18808787D01*
X47769410Y-18752829D01*
X47590551Y-18724500D01*
X47590546Y-18724500D01*
X47409454Y-18724500D01*
X47409449Y-18724500D01*
X47230587Y-18752829D01*
X47099110Y-18795548D01*
X47029269Y-18797543D01*
X46973112Y-18765298D01*
X41380016Y-13172202D01*
X41380014Y-13172200D01*
X41322950Y-13139254D01*
X41265887Y-13106308D01*
X41202239Y-13089254D01*
X41138592Y-13072200D01*
X27993192Y-13072200D01*
X27861408Y-13072200D01*
X27734112Y-13106308D01*
X27619986Y-13172200D01*
X27619983Y-13172202D01*
X27026887Y-13765297D01*
X26965564Y-13798782D01*
X26900889Y-13795547D01*
X26769412Y-13752829D01*
X26590551Y-13724500D01*
X26590546Y-13724500D01*
X26409454Y-13724500D01*
X26409449Y-13724500D01*
X26230589Y-13752829D01*
X26058363Y-13808787D01*
X26058360Y-13808788D01*
X25897002Y-13891006D01*
X25750505Y-13997441D01*
X25750500Y-13997445D01*
X25622445Y-14125500D01*
X25622441Y-14125505D01*
X25516006Y-14272002D01*
X25433788Y-14433360D01*
X25433787Y-14433363D01*
X25392431Y-14560648D01*
X25352994Y-14618323D01*
X25288635Y-14645522D01*
X25219789Y-14633608D01*
X25168313Y-14586364D01*
X25150500Y-14522330D01*
X25150500Y-14231903D01*
X25150500Y-14231898D01*
X25139877Y-14143436D01*
X25084361Y-14002658D01*
X25084360Y-14002657D01*
X25084360Y-14002656D01*
X24992922Y-13882077D01*
X24872343Y-13790639D01*
X24731561Y-13735122D01*
X24685926Y-13729642D01*
X24643102Y-13724500D01*
X23356898Y-13724500D01*
X23317853Y-13729188D01*
X23268438Y-13735122D01*
X23127656Y-13790639D01*
X23007077Y-13882077D01*
X22915639Y-14002656D01*
X22860122Y-14143438D01*
X22854188Y-14192853D01*
X22849500Y-14231898D01*
X15835939Y-14231898D01*
X15839230Y-14206898D01*
X15850500Y-14121288D01*
X15850500Y-13878711D01*
X15831596Y-13735122D01*
X15818838Y-13638211D01*
X15756054Y-13403900D01*
X15663224Y-13179788D01*
X15541936Y-12969711D01*
X15394265Y-12777262D01*
X15394260Y-12777256D01*
X15222743Y-12605739D01*
X15222736Y-12605733D01*
X15030293Y-12458067D01*
X15030292Y-12458066D01*
X15030289Y-12458064D01*
X14820212Y-12336776D01*
X14820205Y-12336773D01*
X14596104Y-12243947D01*
X14361785Y-12181161D01*
X14121289Y-12149500D01*
X14121288Y-12149500D01*
X13878712Y-12149500D01*
X13878711Y-12149500D01*
X13638214Y-12181161D01*
X13403895Y-12243947D01*
X13179794Y-12336773D01*
X13179785Y-12336777D01*
X12969706Y-12458067D01*
X12777263Y-12605733D01*
X12777256Y-12605739D01*
X12605739Y-12777256D01*
X12605733Y-12777263D01*
X12458067Y-12969706D01*
X12336777Y-13179785D01*
X12336773Y-13179794D01*
X12243947Y-13403895D01*
X12181161Y-13638214D01*
X12149500Y-13878711D01*
X10500500Y-13878711D01*
X10500500Y-10624500D01*
X10520185Y-10557461D01*
X10572989Y-10511706D01*
X10624500Y-10500500D01*
X51876000Y-10500500D01*
X51943039Y-10520185D01*
G37*
%TD.AperFunction*%
%TD*%
M02*
