M48
; DRILL file KiCad 10.0.6 date 2026-09-14T21:58:46
; FORMAT={-:-/ absolute / metric / decimal}
; #@! TF.CreationDate,2026-09-14T21:58:46+09:00
; #@! TF.GenerationSoftware,Kicad,Pcbnew,10.0.6
; #@! TF.FileFunction,Plated,1,2,PTH
FMAT,2
METRIC
; #@! TA.AperFunction,Plated,PTH,ViaDrill
T1C0.400
; #@! TA.AperFunction,Plated,PTH,ComponentDrill
T2C0.700
; #@! TA.AperFunction,Plated,PTH,ComponentDrill
T3C0.800
; #@! TA.AperFunction,Plated,PTH,ComponentDrill
T4C0.950
; #@! TA.AperFunction,Plated,PTH,ComponentDrill
T5C1.000
; #@! TA.AperFunction,Plated,PTH,ComponentDrill
T6C1.200
%
G90
G05
T1
X20.428Y-30.8
X29.768Y-24.979
X35.779Y-57.104
X44.854Y-65.0
X55.708Y-23.828
X66.914Y-34.867
X68.35Y-65.125
X68.706Y-33.721
X71.619Y-65.194
X75.404Y-26.666
X77.359Y-43.184
X77.361Y-57.186
X78.175Y-31.638
X79.0Y-51.175
X80.641Y-30.816
X80.645Y-24.817
X99.619Y-27.156
T2
X68.62Y-11.84
X68.62Y-13.11
X68.62Y-14.38
X68.62Y-15.65
X68.62Y-16.92
X68.62Y-18.19
X68.62Y-19.46
X68.62Y-20.73
X68.62Y-22.0
X68.62Y-23.27
X68.62Y-24.54
X68.62Y-25.81
X68.62Y-27.08
X68.62Y-28.35
X68.62Y-29.62
X68.62Y-30.89
X68.62Y-32.16
T3
X98.0Y-49.0
X100.0Y-49.0
T4
X24.0Y-15.0
X26.5Y-15.0
X29.0Y-15.0
X31.5Y-15.0
X34.0Y-15.0
X40.0Y-20.0
X42.5Y-20.0
X45.0Y-20.0
X47.0Y-75.0
X47.5Y-20.0
X49.5Y-75.0
X52.0Y-75.0
X54.5Y-75.0
X108.0Y-13.5
X108.0Y-16.0
X108.0Y-18.5
X108.0Y-21.0
X108.0Y-23.5
X108.0Y-26.0
X108.0Y-34.5
X108.0Y-37.0
X108.0Y-39.5
X108.0Y-42.0
X108.0Y-50.0
X108.0Y-52.5
X108.0Y-55.0
T5
X14.0Y-20.5
X14.0Y-23.0
X14.0Y-30.5
X14.0Y-33.0
X14.0Y-40.5
X14.0Y-43.0
X14.0Y-50.5
X14.0Y-53.0
X14.0Y-61.5
X14.0Y-64.0
X21.46Y-53.0
X21.46Y-55.54
X21.46Y-58.08
X21.46Y-60.62
X21.46Y-63.16
X21.46Y-65.7
X21.46Y-68.24
X24.0Y-53.0
X24.0Y-55.54
X24.0Y-58.08
X24.0Y-60.62
X24.0Y-63.16
X24.0Y-65.7
X24.0Y-68.24
X53.38Y-19.46
X53.38Y-22.0
X53.38Y-24.54
X53.38Y-27.08
X53.38Y-29.62
X53.38Y-32.16
X61.0Y-75.0
X63.5Y-75.0
X82.0Y-75.0
X84.0Y-63.0
X84.0Y-65.54
X84.5Y-75.0
X94.0Y-62.0
X94.0Y-75.0
X95.0Y-15.0
X96.5Y-75.0
X97.5Y-15.0
X99.0Y-62.0
X105.0Y-75.0
X107.5Y-75.0
T6
X108.0Y-65.0
X113.0Y-65.0
M30
