%TF.GenerationSoftware,KiCad,Pcbnew,10.0.6*%
%TF.CreationDate,2026-09-14T21:58:46+09:00*%
%TF.ProjectId,stamp_s3a_interposer_pcba,7374616d-705f-4733-9361-5f696e746572,rev?*%
%TF.SameCoordinates,Original*%
%TF.FileFunction,Copper,L2,Bot*%
%TF.FilePolarity,Positive*%
%FSLAX46Y46*%
G04 Gerber Fmt 4.6, Leading zero omitted, Abs format (unit mm)*
G04 Created by KiCad (PCBNEW 10.0.6) date 2026-09-14 21:58:46*
%MOMM*%
%LPD*%
G01*
G04 APERTURE LIST*
G04 Aperture macros list*
%AMRoundRect*
0 Rectangle with rounded corners*
0 $1 Rounding radius*
0 $2 $3 $4 $5 $6 $7 $8 $9 X,Y pos of 4 corners*
0 Add a 4 corners polygon primitive as box body*
4,1,4,$2,$3,$4,$5,$6,$7,$8,$9,$2,$3,0*
0 Add four circle primitives for the rounded corners*
1,1,$1+$1,$2,$3*
1,1,$1+$1,$4,$5*
1,1,$1+$1,$6,$7*
1,1,$1+$1,$8,$9*
0 Add four rect primitives between the rounded corners*
20,1,$1+$1,$2,$3,$4,$5,0*
20,1,$1+$1,$4,$5,$6,$7,0*
20,1,$1+$1,$6,$7,$8,$9,0*
20,1,$1+$1,$8,$9,$2,$3,0*%
G04 Aperture macros list end*
%TA.AperFunction,ComponentPad*%
%ADD10R,1.700000X1.700000*%
%TD*%
%TA.AperFunction,ComponentPad*%
%ADD11C,1.700000*%
%TD*%
%TA.AperFunction,ComponentPad*%
%ADD12RoundRect,0.250000X-0.750000X-0.750000X0.750000X-0.750000X0.750000X0.750000X-0.750000X0.750000X0*%
%TD*%
%TA.AperFunction,ComponentPad*%
%ADD13C,2.000000*%
%TD*%
%TA.AperFunction,ComponentPad*%
%ADD14RoundRect,0.250000X-0.600000X-0.750000X0.600000X-0.750000X0.600000X0.750000X-0.600000X0.750000X0*%
%TD*%
%TA.AperFunction,ComponentPad*%
%ADD15O,1.700000X2.000000*%
%TD*%
%TA.AperFunction,ComponentPad*%
%ADD16RoundRect,0.250000X0.750000X-0.600000X0.750000X0.600000X-0.750000X0.600000X-0.750000X-0.600000X0*%
%TD*%
%TA.AperFunction,ComponentPad*%
%ADD17O,2.000000X1.700000*%
%TD*%
%TA.AperFunction,ComponentPad*%
%ADD18RoundRect,0.250001X-0.949999X-0.949999X0.949999X-0.949999X0.949999X0.949999X-0.949999X0.949999X0*%
%TD*%
%TA.AperFunction,ComponentPad*%
%ADD19C,2.400000*%
%TD*%
%TA.AperFunction,ComponentPad*%
%ADD20RoundRect,0.250000X0.725000X-0.600000X0.725000X0.600000X-0.725000X0.600000X-0.725000X-0.600000X0*%
%TD*%
%TA.AperFunction,ComponentPad*%
%ADD21O,1.950000X1.700000*%
%TD*%
%TA.AperFunction,ComponentPad*%
%ADD22RoundRect,0.250000X-0.550000X-0.550000X0.550000X-0.550000X0.550000X0.550000X-0.550000X0.550000X0*%
%TD*%
%TA.AperFunction,ComponentPad*%
%ADD23C,1.600000*%
%TD*%
%TA.AperFunction,ComponentPad*%
%ADD24RoundRect,0.250000X-0.600000X-0.725000X0.600000X-0.725000X0.600000X0.725000X-0.600000X0.725000X0*%
%TD*%
%TA.AperFunction,ComponentPad*%
%ADD25O,1.700000X1.950000*%
%TD*%
%TA.AperFunction,ComponentPad*%
%ADD26R,1.000000X1.000000*%
%TD*%
%TA.AperFunction,ComponentPad*%
%ADD27C,1.000000*%
%TD*%
%TA.AperFunction,ViaPad*%
%ADD28C,0.800000*%
%TD*%
%TA.AperFunction,Conductor*%
%ADD29C,0.400000*%
%TD*%
%TA.AperFunction,Conductor*%
%ADD30C,1.000000*%
%TD*%
%TA.AperFunction,Conductor*%
%ADD31C,0.300000*%
%TD*%
%TA.AperFunction,Conductor*%
%ADD32C,0.200000*%
%TD*%
G04 APERTURE END LIST*
D10*
%TO.P,JP_STAMP_5V,1*%
%TO.N,+5V_LOGIC*%
X84000000Y-63000000D03*
D11*
%TO.P,JP_STAMP_5V,2*%
%TO.N,+5V_STAMP*%
X84000000Y-65540000D03*
%TD*%
D12*
%TO.P,C1,1*%
%TO.N,+5V_LOGIC*%
X94000000Y-62000000D03*
D13*
%TO.P,C1,2*%
%TO.N,GND*%
X99000000Y-62000000D03*
%TD*%
D11*
%TO.P,J_STAMP_6,18*%
%TO.N,GND*%
X53380000Y-32160000D03*
%TO.P,J_STAMP_6,20*%
%TO.N,N/C*%
X53380000Y-29620000D03*
%TO.P,J_STAMP_6,22*%
X53380000Y-27080000D03*
%TO.P,J_STAMP_6,24*%
%TO.N,SW_WIN_A*%
X53380000Y-24540000D03*
%TO.P,J_STAMP_6,26*%
%TO.N,I2S_BCLK_SRC*%
X53380000Y-22000000D03*
D10*
%TO.P,J_STAMP_6,28*%
%TO.N,+3V3_STAMP*%
X53380000Y-19460000D03*
%TD*%
D14*
%TO.P,J_PWR_SERVO,1*%
%TO.N,+5V_LOGIC*%
X105000000Y-75000000D03*
D15*
%TO.P,J_PWR_SERVO,2*%
%TO.N,GND*%
X107500000Y-75000000D03*
%TD*%
D16*
%TO.P,J_WIN_B,1*%
%TO.N,SW_WIN_B*%
X14000000Y-33000000D03*
D17*
%TO.P,J_WIN_B,2*%
%TO.N,GND*%
X14000000Y-30500000D03*
%TD*%
D18*
%TO.P,C3,1*%
%TO.N,+5V_LOGIC*%
X108000000Y-65000000D03*
D19*
%TO.P,C3,2*%
%TO.N,GND*%
X113000000Y-65000000D03*
%TD*%
D20*
%TO.P,J_MIC,1*%
%TO.N,GND*%
X108000000Y-26000000D03*
D21*
%TO.P,J_MIC,2*%
%TO.N,+3V3_STAMP*%
X108000000Y-23500000D03*
%TO.P,J_MIC,3*%
%TO.N,I2S_DIN_MIC*%
X108000000Y-21000000D03*
%TO.P,J_MIC,4*%
%TO.N,I2S_BCLK_MIC*%
X108000000Y-18500000D03*
%TO.P,J_MIC,5*%
%TO.N,I2S_WS_MIC*%
X108000000Y-16000000D03*
%TO.P,J_MIC,6*%
%TO.N,GND*%
X108000000Y-13500000D03*
%TD*%
D10*
%TO.P,J_SOLIST,1*%
%TO.N,I2C_SCL*%
X24000000Y-53000000D03*
D11*
%TO.P,J_SOLIST,2*%
%TO.N,GND*%
X21460000Y-53000000D03*
%TO.P,J_SOLIST,3*%
%TO.N,I2C_SDA*%
X24000000Y-55540000D03*
%TO.P,J_SOLIST,4*%
%TO.N,GND*%
X21460000Y-55540000D03*
%TO.P,J_SOLIST,5*%
%TO.N,N/C*%
X24000000Y-58080000D03*
%TO.P,J_SOLIST,6*%
%TO.N,TFT_RST_N*%
X21460000Y-58080000D03*
%TO.P,J_SOLIST,7*%
%TO.N,TFT_DC*%
X24000000Y-60620000D03*
%TO.P,J_SOLIST,8*%
%TO.N,N/C*%
X21460000Y-60620000D03*
%TO.P,J_SOLIST,9*%
%TO.N,TFT_MOSI*%
X24000000Y-63160000D03*
%TO.P,J_SOLIST,10*%
%TO.N,PCA_OE*%
X21460000Y-63160000D03*
%TO.P,J_SOLIST,11*%
%TO.N,GND*%
X24000000Y-65700000D03*
%TO.P,J_SOLIST,12*%
%TO.N,TFT_SCK*%
X21460000Y-65700000D03*
%TO.P,J_SOLIST,13*%
%TO.N,GND*%
X24000000Y-68240000D03*
%TO.P,J_SOLIST,14*%
%TO.N,TFT_CS_N*%
X21460000Y-68240000D03*
%TD*%
D14*
%TO.P,J_PCA_OE,1*%
%TO.N,PCA_OE*%
X61000000Y-75000000D03*
D15*
%TO.P,J_PCA_OE,2*%
%TO.N,GND*%
X63500000Y-75000000D03*
%TD*%
D16*
%TO.P,J_WIN_A,1*%
%TO.N,SW_WIN_A*%
X14000000Y-23000000D03*
D17*
%TO.P,J_WIN_A,2*%
%TO.N,GND*%
X14000000Y-20500000D03*
%TD*%
D20*
%TO.P,J_AMP_SIG,1*%
%TO.N,I2S_WS_AMP*%
X108000000Y-42000000D03*
D21*
%TO.P,J_AMP_SIG,2*%
%TO.N,I2S_BCLK_AMP*%
X108000000Y-39500000D03*
%TO.P,J_AMP_SIG,3*%
%TO.N,I2S_DOUT_AMP*%
X108000000Y-37000000D03*
%TO.P,J_AMP_SIG,4*%
%TO.N,GND*%
X108000000Y-34500000D03*
%TD*%
D22*
%TO.P,C5,1*%
%TO.N,+5V_LOGIC*%
X98000000Y-49000000D03*
D23*
%TO.P,C5,2*%
%TO.N,GND*%
X100000000Y-49000000D03*
%TD*%
D24*
%TO.P,J_SERVO_CTRL,1*%
%TO.N,GND*%
X47000000Y-75000000D03*
D25*
%TO.P,J_SERVO_CTRL,2*%
%TO.N,I2C_SCL*%
X49500000Y-75000000D03*
%TO.P,J_SERVO_CTRL,3*%
%TO.N,I2C_SDA*%
X52000000Y-75000000D03*
%TO.P,J_SERVO_CTRL,4*%
%TO.N,+3V3_STAMP*%
X54500000Y-75000000D03*
%TD*%
D16*
%TO.P,J_WIN_C,1*%
%TO.N,SW_WIN_C*%
X14000000Y-43000000D03*
D17*
%TO.P,J_WIN_C,2*%
%TO.N,GND*%
X14000000Y-40500000D03*
%TD*%
D16*
%TO.P,J_DOOR_AB,1*%
%TO.N,SW_DOOR_AB*%
X14000000Y-53000000D03*
D17*
%TO.P,J_DOOR_AB,2*%
%TO.N,GND*%
X14000000Y-50500000D03*
%TD*%
D24*
%TO.P,J_TFT_PWR,1*%
%TO.N,TFT_RST_N*%
X40000000Y-20000000D03*
D25*
%TO.P,J_TFT_PWR,2*%
%TO.N,TFT_CS_N*%
X42500000Y-20000000D03*
%TO.P,J_TFT_PWR,3*%
%TO.N,GND*%
X45000000Y-20000000D03*
%TO.P,J_TFT_PWR,4*%
%TO.N,+5V_LOGIC*%
X47500000Y-20000000D03*
%TD*%
D14*
%TO.P,J_PWR_LOGIC,1*%
%TO.N,+5V_LOGIC*%
X82000000Y-75000000D03*
D15*
%TO.P,J_PWR_LOGIC,2*%
%TO.N,GND*%
X84500000Y-75000000D03*
%TD*%
D20*
%TO.P,J_AMP_PWR,1*%
%TO.N,AMP_SD*%
X108000000Y-55000000D03*
D21*
%TO.P,J_AMP_PWR,2*%
%TO.N,GND*%
X108000000Y-52500000D03*
%TO.P,J_AMP_PWR,3*%
%TO.N,+5V_LOGIC*%
X108000000Y-50000000D03*
%TD*%
D26*
%TO.P,J_STAMP_17,1*%
%TO.N,AMP_SD*%
X68620000Y-11840000D03*
D27*
%TO.P,J_STAMP_17,2*%
%TO.N,SW_WIN_B*%
X68620000Y-13110000D03*
%TO.P,J_STAMP_17,3*%
%TO.N,N/C*%
X68620000Y-14380000D03*
%TO.P,J_STAMP_17,4*%
%TO.N,SW_WIN_C*%
X68620000Y-15650000D03*
%TO.P,J_STAMP_17,5*%
%TO.N,I2S_WS_SRC*%
X68620000Y-16920000D03*
%TO.P,J_STAMP_17,6*%
%TO.N,SW_DOOR_AB*%
X68620000Y-18190000D03*
%TO.P,J_STAMP_17,7*%
%TO.N,I2S_DOUT_SRC*%
X68620000Y-19460000D03*
%TO.P,J_STAMP_17,8*%
%TO.N,SW_DOOR_BC*%
X68620000Y-20730000D03*
%TO.P,J_STAMP_17,9*%
%TO.N,I2S_DIN_MIC*%
X68620000Y-22000000D03*
%TO.P,J_STAMP_17,10*%
%TO.N,EXEC_N*%
X68620000Y-23270000D03*
%TO.P,J_STAMP_17,11*%
%TO.N,GND*%
X68620000Y-24540000D03*
%TO.P,J_STAMP_17,12*%
%TO.N,N/C*%
X68620000Y-25810000D03*
%TO.P,J_STAMP_17,13*%
%TO.N,+5V_STAMP*%
X68620000Y-27080000D03*
%TO.P,J_STAMP_17,14*%
%TO.N,N/C*%
X68620000Y-28350000D03*
%TO.P,J_STAMP_17,15*%
%TO.N,I2C_SDA*%
X68620000Y-29620000D03*
%TO.P,J_STAMP_17,16*%
%TO.N,N/C*%
X68620000Y-30890000D03*
%TO.P,J_STAMP_17,17*%
%TO.N,I2C_SCL*%
X68620000Y-32160000D03*
%TD*%
D16*
%TO.P,J_DOOR_BC,1*%
%TO.N,SW_DOOR_BC*%
X14000000Y-64000000D03*
D17*
%TO.P,J_DOOR_BC,2*%
%TO.N,GND*%
X14000000Y-61500000D03*
%TD*%
D14*
%TO.P,J_SERVO_5V_OUT,1*%
%TO.N,+5V_LOGIC*%
X94000000Y-75000000D03*
D15*
%TO.P,J_SERVO_5V_OUT,2*%
%TO.N,GND*%
X96500000Y-75000000D03*
%TD*%
D14*
%TO.P,J_EXEC,1*%
%TO.N,EXEC_N*%
X95000000Y-15000000D03*
D15*
%TO.P,J_EXEC,2*%
%TO.N,GND*%
X97500000Y-15000000D03*
%TD*%
D24*
%TO.P,J_TFT_SIG,1*%
%TO.N,N/C*%
X24000000Y-15000000D03*
D25*
%TO.P,J_TFT_SIG,2*%
%TO.N,+5V_LOGIC*%
X26500000Y-15000000D03*
%TO.P,J_TFT_SIG,3*%
%TO.N,TFT_SCK*%
X29000000Y-15000000D03*
%TO.P,J_TFT_SIG,4*%
%TO.N,TFT_MOSI*%
X31500000Y-15000000D03*
%TO.P,J_TFT_SIG,5*%
%TO.N,TFT_DC*%
X34000000Y-15000000D03*
%TD*%
D28*
%TO.N,+5V_LOGIC*%
X68350000Y-65125000D03*
%TO.N,+3V3_STAMP*%
X68706000Y-33720800D03*
X44853700Y-65000000D03*
%TO.N,GND*%
X71618800Y-65193500D03*
X99618800Y-27156200D03*
%TO.N,I2S_BCLK_SRC*%
X66914000Y-34867200D03*
X55708100Y-23827500D03*
%TO.N,I2S_DOUT_SRC*%
X77359400Y-43184400D03*
%TO.N,SW_WIN_B*%
X20428200Y-30800000D03*
%TO.N,I2S_DIN_MIC*%
X77361500Y-57186500D03*
X75404500Y-26666400D03*
%TO.N,I2S_WS_MIC*%
X80641200Y-30816200D03*
%TO.N,I2S_WS_SRC*%
X78175000Y-31637900D03*
%TO.N,TFT_DC*%
X35778700Y-57104000D03*
%TO.N,TFT_CS_N*%
X29768000Y-24978900D03*
%TO.N,AMP_SD*%
X79000000Y-51175000D03*
%TO.N,I2S_BCLK_AMP*%
X80645300Y-24817100D03*
%TD*%
%TO.N,+5V_LOGIC*%
D29*
X82000000Y-75000000D02*
X85251700Y-71748300D01*
D30*
X105000000Y-68000000D02*
X105000000Y-75000000D01*
X108000000Y-65000000D02*
X105000000Y-68000000D01*
X94000000Y-75000000D02*
X90000000Y-71748300D01*
D29*
X85251700Y-71748300D02*
X85251700Y-64955700D01*
D30*
X90000000Y-71748300D02*
X85251700Y-71748300D01*
D29*
X68350000Y-42742100D02*
X68350000Y-65125000D01*
X84547700Y-64251700D02*
X84000000Y-64251700D01*
X47500000Y-23012700D02*
X52837300Y-28350000D01*
X98000000Y-49000000D02*
X94000000Y-53000000D01*
X94000000Y-53000000D02*
X94000000Y-62000000D01*
X84000000Y-63000000D02*
X84000000Y-64251700D01*
X47500000Y-20000000D02*
X47500000Y-23012700D01*
X85251700Y-64955700D02*
X84547700Y-64251700D01*
X52837300Y-28350000D02*
X53957900Y-28350000D01*
X53957900Y-28350000D02*
X68350000Y-42742100D01*
%TO.N,+5V_STAMP*%
D31*
X68742500Y-27080000D02*
X68620000Y-27080000D01*
X70950500Y-52490500D02*
X70950500Y-29288000D01*
X84000000Y-65540000D02*
X70950500Y-52490500D01*
X70950500Y-29288000D02*
X68742500Y-27080000D01*
%TO.N,+3V3_STAMP*%
X52932600Y-23270000D02*
X54925800Y-23270000D01*
X52178300Y-22515700D02*
X52932600Y-23270000D01*
X51383400Y-18665100D02*
X52178300Y-19460000D01*
X53298300Y-73444600D02*
X44853700Y-65000000D01*
X54500000Y-75000000D02*
X53298300Y-75000000D01*
X53380000Y-19460000D02*
X52178300Y-19460000D01*
X53298300Y-75000000D02*
X53298300Y-73444600D01*
X43750000Y-19353200D02*
X44438100Y-18665100D01*
X44853700Y-65000000D02*
X43750000Y-63896300D01*
X52178300Y-19460000D02*
X52178300Y-22515700D01*
X43750000Y-63896300D02*
X43750000Y-19353200D01*
X55120000Y-23075800D02*
X58061000Y-23075800D01*
X58061000Y-23075800D02*
X68706000Y-33720800D01*
X54925800Y-23270000D02*
X55120000Y-23075800D01*
X44438100Y-18665100D02*
X51383400Y-18665100D01*
%TO.N,GND*%
D32*
X82901100Y-76336700D02*
X83348300Y-75889500D01*
X13208200Y-31651700D02*
X12668500Y-32191400D01*
X21460000Y-55540000D02*
X21460000Y-53000000D01*
X14000000Y-40500000D02*
X14000000Y-39348300D01*
X71618800Y-68032900D02*
X79922600Y-76336700D01*
X14000000Y-61500000D02*
X14000000Y-60348300D01*
X108000000Y-35651700D02*
X108431900Y-35651700D01*
X79922600Y-76336700D02*
X82901100Y-76336700D01*
X109292400Y-36512200D02*
X109292400Y-50507600D01*
X97500000Y-25037400D02*
X99618800Y-27156200D01*
X14000000Y-30500000D02*
X14000000Y-29348300D01*
X108000000Y-52500000D02*
X108000000Y-51348300D01*
X12668500Y-38016800D02*
X14000000Y-39348300D01*
X109292400Y-50507600D02*
X108451700Y-51348300D01*
X100000000Y-61000000D02*
X100000000Y-49000000D01*
X12668500Y-22191400D02*
X12668500Y-28016800D01*
X15348800Y-63773800D02*
X15348800Y-63193900D01*
X107500000Y-70500000D02*
X107500000Y-75000000D01*
X108000000Y-34500000D02*
X108000000Y-35651700D01*
X45000000Y-23780000D02*
X45000000Y-20000000D01*
X25200100Y-64499900D02*
X24000000Y-65700000D01*
X24000000Y-68240000D02*
X22798300Y-69441700D01*
X108431900Y-35651700D02*
X109292400Y-36512200D01*
X14000000Y-60348300D02*
X12651200Y-58999500D01*
X22712000Y-58456100D02*
X23605900Y-59350000D01*
X84500000Y-75000000D02*
X83348300Y-75000000D01*
X14791800Y-41651700D02*
X15315600Y-42175500D01*
X12651200Y-52111000D02*
X13110500Y-51651700D01*
X14000000Y-50500000D02*
X14000000Y-51651700D01*
X63500000Y-75000000D02*
X64651700Y-75000000D01*
X25200100Y-60172100D02*
X25200100Y-64499900D01*
X14000000Y-31651700D02*
X13208200Y-31651700D01*
X97651700Y-63348300D02*
X99000000Y-62000000D01*
X71618800Y-68032900D02*
X64651700Y-75000000D01*
X99000000Y-62000000D02*
X100000000Y-61000000D01*
X22798300Y-69441700D02*
X21016700Y-69441700D01*
X14000000Y-61500000D02*
X14000000Y-62651700D01*
X53380000Y-32160000D02*
X45000000Y-23780000D01*
X13208200Y-21651700D02*
X12668500Y-22191400D01*
X97500000Y-15000000D02*
X97500000Y-25037400D01*
X12651200Y-58999500D02*
X12651200Y-52111000D01*
X21016700Y-69441700D02*
X15348800Y-63773800D01*
X108451700Y-51348300D02*
X108000000Y-51348300D01*
X14000000Y-41651700D02*
X14791800Y-41651700D01*
X24378000Y-59350000D02*
X25200100Y-60172100D01*
X14000000Y-21651700D02*
X13208200Y-21651700D01*
X12668500Y-28016800D02*
X14000000Y-29348300D01*
X108000000Y-34500000D02*
X108000000Y-26000000D01*
X23605900Y-59350000D02*
X24378000Y-59350000D01*
X15315600Y-42175500D02*
X15315600Y-48032700D01*
X14000000Y-40500000D02*
X14000000Y-41651700D01*
X71618800Y-65193500D02*
X71618800Y-68032900D01*
X21460000Y-55540000D02*
X22712000Y-56792000D01*
X14000000Y-50500000D02*
X14000000Y-49348300D01*
X14000000Y-30500000D02*
X14000000Y-31651700D01*
X14806600Y-62651700D02*
X14000000Y-62651700D01*
X15348800Y-63193900D02*
X14806600Y-62651700D01*
X96500000Y-75000000D02*
X97651700Y-75000000D01*
X24000000Y-68240000D02*
X24000000Y-65700000D01*
X83348300Y-75889500D02*
X83348300Y-75000000D01*
X97651700Y-75000000D02*
X97651700Y-63348300D01*
X15315600Y-48032700D02*
X14000000Y-49348300D01*
X14000000Y-20500000D02*
X14000000Y-21651700D01*
X113000000Y-65000000D02*
X107500000Y-70500000D01*
X12668500Y-32191400D02*
X12668500Y-38016800D01*
X13110500Y-51651700D02*
X14000000Y-51651700D01*
X22712000Y-56792000D02*
X22712000Y-58456100D01*
%TO.N,I2S_BCLK_SRC*%
X55708100Y-23827500D02*
X55874300Y-23827500D01*
X55874300Y-23827500D02*
X66914000Y-34867200D01*
%TO.N,I2S_DOUT_SRC*%
X77359400Y-27629000D02*
X69190400Y-19460000D01*
X77359400Y-43184400D02*
X77359400Y-27629000D01*
X69190400Y-19460000D02*
X68620000Y-19460000D01*
%TO.N,SW_WIN_B*%
X68620000Y-13110000D02*
X67701600Y-14028400D01*
X30249000Y-20979200D02*
X20428200Y-30800000D01*
X67701600Y-17752600D02*
X67145900Y-18308300D01*
X30973300Y-13720000D02*
X30249000Y-14444300D01*
X30249000Y-14444300D02*
X30249000Y-20979200D01*
X67145900Y-18308300D02*
X52834200Y-18308300D01*
X48245900Y-13720000D02*
X30973300Y-13720000D01*
X52834200Y-18308300D02*
X48245900Y-13720000D01*
X67701600Y-14028400D02*
X67701600Y-17752600D01*
%TO.N,I2S_DIN_MIC*%
X73286400Y-26666400D02*
X75404500Y-26666400D01*
X77361500Y-57186500D02*
X75404500Y-55229500D01*
X68620000Y-22000000D02*
X73286400Y-26666400D01*
X75404500Y-55229500D02*
X75404500Y-26666400D01*
%TO.N,I2S_WS_MIC*%
X90769000Y-13678700D02*
X105678700Y-13678700D01*
X105678700Y-13678700D02*
X106848300Y-14848300D01*
X80641200Y-30816200D02*
X79934000Y-30109000D01*
X79934000Y-24513700D02*
X90769000Y-13678700D01*
X108000000Y-16000000D02*
X108000000Y-14848300D01*
X106848300Y-14848300D02*
X108000000Y-14848300D01*
X79934000Y-30109000D02*
X79934000Y-24513700D01*
%TO.N,I2S_WS_SRC*%
X78175000Y-26475000D02*
X78175000Y-31637900D01*
X68620000Y-16920000D02*
X78175000Y-26475000D01*
%TO.N,I2C_SCL*%
X23496600Y-56691700D02*
X30831800Y-56691700D01*
X23712000Y-54151700D02*
X22848300Y-55015400D01*
X48348300Y-74208200D02*
X48348300Y-75000000D01*
X24000000Y-53000000D02*
X24000000Y-54151700D01*
X30831800Y-56691700D02*
X48348300Y-74208200D01*
X22848300Y-55015400D02*
X22848300Y-56043400D01*
X22848300Y-56043400D02*
X23496600Y-56691700D01*
X49500000Y-75000000D02*
X48348300Y-75000000D01*
X24000000Y-54151700D02*
X23712000Y-54151700D01*
%TO.N,I2C_SDA*%
X69438900Y-30438900D02*
X69438900Y-65039600D01*
X52000000Y-75000000D02*
X50848300Y-75000000D01*
X62004400Y-72474100D02*
X58838200Y-72474100D01*
X50848300Y-74548300D02*
X50848300Y-75000000D01*
X31840000Y-55540000D02*
X50848300Y-74548300D01*
X58838200Y-72474100D02*
X55017100Y-76295200D01*
X53295200Y-76295200D02*
X52000000Y-75000000D01*
X69438900Y-65039600D02*
X62004400Y-72474100D01*
X24000000Y-55540000D02*
X31840000Y-55540000D01*
X55017100Y-76295200D02*
X53295200Y-76295200D01*
X68620000Y-29620000D02*
X69438900Y-30438900D01*
%TO.N,TFT_RST_N*%
X20295900Y-52385700D02*
X20295900Y-56915900D01*
X40000000Y-20000000D02*
X40000000Y-32681600D01*
X40000000Y-32681600D02*
X20295900Y-52385700D01*
X20295900Y-56915900D02*
X21460000Y-58080000D01*
%TO.N,TFT_DC*%
X41202500Y-51680200D02*
X35778700Y-57104000D01*
X41202500Y-19069200D02*
X41202500Y-51680200D01*
X34000000Y-15000000D02*
X37133300Y-15000000D01*
X37133300Y-15000000D02*
X41202500Y-19069200D01*
%TO.N,TFT_MOSI*%
X19844400Y-51703400D02*
X19844400Y-58093100D01*
X19844400Y-58093100D02*
X21101300Y-59350000D01*
X21872500Y-59350000D02*
X22730000Y-60207500D01*
X21101300Y-59350000D02*
X21872500Y-59350000D01*
X31500000Y-15000000D02*
X31500000Y-40047800D01*
X22730000Y-60207500D02*
X22730000Y-61890000D01*
X22730000Y-61890000D02*
X24000000Y-63160000D01*
X31500000Y-40047800D02*
X19844400Y-51703400D01*
%TO.N,TFT_SCK*%
X18948900Y-63188900D02*
X21460000Y-65700000D01*
X23142000Y-13694900D02*
X18948900Y-17888000D01*
X29000000Y-15000000D02*
X28014600Y-15000000D01*
X26948700Y-13694900D02*
X23142000Y-13694900D01*
X28014500Y-15000000D02*
X28014500Y-14760700D01*
X28014600Y-15000000D02*
X28014500Y-15000000D01*
X28014500Y-14760700D02*
X26948700Y-13694900D01*
X18948900Y-17888000D02*
X18948900Y-63188900D01*
%TO.N,TFT_CS_N*%
X21842700Y-61890000D02*
X22619100Y-62666400D01*
X22619100Y-67080900D02*
X21460000Y-68240000D01*
X19400900Y-60215600D02*
X21075300Y-61890000D01*
X21075300Y-61890000D02*
X21842700Y-61890000D01*
X19400900Y-35346000D02*
X19400900Y-60215600D01*
X22619100Y-62666400D02*
X22619100Y-67080900D01*
X29768000Y-24978900D02*
X19400900Y-35346000D01*
%TO.N,AMP_SD*%
X79000000Y-22220000D02*
X79000000Y-51175000D01*
X68620000Y-11840000D02*
X79000000Y-22220000D01*
%TO.N,I2S_BCLK_AMP*%
X95328200Y-39500000D02*
X80645300Y-24817100D01*
X108000000Y-39500000D02*
X95328200Y-39500000D01*
%TD*%
%TA.AperFunction,Conductor*%
%TO.N,GND*%
G36*
X51943039Y-10520185D02*
G01*
X51988794Y-10572989D01*
X52000000Y-10624500D01*
X52000000Y-16608345D01*
X51980315Y-16675384D01*
X51927511Y-16721139D01*
X51858353Y-16731083D01*
X51794797Y-16702058D01*
X51788319Y-16696026D01*
X48491815Y-13399522D01*
X48491813Y-13399520D01*
X48446150Y-13373156D01*
X48400489Y-13346793D01*
X48349557Y-13333146D01*
X48298627Y-13319500D01*
X31026027Y-13319500D01*
X30920573Y-13319500D01*
X30818710Y-13346793D01*
X30727387Y-13399520D01*
X30727384Y-13399522D01*
X30027161Y-14099745D01*
X29965838Y-14133230D01*
X29896146Y-14128246D01*
X29851799Y-14099745D01*
X29749499Y-13997445D01*
X29749494Y-13997441D01*
X29602997Y-13891006D01*
X29602996Y-13891005D01*
X29602994Y-13891004D01*
X29551300Y-13864664D01*
X29441639Y-13808788D01*
X29441636Y-13808787D01*
X29269410Y-13752829D01*
X29090551Y-13724500D01*
X29090546Y-13724500D01*
X28909454Y-13724500D01*
X28909449Y-13724500D01*
X28730589Y-13752829D01*
X28558363Y-13808787D01*
X28558360Y-13808788D01*
X28397002Y-13891006D01*
X28250506Y-13997440D01*
X28121750Y-14126196D01*
X28060427Y-14159680D01*
X27990735Y-14154696D01*
X27946388Y-14126195D01*
X27194615Y-13374422D01*
X27194613Y-13374420D01*
X27141053Y-13343497D01*
X27103289Y-13321693D01*
X27052357Y-13308046D01*
X27001427Y-13294400D01*
X23194727Y-13294400D01*
X23089273Y-13294400D01*
X22987410Y-13321693D01*
X22896087Y-13374420D01*
X22896084Y-13374422D01*
X18628422Y-17642084D01*
X18628418Y-17642090D01*
X18575692Y-17733412D01*
X18575693Y-17733413D01*
X18548400Y-17835273D01*
X18548400Y-63241626D01*
X18575693Y-63343489D01*
X18583435Y-63356898D01*
X18628420Y-63434813D01*
X19520028Y-64326421D01*
X20354325Y-65160717D01*
X20387810Y-65222040D01*
X20384575Y-65286715D01*
X20337829Y-65430587D01*
X20309500Y-65609448D01*
X20309500Y-65790551D01*
X20337829Y-65969410D01*
X20393787Y-66141636D01*
X20393788Y-66141639D01*
X20449664Y-66251300D01*
X20469125Y-66289494D01*
X20476006Y-66302997D01*
X20582441Y-66449494D01*
X20582445Y-66449499D01*
X20710500Y-66577554D01*
X20710505Y-66577558D01*
X20811358Y-66650831D01*
X20857006Y-66683996D01*
X20962484Y-66737740D01*
X21018360Y-66766211D01*
X21018363Y-66766212D01*
X21104476Y-66794191D01*
X21190591Y-66822171D01*
X21263639Y-66833740D01*
X21350678Y-66847527D01*
X21413813Y-66877456D01*
X21450744Y-66936768D01*
X21449746Y-67006631D01*
X21411136Y-67064863D01*
X21350678Y-67092473D01*
X21190589Y-67117829D01*
X21018363Y-67173787D01*
X21018360Y-67173788D01*
X20857002Y-67256006D01*
X20710505Y-67362441D01*
X20710500Y-67362445D01*
X20582445Y-67490500D01*
X20582441Y-67490505D01*
X20476006Y-67637002D01*
X20393788Y-67798360D01*
X20393787Y-67798363D01*
X20337829Y-67970589D01*
X20309500Y-68149448D01*
X20309500Y-68330551D01*
X20337829Y-68509410D01*
X20393787Y-68681636D01*
X20393788Y-68681639D01*
X20476006Y-68842997D01*
X20582441Y-68989494D01*
X20582445Y-68989499D01*
X20710500Y-69117554D01*
X20710505Y-69117558D01*
X20838287Y-69210396D01*
X20857006Y-69223996D01*
X20962484Y-69277740D01*
X21018360Y-69306211D01*
X21018363Y-69306212D01*
X21104476Y-69334191D01*
X21190591Y-69362171D01*
X21273429Y-69375291D01*
X21369449Y-69390500D01*
X21369454Y-69390500D01*
X21550551Y-69390500D01*
X21637259Y-69376765D01*
X21729409Y-69362171D01*
X21901639Y-69306211D01*
X22062994Y-69223996D01*
X22209501Y-69117553D01*
X22337553Y-68989501D01*
X22443996Y-68842994D01*
X22526211Y-68681639D01*
X22582171Y-68509409D01*
X22610337Y-68331578D01*
X22610500Y-68330551D01*
X22610500Y-68149448D01*
X22594019Y-68045397D01*
X22582171Y-67970591D01*
X22535424Y-67826716D01*
X22533429Y-67756875D01*
X22565672Y-67700719D01*
X22939580Y-67326813D01*
X22992307Y-67235488D01*
X23019600Y-67133627D01*
X23019600Y-67028173D01*
X23019600Y-64106016D01*
X23039285Y-64038977D01*
X23092089Y-63993222D01*
X23161247Y-63983278D01*
X23224803Y-64012303D01*
X23231281Y-64018335D01*
X23250500Y-64037554D01*
X23250505Y-64037558D01*
X23344731Y-64106016D01*
X23397006Y-64143996D01*
X23502484Y-64197740D01*
X23558360Y-64226211D01*
X23558363Y-64226212D01*
X23644476Y-64254191D01*
X23730591Y-64282171D01*
X23813429Y-64295291D01*
X23909449Y-64310500D01*
X23909454Y-64310500D01*
X24090551Y-64310500D01*
X24177259Y-64296765D01*
X24269409Y-64282171D01*
X24441639Y-64226211D01*
X24602994Y-64143996D01*
X24749501Y-64037553D01*
X24877553Y-63909501D01*
X24983996Y-63762994D01*
X25066211Y-63601639D01*
X25122171Y-63429409D01*
X25144271Y-63289877D01*
X25150500Y-63250551D01*
X25150500Y-63069448D01*
X25126138Y-62915639D01*
X25122171Y-62890591D01*
X25090495Y-62793102D01*
X25066212Y-62718363D01*
X25066211Y-62718360D01*
X25037740Y-62662484D01*
X24983996Y-62557006D01*
X24970396Y-62538287D01*
X24877558Y-62410505D01*
X24877554Y-62410500D01*
X24749499Y-62282445D01*
X24749494Y-62282441D01*
X24602997Y-62176006D01*
X24602996Y-62176005D01*
X24602994Y-62176004D01*
X24551300Y-62149664D01*
X24441639Y-62093788D01*
X24441636Y-62093787D01*
X24269410Y-62037829D01*
X24109321Y-62012473D01*
X24046186Y-61982544D01*
X24009255Y-61923232D01*
X24010253Y-61853370D01*
X24048863Y-61795137D01*
X24109321Y-61767527D01*
X24179425Y-61756422D01*
X24269409Y-61742171D01*
X24441639Y-61686211D01*
X24602994Y-61603996D01*
X24749501Y-61497553D01*
X24877553Y-61369501D01*
X24983996Y-61222994D01*
X25066211Y-61061639D01*
X25122171Y-60889409D01*
X25147341Y-60730493D01*
X25150500Y-60710551D01*
X25150500Y-60529448D01*
X25127666Y-60385288D01*
X25122171Y-60350591D01*
X25066211Y-60178361D01*
X25066211Y-60178360D01*
X25037740Y-60122484D01*
X24983996Y-60017006D01*
X24943732Y-59961587D01*
X24877558Y-59870505D01*
X24877554Y-59870500D01*
X24749499Y-59742445D01*
X24749494Y-59742441D01*
X24602997Y-59636006D01*
X24602996Y-59636005D01*
X24602994Y-59636004D01*
X24551300Y-59609664D01*
X24441639Y-59553788D01*
X24441636Y-59553787D01*
X24269410Y-59497829D01*
X24109321Y-59472473D01*
X24046186Y-59442544D01*
X24009255Y-59383232D01*
X24010253Y-59313370D01*
X24048863Y-59255137D01*
X24109321Y-59227527D01*
X24179425Y-59216422D01*
X24269409Y-59202171D01*
X24441639Y-59146211D01*
X24602994Y-59063996D01*
X24749501Y-58957553D01*
X24877553Y-58829501D01*
X24983996Y-58682994D01*
X25066211Y-58521639D01*
X25122171Y-58349409D01*
X25136765Y-58257259D01*
X25150500Y-58170551D01*
X25150500Y-57989448D01*
X25130009Y-57860078D01*
X25122171Y-57810591D01*
X25066211Y-57638361D01*
X25066211Y-57638360D01*
X25021466Y-57550545D01*
X24983996Y-57477006D01*
X24950784Y-57431293D01*
X24877558Y-57330505D01*
X24877554Y-57330500D01*
X24850935Y-57303881D01*
X24817450Y-57242558D01*
X24822434Y-57172866D01*
X24864306Y-57116933D01*
X24929770Y-57092516D01*
X24938616Y-57092200D01*
X30614545Y-57092200D01*
X30681584Y-57111885D01*
X30702226Y-57128519D01*
X47911481Y-74337774D01*
X47944966Y-74399097D01*
X47947800Y-74425455D01*
X47947800Y-74947273D01*
X47947800Y-75052727D01*
X47975093Y-75154587D01*
X48027820Y-75245913D01*
X48102387Y-75320480D01*
X48193713Y-75373207D01*
X48295573Y-75400500D01*
X48295581Y-75400500D01*
X48303633Y-75401561D01*
X48303249Y-75404473D01*
X48356755Y-75420185D01*
X48402510Y-75472989D01*
X48407647Y-75486182D01*
X48433787Y-75566636D01*
X48433788Y-75566639D01*
X48516006Y-75727997D01*
X48622441Y-75874494D01*
X48622445Y-75874499D01*
X48750500Y-76002554D01*
X48750505Y-76002558D01*
X48878287Y-76095396D01*
X48897006Y-76108996D01*
X48991972Y-76157384D01*
X49058360Y-76191211D01*
X49058363Y-76191212D01*
X49144476Y-76219191D01*
X49230591Y-76247171D01*
X49313429Y-76260291D01*
X49409449Y-76275500D01*
X49409454Y-76275500D01*
X49590551Y-76275500D01*
X49677259Y-76261765D01*
X49769409Y-76247171D01*
X49941639Y-76191211D01*
X50102994Y-76108996D01*
X50249501Y-76002553D01*
X50377553Y-75874501D01*
X50483996Y-75727994D01*
X50566211Y-75566639D01*
X50597876Y-75469183D01*
X50637313Y-75411507D01*
X50701671Y-75384308D01*
X50747898Y-75387725D01*
X50795573Y-75400500D01*
X50795579Y-75400500D01*
X50803633Y-75401561D01*
X50803249Y-75404473D01*
X50856755Y-75420185D01*
X50902510Y-75472989D01*
X50907647Y-75486182D01*
X50933787Y-75566636D01*
X50933788Y-75566639D01*
X51016006Y-75727997D01*
X51122441Y-75874494D01*
X51122445Y-75874499D01*
X51250500Y-76002554D01*
X51250505Y-76002558D01*
X51378287Y-76095396D01*
X51397006Y-76108996D01*
X51491972Y-76157384D01*
X51558360Y-76191211D01*
X51558363Y-76191212D01*
X51644476Y-76219191D01*
X51730591Y-76247171D01*
X51813429Y-76260291D01*
X51909449Y-76275500D01*
X51909454Y-76275500D01*
X52090551Y-76275500D01*
X52177259Y-76261765D01*
X52269409Y-76247171D01*
X52441639Y-76191211D01*
X52482717Y-76170280D01*
X52551382Y-76157384D01*
X52616123Y-76183659D01*
X52626691Y-76193084D01*
X52974719Y-76541112D01*
X52974720Y-76541113D01*
X53049287Y-76615680D01*
X53140613Y-76668407D01*
X53242473Y-76695700D01*
X53242475Y-76695700D01*
X55069825Y-76695700D01*
X55069827Y-76695700D01*
X55171688Y-76668407D01*
X55263013Y-76615680D01*
X57671795Y-74206898D01*
X59849500Y-74206898D01*
X59849500Y-75793102D01*
X59855126Y-75839954D01*
X59860122Y-75881561D01*
X59915639Y-76022343D01*
X60007077Y-76142922D01*
X60127656Y-76234360D01*
X60127657Y-76234360D01*
X60127658Y-76234361D01*
X60268436Y-76289877D01*
X60356898Y-76300500D01*
X60356903Y-76300500D01*
X61643097Y-76300500D01*
X61643102Y-76300500D01*
X61731564Y-76289877D01*
X61872342Y-76234361D01*
X61992922Y-76142922D01*
X62084361Y-76022342D01*
X62139877Y-75881564D01*
X62150500Y-75793102D01*
X62150500Y-74206898D01*
X62139877Y-74118436D01*
X62084361Y-73977658D01*
X62084360Y-73977657D01*
X62084360Y-73977656D01*
X61992922Y-73857077D01*
X61872343Y-73765639D01*
X61731561Y-73710122D01*
X61685926Y-73704642D01*
X61643102Y-73699500D01*
X60356898Y-73699500D01*
X60317853Y-73704188D01*
X60268438Y-73710122D01*
X60127656Y-73765639D01*
X60007077Y-73857077D01*
X59915639Y-73977656D01*
X59860122Y-74118438D01*
X59857944Y-74136580D01*
X59849500Y-74206898D01*
X57671795Y-74206898D01*
X58967774Y-72910919D01*
X59029097Y-72877434D01*
X59055455Y-72874600D01*
X62057125Y-72874600D01*
X62057127Y-72874600D01*
X62158988Y-72847307D01*
X62250313Y-72794580D01*
X69674603Y-65370287D01*
X69674608Y-65370284D01*
X69684811Y-65360080D01*
X69684813Y-65360080D01*
X69759380Y-65285513D01*
X69812107Y-65194187D01*
X69813305Y-65189716D01*
X69813307Y-65189716D01*
X69813307Y-65189704D01*
X69839401Y-65092327D01*
X69839401Y-64986873D01*
X69839401Y-64979278D01*
X69839400Y-64979260D01*
X69839400Y-30386175D01*
X69839400Y-30386173D01*
X69812107Y-30284313D01*
X69759380Y-30192987D01*
X69684813Y-30118420D01*
X69441606Y-29875213D01*
X69408121Y-29813890D01*
X69407670Y-29763339D01*
X69420500Y-29698843D01*
X69420500Y-29541155D01*
X69420499Y-29541153D01*
X69389738Y-29386510D01*
X69389737Y-29386503D01*
X69374861Y-29350589D01*
X69329397Y-29240827D01*
X69329390Y-29240814D01*
X69241789Y-29109711D01*
X69241784Y-29109705D01*
X69204760Y-29072681D01*
X69171275Y-29011358D01*
X69176259Y-28941666D01*
X69204760Y-28897319D01*
X69241786Y-28860292D01*
X69241789Y-28860289D01*
X69329394Y-28729179D01*
X69382909Y-28599979D01*
X69426748Y-28545579D01*
X69493042Y-28523513D01*
X69560741Y-28540792D01*
X69585150Y-28559753D01*
X70463681Y-29438284D01*
X70497166Y-29499607D01*
X70500000Y-29525965D01*
X70500000Y-52549808D01*
X70524212Y-52640172D01*
X70530700Y-52664385D01*
X70530700Y-52664386D01*
X70555767Y-52707803D01*
X70590011Y-52767114D01*
X70590013Y-52767116D01*
X82876984Y-65054087D01*
X82910469Y-65115410D01*
X82907235Y-65180084D01*
X82877828Y-65270592D01*
X82849500Y-65449448D01*
X82849500Y-65630551D01*
X82877829Y-65809410D01*
X82933787Y-65981636D01*
X82933788Y-65981639D01*
X82984702Y-66081561D01*
X83015312Y-66141636D01*
X83016006Y-66142997D01*
X83122441Y-66289494D01*
X83122445Y-66289499D01*
X83250500Y-66417554D01*
X83250505Y-66417558D01*
X83364665Y-66500499D01*
X83397006Y-66523996D01*
X83502117Y-66577553D01*
X83558360Y-66606211D01*
X83558363Y-66606212D01*
X83644476Y-66634191D01*
X83730591Y-66662171D01*
X83813429Y-66675291D01*
X83909449Y-66690500D01*
X83909454Y-66690500D01*
X84090551Y-66690500D01*
X84177259Y-66676765D01*
X84269409Y-66662171D01*
X84441639Y-66606211D01*
X84570905Y-66540345D01*
X84639574Y-66527450D01*
X84704314Y-66553726D01*
X84744572Y-66610832D01*
X84751200Y-66650831D01*
X84751200Y-71065359D01*
X84731515Y-71132398D01*
X84714881Y-71153040D01*
X84629913Y-71238007D01*
X84629910Y-71238011D01*
X84542309Y-71369114D01*
X84542302Y-71369127D01*
X84481964Y-71514798D01*
X84481961Y-71514810D01*
X84451200Y-71669453D01*
X84451200Y-71789624D01*
X84431515Y-71856663D01*
X84414881Y-71877305D01*
X82629005Y-73663181D01*
X82567682Y-73696666D01*
X82541324Y-73699500D01*
X81356898Y-73699500D01*
X81317853Y-73704188D01*
X81268438Y-73710122D01*
X81127656Y-73765639D01*
X81007077Y-73857077D01*
X80915639Y-73977656D01*
X80860122Y-74118438D01*
X80857944Y-74136580D01*
X80849500Y-74206898D01*
X80849500Y-75793102D01*
X80855126Y-75839954D01*
X80860122Y-75881561D01*
X80915639Y-76022343D01*
X81007077Y-76142922D01*
X81127656Y-76234360D01*
X81127657Y-76234360D01*
X81127658Y-76234361D01*
X81268436Y-76289877D01*
X81356898Y-76300500D01*
X81356903Y-76300500D01*
X82643097Y-76300500D01*
X82643102Y-76300500D01*
X82731564Y-76289877D01*
X82872342Y-76234361D01*
X82992922Y-76142922D01*
X83084361Y-76022342D01*
X83139877Y-75881564D01*
X83150500Y-75793102D01*
X83150500Y-74608674D01*
X83170185Y-74541635D01*
X83186814Y-74520998D01*
X85122693Y-72585118D01*
X85184016Y-72551634D01*
X85210374Y-72548800D01*
X89671632Y-72548800D01*
X89738671Y-72568485D01*
X89749850Y-72576582D01*
X90477355Y-73167989D01*
X92803719Y-75059148D01*
X92843321Y-75116709D01*
X92849500Y-75155365D01*
X92849500Y-75793102D01*
X92855126Y-75839954D01*
X92860122Y-75881561D01*
X92915639Y-76022343D01*
X93007077Y-76142922D01*
X93127656Y-76234360D01*
X93127657Y-76234360D01*
X93127658Y-76234361D01*
X93268436Y-76289877D01*
X93356898Y-76300500D01*
X93356903Y-76300500D01*
X94643097Y-76300500D01*
X94643102Y-76300500D01*
X94731564Y-76289877D01*
X94872342Y-76234361D01*
X94992922Y-76142922D01*
X95084361Y-76022342D01*
X95139877Y-75881564D01*
X95150500Y-75793102D01*
X95150500Y-74206898D01*
X103849500Y-74206898D01*
X103849500Y-75793102D01*
X103855126Y-75839954D01*
X103860122Y-75881561D01*
X103915639Y-76022343D01*
X104007077Y-76142922D01*
X104127656Y-76234360D01*
X104127657Y-76234360D01*
X104127658Y-76234361D01*
X104268436Y-76289877D01*
X104356898Y-76300500D01*
X104356903Y-76300500D01*
X105643097Y-76300500D01*
X105643102Y-76300500D01*
X105731564Y-76289877D01*
X105872342Y-76234361D01*
X105992922Y-76142922D01*
X106084361Y-76022342D01*
X106139877Y-75881564D01*
X106150500Y-75793102D01*
X106150500Y-74206898D01*
X106139877Y-74118436D01*
X106084361Y-73977658D01*
X106084360Y-73977657D01*
X106084360Y-73977656D01*
X105992922Y-73857077D01*
X105872341Y-73765638D01*
X105864948Y-73761481D01*
X105866568Y-73758599D01*
X105823830Y-73725311D01*
X105800669Y-73659392D01*
X105800500Y-73652913D01*
X105800500Y-68382939D01*
X105820185Y-68315900D01*
X105836814Y-68295263D01*
X107595259Y-66536817D01*
X107656582Y-66503333D01*
X107682940Y-66500499D01*
X108993092Y-66500499D01*
X108993098Y-66500499D01*
X109081564Y-66489876D01*
X109222342Y-66434361D01*
X109342922Y-66342922D01*
X109434361Y-66222342D01*
X109489876Y-66081564D01*
X109500500Y-65993099D01*
X109500499Y-64006902D01*
X109489876Y-63918436D01*
X109434361Y-63777658D01*
X109426994Y-63767943D01*
X109342922Y-63657077D01*
X109222344Y-63565640D01*
X109222342Y-63565639D01*
X109081564Y-63510124D01*
X109081561Y-63510123D01*
X108993099Y-63499500D01*
X107006908Y-63499500D01*
X106918437Y-63510123D01*
X106777657Y-63565639D01*
X106777655Y-63565640D01*
X106657077Y-63657077D01*
X106565640Y-63777655D01*
X106565639Y-63777658D01*
X106513648Y-63909501D01*
X106510124Y-63918437D01*
X106510123Y-63918438D01*
X106499500Y-64006900D01*
X106499500Y-65317059D01*
X106479815Y-65384098D01*
X106463180Y-65404740D01*
X104489711Y-67378211D01*
X104433960Y-67433962D01*
X104378209Y-67489712D01*
X104290609Y-67620814D01*
X104290602Y-67620827D01*
X104230264Y-67766498D01*
X104230261Y-67766510D01*
X104199500Y-67921153D01*
X104199500Y-73652913D01*
X104179815Y-73719952D01*
X104134015Y-73759637D01*
X104135052Y-73761481D01*
X104127658Y-73765638D01*
X104007077Y-73857077D01*
X103915639Y-73977656D01*
X103860122Y-74118438D01*
X103857944Y-74136580D01*
X103849500Y-74206898D01*
X95150500Y-74206898D01*
X95139877Y-74118436D01*
X95084361Y-73977658D01*
X95084360Y-73977657D01*
X95084360Y-73977656D01*
X94992922Y-73857077D01*
X94872343Y-73765639D01*
X94731561Y-73710122D01*
X94685926Y-73704642D01*
X94643102Y-73699500D01*
X94643097Y-73699500D01*
X93713305Y-73699500D01*
X93646266Y-73679815D01*
X93635087Y-73671718D01*
X90541860Y-71157156D01*
X90532405Y-71148627D01*
X90510289Y-71126511D01*
X90510288Y-71126510D01*
X90510287Y-71126509D01*
X90480705Y-71106743D01*
X90471383Y-71099864D01*
X90443771Y-71077417D01*
X90416119Y-71062801D01*
X90405178Y-71056277D01*
X90379182Y-71038907D01*
X90346306Y-71025289D01*
X90335822Y-71020360D01*
X90304364Y-71003734D01*
X90304359Y-71003732D01*
X90274400Y-70994796D01*
X90262396Y-70990533D01*
X90261969Y-70990356D01*
X90233497Y-70978563D01*
X90233493Y-70978562D01*
X90198606Y-70971622D01*
X90187359Y-70968832D01*
X90153260Y-70958662D01*
X90153256Y-70958661D01*
X90122118Y-70955740D01*
X90109511Y-70953900D01*
X90100966Y-70952200D01*
X90078842Y-70947800D01*
X90078841Y-70947800D01*
X90043266Y-70947800D01*
X90031686Y-70947258D01*
X90027307Y-70946847D01*
X89996264Y-70943935D01*
X89996256Y-70943935D01*
X89970939Y-70946547D01*
X89965151Y-70947145D01*
X89952425Y-70947800D01*
X85876200Y-70947800D01*
X85809161Y-70928115D01*
X85763406Y-70875311D01*
X85752200Y-70823800D01*
X85752200Y-64889810D01*
X85752200Y-64889808D01*
X85735133Y-64826114D01*
X85735133Y-64826113D01*
X85735133Y-64826112D01*
X85718093Y-64762516D01*
X85718092Y-64762515D01*
X85718092Y-64762514D01*
X85700223Y-64731564D01*
X85652200Y-64648386D01*
X85559014Y-64555200D01*
X85139104Y-64135290D01*
X85105619Y-64073967D01*
X85110603Y-64004275D01*
X85113341Y-63997546D01*
X85147585Y-63919991D01*
X85150500Y-63894865D01*
X85150499Y-62105136D01*
X85148115Y-62084575D01*
X85147586Y-62080012D01*
X85147585Y-62080010D01*
X85147585Y-62080009D01*
X85102206Y-61977235D01*
X85022765Y-61897794D01*
X85022763Y-61897793D01*
X84919992Y-61852415D01*
X84894865Y-61849500D01*
X83105143Y-61849500D01*
X83105117Y-61849502D01*
X83080012Y-61852413D01*
X83080008Y-61852415D01*
X82977235Y-61897793D01*
X82897794Y-61977234D01*
X82852415Y-62080006D01*
X82852415Y-62080008D01*
X82849500Y-62105131D01*
X82849500Y-63453035D01*
X82829815Y-63520074D01*
X82777011Y-63565829D01*
X82707853Y-63575773D01*
X82644297Y-63546748D01*
X82637819Y-63540716D01*
X80304001Y-61206898D01*
X92699500Y-61206898D01*
X92699500Y-62793102D01*
X92705126Y-62839954D01*
X92710122Y-62881561D01*
X92765639Y-63022343D01*
X92857077Y-63142922D01*
X92977656Y-63234360D01*
X92977657Y-63234360D01*
X92977658Y-63234361D01*
X93118436Y-63289877D01*
X93206898Y-63300500D01*
X93206903Y-63300500D01*
X94793097Y-63300500D01*
X94793102Y-63300500D01*
X94881564Y-63289877D01*
X95022342Y-63234361D01*
X95142922Y-63142922D01*
X95234361Y-63022342D01*
X95289877Y-62881564D01*
X95300500Y-62793102D01*
X95300500Y-61206898D01*
X95289877Y-61118436D01*
X95234361Y-60977658D01*
X95234360Y-60977657D01*
X95234360Y-60977656D01*
X95142922Y-60857077D01*
X95022343Y-60765639D01*
X94882649Y-60710551D01*
X94881564Y-60710123D01*
X94881563Y-60710122D01*
X94881561Y-60710122D01*
X94835926Y-60704642D01*
X94793102Y-60699500D01*
X94793097Y-60699500D01*
X94624500Y-60699500D01*
X94557461Y-60679815D01*
X94511706Y-60627011D01*
X94500500Y-60575500D01*
X94500500Y-54356898D01*
X106724500Y-54356898D01*
X106724500Y-55643102D01*
X106730126Y-55689954D01*
X106735122Y-55731561D01*
X106790639Y-55872343D01*
X106882077Y-55992922D01*
X107002656Y-56084360D01*
X107002657Y-56084360D01*
X107002658Y-56084361D01*
X107143436Y-56139877D01*
X107231898Y-56150500D01*
X107231903Y-56150500D01*
X108768097Y-56150500D01*
X108768102Y-56150500D01*
X108856564Y-56139877D01*
X108997342Y-56084361D01*
X109117922Y-55992922D01*
X109209361Y-55872342D01*
X109264877Y-55731564D01*
X109275500Y-55643102D01*
X109275500Y-54356898D01*
X109264877Y-54268436D01*
X109209361Y-54127658D01*
X109209360Y-54127657D01*
X109209360Y-54127656D01*
X109117922Y-54007077D01*
X108997343Y-53915639D01*
X108901192Y-53877722D01*
X108856564Y-53860123D01*
X108856563Y-53860122D01*
X108856561Y-53860122D01*
X108810926Y-53854642D01*
X108768102Y-53849500D01*
X107231898Y-53849500D01*
X107192853Y-53854188D01*
X107143438Y-53860122D01*
X107002656Y-53915639D01*
X106882077Y-54007077D01*
X106790639Y-54127656D01*
X106735122Y-54268438D01*
X106730072Y-54310500D01*
X106724500Y-54356898D01*
X94500500Y-54356898D01*
X94500500Y-53258675D01*
X94520185Y-53191636D01*
X94536819Y-53170994D01*
X97570994Y-50136819D01*
X97632317Y-50103334D01*
X97658675Y-50100500D01*
X98593097Y-50100500D01*
X98593102Y-50100500D01*
X98681564Y-50089877D01*
X98822342Y-50034361D01*
X98942922Y-49942922D01*
X98968306Y-49909448D01*
X106724500Y-49909448D01*
X106724500Y-50090551D01*
X106752829Y-50269410D01*
X106808787Y-50441636D01*
X106808788Y-50441639D01*
X106856080Y-50534452D01*
X106890238Y-50601491D01*
X106891006Y-50602997D01*
X106997441Y-50749494D01*
X106997445Y-50749499D01*
X107125500Y-50877554D01*
X107125505Y-50877558D01*
X107141930Y-50889491D01*
X107272006Y-50983996D01*
X107377484Y-51037740D01*
X107433360Y-51066211D01*
X107433363Y-51066212D01*
X107519476Y-51094191D01*
X107605591Y-51122171D01*
X107688429Y-51135291D01*
X107784449Y-51150500D01*
X107784454Y-51150500D01*
X108215551Y-51150500D01*
X108302259Y-51136765D01*
X108394409Y-51122171D01*
X108566639Y-51066211D01*
X108727994Y-50983996D01*
X108874501Y-50877553D01*
X109002553Y-50749501D01*
X109108996Y-50602994D01*
X109191211Y-50441639D01*
X109247171Y-50269409D01*
X109273475Y-50103334D01*
X109275500Y-50090551D01*
X109275500Y-49909448D01*
X109259019Y-49805397D01*
X109247171Y-49730591D01*
X109191211Y-49558361D01*
X109191211Y-49558360D01*
X109162740Y-49502484D01*
X109108996Y-49397006D01*
X109068540Y-49341323D01*
X109002558Y-49250505D01*
X109002554Y-49250500D01*
X108874499Y-49122445D01*
X108874494Y-49122441D01*
X108727997Y-49016006D01*
X108727996Y-49016005D01*
X108727994Y-49016004D01*
X108676300Y-48989664D01*
X108566639Y-48933788D01*
X108566636Y-48933787D01*
X108394410Y-48877829D01*
X108215551Y-48849500D01*
X108215546Y-48849500D01*
X107784454Y-48849500D01*
X107784449Y-48849500D01*
X107605589Y-48877829D01*
X107433363Y-48933787D01*
X107433360Y-48933788D01*
X107272002Y-49016006D01*
X107125505Y-49122441D01*
X107125500Y-49122445D01*
X106997445Y-49250500D01*
X106997441Y-49250505D01*
X106891006Y-49397002D01*
X106808788Y-49558360D01*
X106808787Y-49558363D01*
X106752829Y-49730589D01*
X106724500Y-49909448D01*
X98968306Y-49909448D01*
X99034361Y-49822342D01*
X99089877Y-49681564D01*
X99100500Y-49593102D01*
X99100500Y-48406898D01*
X99089877Y-48318436D01*
X99034361Y-48177658D01*
X99034360Y-48177657D01*
X99034360Y-48177656D01*
X98942922Y-48057077D01*
X98822343Y-47965639D01*
X98681561Y-47910122D01*
X98635926Y-47904642D01*
X98593102Y-47899500D01*
X97406898Y-47899500D01*
X97367853Y-47904188D01*
X97318438Y-47910122D01*
X97177656Y-47965639D01*
X97057077Y-48057077D01*
X96965639Y-48177656D01*
X96910122Y-48318438D01*
X96904188Y-48367853D01*
X96899500Y-48406898D01*
X96899500Y-48406903D01*
X96899500Y-49341323D01*
X96879815Y-49408362D01*
X96863181Y-49429004D01*
X93675244Y-52616940D01*
X93675245Y-52616941D01*
X93599500Y-52692686D01*
X93533608Y-52806812D01*
X93499500Y-52934108D01*
X93499500Y-60575500D01*
X93479815Y-60642539D01*
X93427011Y-60688294D01*
X93375500Y-60699500D01*
X93206898Y-60699500D01*
X93167853Y-60704188D01*
X93118438Y-60710122D01*
X92977656Y-60765639D01*
X92857077Y-60857077D01*
X92765639Y-60977656D01*
X92710122Y-61118438D01*
X92704188Y-61167853D01*
X92699500Y-61206898D01*
X80304001Y-61206898D01*
X77195461Y-58098358D01*
X77161976Y-58037035D01*
X77166960Y-57967343D01*
X77208832Y-57911410D01*
X77274296Y-57886993D01*
X77286415Y-57887156D01*
X77286415Y-57887000D01*
X77430495Y-57887000D01*
X77521541Y-57868889D01*
X77565828Y-57860080D01*
X77664424Y-57819240D01*
X77693304Y-57807278D01*
X77693304Y-57807277D01*
X77693311Y-57807275D01*
X77808042Y-57730614D01*
X77905614Y-57633042D01*
X77982275Y-57518311D01*
X78035080Y-57390828D01*
X78051490Y-57308332D01*
X78062000Y-57255495D01*
X78062000Y-57117504D01*
X78035081Y-56982177D01*
X78035080Y-56982176D01*
X78035080Y-56982172D01*
X78000908Y-56899672D01*
X77982278Y-56854695D01*
X77982271Y-56854682D01*
X77905614Y-56739958D01*
X77905611Y-56739954D01*
X77808045Y-56642388D01*
X77808041Y-56642385D01*
X77693317Y-56565728D01*
X77693304Y-56565721D01*
X77565832Y-56512921D01*
X77565822Y-56512918D01*
X77430495Y-56486000D01*
X77430493Y-56486000D01*
X77292507Y-56486000D01*
X77292495Y-56486000D01*
X77291580Y-56486090D01*
X77291106Y-56486000D01*
X77286415Y-56486000D01*
X77286415Y-56485109D01*
X77222935Y-56473063D01*
X77191760Y-56450367D01*
X75841319Y-55099926D01*
X75807834Y-55038603D01*
X75805000Y-55012245D01*
X75805000Y-27306947D01*
X75824685Y-27239908D01*
X75846885Y-27214972D01*
X75846735Y-27214822D01*
X75849321Y-27212235D01*
X75850344Y-27211087D01*
X75851037Y-27210517D01*
X75851042Y-27210514D01*
X75948614Y-27112942D01*
X75996184Y-27041747D01*
X76049793Y-26996944D01*
X76119118Y-26988235D01*
X76182146Y-27018389D01*
X76186966Y-27022958D01*
X76922581Y-27758573D01*
X76956066Y-27819896D01*
X76958900Y-27846254D01*
X76958900Y-42543852D01*
X76939215Y-42610891D01*
X76917016Y-42635829D01*
X76917165Y-42635978D01*
X76914604Y-42638538D01*
X76913567Y-42639704D01*
X76912853Y-42640289D01*
X76815288Y-42737854D01*
X76815285Y-42737858D01*
X76738628Y-42852582D01*
X76738621Y-42852595D01*
X76685821Y-42980067D01*
X76685818Y-42980077D01*
X76658900Y-43115404D01*
X76658900Y-43115407D01*
X76658900Y-43253393D01*
X76658900Y-43253395D01*
X76658899Y-43253395D01*
X76685818Y-43388722D01*
X76685821Y-43388732D01*
X76738621Y-43516204D01*
X76738628Y-43516217D01*
X76815285Y-43630941D01*
X76815288Y-43630945D01*
X76912854Y-43728511D01*
X76912858Y-43728514D01*
X77027582Y-43805171D01*
X77027595Y-43805178D01*
X77155067Y-43857978D01*
X77155072Y-43857980D01*
X77155076Y-43857980D01*
X77155077Y-43857981D01*
X77290404Y-43884900D01*
X77290407Y-43884900D01*
X77428395Y-43884900D01*
X77519441Y-43866789D01*
X77563728Y-43857980D01*
X77691211Y-43805175D01*
X77805942Y-43728514D01*
X77903514Y-43630942D01*
X77980175Y-43516211D01*
X78032980Y-43388728D01*
X78059900Y-43253393D01*
X78059900Y-43115407D01*
X78059900Y-43115404D01*
X78032981Y-42980077D01*
X78032980Y-42980076D01*
X78032980Y-42980072D01*
X78020281Y-42949414D01*
X77980178Y-42852595D01*
X77980171Y-42852582D01*
X77903514Y-42737858D01*
X77903511Y-42737854D01*
X77805946Y-42640289D01*
X77805233Y-42639704D01*
X77804959Y-42639302D01*
X77801635Y-42635978D01*
X77802265Y-42635347D01*
X77765900Y-42581957D01*
X77759900Y-42543852D01*
X77759900Y-32409754D01*
X77779585Y-32342715D01*
X77832389Y-32296960D01*
X77901547Y-32287016D01*
X77931348Y-32295191D01*
X77970672Y-32311480D01*
X77970676Y-32311480D01*
X77970677Y-32311481D01*
X78106004Y-32338400D01*
X78106007Y-32338400D01*
X78243995Y-32338400D01*
X78335041Y-32320289D01*
X78379328Y-32311480D01*
X78428050Y-32291298D01*
X78497515Y-32283830D01*
X78559995Y-32315104D01*
X78595648Y-32375193D01*
X78599500Y-32405860D01*
X78599500Y-50534452D01*
X78579815Y-50601491D01*
X78557616Y-50626429D01*
X78557765Y-50626578D01*
X78555204Y-50629138D01*
X78554167Y-50630304D01*
X78553453Y-50630889D01*
X78455888Y-50728454D01*
X78455885Y-50728458D01*
X78379228Y-50843182D01*
X78379221Y-50843195D01*
X78326421Y-50970667D01*
X78326418Y-50970677D01*
X78299500Y-51106004D01*
X78299500Y-51106007D01*
X78299500Y-51243993D01*
X78299500Y-51243995D01*
X78299499Y-51243995D01*
X78326418Y-51379322D01*
X78326421Y-51379332D01*
X78379221Y-51506804D01*
X78379228Y-51506817D01*
X78455885Y-51621541D01*
X78455888Y-51621545D01*
X78553454Y-51719111D01*
X78553458Y-51719114D01*
X78668182Y-51795771D01*
X78668195Y-51795778D01*
X78762375Y-51834788D01*
X78795672Y-51848580D01*
X78795676Y-51848580D01*
X78795677Y-51848581D01*
X78931004Y-51875500D01*
X78931007Y-51875500D01*
X79068995Y-51875500D01*
X79185058Y-51852413D01*
X79204328Y-51848580D01*
X79331811Y-51795775D01*
X79446542Y-51719114D01*
X79544114Y-51621542D01*
X79620775Y-51506811D01*
X79673580Y-51379328D01*
X79700500Y-51243993D01*
X79700500Y-51106007D01*
X79700500Y-51106004D01*
X79673581Y-50970677D01*
X79673580Y-50970676D01*
X79673580Y-50970672D01*
X79635011Y-50877558D01*
X79620778Y-50843195D01*
X79620771Y-50843182D01*
X79544114Y-50728458D01*
X79544111Y-50728454D01*
X79446546Y-50630889D01*
X79445833Y-50630304D01*
X79445559Y-50629902D01*
X79442235Y-50626578D01*
X79442865Y-50625947D01*
X79406500Y-50572557D01*
X79400500Y-50534452D01*
X79400500Y-30441255D01*
X79420185Y-30374216D01*
X79472989Y-30328461D01*
X79542147Y-30318517D01*
X79605703Y-30347542D01*
X79612181Y-30353574D01*
X79905067Y-30646460D01*
X79938552Y-30707783D01*
X79940490Y-30741115D01*
X79940700Y-30741115D01*
X79940700Y-30744731D01*
X79940790Y-30746280D01*
X79940700Y-30747194D01*
X79940700Y-30747207D01*
X79940700Y-30885193D01*
X79940700Y-30885195D01*
X79940699Y-30885195D01*
X79967618Y-31020522D01*
X79967621Y-31020532D01*
X80020421Y-31148004D01*
X80020428Y-31148017D01*
X80097085Y-31262741D01*
X80097088Y-31262745D01*
X80194654Y-31360311D01*
X80194658Y-31360314D01*
X80309382Y-31436971D01*
X80309395Y-31436978D01*
X80397764Y-31473581D01*
X80436872Y-31489780D01*
X80436876Y-31489780D01*
X80436877Y-31489781D01*
X80572204Y-31516700D01*
X80572207Y-31516700D01*
X80710195Y-31516700D01*
X80801241Y-31498589D01*
X80845528Y-31489780D01*
X80973011Y-31436975D01*
X81087742Y-31360314D01*
X81185314Y-31262742D01*
X81261975Y-31148011D01*
X81314780Y-31020528D01*
X81341700Y-30885193D01*
X81341700Y-30747207D01*
X81341700Y-30747204D01*
X81314781Y-30611877D01*
X81314780Y-30611876D01*
X81314780Y-30611872D01*
X81311518Y-30603996D01*
X81261978Y-30484395D01*
X81261971Y-30484382D01*
X81185314Y-30369658D01*
X81185311Y-30369654D01*
X81087745Y-30272088D01*
X81087741Y-30272085D01*
X80973017Y-30195428D01*
X80973004Y-30195421D01*
X80845532Y-30142621D01*
X80845522Y-30142618D01*
X80710195Y-30115700D01*
X80710193Y-30115700D01*
X80572207Y-30115700D01*
X80572195Y-30115700D01*
X80571280Y-30115790D01*
X80570806Y-30115700D01*
X80566115Y-30115700D01*
X80566115Y-30114809D01*
X80502635Y-30102763D01*
X80471460Y-30080067D01*
X80370819Y-29979426D01*
X80337334Y-29918103D01*
X80334500Y-29891745D01*
X80334500Y-25620596D01*
X80354185Y-25553557D01*
X80406989Y-25507802D01*
X80476147Y-25497858D01*
X80482692Y-25498979D01*
X80576304Y-25517600D01*
X80576307Y-25517600D01*
X80714287Y-25517600D01*
X80714293Y-25517600D01*
X80714298Y-25517598D01*
X80715200Y-25517510D01*
X80715675Y-25517600D01*
X80720385Y-25517600D01*
X80720385Y-25518493D01*
X80783847Y-25530527D01*
X80815039Y-25553232D01*
X95007719Y-39745912D01*
X95007720Y-39745913D01*
X95082287Y-39820480D01*
X95173613Y-39873207D01*
X95275473Y-39900500D01*
X106711840Y-39900500D01*
X106778879Y-39920185D01*
X106822325Y-39968205D01*
X106891006Y-40102997D01*
X106997441Y-40249494D01*
X106997445Y-40249499D01*
X107125500Y-40377554D01*
X107125505Y-40377558D01*
X107253287Y-40470396D01*
X107272006Y-40483996D01*
X107377484Y-40537740D01*
X107433360Y-40566211D01*
X107433363Y-40566212D01*
X107560649Y-40607569D01*
X107618324Y-40647006D01*
X107645523Y-40711364D01*
X107633609Y-40780211D01*
X107586365Y-40831687D01*
X107522331Y-40849500D01*
X107231898Y-40849500D01*
X107192853Y-40854188D01*
X107143438Y-40860122D01*
X107002656Y-40915639D01*
X106882077Y-41007077D01*
X106790639Y-41127656D01*
X106735122Y-41268438D01*
X106729188Y-41317853D01*
X106724500Y-41356898D01*
X106724500Y-42643102D01*
X106728476Y-42676208D01*
X106735122Y-42731561D01*
X106735122Y-42731563D01*
X106735123Y-42731564D01*
X106737605Y-42737858D01*
X106790639Y-42872343D01*
X106882077Y-42992922D01*
X107002656Y-43084360D01*
X107002657Y-43084360D01*
X107002658Y-43084361D01*
X107143436Y-43139877D01*
X107231898Y-43150500D01*
X107231903Y-43150500D01*
X108768097Y-43150500D01*
X108768102Y-43150500D01*
X108856564Y-43139877D01*
X108997342Y-43084361D01*
X109117922Y-42992922D01*
X109209361Y-42872342D01*
X109264877Y-42731564D01*
X109275500Y-42643102D01*
X109275500Y-41356898D01*
X109264877Y-41268436D01*
X109209361Y-41127658D01*
X109209360Y-41127657D01*
X109209360Y-41127656D01*
X109117922Y-41007077D01*
X108997343Y-40915639D01*
X108856561Y-40860122D01*
X108810926Y-40854642D01*
X108768102Y-40849500D01*
X108477669Y-40849500D01*
X108410630Y-40829815D01*
X108364875Y-40777011D01*
X108354931Y-40707853D01*
X108383956Y-40644297D01*
X108439351Y-40607569D01*
X108566636Y-40566212D01*
X108566639Y-40566211D01*
X108727994Y-40483996D01*
X108874501Y-40377553D01*
X109002553Y-40249501D01*
X109108996Y-40102994D01*
X109191211Y-39941639D01*
X109247171Y-39769409D01*
X109261765Y-39677259D01*
X109275500Y-39590551D01*
X109275500Y-39409448D01*
X109259019Y-39305397D01*
X109247171Y-39230591D01*
X109191211Y-39058361D01*
X109191211Y-39058360D01*
X109162740Y-39002484D01*
X109108996Y-38897006D01*
X109095396Y-38878287D01*
X109002558Y-38750505D01*
X109002554Y-38750500D01*
X108874499Y-38622445D01*
X108874494Y-38622441D01*
X108727997Y-38516006D01*
X108727996Y-38516005D01*
X108727994Y-38516004D01*
X108676300Y-38489664D01*
X108566639Y-38433788D01*
X108566636Y-38433787D01*
X108394410Y-38377829D01*
X108360594Y-38372473D01*
X108297459Y-38342544D01*
X108260528Y-38283232D01*
X108261526Y-38213370D01*
X108300136Y-38155137D01*
X108360594Y-38127527D01*
X108368388Y-38126292D01*
X108394409Y-38122171D01*
X108566639Y-38066211D01*
X108727994Y-37983996D01*
X108874501Y-37877553D01*
X109002553Y-37749501D01*
X109108996Y-37602994D01*
X109191211Y-37441639D01*
X109247171Y-37269409D01*
X109261765Y-37177259D01*
X109275500Y-37090551D01*
X109275500Y-36909448D01*
X109259019Y-36805397D01*
X109247171Y-36730591D01*
X109191211Y-36558361D01*
X109191211Y-36558360D01*
X109162740Y-36502484D01*
X109108996Y-36397006D01*
X109095396Y-36378287D01*
X109002558Y-36250505D01*
X109002554Y-36250500D01*
X108874499Y-36122445D01*
X108874494Y-36122441D01*
X108727997Y-36016006D01*
X108727996Y-36016005D01*
X108727994Y-36016004D01*
X108676300Y-35989664D01*
X108566639Y-35933788D01*
X108566636Y-35933787D01*
X108394410Y-35877829D01*
X108215551Y-35849500D01*
X108215546Y-35849500D01*
X107784454Y-35849500D01*
X107784449Y-35849500D01*
X107605589Y-35877829D01*
X107433363Y-35933787D01*
X107433360Y-35933788D01*
X107272002Y-36016006D01*
X107125505Y-36122441D01*
X107125500Y-36122445D01*
X106997445Y-36250500D01*
X106997441Y-36250505D01*
X106891006Y-36397002D01*
X106808788Y-36558360D01*
X106808787Y-36558363D01*
X106752829Y-36730589D01*
X106724500Y-36909448D01*
X106724500Y-37090551D01*
X106752829Y-37269410D01*
X106808787Y-37441636D01*
X106808788Y-37441639D01*
X106891006Y-37602997D01*
X106997441Y-37749494D01*
X106997445Y-37749499D01*
X107125500Y-37877554D01*
X107125505Y-37877558D01*
X107253287Y-37970396D01*
X107272006Y-37983996D01*
X107377484Y-38037740D01*
X107433360Y-38066211D01*
X107433363Y-38066212D01*
X107519476Y-38094191D01*
X107605591Y-38122171D01*
X107630291Y-38126083D01*
X107639406Y-38127527D01*
X107702540Y-38157457D01*
X107739471Y-38216768D01*
X107738473Y-38286631D01*
X107699863Y-38344863D01*
X107639406Y-38372473D01*
X107605589Y-38377829D01*
X107433363Y-38433787D01*
X107433360Y-38433788D01*
X107272002Y-38516006D01*
X107125505Y-38622441D01*
X107125500Y-38622445D01*
X106997445Y-38750500D01*
X106997441Y-38750505D01*
X106891006Y-38897002D01*
X106822325Y-39031795D01*
X106774350Y-39082591D01*
X106711840Y-39099500D01*
X95545455Y-39099500D01*
X95478416Y-39079815D01*
X95457774Y-39063181D01*
X81381432Y-24986839D01*
X81347947Y-24925516D01*
X81346011Y-24892185D01*
X81345800Y-24892185D01*
X81345800Y-24888549D01*
X81345710Y-24887000D01*
X81345798Y-24886099D01*
X81345800Y-24886093D01*
X81345800Y-24748107D01*
X81345800Y-24748104D01*
X81318881Y-24612777D01*
X81318880Y-24612776D01*
X81318880Y-24612772D01*
X81318878Y-24612767D01*
X81266078Y-24485295D01*
X81266071Y-24485282D01*
X81189414Y-24370558D01*
X81189411Y-24370554D01*
X81091845Y-24272988D01*
X81091841Y-24272985D01*
X81007221Y-24216443D01*
X80962416Y-24162830D01*
X80953709Y-24093505D01*
X80983864Y-24030478D01*
X80988412Y-24025679D01*
X90898574Y-14115519D01*
X90959897Y-14082034D01*
X90986255Y-14079200D01*
X93725500Y-14079200D01*
X93792539Y-14098885D01*
X93838294Y-14151689D01*
X93849500Y-14203200D01*
X93849500Y-14206898D01*
X93849500Y-15793102D01*
X93852591Y-15818838D01*
X93860122Y-15881561D01*
X93860122Y-15881563D01*
X93860123Y-15881564D01*
X93877722Y-15926192D01*
X93915639Y-16022343D01*
X94007077Y-16142922D01*
X94127656Y-16234360D01*
X94127657Y-16234360D01*
X94127658Y-16234361D01*
X94268436Y-16289877D01*
X94356898Y-16300500D01*
X94356903Y-16300500D01*
X95643097Y-16300500D01*
X95643102Y-16300500D01*
X95731564Y-16289877D01*
X95872342Y-16234361D01*
X95992922Y-16142922D01*
X96084361Y-16022342D01*
X96139877Y-15881564D01*
X96150500Y-15793102D01*
X96150500Y-14206898D01*
X96150500Y-14203200D01*
X96170185Y-14136161D01*
X96222989Y-14090406D01*
X96274500Y-14079200D01*
X105461445Y-14079200D01*
X105528484Y-14098885D01*
X105549126Y-14115519D01*
X106602387Y-15168780D01*
X106693712Y-15221507D01*
X106795573Y-15248800D01*
X106795575Y-15248800D01*
X106798072Y-15249469D01*
X106857733Y-15285833D01*
X106888263Y-15348680D01*
X106879969Y-15418056D01*
X106876465Y-15425539D01*
X106808789Y-15558360D01*
X106808787Y-15558363D01*
X106752829Y-15730589D01*
X106724500Y-15909448D01*
X106724500Y-16090551D01*
X106752829Y-16269410D01*
X106808787Y-16441636D01*
X106808788Y-16441639D01*
X106891006Y-16602997D01*
X106997441Y-16749494D01*
X106997445Y-16749499D01*
X107125500Y-16877554D01*
X107125505Y-16877558D01*
X107253287Y-16970396D01*
X107272006Y-16983996D01*
X107377484Y-17037740D01*
X107433360Y-17066211D01*
X107433363Y-17066212D01*
X107519476Y-17094191D01*
X107605591Y-17122171D01*
X107630291Y-17126083D01*
X107639406Y-17127527D01*
X107702540Y-17157457D01*
X107739471Y-17216768D01*
X107738473Y-17286631D01*
X107699863Y-17344863D01*
X107639406Y-17372473D01*
X107605589Y-17377829D01*
X107433363Y-17433787D01*
X107433360Y-17433788D01*
X107272002Y-17516006D01*
X107125505Y-17622441D01*
X107125500Y-17622445D01*
X106997445Y-17750500D01*
X106997441Y-17750505D01*
X106891006Y-17897002D01*
X106808788Y-18058360D01*
X106808787Y-18058363D01*
X106752829Y-18230589D01*
X106724500Y-18409448D01*
X106724500Y-18590551D01*
X106752829Y-18769410D01*
X106808787Y-18941636D01*
X106808788Y-18941639D01*
X106842438Y-19007679D01*
X106879709Y-19080827D01*
X106891006Y-19102997D01*
X106997441Y-19249494D01*
X106997445Y-19249499D01*
X107125500Y-19377554D01*
X107125505Y-19377558D01*
X107202315Y-19433363D01*
X107272006Y-19483996D01*
X107377484Y-19537740D01*
X107433360Y-19566211D01*
X107433363Y-19566212D01*
X107510163Y-19591165D01*
X107605591Y-19622171D01*
X107630291Y-19626083D01*
X107639406Y-19627527D01*
X107702540Y-19657457D01*
X107739471Y-19716768D01*
X107738473Y-19786631D01*
X107699863Y-19844863D01*
X107639406Y-19872473D01*
X107605589Y-19877829D01*
X107433363Y-19933787D01*
X107433360Y-19933788D01*
X107272002Y-20016006D01*
X107125505Y-20122441D01*
X107125500Y-20122445D01*
X106997445Y-20250500D01*
X106997441Y-20250505D01*
X106891006Y-20397002D01*
X106808788Y-20558360D01*
X106808787Y-20558363D01*
X106752829Y-20730589D01*
X106724500Y-20909448D01*
X106724500Y-21090551D01*
X106752829Y-21269410D01*
X106808787Y-21441636D01*
X106808788Y-21441639D01*
X106891006Y-21602997D01*
X106997441Y-21749494D01*
X106997445Y-21749499D01*
X107125500Y-21877554D01*
X107125505Y-21877558D01*
X107185512Y-21921155D01*
X107272006Y-21983996D01*
X107377484Y-22037740D01*
X107433360Y-22066211D01*
X107433363Y-22066212D01*
X107472248Y-22078846D01*
X107605591Y-22122171D01*
X107630291Y-22126083D01*
X107639406Y-22127527D01*
X107702540Y-22157457D01*
X107739471Y-22216768D01*
X107738473Y-22286631D01*
X107699863Y-22344863D01*
X107639406Y-22372473D01*
X107605589Y-22377829D01*
X107433363Y-22433787D01*
X107433360Y-22433788D01*
X107272002Y-22516006D01*
X107125505Y-22622441D01*
X107125500Y-22622445D01*
X106997445Y-22750500D01*
X106997441Y-22750505D01*
X106891006Y-22897002D01*
X106808788Y-23058360D01*
X106808787Y-23058363D01*
X106752829Y-23230589D01*
X106724500Y-23409448D01*
X106724500Y-23590551D01*
X106752829Y-23769410D01*
X106808787Y-23941636D01*
X106808788Y-23941639D01*
X106834919Y-23992922D01*
X106888644Y-24098363D01*
X106891006Y-24102997D01*
X106997441Y-24249494D01*
X106997445Y-24249499D01*
X107125500Y-24377554D01*
X107125505Y-24377558D01*
X107224463Y-24449454D01*
X107272006Y-24483996D01*
X107366921Y-24532358D01*
X107433360Y-24566211D01*
X107433363Y-24566212D01*
X107519476Y-24594191D01*
X107605591Y-24622171D01*
X107688429Y-24635291D01*
X107784449Y-24650500D01*
X107784454Y-24650500D01*
X108215551Y-24650500D01*
X108302259Y-24636765D01*
X108394409Y-24622171D01*
X108566639Y-24566211D01*
X108727994Y-24483996D01*
X108874501Y-24377553D01*
X109002553Y-24249501D01*
X109108996Y-24102994D01*
X109191211Y-23941639D01*
X109247171Y-23769409D01*
X109266213Y-23649185D01*
X109275500Y-23590551D01*
X109275500Y-23409448D01*
X109259019Y-23305397D01*
X109247171Y-23230591D01*
X109219191Y-23144476D01*
X109191212Y-23058363D01*
X109191211Y-23058360D01*
X109162740Y-23002484D01*
X109108996Y-22897006D01*
X109032935Y-22792316D01*
X109002558Y-22750505D01*
X109002554Y-22750500D01*
X108874499Y-22622445D01*
X108874494Y-22622441D01*
X108727997Y-22516006D01*
X108727996Y-22516005D01*
X108727994Y-22516004D01*
X108676300Y-22489664D01*
X108566639Y-22433788D01*
X108566636Y-22433787D01*
X108394410Y-22377829D01*
X108360594Y-22372473D01*
X108297459Y-22342544D01*
X108260528Y-22283232D01*
X108261526Y-22213370D01*
X108300136Y-22155137D01*
X108360594Y-22127527D01*
X108368388Y-22126292D01*
X108394409Y-22122171D01*
X108566639Y-22066211D01*
X108727994Y-21983996D01*
X108874501Y-21877553D01*
X109002553Y-21749501D01*
X109108996Y-21602994D01*
X109191211Y-21441639D01*
X109247171Y-21269409D01*
X109267865Y-21138752D01*
X109275500Y-21090551D01*
X109275500Y-20909448D01*
X109253053Y-20767731D01*
X109247171Y-20730591D01*
X109208484Y-20611522D01*
X109191212Y-20558363D01*
X109191211Y-20558360D01*
X109156289Y-20489823D01*
X109108996Y-20397006D01*
X109075436Y-20350814D01*
X109002558Y-20250505D01*
X109002554Y-20250500D01*
X108874499Y-20122445D01*
X108874494Y-20122441D01*
X108727997Y-20016006D01*
X108727996Y-20016005D01*
X108727994Y-20016004D01*
X108638280Y-19970292D01*
X108566639Y-19933788D01*
X108566636Y-19933787D01*
X108394410Y-19877829D01*
X108360594Y-19872473D01*
X108297459Y-19842544D01*
X108260528Y-19783232D01*
X108261526Y-19713370D01*
X108300136Y-19655137D01*
X108360594Y-19627527D01*
X108368388Y-19626292D01*
X108394409Y-19622171D01*
X108566639Y-19566211D01*
X108727994Y-19483996D01*
X108874501Y-19377553D01*
X109002553Y-19249501D01*
X109108996Y-19102994D01*
X109191211Y-18941639D01*
X109247171Y-18769409D01*
X109267060Y-18643834D01*
X109275500Y-18590551D01*
X109275500Y-18409448D01*
X109249501Y-18245303D01*
X109247171Y-18230591D01*
X109191211Y-18058361D01*
X109191211Y-18058360D01*
X109162740Y-18002484D01*
X109108996Y-17897006D01*
X109064145Y-17835273D01*
X109002558Y-17750505D01*
X109002554Y-17750500D01*
X108874499Y-17622445D01*
X108874494Y-17622441D01*
X108727997Y-17516006D01*
X108727996Y-17516005D01*
X108727994Y-17516004D01*
X108676300Y-17489664D01*
X108566639Y-17433788D01*
X108566636Y-17433787D01*
X108394410Y-17377829D01*
X108360594Y-17372473D01*
X108297459Y-17342544D01*
X108260528Y-17283232D01*
X108261526Y-17213370D01*
X108300136Y-17155137D01*
X108360594Y-17127527D01*
X108368388Y-17126292D01*
X108394409Y-17122171D01*
X108566639Y-17066211D01*
X108727994Y-16983996D01*
X108874501Y-16877553D01*
X109002553Y-16749501D01*
X109108996Y-16602994D01*
X109191211Y-16441639D01*
X109247171Y-16269409D01*
X109264454Y-16160289D01*
X109275500Y-16090551D01*
X109275500Y-15909448D01*
X109253111Y-15768096D01*
X109247171Y-15730591D01*
X109191211Y-15558361D01*
X109191211Y-15558360D01*
X109150096Y-15477669D01*
X109108996Y-15397006D01*
X109053397Y-15320480D01*
X109002558Y-15250505D01*
X109002554Y-15250500D01*
X108874499Y-15122445D01*
X108874494Y-15122441D01*
X108727997Y-15016006D01*
X108727996Y-15016005D01*
X108727994Y-15016004D01*
X108676300Y-14989664D01*
X108566639Y-14933788D01*
X108566636Y-14933787D01*
X108486182Y-14907647D01*
X108428507Y-14868210D01*
X108401308Y-14803851D01*
X108401091Y-14800070D01*
X108400500Y-14795580D01*
X108400500Y-14795573D01*
X108373207Y-14693713D01*
X108320480Y-14602387D01*
X108245913Y-14527820D01*
X108154587Y-14475093D01*
X108052727Y-14447800D01*
X108052726Y-14447800D01*
X107065555Y-14447800D01*
X106998516Y-14428115D01*
X106977874Y-14411481D01*
X106445104Y-13878711D01*
X114149500Y-13878711D01*
X114149500Y-14121288D01*
X114181161Y-14361785D01*
X114243947Y-14596104D01*
X114326570Y-14795573D01*
X114336776Y-14820212D01*
X114458064Y-15030289D01*
X114458066Y-15030292D01*
X114458067Y-15030293D01*
X114605733Y-15222736D01*
X114605739Y-15222743D01*
X114777256Y-15394260D01*
X114777263Y-15394266D01*
X114836019Y-15439351D01*
X114969711Y-15541936D01*
X115179788Y-15663224D01*
X115403900Y-15756054D01*
X115638211Y-15818838D01*
X115818586Y-15842584D01*
X115878711Y-15850500D01*
X115878712Y-15850500D01*
X116121289Y-15850500D01*
X116169388Y-15844167D01*
X116361789Y-15818838D01*
X116596100Y-15756054D01*
X116820212Y-15663224D01*
X117030289Y-15541936D01*
X117222738Y-15394265D01*
X117394265Y-15222738D01*
X117541936Y-15030289D01*
X117663224Y-14820212D01*
X117756054Y-14596100D01*
X117818838Y-14361789D01*
X117850500Y-14121288D01*
X117850500Y-13878712D01*
X117818838Y-13638211D01*
X117756054Y-13403900D01*
X117663224Y-13179788D01*
X117541936Y-12969711D01*
X117394265Y-12777262D01*
X117394260Y-12777256D01*
X117222743Y-12605739D01*
X117222736Y-12605733D01*
X117030293Y-12458067D01*
X117030292Y-12458066D01*
X117030289Y-12458064D01*
X116820212Y-12336776D01*
X116820205Y-12336773D01*
X116596104Y-12243947D01*
X116361785Y-12181161D01*
X116121289Y-12149500D01*
X116121288Y-12149500D01*
X115878712Y-12149500D01*
X115878711Y-12149500D01*
X115638214Y-12181161D01*
X115403895Y-12243947D01*
X115179794Y-12336773D01*
X115179785Y-12336777D01*
X114969706Y-12458067D01*
X114777263Y-12605733D01*
X114777256Y-12605739D01*
X114605739Y-12777256D01*
X114605733Y-12777263D01*
X114458067Y-12969706D01*
X114336777Y-13179785D01*
X114336773Y-13179794D01*
X114243947Y-13403895D01*
X114181161Y-13638214D01*
X114149500Y-13878711D01*
X106445104Y-13878711D01*
X105924615Y-13358222D01*
X105924613Y-13358220D01*
X105855552Y-13318347D01*
X105833289Y-13305493D01*
X105782357Y-13291846D01*
X105731427Y-13278200D01*
X90821727Y-13278200D01*
X90716273Y-13278200D01*
X90614410Y-13305493D01*
X90523087Y-13358220D01*
X90523084Y-13358222D01*
X79612181Y-24269126D01*
X79550858Y-24302611D01*
X79481166Y-24297627D01*
X79425233Y-24255755D01*
X79400816Y-24190291D01*
X79400500Y-24181445D01*
X79400500Y-22167275D01*
X79400500Y-22167273D01*
X79373207Y-22065413D01*
X79373207Y-22065412D01*
X79326201Y-21983996D01*
X79320480Y-21974087D01*
X79245913Y-21899520D01*
X79245912Y-21899519D01*
X79241582Y-21895189D01*
X79241571Y-21895179D01*
X70036319Y-12689926D01*
X70002834Y-12628603D01*
X70000000Y-12602245D01*
X70000000Y-10624500D01*
X70019685Y-10557461D01*
X70072489Y-10511706D01*
X70124000Y-10500500D01*
X119375500Y-10500500D01*
X119442539Y-10520185D01*
X119488294Y-10572989D01*
X119499500Y-10624500D01*
X119499500Y-81375500D01*
X119479815Y-81442539D01*
X119427011Y-81488294D01*
X119375500Y-81499500D01*
X10624500Y-81499500D01*
X10557461Y-81479815D01*
X10511706Y-81427011D01*
X10500500Y-81375500D01*
X10500500Y-77878711D01*
X12149500Y-77878711D01*
X12149500Y-78121288D01*
X12181161Y-78361785D01*
X12243947Y-78596104D01*
X12336773Y-78820205D01*
X12336776Y-78820212D01*
X12458064Y-79030289D01*
X12458066Y-79030292D01*
X12458067Y-79030293D01*
X12605733Y-79222736D01*
X12605739Y-79222743D01*
X12777256Y-79394260D01*
X12777262Y-79394265D01*
X12969711Y-79541936D01*
X13179788Y-79663224D01*
X13403900Y-79756054D01*
X13638211Y-79818838D01*
X13818586Y-79842584D01*
X13878711Y-79850500D01*
X13878712Y-79850500D01*
X14121289Y-79850500D01*
X14169388Y-79844167D01*
X14361789Y-79818838D01*
X14596100Y-79756054D01*
X14820212Y-79663224D01*
X15030289Y-79541936D01*
X15222738Y-79394265D01*
X15394265Y-79222738D01*
X15541936Y-79030289D01*
X15663224Y-78820212D01*
X15756054Y-78596100D01*
X15818838Y-78361789D01*
X15850500Y-78121288D01*
X15850500Y-77878712D01*
X15850500Y-77878711D01*
X114149500Y-77878711D01*
X114149500Y-78121288D01*
X114181161Y-78361785D01*
X114243947Y-78596104D01*
X114336773Y-78820205D01*
X114336776Y-78820212D01*
X114458064Y-79030289D01*
X114458066Y-79030292D01*
X114458067Y-79030293D01*
X114605733Y-79222736D01*
X114605739Y-79222743D01*
X114777256Y-79394260D01*
X114777262Y-79394265D01*
X114969711Y-79541936D01*
X115179788Y-79663224D01*
X115403900Y-79756054D01*
X115638211Y-79818838D01*
X115818586Y-79842584D01*
X115878711Y-79850500D01*
X115878712Y-79850500D01*
X116121289Y-79850500D01*
X116169388Y-79844167D01*
X116361789Y-79818838D01*
X116596100Y-79756054D01*
X116820212Y-79663224D01*
X117030289Y-79541936D01*
X117222738Y-79394265D01*
X117394265Y-79222738D01*
X117541936Y-79030289D01*
X117663224Y-78820212D01*
X117756054Y-78596100D01*
X117818838Y-78361789D01*
X117850500Y-78121288D01*
X117850500Y-77878712D01*
X117818838Y-77638211D01*
X117756054Y-77403900D01*
X117663224Y-77179788D01*
X117541936Y-76969711D01*
X117394265Y-76777262D01*
X117394260Y-76777256D01*
X117222743Y-76605739D01*
X117222736Y-76605733D01*
X117030293Y-76458067D01*
X117030292Y-76458066D01*
X117030289Y-76458064D01*
X116820212Y-76336776D01*
X116820205Y-76336773D01*
X116596104Y-76243947D01*
X116406282Y-76193084D01*
X116361789Y-76181162D01*
X116361788Y-76181161D01*
X116361785Y-76181161D01*
X116121289Y-76149500D01*
X116121288Y-76149500D01*
X115878712Y-76149500D01*
X115878711Y-76149500D01*
X115638214Y-76181161D01*
X115403895Y-76243947D01*
X115179794Y-76336773D01*
X115179785Y-76336777D01*
X114969706Y-76458067D01*
X114777263Y-76605733D01*
X114777256Y-76605739D01*
X114605739Y-76777256D01*
X114605733Y-76777263D01*
X114458067Y-76969706D01*
X114336777Y-77179785D01*
X114336773Y-77179794D01*
X114243947Y-77403895D01*
X114181161Y-77638214D01*
X114149500Y-77878711D01*
X15850500Y-77878711D01*
X15818838Y-77638211D01*
X15756054Y-77403900D01*
X15663224Y-77179788D01*
X15541936Y-76969711D01*
X15394265Y-76777262D01*
X15394260Y-76777256D01*
X15222743Y-76605739D01*
X15222736Y-76605733D01*
X15030293Y-76458067D01*
X15030292Y-76458066D01*
X15030289Y-76458064D01*
X14820212Y-76336776D01*
X14820205Y-76336773D01*
X14596104Y-76243947D01*
X14406282Y-76193084D01*
X14361789Y-76181162D01*
X14361788Y-76181161D01*
X14361785Y-76181161D01*
X14121289Y-76149500D01*
X14121288Y-76149500D01*
X13878712Y-76149500D01*
X13878711Y-76149500D01*
X13638214Y-76181161D01*
X13403895Y-76243947D01*
X13179794Y-76336773D01*
X13179785Y-76336777D01*
X12969706Y-76458067D01*
X12777263Y-76605733D01*
X12777256Y-76605739D01*
X12605739Y-76777256D01*
X12605733Y-76777263D01*
X12458067Y-76969706D01*
X12336777Y-77179785D01*
X12336773Y-77179794D01*
X12243947Y-77403895D01*
X12181161Y-77638214D01*
X12149500Y-77878711D01*
X10500500Y-77878711D01*
X10500500Y-63356898D01*
X12699500Y-63356898D01*
X12699500Y-64643102D01*
X12702870Y-64671162D01*
X12710122Y-64731561D01*
X12765639Y-64872343D01*
X12857077Y-64992922D01*
X12977656Y-65084360D01*
X12977657Y-65084360D01*
X12977658Y-65084361D01*
X13118436Y-65139877D01*
X13206898Y-65150500D01*
X13206903Y-65150500D01*
X14793097Y-65150500D01*
X14793102Y-65150500D01*
X14881564Y-65139877D01*
X15022342Y-65084361D01*
X15142922Y-64992922D01*
X15234361Y-64872342D01*
X15289877Y-64731564D01*
X15300500Y-64643102D01*
X15300500Y-63356898D01*
X15289877Y-63268436D01*
X15234361Y-63127658D01*
X15234360Y-63127657D01*
X15234360Y-63127656D01*
X15142922Y-63007077D01*
X15022343Y-62915639D01*
X14881561Y-62860122D01*
X14835926Y-62854642D01*
X14793102Y-62849500D01*
X13206898Y-62849500D01*
X13167853Y-62854188D01*
X13118438Y-62860122D01*
X12977656Y-62915639D01*
X12857077Y-63007077D01*
X12765639Y-63127656D01*
X12710122Y-63268438D01*
X12704188Y-63317853D01*
X12699500Y-63356898D01*
X10500500Y-63356898D01*
X10500500Y-52356898D01*
X12699500Y-52356898D01*
X12699500Y-53643102D01*
X12705126Y-53689954D01*
X12710122Y-53731561D01*
X12765639Y-53872343D01*
X12857077Y-53992922D01*
X12977656Y-54084360D01*
X12977657Y-54084360D01*
X12977658Y-54084361D01*
X13118436Y-54139877D01*
X13206898Y-54150500D01*
X13206903Y-54150500D01*
X14793097Y-54150500D01*
X14793102Y-54150500D01*
X14881564Y-54139877D01*
X15022342Y-54084361D01*
X15142922Y-53992922D01*
X15234361Y-53872342D01*
X15289877Y-53731564D01*
X15300500Y-53643102D01*
X15300500Y-52356898D01*
X15289877Y-52268436D01*
X15234361Y-52127658D01*
X15234360Y-52127657D01*
X15234360Y-52127656D01*
X15142922Y-52007077D01*
X15022343Y-51915639D01*
X14920557Y-51875500D01*
X14881564Y-51860123D01*
X14881563Y-51860122D01*
X14881561Y-51860122D01*
X14835926Y-51854642D01*
X14793102Y-51849500D01*
X13206898Y-51849500D01*
X13167853Y-51854188D01*
X13118438Y-51860122D01*
X12977656Y-51915639D01*
X12857077Y-52007077D01*
X12765639Y-52127656D01*
X12710122Y-52268438D01*
X12704188Y-52317853D01*
X12699500Y-52356898D01*
X10500500Y-52356898D01*
X10500500Y-42356898D01*
X12699500Y-42356898D01*
X12699500Y-43643102D01*
X12705126Y-43689954D01*
X12710122Y-43731561D01*
X12765639Y-43872343D01*
X12857077Y-43992922D01*
X12977656Y-44084360D01*
X12977657Y-44084360D01*
X12977658Y-44084361D01*
X13118436Y-44139877D01*
X13206898Y-44150500D01*
X13206903Y-44150500D01*
X14793097Y-44150500D01*
X14793102Y-44150500D01*
X14881564Y-44139877D01*
X15022342Y-44084361D01*
X15142922Y-43992922D01*
X15234361Y-43872342D01*
X15289877Y-43731564D01*
X15300500Y-43643102D01*
X15300500Y-42356898D01*
X15289877Y-42268436D01*
X15234361Y-42127658D01*
X15234360Y-42127657D01*
X15234360Y-42127656D01*
X15142922Y-42007077D01*
X15022343Y-41915639D01*
X14881561Y-41860122D01*
X14835926Y-41854642D01*
X14793102Y-41849500D01*
X13206898Y-41849500D01*
X13167853Y-41854188D01*
X13118438Y-41860122D01*
X12977656Y-41915639D01*
X12857077Y-42007077D01*
X12765639Y-42127656D01*
X12710122Y-42268438D01*
X12704188Y-42317853D01*
X12699500Y-42356898D01*
X10500500Y-42356898D01*
X10500500Y-32356898D01*
X12699500Y-32356898D01*
X12699500Y-33643102D01*
X12704220Y-33682407D01*
X12710122Y-33731561D01*
X12765639Y-33872343D01*
X12857077Y-33992922D01*
X12977656Y-34084360D01*
X12977657Y-34084360D01*
X12977658Y-34084361D01*
X13118436Y-34139877D01*
X13206898Y-34150500D01*
X13206903Y-34150500D01*
X14793097Y-34150500D01*
X14793102Y-34150500D01*
X14881564Y-34139877D01*
X15022342Y-34084361D01*
X15142922Y-33992922D01*
X15234361Y-33872342D01*
X15289877Y-33731564D01*
X15300500Y-33643102D01*
X15300500Y-32356898D01*
X15289877Y-32268436D01*
X15234361Y-32127658D01*
X15234360Y-32127657D01*
X15234360Y-32127656D01*
X15142922Y-32007077D01*
X15022343Y-31915639D01*
X14881561Y-31860122D01*
X14835926Y-31854642D01*
X14793102Y-31849500D01*
X13206898Y-31849500D01*
X13167853Y-31854188D01*
X13118438Y-31860122D01*
X12977656Y-31915639D01*
X12857077Y-32007077D01*
X12765639Y-32127656D01*
X12710122Y-32268438D01*
X12704954Y-32311479D01*
X12699500Y-32356898D01*
X10500500Y-32356898D01*
X10500500Y-22356898D01*
X12699500Y-22356898D01*
X12699500Y-23643102D01*
X12703578Y-23677058D01*
X12710122Y-23731561D01*
X12710122Y-23731563D01*
X12710123Y-23731564D01*
X12713523Y-23740185D01*
X12765639Y-23872343D01*
X12857077Y-23992922D01*
X12977656Y-24084360D01*
X12977657Y-24084360D01*
X12977658Y-24084361D01*
X13118436Y-24139877D01*
X13206898Y-24150500D01*
X13206903Y-24150500D01*
X14793097Y-24150500D01*
X14793102Y-24150500D01*
X14881564Y-24139877D01*
X15022342Y-24084361D01*
X15142922Y-23992922D01*
X15234361Y-23872342D01*
X15289877Y-23731564D01*
X15300500Y-23643102D01*
X15300500Y-22356898D01*
X15289877Y-22268436D01*
X15234361Y-22127658D01*
X15234360Y-22127657D01*
X15234360Y-22127656D01*
X15142922Y-22007077D01*
X15022343Y-21915639D01*
X14881561Y-21860122D01*
X14835926Y-21854642D01*
X14793102Y-21849500D01*
X13206898Y-21849500D01*
X13167853Y-21854188D01*
X13118438Y-21860122D01*
X12977656Y-21915639D01*
X12857077Y-22007077D01*
X12765639Y-22127656D01*
X12710122Y-22268438D01*
X12708346Y-22283232D01*
X12699500Y-22356898D01*
X10500500Y-22356898D01*
X10500500Y-13878711D01*
X12149500Y-13878711D01*
X12149500Y-14121288D01*
X12181161Y-14361785D01*
X12243947Y-14596104D01*
X12326570Y-14795573D01*
X12336776Y-14820212D01*
X12458064Y-15030289D01*
X12458066Y-15030292D01*
X12458067Y-15030293D01*
X12605733Y-15222736D01*
X12605739Y-15222743D01*
X12777256Y-15394260D01*
X12777263Y-15394266D01*
X12836019Y-15439351D01*
X12969711Y-15541936D01*
X13179788Y-15663224D01*
X13403900Y-15756054D01*
X13638211Y-15818838D01*
X13818586Y-15842584D01*
X13878711Y-15850500D01*
X13878712Y-15850500D01*
X14121289Y-15850500D01*
X14169388Y-15844167D01*
X14361789Y-15818838D01*
X14596100Y-15756054D01*
X14820212Y-15663224D01*
X15030289Y-15541936D01*
X15222738Y-15394265D01*
X15394265Y-15222738D01*
X15541936Y-15030289D01*
X15663224Y-14820212D01*
X15756054Y-14596100D01*
X15818838Y-14361789D01*
X15850500Y-14121288D01*
X15850500Y-13878712D01*
X15818838Y-13638211D01*
X15756054Y-13403900D01*
X15663224Y-13179788D01*
X15541936Y-12969711D01*
X15394265Y-12777262D01*
X15394260Y-12777256D01*
X15222743Y-12605739D01*
X15222736Y-12605733D01*
X15030293Y-12458067D01*
X15030292Y-12458066D01*
X15030289Y-12458064D01*
X14820212Y-12336776D01*
X14820205Y-12336773D01*
X14596104Y-12243947D01*
X14361785Y-12181161D01*
X14121289Y-12149500D01*
X14121288Y-12149500D01*
X13878712Y-12149500D01*
X13878711Y-12149500D01*
X13638214Y-12181161D01*
X13403895Y-12243947D01*
X13179794Y-12336773D01*
X13179785Y-12336777D01*
X12969706Y-12458067D01*
X12777263Y-12605733D01*
X12777256Y-12605739D01*
X12605739Y-12777256D01*
X12605733Y-12777263D01*
X12458067Y-12969706D01*
X12336777Y-13179785D01*
X12336773Y-13179794D01*
X12243947Y-13403895D01*
X12181161Y-13638214D01*
X12149500Y-13878711D01*
X10500500Y-13878711D01*
X10500500Y-10624500D01*
X10520185Y-10557461D01*
X10572989Y-10511706D01*
X10624500Y-10500500D01*
X51876000Y-10500500D01*
X51943039Y-10520185D01*
G37*
%TD.AperFunction*%
%TA.AperFunction,Conductor*%
G36*
X46460386Y-19135285D02*
G01*
X46506141Y-19188089D01*
X46516085Y-19257247D01*
X46503832Y-19295895D01*
X46433788Y-19433360D01*
X46433787Y-19433363D01*
X46377829Y-19605589D01*
X46349500Y-19784448D01*
X46349500Y-20215551D01*
X46377829Y-20394410D01*
X46433787Y-20566636D01*
X46433788Y-20566639D01*
X46516006Y-20727997D01*
X46622441Y-20874494D01*
X46622445Y-20874499D01*
X46750500Y-21002554D01*
X46750505Y-21002558D01*
X46897001Y-21108993D01*
X46897003Y-21108994D01*
X46897006Y-21108996D01*
X46931794Y-21126721D01*
X46982590Y-21174694D01*
X46999500Y-21237206D01*
X46999500Y-23078591D01*
X47033608Y-23205887D01*
X47047870Y-23230589D01*
X47099500Y-23320014D01*
X47099502Y-23320016D01*
X52489644Y-28710158D01*
X52523129Y-28771481D01*
X52518145Y-28841173D01*
X52502282Y-28870723D01*
X52396005Y-29017003D01*
X52313788Y-29178360D01*
X52313787Y-29178363D01*
X52257829Y-29350589D01*
X52229500Y-29529448D01*
X52229500Y-29710551D01*
X52257829Y-29889410D01*
X52313787Y-30061636D01*
X52313788Y-30061639D01*
X52364787Y-30161727D01*
X52381958Y-30195428D01*
X52396006Y-30222997D01*
X52502441Y-30369494D01*
X52502445Y-30369499D01*
X52630500Y-30497554D01*
X52630505Y-30497558D01*
X52758287Y-30590396D01*
X52777006Y-30603996D01*
X52860346Y-30646460D01*
X52938360Y-30686211D01*
X52938363Y-30686212D01*
X53004754Y-30707783D01*
X53110591Y-30742171D01*
X53193429Y-30755291D01*
X53289449Y-30770500D01*
X53289454Y-30770500D01*
X53470551Y-30770500D01*
X53557259Y-30756765D01*
X53649409Y-30742171D01*
X53821639Y-30686211D01*
X53982994Y-30603996D01*
X54129501Y-30497553D01*
X54257553Y-30369501D01*
X54363996Y-30222994D01*
X54446211Y-30061639D01*
X54502171Y-29889409D01*
X54503385Y-29881737D01*
X54533313Y-29818604D01*
X54592624Y-29781672D01*
X54662487Y-29782668D01*
X54713540Y-29813454D01*
X67813181Y-42913095D01*
X67846666Y-42974418D01*
X67849500Y-43000776D01*
X67849500Y-64583481D01*
X67829815Y-64650520D01*
X67813181Y-64671162D01*
X67805888Y-64678454D01*
X67805885Y-64678458D01*
X67729228Y-64793182D01*
X67729221Y-64793195D01*
X67676421Y-64920667D01*
X67676418Y-64920677D01*
X67649500Y-65056004D01*
X67649500Y-65056007D01*
X67649500Y-65193993D01*
X67649500Y-65193995D01*
X67649499Y-65193995D01*
X67676418Y-65329322D01*
X67676421Y-65329332D01*
X67729221Y-65456804D01*
X67729228Y-65456817D01*
X67805885Y-65571541D01*
X67805888Y-65571545D01*
X67903454Y-65669111D01*
X67903462Y-65669117D01*
X67981363Y-65721169D01*
X68026169Y-65774781D01*
X68034876Y-65844106D01*
X68004722Y-65907133D01*
X68000154Y-65911952D01*
X61874826Y-72037281D01*
X61813503Y-72070766D01*
X61787145Y-72073600D01*
X58785473Y-72073600D01*
X58683613Y-72100893D01*
X58683610Y-72100894D01*
X58592285Y-72153621D01*
X55862181Y-74883726D01*
X55800858Y-74917211D01*
X55731166Y-74912227D01*
X55675233Y-74870355D01*
X55650816Y-74804891D01*
X55650500Y-74796045D01*
X55650500Y-74784448D01*
X55622659Y-74608674D01*
X55622171Y-74605591D01*
X55566211Y-74433361D01*
X55566211Y-74433360D01*
X55536012Y-74374093D01*
X55483996Y-74272006D01*
X55381983Y-74131596D01*
X55377558Y-74125505D01*
X55377554Y-74125500D01*
X55249499Y-73997445D01*
X55249494Y-73997441D01*
X55102997Y-73891006D01*
X55102996Y-73891005D01*
X55102994Y-73891004D01*
X55036409Y-73857077D01*
X54941639Y-73808788D01*
X54941636Y-73808787D01*
X54769410Y-73752829D01*
X54590551Y-73724500D01*
X54590546Y-73724500D01*
X54409454Y-73724500D01*
X54409449Y-73724500D01*
X54230589Y-73752829D01*
X54058363Y-73808787D01*
X54058360Y-73808789D01*
X53929095Y-73874653D01*
X53860425Y-73887549D01*
X53795685Y-73861273D01*
X53755428Y-73804166D01*
X53748800Y-73764168D01*
X53748800Y-73385293D01*
X53748800Y-73385291D01*
X53718099Y-73270714D01*
X53718099Y-73270713D01*
X53718099Y-73270712D01*
X53658792Y-73167989D01*
X53658788Y-73167984D01*
X45590519Y-65099715D01*
X45557034Y-65038392D01*
X45554200Y-65012034D01*
X45554200Y-64931004D01*
X45527281Y-64795677D01*
X45527280Y-64795676D01*
X45527280Y-64795672D01*
X45526249Y-64793182D01*
X45474478Y-64668195D01*
X45474471Y-64668182D01*
X45397814Y-64553458D01*
X45397811Y-64553454D01*
X45300245Y-64455888D01*
X45300241Y-64455885D01*
X45185517Y-64379228D01*
X45185504Y-64379221D01*
X45058032Y-64326421D01*
X45058022Y-64326418D01*
X44922695Y-64299500D01*
X44922693Y-64299500D01*
X44841665Y-64299500D01*
X44774626Y-64279815D01*
X44753984Y-64263181D01*
X44236819Y-63746016D01*
X44203334Y-63684693D01*
X44200500Y-63658335D01*
X44200500Y-19591165D01*
X44220185Y-19524126D01*
X44236819Y-19503484D01*
X44588384Y-19151919D01*
X44649707Y-19118434D01*
X44676065Y-19115600D01*
X46393347Y-19115600D01*
X46460386Y-19135285D01*
G37*
%TD.AperFunction*%
%TA.AperFunction,Conductor*%
G36*
X41799885Y-21038434D02*
G01*
X41897006Y-21108996D01*
X41980860Y-21151722D01*
X42058360Y-21191211D01*
X42058363Y-21191212D01*
X42144476Y-21219191D01*
X42230591Y-21247171D01*
X42313429Y-21260291D01*
X42409449Y-21275500D01*
X42409454Y-21275500D01*
X42590551Y-21275500D01*
X42677259Y-21261765D01*
X42769409Y-21247171D01*
X42941639Y-21191211D01*
X43102994Y-21108996D01*
X43102998Y-21108992D01*
X43103002Y-21108991D01*
X43107150Y-21106450D01*
X43107755Y-21107438D01*
X43168420Y-21085792D01*
X43236474Y-21101617D01*
X43285169Y-21151722D01*
X43299500Y-21209590D01*
X43299500Y-63955605D01*
X43299501Y-63955614D01*
X43300807Y-63960486D01*
X43300808Y-63960500D01*
X43300811Y-63960500D01*
X43330201Y-64070187D01*
X43389511Y-64172914D01*
X43389513Y-64172916D01*
X44116881Y-64900284D01*
X44150366Y-64961607D01*
X44153200Y-64987965D01*
X44153200Y-65068993D01*
X44153200Y-65068995D01*
X44153199Y-65068995D01*
X44180118Y-65204322D01*
X44180121Y-65204332D01*
X44232921Y-65331804D01*
X44232928Y-65331817D01*
X44309585Y-65446541D01*
X44309588Y-65446545D01*
X44407154Y-65544111D01*
X44407158Y-65544114D01*
X44521882Y-65620771D01*
X44521895Y-65620778D01*
X44638583Y-65669111D01*
X44649372Y-65673580D01*
X44649376Y-65673580D01*
X44649377Y-65673581D01*
X44784704Y-65700500D01*
X44784707Y-65700500D01*
X44865735Y-65700500D01*
X44932774Y-65720185D01*
X44953416Y-65736819D01*
X52811481Y-73594884D01*
X52844966Y-73656207D01*
X52847800Y-73682565D01*
X52847800Y-73825501D01*
X52828115Y-73892540D01*
X52775311Y-73938295D01*
X52706153Y-73948239D01*
X52650916Y-73925820D01*
X52602996Y-73891005D01*
X52441639Y-73808788D01*
X52441636Y-73808787D01*
X52269410Y-73752829D01*
X52090551Y-73724500D01*
X52090546Y-73724500D01*
X51909454Y-73724500D01*
X51909449Y-73724500D01*
X51730589Y-73752829D01*
X51558363Y-73808787D01*
X51558360Y-73808788D01*
X51397002Y-73891006D01*
X51250506Y-73997440D01*
X51144850Y-74103096D01*
X51083527Y-74136580D01*
X51013835Y-74131596D01*
X50969488Y-74103095D01*
X32085915Y-55219522D01*
X32085914Y-55219521D01*
X32085913Y-55219520D01*
X32011874Y-55176773D01*
X31994589Y-55166793D01*
X31943657Y-55153146D01*
X31892727Y-55139500D01*
X31892726Y-55139500D01*
X25163160Y-55139500D01*
X25096121Y-55119815D01*
X25052675Y-55071795D01*
X25044009Y-55054787D01*
X24983996Y-54937006D01*
X24928638Y-54860812D01*
X24877558Y-54790505D01*
X24877554Y-54790500D01*
X24749499Y-54662445D01*
X24749494Y-54662441D01*
X24602997Y-54556006D01*
X24602996Y-54556005D01*
X24602994Y-54556004D01*
X24441639Y-54473789D01*
X24441638Y-54473788D01*
X24441633Y-54473786D01*
X24438574Y-54472519D01*
X24437588Y-54471725D01*
X24437298Y-54471577D01*
X24437329Y-54471515D01*
X24384168Y-54428681D01*
X24362100Y-54362388D01*
X24371461Y-54310500D01*
X24373202Y-54306294D01*
X24373207Y-54306287D01*
X24390324Y-54242404D01*
X24426687Y-54182746D01*
X24489534Y-54152216D01*
X24510098Y-54150499D01*
X24894856Y-54150499D01*
X24894864Y-54150499D01*
X24894879Y-54150497D01*
X24894882Y-54150497D01*
X24919987Y-54147586D01*
X24919988Y-54147585D01*
X24919991Y-54147585D01*
X25022765Y-54102206D01*
X25102206Y-54022765D01*
X25147585Y-53919991D01*
X25150500Y-53894865D01*
X25150499Y-52105136D01*
X25150497Y-52105117D01*
X25147586Y-52080012D01*
X25147585Y-52080010D01*
X25147585Y-52080009D01*
X25102206Y-51977235D01*
X25022765Y-51897794D01*
X24960513Y-51870307D01*
X24919992Y-51852415D01*
X24894865Y-51849500D01*
X23105143Y-51849500D01*
X23105117Y-51849502D01*
X23080012Y-51852413D01*
X23080008Y-51852415D01*
X22977235Y-51897793D01*
X22897794Y-51977234D01*
X22852415Y-52080006D01*
X22852415Y-52080008D01*
X22849500Y-52105131D01*
X22849500Y-53894856D01*
X22849502Y-53894882D01*
X22852413Y-53919987D01*
X22852415Y-53919991D01*
X22897793Y-54022764D01*
X22977234Y-54102205D01*
X22983333Y-54106383D01*
X23027518Y-54160508D01*
X23035426Y-54229928D01*
X23004546Y-54292604D01*
X23000940Y-54296365D01*
X22527822Y-54769484D01*
X22527818Y-54769490D01*
X22475092Y-54860812D01*
X22475093Y-54860813D01*
X22447800Y-54962673D01*
X22447800Y-56096126D01*
X22475093Y-56197989D01*
X22501456Y-56243650D01*
X22527820Y-56289313D01*
X22527821Y-56289314D01*
X22527822Y-56289315D01*
X23171779Y-56933271D01*
X23171789Y-56933282D01*
X23176119Y-56937612D01*
X23176120Y-56937613D01*
X23250687Y-57012180D01*
X23250689Y-57012181D01*
X23256434Y-57017926D01*
X23254458Y-57019901D01*
X23287647Y-57065337D01*
X23291812Y-57135083D01*
X23257610Y-57196009D01*
X23251518Y-57201575D01*
X23250507Y-57202438D01*
X23122445Y-57330500D01*
X23122441Y-57330505D01*
X23016006Y-57477002D01*
X22933788Y-57638360D01*
X22933787Y-57638363D01*
X22877829Y-57810589D01*
X22852473Y-57970678D01*
X22822544Y-58033813D01*
X22763232Y-58070744D01*
X22693369Y-58069746D01*
X22635137Y-58031136D01*
X22607527Y-57970678D01*
X22590009Y-57860078D01*
X22582171Y-57810591D01*
X22526211Y-57638361D01*
X22526211Y-57638360D01*
X22481466Y-57550545D01*
X22443996Y-57477006D01*
X22410784Y-57431293D01*
X22337558Y-57330505D01*
X22337554Y-57330500D01*
X22209499Y-57202445D01*
X22209494Y-57202441D01*
X22062997Y-57096006D01*
X22062996Y-57096005D01*
X22062994Y-57096004D01*
X21998605Y-57063196D01*
X21901639Y-57013788D01*
X21901636Y-57013787D01*
X21729410Y-56957829D01*
X21550551Y-56929500D01*
X21550546Y-56929500D01*
X21369454Y-56929500D01*
X21369449Y-56929500D01*
X21190587Y-56957829D01*
X21046716Y-57004575D01*
X20976875Y-57006570D01*
X20920718Y-56974325D01*
X20732719Y-56786326D01*
X20699234Y-56725003D01*
X20696400Y-56698645D01*
X20696400Y-52602955D01*
X20716085Y-52535916D01*
X20732719Y-52515274D01*
X30516432Y-42731561D01*
X40320480Y-32927513D01*
X40373206Y-32836188D01*
X40373207Y-32836187D01*
X40400500Y-32734327D01*
X40400500Y-21399500D01*
X40420185Y-21332461D01*
X40472989Y-21286706D01*
X40524500Y-21275500D01*
X40643099Y-21275500D01*
X40643102Y-21275500D01*
X40663215Y-21273084D01*
X40732120Y-21284633D01*
X40783846Y-21331603D01*
X40802000Y-21396199D01*
X40802000Y-51462944D01*
X40782315Y-51529983D01*
X40765681Y-51550625D01*
X35948438Y-56367867D01*
X35887115Y-56401352D01*
X35853785Y-56403289D01*
X35853785Y-56403500D01*
X35850163Y-56403500D01*
X35848615Y-56403590D01*
X35847700Y-56403500D01*
X35847693Y-56403500D01*
X35709707Y-56403500D01*
X35709705Y-56403500D01*
X35574377Y-56430418D01*
X35574367Y-56430421D01*
X35446895Y-56483221D01*
X35446882Y-56483228D01*
X35332158Y-56559885D01*
X35332154Y-56559888D01*
X35234588Y-56657454D01*
X35234585Y-56657458D01*
X35157928Y-56772182D01*
X35157921Y-56772195D01*
X35105121Y-56899667D01*
X35105118Y-56899677D01*
X35078200Y-57035004D01*
X35078200Y-57035007D01*
X35078200Y-57172993D01*
X35078200Y-57172995D01*
X35078199Y-57172995D01*
X35105118Y-57308322D01*
X35105121Y-57308332D01*
X35157921Y-57435804D01*
X35157928Y-57435817D01*
X35234585Y-57550541D01*
X35234588Y-57550545D01*
X35332154Y-57648111D01*
X35332158Y-57648114D01*
X35446882Y-57724771D01*
X35446895Y-57724778D01*
X35574367Y-57777578D01*
X35574372Y-57777580D01*
X35574376Y-57777580D01*
X35574377Y-57777581D01*
X35709704Y-57804500D01*
X35709707Y-57804500D01*
X35847695Y-57804500D01*
X35938741Y-57786389D01*
X35983028Y-57777580D01*
X36110511Y-57724775D01*
X36225242Y-57648114D01*
X36322814Y-57550542D01*
X36399475Y-57435811D01*
X36452280Y-57308328D01*
X36473342Y-57202445D01*
X36479200Y-57172995D01*
X36479200Y-57035008D01*
X36479110Y-57034095D01*
X36479200Y-57033620D01*
X36479200Y-57028915D01*
X36480092Y-57028915D01*
X36492129Y-56965448D01*
X36514829Y-56934262D01*
X41438203Y-52010887D01*
X41438208Y-52010884D01*
X41448411Y-52000680D01*
X41448413Y-52000680D01*
X41522980Y-51926113D01*
X41575707Y-51834787D01*
X41596784Y-51756127D01*
X41603001Y-51732926D01*
X41603001Y-51627473D01*
X41603001Y-51619878D01*
X41603000Y-51619860D01*
X41603000Y-21138752D01*
X41622685Y-21071713D01*
X41675489Y-21025958D01*
X41744647Y-21016014D01*
X41799885Y-21038434D01*
G37*
%TD.AperFunction*%
%TA.AperFunction,Conductor*%
G36*
X22766630Y-58090253D02*
G01*
X22824863Y-58128863D01*
X22852473Y-58189321D01*
X22877829Y-58349410D01*
X22933787Y-58521636D01*
X22933788Y-58521639D01*
X23016006Y-58682997D01*
X23122441Y-58829494D01*
X23122445Y-58829499D01*
X23250500Y-58957554D01*
X23250505Y-58957558D01*
X23378287Y-59050396D01*
X23397006Y-59063996D01*
X23502484Y-59117740D01*
X23558360Y-59146211D01*
X23558363Y-59146212D01*
X23644476Y-59174191D01*
X23730591Y-59202171D01*
X23803639Y-59213740D01*
X23890678Y-59227527D01*
X23953813Y-59257456D01*
X23990744Y-59316768D01*
X23989746Y-59386631D01*
X23951136Y-59444863D01*
X23890678Y-59472473D01*
X23730589Y-59497829D01*
X23558363Y-59553787D01*
X23558360Y-59553788D01*
X23397002Y-59636006D01*
X23250506Y-59742440D01*
X23128600Y-59864346D01*
X23067277Y-59897830D01*
X22997585Y-59892846D01*
X22953238Y-59864345D01*
X22215654Y-59126761D01*
X22182169Y-59065438D01*
X22187153Y-58995746D01*
X22215650Y-58951403D01*
X22337553Y-58829501D01*
X22443996Y-58682994D01*
X22526211Y-58521639D01*
X22582171Y-58349409D01*
X22596422Y-58259425D01*
X22607527Y-58189321D01*
X22637456Y-58126186D01*
X22696768Y-58089255D01*
X22766630Y-58090253D01*
G37*
%TD.AperFunction*%
%TA.AperFunction,Conductor*%
G36*
X67776066Y-18347039D02*
G01*
X67832000Y-18388910D01*
X67846883Y-18418304D01*
X67847932Y-18417870D01*
X67910602Y-18569172D01*
X67910609Y-18569185D01*
X67998210Y-18700288D01*
X67998213Y-18700292D01*
X68035240Y-18737319D01*
X68068725Y-18798642D01*
X68063741Y-18868334D01*
X68035240Y-18912681D01*
X67998213Y-18949707D01*
X67998210Y-18949711D01*
X67910609Y-19080814D01*
X67910602Y-19080827D01*
X67850264Y-19226498D01*
X67850261Y-19226510D01*
X67819500Y-19381153D01*
X67819500Y-19538846D01*
X67850261Y-19693489D01*
X67850264Y-19693501D01*
X67910602Y-19839172D01*
X67910609Y-19839185D01*
X67998210Y-19970288D01*
X67998213Y-19970292D01*
X68035240Y-20007319D01*
X68068725Y-20068642D01*
X68063741Y-20138334D01*
X68035240Y-20182681D01*
X67998213Y-20219707D01*
X67998210Y-20219711D01*
X67910609Y-20350814D01*
X67910602Y-20350827D01*
X67850264Y-20496498D01*
X67850261Y-20496510D01*
X67819500Y-20651153D01*
X67819500Y-20808846D01*
X67850261Y-20963489D01*
X67850264Y-20963501D01*
X67910602Y-21109172D01*
X67910609Y-21109185D01*
X67998210Y-21240288D01*
X67998213Y-21240292D01*
X68035240Y-21277319D01*
X68068725Y-21338642D01*
X68063741Y-21408334D01*
X68035240Y-21452681D01*
X67998213Y-21489707D01*
X67998210Y-21489711D01*
X67910609Y-21620814D01*
X67910602Y-21620827D01*
X67850264Y-21766498D01*
X67850261Y-21766510D01*
X67819500Y-21921153D01*
X67819500Y-22078846D01*
X67850261Y-22233489D01*
X67850264Y-22233501D01*
X67910602Y-22379172D01*
X67910609Y-22379185D01*
X67998210Y-22510288D01*
X67998213Y-22510292D01*
X68035240Y-22547319D01*
X68068725Y-22608642D01*
X68063741Y-22678334D01*
X68035240Y-22722681D01*
X67998213Y-22759707D01*
X67998210Y-22759711D01*
X67910609Y-22890814D01*
X67910602Y-22890827D01*
X67850264Y-23036498D01*
X67850261Y-23036510D01*
X67819500Y-23191153D01*
X67819500Y-23348846D01*
X67850261Y-23503489D01*
X67850264Y-23503501D01*
X67910602Y-23649172D01*
X67910609Y-23649185D01*
X67998210Y-23780288D01*
X67998213Y-23780292D01*
X68109707Y-23891786D01*
X68109711Y-23891789D01*
X68240814Y-23979390D01*
X68240827Y-23979397D01*
X68367394Y-24031822D01*
X68386503Y-24039737D01*
X68541153Y-24070499D01*
X68541156Y-24070500D01*
X68541158Y-24070500D01*
X68698844Y-24070500D01*
X68698845Y-24070499D01*
X68853497Y-24039737D01*
X68999179Y-23979394D01*
X69130289Y-23891789D01*
X69241789Y-23780289D01*
X69329394Y-23649179D01*
X69367741Y-23556600D01*
X69411578Y-23502200D01*
X69477872Y-23480134D01*
X69545572Y-23497412D01*
X69569981Y-23516374D01*
X73040487Y-26986880D01*
X73131812Y-27039607D01*
X73233673Y-27066900D01*
X73339127Y-27066900D01*
X74763953Y-27066900D01*
X74830992Y-27086585D01*
X74855927Y-27108785D01*
X74856078Y-27108635D01*
X74858664Y-27111221D01*
X74859813Y-27112244D01*
X74860389Y-27112946D01*
X74957953Y-27210510D01*
X74958656Y-27211087D01*
X74958925Y-27211482D01*
X74962265Y-27214822D01*
X74961631Y-27215455D01*
X74997996Y-27268829D01*
X75004000Y-27306947D01*
X75004000Y-55282226D01*
X75031293Y-55384089D01*
X75057656Y-55429750D01*
X75084020Y-55475413D01*
X75084022Y-55475415D01*
X76625367Y-57016760D01*
X76658852Y-57078083D01*
X76660790Y-57111415D01*
X76661000Y-57111415D01*
X76661000Y-57115031D01*
X76661090Y-57116580D01*
X76661000Y-57117494D01*
X76661000Y-57261585D01*
X76659043Y-57261585D01*
X76647702Y-57321358D01*
X76599633Y-57372064D01*
X76531780Y-57388733D01*
X76465688Y-57366072D01*
X76449641Y-57352538D01*
X71437319Y-52340216D01*
X71403834Y-52278893D01*
X71401000Y-52252535D01*
X71401000Y-29228693D01*
X71401000Y-29228691D01*
X71370299Y-29114114D01*
X71367757Y-29109711D01*
X71320774Y-29028334D01*
X71310992Y-29011390D01*
X71310988Y-29011385D01*
X69456819Y-27157216D01*
X69423334Y-27095893D01*
X69420500Y-27069535D01*
X69420500Y-27001155D01*
X69420499Y-27001153D01*
X69389738Y-26846510D01*
X69389737Y-26846503D01*
X69373970Y-26808438D01*
X69329397Y-26700827D01*
X69329390Y-26700814D01*
X69241789Y-26569711D01*
X69241786Y-26569707D01*
X69204760Y-26532681D01*
X69171275Y-26471358D01*
X69176259Y-26401666D01*
X69204760Y-26357319D01*
X69241786Y-26320292D01*
X69241789Y-26320289D01*
X69329394Y-26189179D01*
X69389737Y-26043497D01*
X69420500Y-25888842D01*
X69420500Y-25731158D01*
X69420500Y-25731155D01*
X69420499Y-25731153D01*
X69417292Y-25715032D01*
X69389737Y-25576503D01*
X69367987Y-25523993D01*
X69329397Y-25430827D01*
X69329390Y-25430814D01*
X69241789Y-25299711D01*
X69241786Y-25299707D01*
X69130292Y-25188213D01*
X69130288Y-25188210D01*
X68999185Y-25100609D01*
X68999172Y-25100602D01*
X68853501Y-25040264D01*
X68853489Y-25040261D01*
X68698845Y-25009500D01*
X68698842Y-25009500D01*
X68541158Y-25009500D01*
X68541155Y-25009500D01*
X68386510Y-25040261D01*
X68386498Y-25040264D01*
X68240827Y-25100602D01*
X68240814Y-25100609D01*
X68109711Y-25188210D01*
X68109707Y-25188213D01*
X67998213Y-25299707D01*
X67998210Y-25299711D01*
X67910609Y-25430814D01*
X67910602Y-25430827D01*
X67850264Y-25576498D01*
X67850261Y-25576510D01*
X67819500Y-25731153D01*
X67819500Y-25888846D01*
X67850261Y-26043489D01*
X67850264Y-26043501D01*
X67910602Y-26189172D01*
X67910609Y-26189185D01*
X67998210Y-26320288D01*
X67998213Y-26320292D01*
X68035240Y-26357319D01*
X68068725Y-26418642D01*
X68063741Y-26488334D01*
X68035240Y-26532681D01*
X67998213Y-26569707D01*
X67998210Y-26569711D01*
X67910609Y-26700814D01*
X67910602Y-26700827D01*
X67850264Y-26846498D01*
X67850261Y-26846510D01*
X67819500Y-27001153D01*
X67819500Y-27158846D01*
X67850261Y-27313489D01*
X67850264Y-27313501D01*
X67910602Y-27459172D01*
X67910609Y-27459185D01*
X67998210Y-27590288D01*
X67998213Y-27590292D01*
X68035240Y-27627319D01*
X68068725Y-27688642D01*
X68063741Y-27758334D01*
X68035240Y-27802681D01*
X67998213Y-27839707D01*
X67998210Y-27839711D01*
X67910609Y-27970814D01*
X67910602Y-27970827D01*
X67850264Y-28116498D01*
X67850261Y-28116510D01*
X67819500Y-28271153D01*
X67819500Y-28428846D01*
X67850261Y-28583489D01*
X67850264Y-28583501D01*
X67910602Y-28729172D01*
X67910609Y-28729185D01*
X67998210Y-28860288D01*
X67998213Y-28860292D01*
X68035240Y-28897319D01*
X68068725Y-28958642D01*
X68063741Y-29028334D01*
X68035240Y-29072681D01*
X67998210Y-29109711D01*
X67910609Y-29240814D01*
X67910602Y-29240827D01*
X67850264Y-29386498D01*
X67850261Y-29386510D01*
X67819500Y-29541153D01*
X67819500Y-29698846D01*
X67850261Y-29853489D01*
X67850264Y-29853501D01*
X67910602Y-29999172D01*
X67910609Y-29999185D01*
X67998210Y-30130288D01*
X67998213Y-30130292D01*
X68035240Y-30167319D01*
X68068725Y-30228642D01*
X68063741Y-30298334D01*
X68035240Y-30342681D01*
X67998213Y-30379707D01*
X67998210Y-30379711D01*
X67910609Y-30510814D01*
X67910602Y-30510827D01*
X67850264Y-30656498D01*
X67850261Y-30656510D01*
X67819500Y-30811153D01*
X67819500Y-30968846D01*
X67850261Y-31123489D01*
X67850264Y-31123501D01*
X67910602Y-31269172D01*
X67910609Y-31269185D01*
X67998210Y-31400288D01*
X67998213Y-31400292D01*
X68035240Y-31437319D01*
X68068725Y-31498642D01*
X68063741Y-31568334D01*
X68035240Y-31612681D01*
X67998213Y-31649707D01*
X67998210Y-31649711D01*
X67910609Y-31780814D01*
X67910602Y-31780827D01*
X67850264Y-31926498D01*
X67850261Y-31926508D01*
X67845506Y-31950416D01*
X67813121Y-32012327D01*
X67752405Y-32046901D01*
X67682636Y-32043161D01*
X67636208Y-32013905D01*
X58337616Y-22715313D01*
X58337614Y-22715311D01*
X58234887Y-22656001D01*
X58234886Y-22656000D01*
X58234885Y-22656000D01*
X58234883Y-22655999D01*
X58205815Y-22648211D01*
X58205814Y-22648210D01*
X58205814Y-22648211D01*
X58156509Y-22635000D01*
X58120309Y-22625300D01*
X55060691Y-22625300D01*
X54991944Y-22643720D01*
X54946112Y-22656001D01*
X54946107Y-22656004D01*
X54902695Y-22681067D01*
X54902696Y-22681068D01*
X54843389Y-22715308D01*
X54843383Y-22715313D01*
X54775516Y-22783181D01*
X54714193Y-22816666D01*
X54687835Y-22819500D01*
X54450059Y-22819500D01*
X54383020Y-22799815D01*
X54337265Y-22747011D01*
X54327321Y-22677853D01*
X54349741Y-22622614D01*
X54363996Y-22602994D01*
X54446211Y-22441639D01*
X54502171Y-22269409D01*
X54518348Y-22167273D01*
X54530500Y-22090551D01*
X54530500Y-21909448D01*
X54505166Y-21749501D01*
X54502171Y-21730591D01*
X54446211Y-21558361D01*
X54446211Y-21558360D01*
X54392364Y-21452681D01*
X54363996Y-21397006D01*
X54309259Y-21321666D01*
X54257558Y-21250505D01*
X54257554Y-21250500D01*
X54129499Y-21122445D01*
X54129494Y-21122441D01*
X53982997Y-21016006D01*
X53982996Y-21016005D01*
X53982994Y-21016004D01*
X53924644Y-20986273D01*
X53821639Y-20933788D01*
X53821636Y-20933787D01*
X53649410Y-20877829D01*
X53517727Y-20856972D01*
X53454592Y-20827043D01*
X53417661Y-20767731D01*
X53418659Y-20697868D01*
X53457269Y-20639636D01*
X53521233Y-20611522D01*
X53537125Y-20610499D01*
X54274856Y-20610499D01*
X54274864Y-20610499D01*
X54274879Y-20610497D01*
X54274882Y-20610497D01*
X54299987Y-20607586D01*
X54299988Y-20607585D01*
X54299991Y-20607585D01*
X54402765Y-20562206D01*
X54482206Y-20482765D01*
X54527585Y-20379991D01*
X54530500Y-20354865D01*
X54530499Y-18832799D01*
X54550184Y-18765761D01*
X54602987Y-18720006D01*
X54654499Y-18708800D01*
X67198625Y-18708800D01*
X67198627Y-18708800D01*
X67300488Y-18681507D01*
X67391813Y-18628780D01*
X67645054Y-18375538D01*
X67706375Y-18342055D01*
X67776066Y-18347039D01*
G37*
%TD.AperFunction*%
%TD*%
M02*
