%TF.GenerationSoftware,KiCad,Pcbnew,10.0.6*%
%TF.CreationDate,2026-09-14T21:58:46+09:00*%
%TF.ProjectId,stamp_s3a_interposer_pcba,7374616d-705f-4733-9361-5f696e746572,rev?*%
%TF.SameCoordinates,Original*%
%TF.FileFunction,Legend,Bot*%
%TF.FilePolarity,Positive*%
%FSLAX46Y46*%
G04 Gerber Fmt 4.6, Leading zero omitted, Abs format (unit mm)*
G04 Created by KiCad (PCBNEW 10.0.6) date 2026-09-14 21:58:46*
%MOMM*%
%LPD*%
G01*
G04 APERTURE LIST*
G04 Aperture macros list*
%AMRoundRect*
0 Rectangle with rounded corners*
0 $1 Rounding radius*
0 $2 $3 $4 $5 $6 $7 $8 $9 X,Y pos of 4 corners*
0 Add a 4 corners polygon primitive as box body*
4,1,4,$2,$3,$4,$5,$6,$7,$8,$9,$2,$3,0*
0 Add four circle primitives for the rounded corners*
1,1,$1+$1,$2,$3*
1,1,$1+$1,$4,$5*
1,1,$1+$1,$6,$7*
1,1,$1+$1,$8,$9*
0 Add four rect primitives between the rounded corners*
20,1,$1+$1,$2,$3,$4,$5,0*
20,1,$1+$1,$4,$5,$6,$7,0*
20,1,$1+$1,$6,$7,$8,$9,0*
20,1,$1+$1,$8,$9,$2,$3,0*%
G04 Aperture macros list end*
%ADD10R,1.700000X1.700000*%
%ADD11C,1.700000*%
%ADD12RoundRect,0.250000X-0.750000X-0.750000X0.750000X-0.750000X0.750000X0.750000X-0.750000X0.750000X0*%
%ADD13C,2.000000*%
%ADD14RoundRect,0.250000X-0.600000X-0.750000X0.600000X-0.750000X0.600000X0.750000X-0.600000X0.750000X0*%
%ADD15O,1.700000X2.000000*%
%ADD16C,3.200000*%
%ADD17RoundRect,0.250000X0.750000X-0.600000X0.750000X0.600000X-0.750000X0.600000X-0.750000X-0.600000X0*%
%ADD18O,2.000000X1.700000*%
%ADD19RoundRect,0.250001X-0.949999X-0.949999X0.949999X-0.949999X0.949999X0.949999X-0.949999X0.949999X0*%
%ADD20C,2.400000*%
%ADD21RoundRect,0.250000X0.725000X-0.600000X0.725000X0.600000X-0.725000X0.600000X-0.725000X-0.600000X0*%
%ADD22O,1.950000X1.700000*%
%ADD23RoundRect,0.250000X-0.550000X-0.550000X0.550000X-0.550000X0.550000X0.550000X-0.550000X0.550000X0*%
%ADD24C,1.600000*%
%ADD25RoundRect,0.250000X-0.600000X-0.725000X0.600000X-0.725000X0.600000X0.725000X-0.600000X0.725000X0*%
%ADD26O,1.700000X1.950000*%
%ADD27R,1.000000X1.000000*%
%ADD28C,1.000000*%
G04 APERTURE END LIST*
%LPC*%
D10*
%TO.C,JP_STAMP_5V*%
X84000000Y-63000000D03*
D11*
X84000000Y-65540000D03*
%TD*%
D12*
%TO.C,C1*%
X94000000Y-62000000D03*
D13*
X99000000Y-62000000D03*
%TD*%
D11*
%TO.C,J_STAMP_6*%
X53380000Y-32160000D03*
X53380000Y-29620000D03*
X53380000Y-27080000D03*
X53380000Y-24540000D03*
X53380000Y-22000000D03*
D10*
X53380000Y-19460000D03*
%TD*%
D14*
%TO.C,J_PWR_SERVO*%
X105000000Y-75000000D03*
D15*
X107500000Y-75000000D03*
%TD*%
D16*
%TO.C,H1*%
X14000000Y-14000000D03*
%TD*%
%TO.C,H3*%
X14000000Y-78000000D03*
%TD*%
D17*
%TO.C,J_WIN_B*%
X14000000Y-33000000D03*
D18*
X14000000Y-30500000D03*
%TD*%
D19*
%TO.C,C3*%
X108000000Y-65000000D03*
D20*
X113000000Y-65000000D03*
%TD*%
D21*
%TO.C,J_MIC*%
X108000000Y-26000000D03*
D22*
X108000000Y-23500000D03*
X108000000Y-21000000D03*
X108000000Y-18500000D03*
X108000000Y-16000000D03*
X108000000Y-13500000D03*
%TD*%
D10*
%TO.C,J_SOLIST*%
X24000000Y-53000000D03*
D11*
X21460000Y-53000000D03*
X24000000Y-55540000D03*
X21460000Y-55540000D03*
X24000000Y-58080000D03*
X21460000Y-58080000D03*
X24000000Y-60620000D03*
X21460000Y-60620000D03*
X24000000Y-63160000D03*
X21460000Y-63160000D03*
X24000000Y-65700000D03*
X21460000Y-65700000D03*
X24000000Y-68240000D03*
X21460000Y-68240000D03*
%TD*%
D14*
%TO.C,J_PCA_OE*%
X61000000Y-75000000D03*
D15*
X63500000Y-75000000D03*
%TD*%
D17*
%TO.C,J_WIN_A*%
X14000000Y-23000000D03*
D18*
X14000000Y-20500000D03*
%TD*%
D21*
%TO.C,J_AMP_SIG*%
X108000000Y-42000000D03*
D22*
X108000000Y-39500000D03*
X108000000Y-37000000D03*
X108000000Y-34500000D03*
%TD*%
D23*
%TO.C,C5*%
X98000000Y-49000000D03*
D24*
X100000000Y-49000000D03*
%TD*%
D25*
%TO.C,J_SERVO_CTRL*%
X47000000Y-75000000D03*
D26*
X49500000Y-75000000D03*
X52000000Y-75000000D03*
X54500000Y-75000000D03*
%TD*%
D16*
%TO.C,H2*%
X116000000Y-14000000D03*
%TD*%
D17*
%TO.C,J_WIN_C*%
X14000000Y-43000000D03*
D18*
X14000000Y-40500000D03*
%TD*%
D17*
%TO.C,J_DOOR_AB*%
X14000000Y-53000000D03*
D18*
X14000000Y-50500000D03*
%TD*%
D25*
%TO.C,J_TFT_PWR*%
X40000000Y-20000000D03*
D26*
X42500000Y-20000000D03*
X45000000Y-20000000D03*
X47500000Y-20000000D03*
%TD*%
D14*
%TO.C,J_PWR_LOGIC*%
X82000000Y-75000000D03*
D15*
X84500000Y-75000000D03*
%TD*%
D21*
%TO.C,J_AMP_PWR*%
X108000000Y-55000000D03*
D22*
X108000000Y-52500000D03*
X108000000Y-50000000D03*
%TD*%
D27*
%TO.C,J_STAMP_17*%
X68620000Y-11840000D03*
D28*
X68620000Y-13110000D03*
X68620000Y-14380000D03*
X68620000Y-15650000D03*
X68620000Y-16920000D03*
X68620000Y-18190000D03*
X68620000Y-19460000D03*
X68620000Y-20730000D03*
X68620000Y-22000000D03*
X68620000Y-23270000D03*
X68620000Y-24540000D03*
X68620000Y-25810000D03*
X68620000Y-27080000D03*
X68620000Y-28350000D03*
X68620000Y-29620000D03*
X68620000Y-30890000D03*
X68620000Y-32160000D03*
%TD*%
D16*
%TO.C,H4*%
X116000000Y-78000000D03*
%TD*%
D17*
%TO.C,J_DOOR_BC*%
X14000000Y-64000000D03*
D18*
X14000000Y-61500000D03*
%TD*%
D14*
%TO.C,J_SERVO_5V_OUT*%
X94000000Y-75000000D03*
D15*
X96500000Y-75000000D03*
%TD*%
D14*
%TO.C,J_EXEC*%
X95000000Y-15000000D03*
D15*
X97500000Y-15000000D03*
%TD*%
D25*
%TO.C,J_TFT_SIG*%
X24000000Y-15000000D03*
D26*
X26500000Y-15000000D03*
X29000000Y-15000000D03*
X31500000Y-15000000D03*
X34000000Y-15000000D03*
%TD*%
%LPD*%
M02*
