%TF.GenerationSoftware,KiCad,Pcbnew,10.0.6*%
%TF.CreationDate,2026-09-14T21:58:51+09:00*%
%TF.ProjectId,stamp_s3a_interposer_tht,7374616d-705f-4733-9361-5f696e746572,rev?*%
%TF.SameCoordinates,Original*%
%TF.FileFunction,Legend,Bot*%
%TF.FilePolarity,Positive*%
%FSLAX46Y46*%
G04 Gerber Fmt 4.6, Leading zero omitted, Abs format (unit mm)*
G04 Created by KiCad (PCBNEW 10.0.6) date 2026-09-14 21:58:51*
%MOMM*%
%LPD*%
G01*
G04 APERTURE LIST*
G04 Aperture macros list*
%AMRoundRect*
0 Rectangle with rounded corners*
0 $1 Rounding radius*
0 $2 $3 $4 $5 $6 $7 $8 $9 X,Y pos of 4 corners*
0 Add a 4 corners polygon primitive as box body*
4,1,4,$2,$3,$4,$5,$6,$7,$8,$9,$2,$3,0*
0 Add four circle primitives for the rounded corners*
1,1,$1+$1,$2,$3*
1,1,$1+$1,$4,$5*
1,1,$1+$1,$6,$7*
1,1,$1+$1,$8,$9*
0 Add four rect primitives between the rounded corners*
20,1,$1+$1,$2,$3,$4,$5,0*
20,1,$1+$1,$4,$5,$6,$7,0*
20,1,$1+$1,$6,$7,$8,$9,0*
20,1,$1+$1,$8,$9,$2,$3,0*%
G04 Aperture macros list end*
%ADD10C,0.180000*%
%ADD11C,0.150000*%
%ADD12RoundRect,0.250000X-0.600000X-0.750000X0.600000X-0.750000X0.600000X0.750000X-0.600000X0.750000X0*%
%ADD13O,1.700000X2.000000*%
%ADD14C,1.600000*%
%ADD15C,3.200000*%
%ADD16RoundRect,0.250000X0.750000X-0.600000X0.750000X0.600000X-0.750000X0.600000X-0.750000X-0.600000X0*%
%ADD17O,2.000000X1.700000*%
%ADD18RoundRect,0.250000X0.725000X-0.600000X0.725000X0.600000X-0.725000X0.600000X-0.725000X-0.600000X0*%
%ADD19O,1.950000X1.700000*%
%ADD20RoundRect,0.250001X-0.949999X-0.949999X0.949999X-0.949999X0.949999X0.949999X-0.949999X0.949999X0*%
%ADD21C,2.400000*%
%ADD22R,1.000000X1.000000*%
%ADD23C,1.000000*%
%ADD24R,1.700000X1.700000*%
%ADD25C,1.700000*%
%ADD26RoundRect,0.250000X-0.750000X-0.750000X0.750000X-0.750000X0.750000X0.750000X-0.750000X0.750000X0*%
%ADD27C,2.000000*%
%ADD28RoundRect,0.250000X-0.550000X-0.550000X0.550000X-0.550000X0.550000X0.550000X-0.550000X0.550000X0*%
%ADD29RoundRect,0.250000X-0.600000X-0.725000X0.600000X-0.725000X0.600000X0.725000X-0.600000X0.725000X0*%
%ADD30O,1.700000X1.950000*%
G04 APERTURE END LIST*
D10*
X84142858Y-69453259D02*
X84142858Y-70167544D01*
X84142858Y-70167544D02*
X84190477Y-70310401D01*
X84190477Y-70310401D02*
X84285715Y-70405640D01*
X84285715Y-70405640D02*
X84428572Y-70453259D01*
X84428572Y-70453259D02*
X84523810Y-70453259D01*
X83904763Y-70548497D02*
X83142858Y-70548497D01*
X82904762Y-70453259D02*
X82904762Y-69453259D01*
X82904762Y-69453259D02*
X82523810Y-69453259D01*
X82523810Y-69453259D02*
X82428572Y-69500878D01*
X82428572Y-69500878D02*
X82380953Y-69548497D01*
X82380953Y-69548497D02*
X82333334Y-69643735D01*
X82333334Y-69643735D02*
X82333334Y-69786592D01*
X82333334Y-69786592D02*
X82380953Y-69881830D01*
X82380953Y-69881830D02*
X82428572Y-69929449D01*
X82428572Y-69929449D02*
X82523810Y-69977068D01*
X82523810Y-69977068D02*
X82904762Y-69977068D01*
X82000000Y-69453259D02*
X81761905Y-70453259D01*
X81761905Y-70453259D02*
X81571429Y-69738973D01*
X81571429Y-69738973D02*
X81380953Y-70453259D01*
X81380953Y-70453259D02*
X81142858Y-69453259D01*
X80190477Y-70453259D02*
X80523810Y-69977068D01*
X80761905Y-70453259D02*
X80761905Y-69453259D01*
X80761905Y-69453259D02*
X80380953Y-69453259D01*
X80380953Y-69453259D02*
X80285715Y-69500878D01*
X80285715Y-69500878D02*
X80238096Y-69548497D01*
X80238096Y-69548497D02*
X80190477Y-69643735D01*
X80190477Y-69643735D02*
X80190477Y-69786592D01*
X80190477Y-69786592D02*
X80238096Y-69881830D01*
X80238096Y-69881830D02*
X80285715Y-69929449D01*
X80285715Y-69929449D02*
X80380953Y-69977068D01*
X80380953Y-69977068D02*
X80761905Y-69977068D01*
X80000001Y-70548497D02*
X79238096Y-70548497D01*
X78523810Y-70453259D02*
X79000000Y-70453259D01*
X79000000Y-70453259D02*
X79000000Y-69453259D01*
X78000000Y-69453259D02*
X77809524Y-69453259D01*
X77809524Y-69453259D02*
X77714286Y-69500878D01*
X77714286Y-69500878D02*
X77619048Y-69596116D01*
X77619048Y-69596116D02*
X77571429Y-69786592D01*
X77571429Y-69786592D02*
X77571429Y-70119925D01*
X77571429Y-70119925D02*
X77619048Y-70310401D01*
X77619048Y-70310401D02*
X77714286Y-70405640D01*
X77714286Y-70405640D02*
X77809524Y-70453259D01*
X77809524Y-70453259D02*
X78000000Y-70453259D01*
X78000000Y-70453259D02*
X78095238Y-70405640D01*
X78095238Y-70405640D02*
X78190476Y-70310401D01*
X78190476Y-70310401D02*
X78238095Y-70119925D01*
X78238095Y-70119925D02*
X78238095Y-69786592D01*
X78238095Y-69786592D02*
X78190476Y-69596116D01*
X78190476Y-69596116D02*
X78095238Y-69500878D01*
X78095238Y-69500878D02*
X78000000Y-69453259D01*
X76619048Y-69500878D02*
X76714286Y-69453259D01*
X76714286Y-69453259D02*
X76857143Y-69453259D01*
X76857143Y-69453259D02*
X77000000Y-69500878D01*
X77000000Y-69500878D02*
X77095238Y-69596116D01*
X77095238Y-69596116D02*
X77142857Y-69691354D01*
X77142857Y-69691354D02*
X77190476Y-69881830D01*
X77190476Y-69881830D02*
X77190476Y-70024687D01*
X77190476Y-70024687D02*
X77142857Y-70215163D01*
X77142857Y-70215163D02*
X77095238Y-70310401D01*
X77095238Y-70310401D02*
X77000000Y-70405640D01*
X77000000Y-70405640D02*
X76857143Y-70453259D01*
X76857143Y-70453259D02*
X76761905Y-70453259D01*
X76761905Y-70453259D02*
X76619048Y-70405640D01*
X76619048Y-70405640D02*
X76571429Y-70358020D01*
X76571429Y-70358020D02*
X76571429Y-70024687D01*
X76571429Y-70024687D02*
X76761905Y-70024687D01*
X76142857Y-70453259D02*
X76142857Y-69453259D01*
X75095239Y-70358020D02*
X75142858Y-70405640D01*
X75142858Y-70405640D02*
X75285715Y-70453259D01*
X75285715Y-70453259D02*
X75380953Y-70453259D01*
X75380953Y-70453259D02*
X75523810Y-70405640D01*
X75523810Y-70405640D02*
X75619048Y-70310401D01*
X75619048Y-70310401D02*
X75666667Y-70215163D01*
X75666667Y-70215163D02*
X75714286Y-70024687D01*
X75714286Y-70024687D02*
X75714286Y-69881830D01*
X75714286Y-69881830D02*
X75666667Y-69691354D01*
X75666667Y-69691354D02*
X75619048Y-69596116D01*
X75619048Y-69596116D02*
X75523810Y-69500878D01*
X75523810Y-69500878D02*
X75380953Y-69453259D01*
X75380953Y-69453259D02*
X75285715Y-69453259D01*
X75285715Y-69453259D02*
X75142858Y-69500878D01*
X75142858Y-69500878D02*
X75095239Y-69548497D01*
X73904762Y-70072306D02*
X73142858Y-70072306D01*
X73523810Y-70453259D02*
X73523810Y-69691354D01*
X71619048Y-69453259D02*
X71619048Y-70167544D01*
X71619048Y-70167544D02*
X71666667Y-70310401D01*
X71666667Y-70310401D02*
X71761905Y-70405640D01*
X71761905Y-70405640D02*
X71904762Y-70453259D01*
X71904762Y-70453259D02*
X72000000Y-70453259D01*
X71380953Y-70548497D02*
X70619048Y-70548497D01*
X70380952Y-70453259D02*
X70380952Y-69453259D01*
X70380952Y-69453259D02*
X70000000Y-69453259D01*
X70000000Y-69453259D02*
X69904762Y-69500878D01*
X69904762Y-69500878D02*
X69857143Y-69548497D01*
X69857143Y-69548497D02*
X69809524Y-69643735D01*
X69809524Y-69643735D02*
X69809524Y-69786592D01*
X69809524Y-69786592D02*
X69857143Y-69881830D01*
X69857143Y-69881830D02*
X69904762Y-69929449D01*
X69904762Y-69929449D02*
X70000000Y-69977068D01*
X70000000Y-69977068D02*
X70380952Y-69977068D01*
X69476190Y-69453259D02*
X69238095Y-70453259D01*
X69238095Y-70453259D02*
X69047619Y-69738973D01*
X69047619Y-69738973D02*
X68857143Y-70453259D01*
X68857143Y-70453259D02*
X68619048Y-69453259D01*
X67666667Y-70453259D02*
X68000000Y-69977068D01*
X68238095Y-70453259D02*
X68238095Y-69453259D01*
X68238095Y-69453259D02*
X67857143Y-69453259D01*
X67857143Y-69453259D02*
X67761905Y-69500878D01*
X67761905Y-69500878D02*
X67714286Y-69548497D01*
X67714286Y-69548497D02*
X67666667Y-69643735D01*
X67666667Y-69643735D02*
X67666667Y-69786592D01*
X67666667Y-69786592D02*
X67714286Y-69881830D01*
X67714286Y-69881830D02*
X67761905Y-69929449D01*
X67761905Y-69929449D02*
X67857143Y-69977068D01*
X67857143Y-69977068D02*
X68238095Y-69977068D01*
X67476191Y-70548497D02*
X66714286Y-70548497D01*
X66523809Y-70405640D02*
X66380952Y-70453259D01*
X66380952Y-70453259D02*
X66142857Y-70453259D01*
X66142857Y-70453259D02*
X66047619Y-70405640D01*
X66047619Y-70405640D02*
X66000000Y-70358020D01*
X66000000Y-70358020D02*
X65952381Y-70262782D01*
X65952381Y-70262782D02*
X65952381Y-70167544D01*
X65952381Y-70167544D02*
X66000000Y-70072306D01*
X66000000Y-70072306D02*
X66047619Y-70024687D01*
X66047619Y-70024687D02*
X66142857Y-69977068D01*
X66142857Y-69977068D02*
X66333333Y-69929449D01*
X66333333Y-69929449D02*
X66428571Y-69881830D01*
X66428571Y-69881830D02*
X66476190Y-69834211D01*
X66476190Y-69834211D02*
X66523809Y-69738973D01*
X66523809Y-69738973D02*
X66523809Y-69643735D01*
X66523809Y-69643735D02*
X66476190Y-69548497D01*
X66476190Y-69548497D02*
X66428571Y-69500878D01*
X66428571Y-69500878D02*
X66333333Y-69453259D01*
X66333333Y-69453259D02*
X66095238Y-69453259D01*
X66095238Y-69453259D02*
X65952381Y-69500878D01*
X65523809Y-69929449D02*
X65190476Y-69929449D01*
X65047619Y-70453259D02*
X65523809Y-70453259D01*
X65523809Y-70453259D02*
X65523809Y-69453259D01*
X65523809Y-69453259D02*
X65047619Y-69453259D01*
X64047619Y-70453259D02*
X64380952Y-69977068D01*
X64619047Y-70453259D02*
X64619047Y-69453259D01*
X64619047Y-69453259D02*
X64238095Y-69453259D01*
X64238095Y-69453259D02*
X64142857Y-69500878D01*
X64142857Y-69500878D02*
X64095238Y-69548497D01*
X64095238Y-69548497D02*
X64047619Y-69643735D01*
X64047619Y-69643735D02*
X64047619Y-69786592D01*
X64047619Y-69786592D02*
X64095238Y-69881830D01*
X64095238Y-69881830D02*
X64142857Y-69929449D01*
X64142857Y-69929449D02*
X64238095Y-69977068D01*
X64238095Y-69977068D02*
X64619047Y-69977068D01*
X63761904Y-69453259D02*
X63428571Y-70453259D01*
X63428571Y-70453259D02*
X63095238Y-69453259D01*
X62571428Y-69453259D02*
X62380952Y-69453259D01*
X62380952Y-69453259D02*
X62285714Y-69500878D01*
X62285714Y-69500878D02*
X62190476Y-69596116D01*
X62190476Y-69596116D02*
X62142857Y-69786592D01*
X62142857Y-69786592D02*
X62142857Y-70119925D01*
X62142857Y-70119925D02*
X62190476Y-70310401D01*
X62190476Y-70310401D02*
X62285714Y-70405640D01*
X62285714Y-70405640D02*
X62380952Y-70453259D01*
X62380952Y-70453259D02*
X62571428Y-70453259D01*
X62571428Y-70453259D02*
X62666666Y-70405640D01*
X62666666Y-70405640D02*
X62761904Y-70310401D01*
X62761904Y-70310401D02*
X62809523Y-70119925D01*
X62809523Y-70119925D02*
X62809523Y-69786592D01*
X62809523Y-69786592D02*
X62761904Y-69596116D01*
X62761904Y-69596116D02*
X62666666Y-69500878D01*
X62666666Y-69500878D02*
X62571428Y-69453259D01*
X61714285Y-70358020D02*
X61666666Y-70405640D01*
X61666666Y-70405640D02*
X61714285Y-70453259D01*
X61714285Y-70453259D02*
X61761904Y-70405640D01*
X61761904Y-70405640D02*
X61714285Y-70358020D01*
X61714285Y-70358020D02*
X61714285Y-70453259D01*
X61714285Y-69834211D02*
X61666666Y-69881830D01*
X61666666Y-69881830D02*
X61714285Y-69929449D01*
X61714285Y-69929449D02*
X61761904Y-69881830D01*
X61761904Y-69881830D02*
X61714285Y-69834211D01*
X61714285Y-69834211D02*
X61714285Y-69929449D01*
X60523809Y-70405640D02*
X60380952Y-70453259D01*
X60380952Y-70453259D02*
X60142857Y-70453259D01*
X60142857Y-70453259D02*
X60047619Y-70405640D01*
X60047619Y-70405640D02*
X60000000Y-70358020D01*
X60000000Y-70358020D02*
X59952381Y-70262782D01*
X59952381Y-70262782D02*
X59952381Y-70167544D01*
X59952381Y-70167544D02*
X60000000Y-70072306D01*
X60000000Y-70072306D02*
X60047619Y-70024687D01*
X60047619Y-70024687D02*
X60142857Y-69977068D01*
X60142857Y-69977068D02*
X60333333Y-69929449D01*
X60333333Y-69929449D02*
X60428571Y-69881830D01*
X60428571Y-69881830D02*
X60476190Y-69834211D01*
X60476190Y-69834211D02*
X60523809Y-69738973D01*
X60523809Y-69738973D02*
X60523809Y-69643735D01*
X60523809Y-69643735D02*
X60476190Y-69548497D01*
X60476190Y-69548497D02*
X60428571Y-69500878D01*
X60428571Y-69500878D02*
X60333333Y-69453259D01*
X60333333Y-69453259D02*
X60095238Y-69453259D01*
X60095238Y-69453259D02*
X59952381Y-69500878D01*
X59571428Y-70167544D02*
X59095238Y-70167544D01*
X59666666Y-70453259D02*
X59333333Y-69453259D01*
X59333333Y-69453259D02*
X59000000Y-70453259D01*
X58666666Y-70453259D02*
X58666666Y-69453259D01*
X58666666Y-69453259D02*
X58333333Y-70167544D01*
X58333333Y-70167544D02*
X58000000Y-69453259D01*
X58000000Y-69453259D02*
X58000000Y-70453259D01*
X57523809Y-69929449D02*
X57190476Y-69929449D01*
X57047619Y-70453259D02*
X57523809Y-70453259D01*
X57523809Y-70453259D02*
X57523809Y-69453259D01*
X57523809Y-69453259D02*
X57047619Y-69453259D01*
X55380952Y-69453259D02*
X55857142Y-69453259D01*
X55857142Y-69453259D02*
X55904761Y-69929449D01*
X55904761Y-69929449D02*
X55857142Y-69881830D01*
X55857142Y-69881830D02*
X55761904Y-69834211D01*
X55761904Y-69834211D02*
X55523809Y-69834211D01*
X55523809Y-69834211D02*
X55428571Y-69881830D01*
X55428571Y-69881830D02*
X55380952Y-69929449D01*
X55380952Y-69929449D02*
X55333333Y-70024687D01*
X55333333Y-70024687D02*
X55333333Y-70262782D01*
X55333333Y-70262782D02*
X55380952Y-70358020D01*
X55380952Y-70358020D02*
X55428571Y-70405640D01*
X55428571Y-70405640D02*
X55523809Y-70453259D01*
X55523809Y-70453259D02*
X55761904Y-70453259D01*
X55761904Y-70453259D02*
X55857142Y-70405640D01*
X55857142Y-70405640D02*
X55904761Y-70358020D01*
X55047618Y-69453259D02*
X54714285Y-70453259D01*
X54714285Y-70453259D02*
X54380952Y-69453259D01*
X53333332Y-70405640D02*
X53190475Y-70453259D01*
X53190475Y-70453259D02*
X52952380Y-70453259D01*
X52952380Y-70453259D02*
X52857142Y-70405640D01*
X52857142Y-70405640D02*
X52809523Y-70358020D01*
X52809523Y-70358020D02*
X52761904Y-70262782D01*
X52761904Y-70262782D02*
X52761904Y-70167544D01*
X52761904Y-70167544D02*
X52809523Y-70072306D01*
X52809523Y-70072306D02*
X52857142Y-70024687D01*
X52857142Y-70024687D02*
X52952380Y-69977068D01*
X52952380Y-69977068D02*
X53142856Y-69929449D01*
X53142856Y-69929449D02*
X53238094Y-69881830D01*
X53238094Y-69881830D02*
X53285713Y-69834211D01*
X53285713Y-69834211D02*
X53333332Y-69738973D01*
X53333332Y-69738973D02*
X53333332Y-69643735D01*
X53333332Y-69643735D02*
X53285713Y-69548497D01*
X53285713Y-69548497D02*
X53238094Y-69500878D01*
X53238094Y-69500878D02*
X53142856Y-69453259D01*
X53142856Y-69453259D02*
X52904761Y-69453259D01*
X52904761Y-69453259D02*
X52761904Y-69500878D01*
X52333332Y-69453259D02*
X52333332Y-70262782D01*
X52333332Y-70262782D02*
X52285713Y-70358020D01*
X52285713Y-70358020D02*
X52238094Y-70405640D01*
X52238094Y-70405640D02*
X52142856Y-70453259D01*
X52142856Y-70453259D02*
X51952380Y-70453259D01*
X51952380Y-70453259D02*
X51857142Y-70405640D01*
X51857142Y-70405640D02*
X51809523Y-70358020D01*
X51809523Y-70358020D02*
X51761904Y-70262782D01*
X51761904Y-70262782D02*
X51761904Y-69453259D01*
X51285713Y-70453259D02*
X51285713Y-69453259D01*
X51285713Y-69453259D02*
X50904761Y-69453259D01*
X50904761Y-69453259D02*
X50809523Y-69500878D01*
X50809523Y-69500878D02*
X50761904Y-69548497D01*
X50761904Y-69548497D02*
X50714285Y-69643735D01*
X50714285Y-69643735D02*
X50714285Y-69786592D01*
X50714285Y-69786592D02*
X50761904Y-69881830D01*
X50761904Y-69881830D02*
X50809523Y-69929449D01*
X50809523Y-69929449D02*
X50904761Y-69977068D01*
X50904761Y-69977068D02*
X51285713Y-69977068D01*
X50285713Y-70453259D02*
X50285713Y-69453259D01*
X50285713Y-69453259D02*
X49904761Y-69453259D01*
X49904761Y-69453259D02*
X49809523Y-69500878D01*
X49809523Y-69500878D02*
X49761904Y-69548497D01*
X49761904Y-69548497D02*
X49714285Y-69643735D01*
X49714285Y-69643735D02*
X49714285Y-69786592D01*
X49714285Y-69786592D02*
X49761904Y-69881830D01*
X49761904Y-69881830D02*
X49809523Y-69929449D01*
X49809523Y-69929449D02*
X49904761Y-69977068D01*
X49904761Y-69977068D02*
X50285713Y-69977068D01*
X48809523Y-70453259D02*
X49285713Y-70453259D01*
X49285713Y-70453259D02*
X49285713Y-69453259D01*
X48285713Y-69977068D02*
X48285713Y-70453259D01*
X48619046Y-69453259D02*
X48285713Y-69977068D01*
X48285713Y-69977068D02*
X47952380Y-69453259D01*
X46666665Y-69453259D02*
X46476189Y-69453259D01*
X46476189Y-69453259D02*
X46380951Y-69500878D01*
X46380951Y-69500878D02*
X46285713Y-69596116D01*
X46285713Y-69596116D02*
X46238094Y-69786592D01*
X46238094Y-69786592D02*
X46238094Y-70119925D01*
X46238094Y-70119925D02*
X46285713Y-70310401D01*
X46285713Y-70310401D02*
X46380951Y-70405640D01*
X46380951Y-70405640D02*
X46476189Y-70453259D01*
X46476189Y-70453259D02*
X46666665Y-70453259D01*
X46666665Y-70453259D02*
X46761903Y-70405640D01*
X46761903Y-70405640D02*
X46857141Y-70310401D01*
X46857141Y-70310401D02*
X46904760Y-70119925D01*
X46904760Y-70119925D02*
X46904760Y-69786592D01*
X46904760Y-69786592D02*
X46857141Y-69596116D01*
X46857141Y-69596116D02*
X46761903Y-69500878D01*
X46761903Y-69500878D02*
X46666665Y-69453259D01*
X45809522Y-70453259D02*
X45809522Y-69453259D01*
X45809522Y-69453259D02*
X45238094Y-70453259D01*
X45238094Y-70453259D02*
X45238094Y-69453259D01*
X44285713Y-70453259D02*
X44761903Y-70453259D01*
X44761903Y-70453259D02*
X44761903Y-69453259D01*
X43761903Y-69977068D02*
X43761903Y-70453259D01*
X44095236Y-69453259D02*
X43761903Y-69977068D01*
X43761903Y-69977068D02*
X43428570Y-69453259D01*
D11*
X86445236Y-77701080D02*
X86445236Y-76601080D01*
X85449997Y-77648700D02*
X85554759Y-77701080D01*
X85554759Y-77701080D02*
X85764283Y-77701080D01*
X85764283Y-77701080D02*
X85869045Y-77648700D01*
X85869045Y-77648700D02*
X85921426Y-77596319D01*
X85921426Y-77596319D02*
X85973807Y-77491557D01*
X85973807Y-77491557D02*
X85973807Y-77177271D01*
X85973807Y-77177271D02*
X85921426Y-77072509D01*
X85921426Y-77072509D02*
X85869045Y-77020128D01*
X85869045Y-77020128D02*
X85764283Y-76967747D01*
X85764283Y-76967747D02*
X85554759Y-76967747D01*
X85554759Y-76967747D02*
X85449997Y-77020128D01*
X84978569Y-77701080D02*
X84978569Y-76601080D01*
X84507140Y-77701080D02*
X84507140Y-77124890D01*
X84507140Y-77124890D02*
X84559521Y-77020128D01*
X84559521Y-77020128D02*
X84664283Y-76967747D01*
X84664283Y-76967747D02*
X84821426Y-76967747D01*
X84821426Y-76967747D02*
X84926188Y-77020128D01*
X84926188Y-77020128D02*
X84978569Y-77072509D01*
X83983331Y-77701080D02*
X83983331Y-76967747D01*
X83983331Y-76601080D02*
X84035712Y-76653461D01*
X84035712Y-76653461D02*
X83983331Y-76705842D01*
X83983331Y-76705842D02*
X83930950Y-76653461D01*
X83930950Y-76653461D02*
X83983331Y-76601080D01*
X83983331Y-76601080D02*
X83983331Y-76705842D01*
X83459521Y-77701080D02*
X83459521Y-76601080D01*
X83459521Y-76601080D02*
X83040473Y-76601080D01*
X83040473Y-76601080D02*
X82935711Y-76653461D01*
X82935711Y-76653461D02*
X82883330Y-76705842D01*
X82883330Y-76705842D02*
X82830949Y-76810604D01*
X82830949Y-76810604D02*
X82830949Y-76967747D01*
X82830949Y-76967747D02*
X82883330Y-77072509D01*
X82883330Y-77072509D02*
X82935711Y-77124890D01*
X82935711Y-77124890D02*
X83040473Y-77177271D01*
X83040473Y-77177271D02*
X83459521Y-77177271D01*
X82359521Y-77701080D02*
X82359521Y-76967747D01*
X82359521Y-76601080D02*
X82411902Y-76653461D01*
X82411902Y-76653461D02*
X82359521Y-76705842D01*
X82359521Y-76705842D02*
X82307140Y-76653461D01*
X82307140Y-76653461D02*
X82359521Y-76601080D01*
X82359521Y-76601080D02*
X82359521Y-76705842D01*
X81835711Y-76967747D02*
X81835711Y-77701080D01*
X81835711Y-77072509D02*
X81783330Y-77020128D01*
X81783330Y-77020128D02*
X81678568Y-76967747D01*
X81678568Y-76967747D02*
X81521425Y-76967747D01*
X81521425Y-76967747D02*
X81416663Y-77020128D01*
X81416663Y-77020128D02*
X81364282Y-77124890D01*
X81364282Y-77124890D02*
X81364282Y-77701080D01*
X80369044Y-76967747D02*
X80369044Y-77858223D01*
X80369044Y-77858223D02*
X80421425Y-77962985D01*
X80421425Y-77962985D02*
X80473806Y-78015366D01*
X80473806Y-78015366D02*
X80578568Y-78067747D01*
X80578568Y-78067747D02*
X80735711Y-78067747D01*
X80735711Y-78067747D02*
X80840473Y-78015366D01*
X80369044Y-77648700D02*
X80473806Y-77701080D01*
X80473806Y-77701080D02*
X80683330Y-77701080D01*
X80683330Y-77701080D02*
X80788092Y-77648700D01*
X80788092Y-77648700D02*
X80840473Y-77596319D01*
X80840473Y-77596319D02*
X80892854Y-77491557D01*
X80892854Y-77491557D02*
X80892854Y-77177271D01*
X80892854Y-77177271D02*
X80840473Y-77072509D01*
X80840473Y-77072509D02*
X80788092Y-77020128D01*
X80788092Y-77020128D02*
X80683330Y-76967747D01*
X80683330Y-76967747D02*
X80473806Y-76967747D01*
X80473806Y-76967747D02*
X80369044Y-77020128D01*
X79059521Y-77648700D02*
X78902378Y-77701080D01*
X78902378Y-77701080D02*
X78640473Y-77701080D01*
X78640473Y-77701080D02*
X78535711Y-77648700D01*
X78535711Y-77648700D02*
X78483330Y-77596319D01*
X78483330Y-77596319D02*
X78430949Y-77491557D01*
X78430949Y-77491557D02*
X78430949Y-77386795D01*
X78430949Y-77386795D02*
X78483330Y-77282033D01*
X78483330Y-77282033D02*
X78535711Y-77229652D01*
X78535711Y-77229652D02*
X78640473Y-77177271D01*
X78640473Y-77177271D02*
X78849997Y-77124890D01*
X78849997Y-77124890D02*
X78954759Y-77072509D01*
X78954759Y-77072509D02*
X79007140Y-77020128D01*
X79007140Y-77020128D02*
X79059521Y-76915366D01*
X79059521Y-76915366D02*
X79059521Y-76810604D01*
X79059521Y-76810604D02*
X79007140Y-76705842D01*
X79007140Y-76705842D02*
X78954759Y-76653461D01*
X78954759Y-76653461D02*
X78849997Y-76601080D01*
X78849997Y-76601080D02*
X78588092Y-76601080D01*
X78588092Y-76601080D02*
X78430949Y-76653461D01*
X77802378Y-77701080D02*
X77907140Y-77648700D01*
X77907140Y-77648700D02*
X77959521Y-77596319D01*
X77959521Y-77596319D02*
X78011902Y-77491557D01*
X78011902Y-77491557D02*
X78011902Y-77177271D01*
X78011902Y-77177271D02*
X77959521Y-77072509D01*
X77959521Y-77072509D02*
X77907140Y-77020128D01*
X77907140Y-77020128D02*
X77802378Y-76967747D01*
X77802378Y-76967747D02*
X77645235Y-76967747D01*
X77645235Y-76967747D02*
X77540473Y-77020128D01*
X77540473Y-77020128D02*
X77488092Y-77072509D01*
X77488092Y-77072509D02*
X77435711Y-77177271D01*
X77435711Y-77177271D02*
X77435711Y-77491557D01*
X77435711Y-77491557D02*
X77488092Y-77596319D01*
X77488092Y-77596319D02*
X77540473Y-77648700D01*
X77540473Y-77648700D02*
X77645235Y-77701080D01*
X77645235Y-77701080D02*
X77802378Y-77701080D01*
X76807140Y-77701080D02*
X76911902Y-77648700D01*
X76911902Y-77648700D02*
X76964283Y-77543938D01*
X76964283Y-77543938D02*
X76964283Y-76601080D01*
X76388093Y-77701080D02*
X76388093Y-76967747D01*
X76388093Y-76601080D02*
X76440474Y-76653461D01*
X76440474Y-76653461D02*
X76388093Y-76705842D01*
X76388093Y-76705842D02*
X76335712Y-76653461D01*
X76335712Y-76653461D02*
X76388093Y-76601080D01*
X76388093Y-76601080D02*
X76388093Y-76705842D01*
X75916664Y-77648700D02*
X75811902Y-77701080D01*
X75811902Y-77701080D02*
X75602378Y-77701080D01*
X75602378Y-77701080D02*
X75497616Y-77648700D01*
X75497616Y-77648700D02*
X75445235Y-77543938D01*
X75445235Y-77543938D02*
X75445235Y-77491557D01*
X75445235Y-77491557D02*
X75497616Y-77386795D01*
X75497616Y-77386795D02*
X75602378Y-77334414D01*
X75602378Y-77334414D02*
X75759521Y-77334414D01*
X75759521Y-77334414D02*
X75864283Y-77282033D01*
X75864283Y-77282033D02*
X75916664Y-77177271D01*
X75916664Y-77177271D02*
X75916664Y-77124890D01*
X75916664Y-77124890D02*
X75864283Y-77020128D01*
X75864283Y-77020128D02*
X75759521Y-76967747D01*
X75759521Y-76967747D02*
X75602378Y-76967747D01*
X75602378Y-76967747D02*
X75497616Y-77020128D01*
X75130950Y-76967747D02*
X74711902Y-76967747D01*
X74973807Y-76601080D02*
X74973807Y-77543938D01*
X74973807Y-77543938D02*
X74921426Y-77648700D01*
X74921426Y-77648700D02*
X74816664Y-77701080D01*
X74816664Y-77701080D02*
X74711902Y-77701080D01*
X74345236Y-77282033D02*
X73507141Y-77282033D01*
X73035712Y-77386795D02*
X72511902Y-77386795D01*
X73140474Y-77701080D02*
X72773807Y-76601080D01*
X72773807Y-76601080D02*
X72407140Y-77701080D01*
X72040474Y-77701080D02*
X72040474Y-76601080D01*
X69892854Y-76548700D02*
X70835712Y-77962985D01*
X68740474Y-77648700D02*
X68583331Y-77701080D01*
X68583331Y-77701080D02*
X68321426Y-77701080D01*
X68321426Y-77701080D02*
X68216664Y-77648700D01*
X68216664Y-77648700D02*
X68164283Y-77596319D01*
X68164283Y-77596319D02*
X68111902Y-77491557D01*
X68111902Y-77491557D02*
X68111902Y-77386795D01*
X68111902Y-77386795D02*
X68164283Y-77282033D01*
X68164283Y-77282033D02*
X68216664Y-77229652D01*
X68216664Y-77229652D02*
X68321426Y-77177271D01*
X68321426Y-77177271D02*
X68530950Y-77124890D01*
X68530950Y-77124890D02*
X68635712Y-77072509D01*
X68635712Y-77072509D02*
X68688093Y-77020128D01*
X68688093Y-77020128D02*
X68740474Y-76915366D01*
X68740474Y-76915366D02*
X68740474Y-76810604D01*
X68740474Y-76810604D02*
X68688093Y-76705842D01*
X68688093Y-76705842D02*
X68635712Y-76653461D01*
X68635712Y-76653461D02*
X68530950Y-76601080D01*
X68530950Y-76601080D02*
X68269045Y-76601080D01*
X68269045Y-76601080D02*
X68111902Y-76653461D01*
X67797617Y-76967747D02*
X67378569Y-76967747D01*
X67640474Y-76601080D02*
X67640474Y-77543938D01*
X67640474Y-77543938D02*
X67588093Y-77648700D01*
X67588093Y-77648700D02*
X67483331Y-77701080D01*
X67483331Y-77701080D02*
X67378569Y-77701080D01*
X66540474Y-77701080D02*
X66540474Y-77124890D01*
X66540474Y-77124890D02*
X66592855Y-77020128D01*
X66592855Y-77020128D02*
X66697617Y-76967747D01*
X66697617Y-76967747D02*
X66907141Y-76967747D01*
X66907141Y-76967747D02*
X67011903Y-77020128D01*
X66540474Y-77648700D02*
X66645236Y-77701080D01*
X66645236Y-77701080D02*
X66907141Y-77701080D01*
X66907141Y-77701080D02*
X67011903Y-77648700D01*
X67011903Y-77648700D02*
X67064284Y-77543938D01*
X67064284Y-77543938D02*
X67064284Y-77439176D01*
X67064284Y-77439176D02*
X67011903Y-77334414D01*
X67011903Y-77334414D02*
X66907141Y-77282033D01*
X66907141Y-77282033D02*
X66645236Y-77282033D01*
X66645236Y-77282033D02*
X66540474Y-77229652D01*
X66016665Y-77701080D02*
X66016665Y-76967747D01*
X66016665Y-77072509D02*
X65964284Y-77020128D01*
X65964284Y-77020128D02*
X65859522Y-76967747D01*
X65859522Y-76967747D02*
X65702379Y-76967747D01*
X65702379Y-76967747D02*
X65597617Y-77020128D01*
X65597617Y-77020128D02*
X65545236Y-77124890D01*
X65545236Y-77124890D02*
X65545236Y-77701080D01*
X65545236Y-77124890D02*
X65492855Y-77020128D01*
X65492855Y-77020128D02*
X65388093Y-76967747D01*
X65388093Y-76967747D02*
X65230950Y-76967747D01*
X65230950Y-76967747D02*
X65126189Y-77020128D01*
X65126189Y-77020128D02*
X65073808Y-77124890D01*
X65073808Y-77124890D02*
X65073808Y-77701080D01*
X64549998Y-76967747D02*
X64549998Y-78067747D01*
X64549998Y-77020128D02*
X64445236Y-76967747D01*
X64445236Y-76967747D02*
X64235712Y-76967747D01*
X64235712Y-76967747D02*
X64130950Y-77020128D01*
X64130950Y-77020128D02*
X64078569Y-77072509D01*
X64078569Y-77072509D02*
X64026188Y-77177271D01*
X64026188Y-77177271D02*
X64026188Y-77491557D01*
X64026188Y-77491557D02*
X64078569Y-77596319D01*
X64078569Y-77596319D02*
X64130950Y-77648700D01*
X64130950Y-77648700D02*
X64235712Y-77701080D01*
X64235712Y-77701080D02*
X64445236Y-77701080D01*
X64445236Y-77701080D02*
X64549998Y-77648700D01*
X63554760Y-77282033D02*
X62716665Y-77282033D01*
X62245236Y-77648700D02*
X62088093Y-77701080D01*
X62088093Y-77701080D02*
X61826188Y-77701080D01*
X61826188Y-77701080D02*
X61721426Y-77648700D01*
X61721426Y-77648700D02*
X61669045Y-77596319D01*
X61669045Y-77596319D02*
X61616664Y-77491557D01*
X61616664Y-77491557D02*
X61616664Y-77386795D01*
X61616664Y-77386795D02*
X61669045Y-77282033D01*
X61669045Y-77282033D02*
X61721426Y-77229652D01*
X61721426Y-77229652D02*
X61826188Y-77177271D01*
X61826188Y-77177271D02*
X62035712Y-77124890D01*
X62035712Y-77124890D02*
X62140474Y-77072509D01*
X62140474Y-77072509D02*
X62192855Y-77020128D01*
X62192855Y-77020128D02*
X62245236Y-76915366D01*
X62245236Y-76915366D02*
X62245236Y-76810604D01*
X62245236Y-76810604D02*
X62192855Y-76705842D01*
X62192855Y-76705842D02*
X62140474Y-76653461D01*
X62140474Y-76653461D02*
X62035712Y-76601080D01*
X62035712Y-76601080D02*
X61773807Y-76601080D01*
X61773807Y-76601080D02*
X61616664Y-76653461D01*
X61249998Y-76601080D02*
X60569045Y-76601080D01*
X60569045Y-76601080D02*
X60935712Y-77020128D01*
X60935712Y-77020128D02*
X60778569Y-77020128D01*
X60778569Y-77020128D02*
X60673807Y-77072509D01*
X60673807Y-77072509D02*
X60621426Y-77124890D01*
X60621426Y-77124890D02*
X60569045Y-77229652D01*
X60569045Y-77229652D02*
X60569045Y-77491557D01*
X60569045Y-77491557D02*
X60621426Y-77596319D01*
X60621426Y-77596319D02*
X60673807Y-77648700D01*
X60673807Y-77648700D02*
X60778569Y-77701080D01*
X60778569Y-77701080D02*
X61092855Y-77701080D01*
X61092855Y-77701080D02*
X61197617Y-77648700D01*
X61197617Y-77648700D02*
X61249998Y-77596319D01*
X60149998Y-77386795D02*
X59626188Y-77386795D01*
X60254760Y-77701080D02*
X59888093Y-76601080D01*
X59888093Y-76601080D02*
X59521426Y-77701080D01*
X58316665Y-77701080D02*
X58316665Y-76601080D01*
X57792855Y-76967747D02*
X57792855Y-77701080D01*
X57792855Y-77072509D02*
X57740474Y-77020128D01*
X57740474Y-77020128D02*
X57635712Y-76967747D01*
X57635712Y-76967747D02*
X57478569Y-76967747D01*
X57478569Y-76967747D02*
X57373807Y-77020128D01*
X57373807Y-77020128D02*
X57321426Y-77124890D01*
X57321426Y-77124890D02*
X57321426Y-77701080D01*
X56954760Y-76967747D02*
X56535712Y-76967747D01*
X56797617Y-76601080D02*
X56797617Y-77543938D01*
X56797617Y-77543938D02*
X56745236Y-77648700D01*
X56745236Y-77648700D02*
X56640474Y-77701080D01*
X56640474Y-77701080D02*
X56535712Y-77701080D01*
X55749998Y-77648700D02*
X55854760Y-77701080D01*
X55854760Y-77701080D02*
X56064284Y-77701080D01*
X56064284Y-77701080D02*
X56169046Y-77648700D01*
X56169046Y-77648700D02*
X56221427Y-77543938D01*
X56221427Y-77543938D02*
X56221427Y-77124890D01*
X56221427Y-77124890D02*
X56169046Y-77020128D01*
X56169046Y-77020128D02*
X56064284Y-76967747D01*
X56064284Y-76967747D02*
X55854760Y-76967747D01*
X55854760Y-76967747D02*
X55749998Y-77020128D01*
X55749998Y-77020128D02*
X55697617Y-77124890D01*
X55697617Y-77124890D02*
X55697617Y-77229652D01*
X55697617Y-77229652D02*
X56221427Y-77334414D01*
X55226189Y-77701080D02*
X55226189Y-76967747D01*
X55226189Y-77177271D02*
X55173808Y-77072509D01*
X55173808Y-77072509D02*
X55121427Y-77020128D01*
X55121427Y-77020128D02*
X55016665Y-76967747D01*
X55016665Y-76967747D02*
X54911903Y-76967747D01*
X54545237Y-76967747D02*
X54545237Y-78067747D01*
X54545237Y-77020128D02*
X54440475Y-76967747D01*
X54440475Y-76967747D02*
X54230951Y-76967747D01*
X54230951Y-76967747D02*
X54126189Y-77020128D01*
X54126189Y-77020128D02*
X54073808Y-77072509D01*
X54073808Y-77072509D02*
X54021427Y-77177271D01*
X54021427Y-77177271D02*
X54021427Y-77491557D01*
X54021427Y-77491557D02*
X54073808Y-77596319D01*
X54073808Y-77596319D02*
X54126189Y-77648700D01*
X54126189Y-77648700D02*
X54230951Y-77701080D01*
X54230951Y-77701080D02*
X54440475Y-77701080D01*
X54440475Y-77701080D02*
X54545237Y-77648700D01*
X53392856Y-77701080D02*
X53497618Y-77648700D01*
X53497618Y-77648700D02*
X53549999Y-77596319D01*
X53549999Y-77596319D02*
X53602380Y-77491557D01*
X53602380Y-77491557D02*
X53602380Y-77177271D01*
X53602380Y-77177271D02*
X53549999Y-77072509D01*
X53549999Y-77072509D02*
X53497618Y-77020128D01*
X53497618Y-77020128D02*
X53392856Y-76967747D01*
X53392856Y-76967747D02*
X53235713Y-76967747D01*
X53235713Y-76967747D02*
X53130951Y-77020128D01*
X53130951Y-77020128D02*
X53078570Y-77072509D01*
X53078570Y-77072509D02*
X53026189Y-77177271D01*
X53026189Y-77177271D02*
X53026189Y-77491557D01*
X53026189Y-77491557D02*
X53078570Y-77596319D01*
X53078570Y-77596319D02*
X53130951Y-77648700D01*
X53130951Y-77648700D02*
X53235713Y-77701080D01*
X53235713Y-77701080D02*
X53392856Y-77701080D01*
X52607142Y-77648700D02*
X52502380Y-77701080D01*
X52502380Y-77701080D02*
X52292856Y-77701080D01*
X52292856Y-77701080D02*
X52188094Y-77648700D01*
X52188094Y-77648700D02*
X52135713Y-77543938D01*
X52135713Y-77543938D02*
X52135713Y-77491557D01*
X52135713Y-77491557D02*
X52188094Y-77386795D01*
X52188094Y-77386795D02*
X52292856Y-77334414D01*
X52292856Y-77334414D02*
X52449999Y-77334414D01*
X52449999Y-77334414D02*
X52554761Y-77282033D01*
X52554761Y-77282033D02*
X52607142Y-77177271D01*
X52607142Y-77177271D02*
X52607142Y-77124890D01*
X52607142Y-77124890D02*
X52554761Y-77020128D01*
X52554761Y-77020128D02*
X52449999Y-76967747D01*
X52449999Y-76967747D02*
X52292856Y-76967747D01*
X52292856Y-76967747D02*
X52188094Y-77020128D01*
X51245237Y-77648700D02*
X51349999Y-77701080D01*
X51349999Y-77701080D02*
X51559523Y-77701080D01*
X51559523Y-77701080D02*
X51664285Y-77648700D01*
X51664285Y-77648700D02*
X51716666Y-77543938D01*
X51716666Y-77543938D02*
X51716666Y-77124890D01*
X51716666Y-77124890D02*
X51664285Y-77020128D01*
X51664285Y-77020128D02*
X51559523Y-76967747D01*
X51559523Y-76967747D02*
X51349999Y-76967747D01*
X51349999Y-76967747D02*
X51245237Y-77020128D01*
X51245237Y-77020128D02*
X51192856Y-77124890D01*
X51192856Y-77124890D02*
X51192856Y-77229652D01*
X51192856Y-77229652D02*
X51716666Y-77334414D01*
X50721428Y-77701080D02*
X50721428Y-76967747D01*
X50721428Y-77177271D02*
X50669047Y-77072509D01*
X50669047Y-77072509D02*
X50616666Y-77020128D01*
X50616666Y-77020128D02*
X50511904Y-76967747D01*
X50511904Y-76967747D02*
X50407142Y-76967747D01*
X48573809Y-77701080D02*
X48940476Y-77177271D01*
X49202381Y-77701080D02*
X49202381Y-76601080D01*
X49202381Y-76601080D02*
X48783333Y-76601080D01*
X48783333Y-76601080D02*
X48678571Y-76653461D01*
X48678571Y-76653461D02*
X48626190Y-76705842D01*
X48626190Y-76705842D02*
X48573809Y-76810604D01*
X48573809Y-76810604D02*
X48573809Y-76967747D01*
X48573809Y-76967747D02*
X48626190Y-77072509D01*
X48626190Y-77072509D02*
X48678571Y-77124890D01*
X48678571Y-77124890D02*
X48783333Y-77177271D01*
X48783333Y-77177271D02*
X49202381Y-77177271D01*
X47683333Y-77648700D02*
X47788095Y-77701080D01*
X47788095Y-77701080D02*
X47997619Y-77701080D01*
X47997619Y-77701080D02*
X48102381Y-77648700D01*
X48102381Y-77648700D02*
X48154762Y-77543938D01*
X48154762Y-77543938D02*
X48154762Y-77124890D01*
X48154762Y-77124890D02*
X48102381Y-77020128D01*
X48102381Y-77020128D02*
X47997619Y-76967747D01*
X47997619Y-76967747D02*
X47788095Y-76967747D01*
X47788095Y-76967747D02*
X47683333Y-77020128D01*
X47683333Y-77020128D02*
X47630952Y-77124890D01*
X47630952Y-77124890D02*
X47630952Y-77229652D01*
X47630952Y-77229652D02*
X48154762Y-77334414D01*
X47264286Y-76967747D02*
X47002381Y-77701080D01*
X47002381Y-77701080D02*
X46740476Y-76967747D01*
X46321429Y-77596319D02*
X46269048Y-77648700D01*
X46269048Y-77648700D02*
X46321429Y-77701080D01*
X46321429Y-77701080D02*
X46373810Y-77648700D01*
X46373810Y-77648700D02*
X46321429Y-77596319D01*
X46321429Y-77596319D02*
X46321429Y-77701080D01*
X45430952Y-77124890D02*
X45273809Y-77177271D01*
X45273809Y-77177271D02*
X45221428Y-77229652D01*
X45221428Y-77229652D02*
X45169047Y-77334414D01*
X45169047Y-77334414D02*
X45169047Y-77491557D01*
X45169047Y-77491557D02*
X45221428Y-77596319D01*
X45221428Y-77596319D02*
X45273809Y-77648700D01*
X45273809Y-77648700D02*
X45378571Y-77701080D01*
X45378571Y-77701080D02*
X45797619Y-77701080D01*
X45797619Y-77701080D02*
X45797619Y-76601080D01*
X45797619Y-76601080D02*
X45430952Y-76601080D01*
X45430952Y-76601080D02*
X45326190Y-76653461D01*
X45326190Y-76653461D02*
X45273809Y-76705842D01*
X45273809Y-76705842D02*
X45221428Y-76810604D01*
X45221428Y-76810604D02*
X45221428Y-76915366D01*
X45221428Y-76915366D02*
X45273809Y-77020128D01*
X45273809Y-77020128D02*
X45326190Y-77072509D01*
X45326190Y-77072509D02*
X45430952Y-77124890D01*
X45430952Y-77124890D02*
X45797619Y-77124890D01*
X44016667Y-76601080D02*
X43388095Y-76601080D01*
X43702381Y-77701080D02*
X43702381Y-76601080D01*
X43021429Y-77701080D02*
X43021429Y-76601080D01*
X43021429Y-77124890D02*
X42392857Y-77124890D01*
X42392857Y-77701080D02*
X42392857Y-76601080D01*
X42026191Y-76601080D02*
X41397619Y-76601080D01*
X41711905Y-77701080D02*
X41711905Y-76601080D01*
%LPC*%
D12*
%TO.C,J_PWR_SERVO*%
X94000000Y-72500000D03*
D13*
X96500000Y-72500000D03*
%TD*%
D14*
%TO.C,R2*%
X70920000Y-22000000D03*
X81080000Y-22000000D03*
%TD*%
%TO.C,C4*%
X88500000Y-17000000D03*
X93500000Y-17000000D03*
%TD*%
D15*
%TO.C,H2*%
X106000000Y-14000000D03*
%TD*%
D14*
%TO.C,R1*%
X70920000Y-16000000D03*
X81080000Y-16000000D03*
%TD*%
D16*
%TO.C,J_DOOR_BC*%
X21500000Y-49500000D03*
D17*
X21500000Y-47000000D03*
%TD*%
D16*
%TO.C,J_WIN_B*%
X21500000Y-41000000D03*
D17*
X21500000Y-38500000D03*
%TD*%
D16*
%TO.C,J_EXEC*%
X21500000Y-67000000D03*
D17*
X21500000Y-64500000D03*
%TD*%
D12*
%TO.C,J_SERVO_5V_OUT*%
X83000000Y-72500000D03*
D13*
X85500000Y-72500000D03*
%TD*%
D14*
%TO.C,C2*%
X49500000Y-55000000D03*
X54500000Y-55000000D03*
%TD*%
D12*
%TO.C,J_PCA_OE*%
X56500000Y-72500000D03*
D13*
X59000000Y-72500000D03*
%TD*%
D18*
%TO.C,J_AMP_SIG*%
X105500000Y-50500000D03*
D19*
X105500000Y-48000000D03*
X105500000Y-45500000D03*
X105500000Y-43000000D03*
%TD*%
D14*
%TO.C,R3*%
X70920000Y-28000000D03*
X81080000Y-28000000D03*
%TD*%
D18*
%TO.C,J_MIC*%
X105500000Y-36000000D03*
D19*
X105500000Y-33500000D03*
X105500000Y-31000000D03*
X105500000Y-28500000D03*
X105500000Y-26000000D03*
X105500000Y-23500000D03*
%TD*%
D16*
%TO.C,J_DOOR_AB*%
X21500000Y-32250000D03*
D17*
X21500000Y-29750000D03*
%TD*%
D14*
%TO.C,R7*%
X70920000Y-52000000D03*
X81080000Y-52000000D03*
%TD*%
D20*
%TO.C,C3*%
X88676000Y-58500000D03*
D21*
X93676000Y-58500000D03*
%TD*%
D22*
%TO.C,J_STAMP_17*%
X62921700Y-33148500D03*
D23*
X62921700Y-31878500D03*
X62921700Y-30608500D03*
X62921700Y-29338500D03*
X62921700Y-28068500D03*
X62921700Y-26798500D03*
X62921700Y-25528500D03*
X62921700Y-24258500D03*
X62921700Y-22988500D03*
X62921700Y-21718500D03*
X62921700Y-20448500D03*
X62921700Y-19178500D03*
X62921700Y-17908500D03*
X62921700Y-16638500D03*
X62921700Y-15368500D03*
X62921700Y-14098500D03*
X62921700Y-12828500D03*
%TD*%
D24*
%TO.C,J_SOLIST*%
X35732800Y-48567200D03*
D25*
X33192800Y-48567200D03*
X35732800Y-51107200D03*
X33192800Y-51107200D03*
X35732800Y-53647200D03*
X33192800Y-53647200D03*
X35732800Y-56187200D03*
X33192800Y-56187200D03*
X35732800Y-58727200D03*
X33192800Y-58727200D03*
X35732800Y-61267200D03*
X33192800Y-61267200D03*
X35732800Y-63807200D03*
X33192800Y-63807200D03*
%TD*%
D16*
%TO.C,J_WIN_A*%
X21500000Y-23500000D03*
D17*
X21500000Y-21000000D03*
%TD*%
D16*
%TO.C,J_WIN_C*%
X21500000Y-58250000D03*
D17*
X21500000Y-55750000D03*
%TD*%
D26*
%TO.C,C1*%
X88500000Y-42000000D03*
D27*
X93500000Y-42000000D03*
%TD*%
D14*
%TO.C,R9*%
X46900800Y-43127800D03*
X57060800Y-43127800D03*
%TD*%
D15*
%TO.C,H3*%
X22000000Y-75000000D03*
%TD*%
D25*
%TO.C,J_STAMP_6*%
X47681700Y-12828500D03*
X47681700Y-15368500D03*
X47681700Y-17908500D03*
X47681700Y-20448500D03*
X47681700Y-22988500D03*
D24*
X47681700Y-25528500D03*
%TD*%
D12*
%TO.C,J_PWR_LOGIC*%
X71500000Y-72500000D03*
D13*
X74000000Y-72500000D03*
%TD*%
D18*
%TO.C,J_TFT_SIG*%
X33814000Y-41000000D03*
D19*
X33814000Y-38500000D03*
X33814000Y-36000000D03*
X33814000Y-33500000D03*
X33814000Y-31000000D03*
%TD*%
D15*
%TO.C,H4*%
X106000000Y-75000000D03*
%TD*%
D28*
%TO.C,C5*%
X90000000Y-28500000D03*
D14*
X92000000Y-28500000D03*
%TD*%
D15*
%TO.C,H1*%
X22000000Y-14000000D03*
%TD*%
D18*
%TO.C,J_AMP_PWR*%
X105475000Y-62500000D03*
D19*
X105475000Y-60000000D03*
X105475000Y-57500000D03*
%TD*%
D14*
%TO.C,R6*%
X70920000Y-46000000D03*
X81080000Y-46000000D03*
%TD*%
%TO.C,R8*%
X46920000Y-49000000D03*
X57080000Y-49000000D03*
%TD*%
%TO.C,R5*%
X70920000Y-40000000D03*
X81080000Y-40000000D03*
%TD*%
D18*
%TO.C,J_TFT_PWR*%
X33789000Y-24250000D03*
D19*
X33789000Y-21750000D03*
X33789000Y-19250000D03*
X33789000Y-16750000D03*
%TD*%
D24*
%TO.C,JP_STAMP_5V*%
X50725000Y-60500000D03*
D25*
X53265000Y-60500000D03*
%TD*%
D14*
%TO.C,R4*%
X70920000Y-34000000D03*
X81080000Y-34000000D03*
%TD*%
D29*
%TO.C,J_SERVO_CTRL*%
X41798300Y-72500000D03*
D30*
X44298300Y-72500000D03*
X46798300Y-72500000D03*
X49298300Y-72500000D03*
%TD*%
%LPD*%
M02*
