%TF.GenerationSoftware,KiCad,Pcbnew,10.0.6*%
%TF.CreationDate,2026-09-14T21:58:51+09:00*%
%TF.ProjectId,stamp_s3a_interposer_tht,7374616d-705f-4733-9361-5f696e746572,rev?*%
%TF.SameCoordinates,Original*%
%TF.FileFunction,Copper,L1,Top*%
%TF.FilePolarity,Positive*%
%FSLAX46Y46*%
G04 Gerber Fmt 4.6, Leading zero omitted, Abs format (unit mm)*
G04 Created by KiCad (PCBNEW 10.0.6) date 2026-09-14 21:58:51*
%MOMM*%
%LPD*%
G01*
G04 APERTURE LIST*
G04 Aperture macros list*
%AMRoundRect*
0 Rectangle with rounded corners*
0 $1 Rounding radius*
0 $2 $3 $4 $5 $6 $7 $8 $9 X,Y pos of 4 corners*
0 Add a 4 corners polygon primitive as box body*
4,1,4,$2,$3,$4,$5,$6,$7,$8,$9,$2,$3,0*
0 Add four circle primitives for the rounded corners*
1,1,$1+$1,$2,$3*
1,1,$1+$1,$4,$5*
1,1,$1+$1,$6,$7*
1,1,$1+$1,$8,$9*
0 Add four rect primitives between the rounded corners*
20,1,$1+$1,$2,$3,$4,$5,0*
20,1,$1+$1,$4,$5,$6,$7,0*
20,1,$1+$1,$6,$7,$8,$9,0*
20,1,$1+$1,$8,$9,$2,$3,0*%
G04 Aperture macros list end*
%TA.AperFunction,ComponentPad*%
%ADD10RoundRect,0.250000X-0.600000X-0.750000X0.600000X-0.750000X0.600000X0.750000X-0.600000X0.750000X0*%
%TD*%
%TA.AperFunction,ComponentPad*%
%ADD11O,1.700000X2.000000*%
%TD*%
%TA.AperFunction,ComponentPad*%
%ADD12C,1.600000*%
%TD*%
%TA.AperFunction,ComponentPad*%
%ADD13RoundRect,0.250000X0.750000X-0.600000X0.750000X0.600000X-0.750000X0.600000X-0.750000X-0.600000X0*%
%TD*%
%TA.AperFunction,ComponentPad*%
%ADD14O,2.000000X1.700000*%
%TD*%
%TA.AperFunction,ComponentPad*%
%ADD15RoundRect,0.250000X0.725000X-0.600000X0.725000X0.600000X-0.725000X0.600000X-0.725000X-0.600000X0*%
%TD*%
%TA.AperFunction,ComponentPad*%
%ADD16O,1.950000X1.700000*%
%TD*%
%TA.AperFunction,ComponentPad*%
%ADD17RoundRect,0.250001X-0.949999X-0.949999X0.949999X-0.949999X0.949999X0.949999X-0.949999X0.949999X0*%
%TD*%
%TA.AperFunction,ComponentPad*%
%ADD18C,2.400000*%
%TD*%
%TA.AperFunction,ComponentPad*%
%ADD19R,1.000000X1.000000*%
%TD*%
%TA.AperFunction,ComponentPad*%
%ADD20C,1.000000*%
%TD*%
%TA.AperFunction,ComponentPad*%
%ADD21R,1.700000X1.700000*%
%TD*%
%TA.AperFunction,ComponentPad*%
%ADD22C,1.700000*%
%TD*%
%TA.AperFunction,ComponentPad*%
%ADD23RoundRect,0.250000X-0.750000X-0.750000X0.750000X-0.750000X0.750000X0.750000X-0.750000X0.750000X0*%
%TD*%
%TA.AperFunction,ComponentPad*%
%ADD24C,2.000000*%
%TD*%
%TA.AperFunction,ComponentPad*%
%ADD25RoundRect,0.250000X-0.550000X-0.550000X0.550000X-0.550000X0.550000X0.550000X-0.550000X0.550000X0*%
%TD*%
%TA.AperFunction,ComponentPad*%
%ADD26RoundRect,0.250000X-0.600000X-0.725000X0.600000X-0.725000X0.600000X0.725000X-0.600000X0.725000X0*%
%TD*%
%TA.AperFunction,ComponentPad*%
%ADD27O,1.700000X1.950000*%
%TD*%
%TA.AperFunction,ViaPad*%
%ADD28C,0.800000*%
%TD*%
%TA.AperFunction,Conductor*%
%ADD29C,1.000000*%
%TD*%
%TA.AperFunction,Conductor*%
%ADD30C,0.200000*%
%TD*%
%TA.AperFunction,Conductor*%
%ADD31C,0.300000*%
%TD*%
G04 APERTURE END LIST*
D10*
%TO.P,J_PWR_SERVO,1*%
%TO.N,+5V_LOGIC*%
X94000000Y-72500000D03*
D11*
%TO.P,J_PWR_SERVO,2*%
%TO.N,GND*%
X96500000Y-72500000D03*
%TD*%
D12*
%TO.P,R2,1*%
%TO.N,I2S_BCLK_SRC*%
X70920000Y-22000000D03*
%TO.P,R2,2*%
%TO.N,I2S_BCLK_AMP*%
X81080000Y-22000000D03*
%TD*%
%TO.P,C4,1*%
%TO.N,+3V3_STAMP*%
X88500000Y-17000000D03*
%TO.P,C4,2*%
%TO.N,GND*%
X93500000Y-17000000D03*
%TD*%
%TO.P,R1,1*%
%TO.N,I2S_BCLK_SRC*%
X70920000Y-16000000D03*
%TO.P,R1,2*%
%TO.N,I2S_BCLK_MIC*%
X81080000Y-16000000D03*
%TD*%
D13*
%TO.P,J_DOOR_BC,1*%
%TO.N,SW_DOOR_BC*%
X21500000Y-49500000D03*
D14*
%TO.P,J_DOOR_BC,2*%
%TO.N,GND*%
X21500000Y-47000000D03*
%TD*%
D13*
%TO.P,J_WIN_B,1*%
%TO.N,SW_WIN_B*%
X21500000Y-41000000D03*
D14*
%TO.P,J_WIN_B,2*%
%TO.N,GND*%
X21500000Y-38500000D03*
%TD*%
D13*
%TO.P,J_EXEC,1*%
%TO.N,EXEC_N*%
X21500000Y-67000000D03*
D14*
%TO.P,J_EXEC,2*%
%TO.N,GND*%
X21500000Y-64500000D03*
%TD*%
D10*
%TO.P,J_SERVO_5V_OUT,1*%
%TO.N,+5V_LOGIC*%
X83000000Y-72500000D03*
D11*
%TO.P,J_SERVO_5V_OUT,2*%
%TO.N,GND*%
X85500000Y-72500000D03*
%TD*%
D12*
%TO.P,C2,1*%
%TO.N,+5V_LOGIC*%
X49500000Y-55000000D03*
%TO.P,C2,2*%
%TO.N,GND*%
X54500000Y-55000000D03*
%TD*%
D10*
%TO.P,J_PCA_OE,1*%
%TO.N,PCA_OE*%
X56500000Y-72500000D03*
D11*
%TO.P,J_PCA_OE,2*%
%TO.N,GND*%
X59000000Y-72500000D03*
%TD*%
D15*
%TO.P,J_AMP_SIG,1*%
%TO.N,I2S_WS_AMP*%
X105500000Y-50500000D03*
D16*
%TO.P,J_AMP_SIG,2*%
%TO.N,I2S_BCLK_AMP*%
X105500000Y-48000000D03*
%TO.P,J_AMP_SIG,3*%
%TO.N,I2S_DOUT_AMP*%
X105500000Y-45500000D03*
%TO.P,J_AMP_SIG,4*%
%TO.N,GND*%
X105500000Y-43000000D03*
%TD*%
D12*
%TO.P,R3,1*%
%TO.N,I2S_WS_SRC*%
X70920000Y-28000000D03*
%TO.P,R3,2*%
%TO.N,I2S_WS_MIC*%
X81080000Y-28000000D03*
%TD*%
D15*
%TO.P,J_MIC,1*%
%TO.N,GND*%
X105500000Y-36000000D03*
D16*
%TO.P,J_MIC,2*%
%TO.N,+3V3_STAMP*%
X105500000Y-33500000D03*
%TO.P,J_MIC,3*%
%TO.N,I2S_DIN_MIC*%
X105500000Y-31000000D03*
%TO.P,J_MIC,4*%
%TO.N,I2S_BCLK_MIC*%
X105500000Y-28500000D03*
%TO.P,J_MIC,5*%
%TO.N,I2S_WS_MIC*%
X105500000Y-26000000D03*
%TO.P,J_MIC,6*%
%TO.N,GND*%
X105500000Y-23500000D03*
%TD*%
D13*
%TO.P,J_DOOR_AB,1*%
%TO.N,SW_DOOR_AB*%
X21500000Y-32250000D03*
D14*
%TO.P,J_DOOR_AB,2*%
%TO.N,GND*%
X21500000Y-29750000D03*
%TD*%
D12*
%TO.P,R7,1*%
%TO.N,I2S_DIN_MIC*%
X70920000Y-52000000D03*
%TO.P,R7,2*%
%TO.N,GND*%
X81080000Y-52000000D03*
%TD*%
D17*
%TO.P,C3,1*%
%TO.N,+5V_LOGIC*%
X88676000Y-58500000D03*
D18*
%TO.P,C3,2*%
%TO.N,GND*%
X93676000Y-58500000D03*
%TD*%
D19*
%TO.P,J_STAMP_17,1*%
%TO.N,AMP_SD*%
X62921700Y-33148500D03*
D20*
%TO.P,J_STAMP_17,2*%
%TO.N,SW_WIN_B*%
X62921700Y-31878500D03*
%TO.P,J_STAMP_17,3*%
%TO.N,N/C*%
X62921700Y-30608500D03*
%TO.P,J_STAMP_17,4*%
%TO.N,SW_WIN_C*%
X62921700Y-29338500D03*
%TO.P,J_STAMP_17,5*%
%TO.N,I2S_WS_SRC*%
X62921700Y-28068500D03*
%TO.P,J_STAMP_17,6*%
%TO.N,SW_DOOR_AB*%
X62921700Y-26798500D03*
%TO.P,J_STAMP_17,7*%
%TO.N,I2S_DOUT_SRC*%
X62921700Y-25528500D03*
%TO.P,J_STAMP_17,8*%
%TO.N,SW_DOOR_BC*%
X62921700Y-24258500D03*
%TO.P,J_STAMP_17,9*%
%TO.N,I2S_DIN_MIC*%
X62921700Y-22988500D03*
%TO.P,J_STAMP_17,10*%
%TO.N,EXEC_N*%
X62921700Y-21718500D03*
%TO.P,J_STAMP_17,11*%
%TO.N,GND*%
X62921700Y-20448500D03*
%TO.P,J_STAMP_17,12*%
%TO.N,N/C*%
X62921700Y-19178500D03*
%TO.P,J_STAMP_17,13*%
%TO.N,+5V_STAMP*%
X62921700Y-17908500D03*
%TO.P,J_STAMP_17,14*%
%TO.N,N/C*%
X62921700Y-16638500D03*
%TO.P,J_STAMP_17,15*%
%TO.N,I2C_SDA*%
X62921700Y-15368500D03*
%TO.P,J_STAMP_17,16*%
%TO.N,N/C*%
X62921700Y-14098500D03*
%TO.P,J_STAMP_17,17*%
%TO.N,I2C_SCL*%
X62921700Y-12828500D03*
%TD*%
D21*
%TO.P,J_SOLIST,1*%
%TO.N,I2C_SCL*%
X35732800Y-48567200D03*
D22*
%TO.P,J_SOLIST,2*%
%TO.N,GND*%
X33192800Y-48567200D03*
%TO.P,J_SOLIST,3*%
%TO.N,I2C_SDA*%
X35732800Y-51107200D03*
%TO.P,J_SOLIST,4*%
%TO.N,GND*%
X33192800Y-51107200D03*
%TO.P,J_SOLIST,5*%
%TO.N,N/C*%
X35732800Y-53647200D03*
%TO.P,J_SOLIST,6*%
%TO.N,TFT_RST_N*%
X33192800Y-53647200D03*
%TO.P,J_SOLIST,7*%
%TO.N,TFT_DC*%
X35732800Y-56187200D03*
%TO.P,J_SOLIST,8*%
%TO.N,N/C*%
X33192800Y-56187200D03*
%TO.P,J_SOLIST,9*%
%TO.N,TFT_MOSI*%
X35732800Y-58727200D03*
%TO.P,J_SOLIST,10*%
%TO.N,PCA_OE*%
X33192800Y-58727200D03*
%TO.P,J_SOLIST,11*%
%TO.N,GND*%
X35732800Y-61267200D03*
%TO.P,J_SOLIST,12*%
%TO.N,TFT_SCK*%
X33192800Y-61267200D03*
%TO.P,J_SOLIST,13*%
%TO.N,GND*%
X35732800Y-63807200D03*
%TO.P,J_SOLIST,14*%
%TO.N,TFT_CS_N*%
X33192800Y-63807200D03*
%TD*%
D13*
%TO.P,J_WIN_A,1*%
%TO.N,SW_WIN_A*%
X21500000Y-23500000D03*
D14*
%TO.P,J_WIN_A,2*%
%TO.N,GND*%
X21500000Y-21000000D03*
%TD*%
D13*
%TO.P,J_WIN_C,1*%
%TO.N,SW_WIN_C*%
X21500000Y-58250000D03*
D14*
%TO.P,J_WIN_C,2*%
%TO.N,GND*%
X21500000Y-55750000D03*
%TD*%
D23*
%TO.P,C1,1*%
%TO.N,+5V_LOGIC*%
X88500000Y-42000000D03*
D24*
%TO.P,C1,2*%
%TO.N,GND*%
X93500000Y-42000000D03*
%TD*%
D12*
%TO.P,R9,1*%
%TO.N,TFT_CS_N*%
X46900800Y-43127800D03*
%TO.P,R9,2*%
%TO.N,+3V3_STAMP*%
X57060800Y-43127800D03*
%TD*%
D22*
%TO.P,J_STAMP_6,18*%
%TO.N,GND*%
X47681700Y-12828500D03*
%TO.P,J_STAMP_6,20*%
%TO.N,N/C*%
X47681700Y-15368500D03*
%TO.P,J_STAMP_6,22*%
X47681700Y-17908500D03*
%TO.P,J_STAMP_6,24*%
%TO.N,SW_WIN_A*%
X47681700Y-20448500D03*
%TO.P,J_STAMP_6,26*%
%TO.N,I2S_BCLK_SRC*%
X47681700Y-22988500D03*
D21*
%TO.P,J_STAMP_6,28*%
%TO.N,+3V3_STAMP*%
X47681700Y-25528500D03*
%TD*%
D10*
%TO.P,J_PWR_LOGIC,1*%
%TO.N,+5V_LOGIC*%
X71500000Y-72500000D03*
D11*
%TO.P,J_PWR_LOGIC,2*%
%TO.N,GND*%
X74000000Y-72500000D03*
%TD*%
D15*
%TO.P,J_TFT_SIG,1*%
%TO.N,N/C*%
X33814000Y-41000000D03*
D16*
%TO.P,J_TFT_SIG,2*%
%TO.N,+5V_LOGIC*%
X33814000Y-38500000D03*
%TO.P,J_TFT_SIG,3*%
%TO.N,TFT_SCK*%
X33814000Y-36000000D03*
%TO.P,J_TFT_SIG,4*%
%TO.N,TFT_MOSI*%
X33814000Y-33500000D03*
%TO.P,J_TFT_SIG,5*%
%TO.N,TFT_DC*%
X33814000Y-31000000D03*
%TD*%
D25*
%TO.P,C5,1*%
%TO.N,+5V_LOGIC*%
X90000000Y-28500000D03*
D12*
%TO.P,C5,2*%
%TO.N,GND*%
X92000000Y-28500000D03*
%TD*%
D15*
%TO.P,J_AMP_PWR,1*%
%TO.N,AMP_SD*%
X105475000Y-62500000D03*
D16*
%TO.P,J_AMP_PWR,2*%
%TO.N,GND*%
X105475000Y-60000000D03*
%TO.P,J_AMP_PWR,3*%
%TO.N,+5V_LOGIC*%
X105475000Y-57500000D03*
%TD*%
D12*
%TO.P,R6,1*%
%TO.N,AMP_SD*%
X70920000Y-46000000D03*
%TO.P,R6,2*%
%TO.N,GND*%
X81080000Y-46000000D03*
%TD*%
%TO.P,R8,1*%
%TO.N,PCA_OE*%
X46920000Y-49000000D03*
%TO.P,R8,2*%
%TO.N,+3V3_STAMP*%
X57080000Y-49000000D03*
%TD*%
%TO.P,R5,1*%
%TO.N,I2S_DOUT_SRC*%
X70920000Y-40000000D03*
%TO.P,R5,2*%
%TO.N,I2S_DOUT_AMP*%
X81080000Y-40000000D03*
%TD*%
D15*
%TO.P,J_TFT_PWR,1*%
%TO.N,TFT_RST_N*%
X33789000Y-24250000D03*
D16*
%TO.P,J_TFT_PWR,2*%
%TO.N,TFT_CS_N*%
X33789000Y-21750000D03*
%TO.P,J_TFT_PWR,3*%
%TO.N,GND*%
X33789000Y-19250000D03*
%TO.P,J_TFT_PWR,4*%
%TO.N,+5V_LOGIC*%
X33789000Y-16750000D03*
%TD*%
D21*
%TO.P,JP_STAMP_5V,1*%
%TO.N,+5V_LOGIC*%
X50725000Y-60500000D03*
D22*
%TO.P,JP_STAMP_5V,2*%
%TO.N,+5V_STAMP*%
X53265000Y-60500000D03*
%TD*%
D12*
%TO.P,R4,1*%
%TO.N,I2S_WS_SRC*%
X70920000Y-34000000D03*
%TO.P,R4,2*%
%TO.N,I2S_WS_AMP*%
X81080000Y-34000000D03*
%TD*%
D26*
%TO.P,J_SERVO_CTRL,1*%
%TO.N,GND*%
X41798300Y-72500000D03*
D27*
%TO.P,J_SERVO_CTRL,2*%
%TO.N,I2C_SCL*%
X44298300Y-72500000D03*
%TO.P,J_SERVO_CTRL,3*%
%TO.N,I2C_SDA*%
X46798300Y-72500000D03*
%TO.P,J_SERVO_CTRL,4*%
%TO.N,+3V3_STAMP*%
X49298300Y-72500000D03*
%TD*%
D28*
%TO.N,GND*%
X33157300Y-43711617D03*
X43260479Y-55716086D03*
%TO.N,SW_DOOR_BC*%
X47867200Y-41443000D03*
%TO.N,SW_WIN_B*%
X63561100Y-36328100D03*
X55460800Y-44144400D03*
%TO.N,I2S_DIN_MIC*%
X73604700Y-31043700D03*
%TO.N,SW_WIN_C*%
X54935900Y-46365900D03*
X64400300Y-35513700D03*
%TO.N,I2C_SCL*%
X64335900Y-40344600D03*
X45746900Y-51731000D03*
%TO.N,TFT_DC*%
X30354000Y-31962900D03*
X29696700Y-54305100D03*
%TO.N,TFT_SCK*%
X29876400Y-58040000D03*
X30168200Y-38216500D03*
%TD*%
%TO.N,+5V_LOGIC*%
D29*
X73235900Y-74235900D02*
X83000000Y-74235900D01*
X83000000Y-74235900D02*
X83000000Y-72500000D01*
X50725000Y-60500000D02*
X62725000Y-72500000D01*
X83000000Y-74235900D02*
X92264100Y-74235900D01*
X62725000Y-72500000D02*
X71500000Y-72500000D01*
X71500000Y-72500000D02*
X73235900Y-74235900D01*
X92264100Y-74235900D02*
X94000000Y-72500000D01*
%TO.N,I2S_BCLK_SRC*%
D30*
X66907600Y-11987600D02*
X70920000Y-16000000D01*
X47681700Y-22988500D02*
X58682600Y-11987600D01*
X58682600Y-11987600D02*
X66907600Y-11987600D01*
%TO.N,+3V3_STAMP*%
D31*
X47681700Y-33748700D02*
X47681700Y-25528500D01*
X57080000Y-49000000D02*
X57060800Y-48980800D01*
X57060800Y-43127800D02*
X47681700Y-33748700D01*
X57060800Y-48980800D02*
X57060800Y-43127800D01*
%TO.N,I2S_BCLK_MIC*%
D30*
X105500000Y-27348300D02*
X105931900Y-27348300D01*
X106779700Y-26500500D02*
X106779700Y-25441600D01*
X105931900Y-27348300D02*
X106779700Y-26500500D01*
X89830000Y-24750000D02*
X81080000Y-16000000D01*
X106088100Y-24750000D02*
X89830000Y-24750000D01*
X106779700Y-25441600D02*
X106088100Y-24750000D01*
X105500000Y-28500000D02*
X105500000Y-27348300D01*
%TO.N,SW_DOOR_BC*%
X37473400Y-49752900D02*
X45783300Y-41443000D01*
X21752900Y-49752900D02*
X37473400Y-49752900D01*
X21500000Y-49500000D02*
X21752900Y-49752900D01*
X45783300Y-41443000D02*
X47867200Y-41443000D01*
%TO.N,SW_WIN_B*%
X63561100Y-35360700D02*
X63561100Y-36328100D01*
X55460800Y-44144400D02*
X51138900Y-39822500D01*
X63121700Y-31878500D02*
X63723400Y-32480200D01*
X22677500Y-39822500D02*
X21500000Y-41000000D01*
X63723400Y-32480200D02*
X63723400Y-35198400D01*
X63723400Y-35198400D02*
X63561100Y-35360700D01*
X62921700Y-31878500D02*
X63121700Y-31878500D01*
X51138900Y-39822500D02*
X22677500Y-39822500D01*
%TO.N,PCA_OE*%
X38462800Y-57457200D02*
X39960000Y-55960000D01*
X34462800Y-57457200D02*
X38462800Y-57457200D01*
X39960000Y-55960000D02*
X56500000Y-72500000D01*
X33192800Y-58727200D02*
X34462800Y-57457200D01*
X39960000Y-55960000D02*
X46920000Y-49000000D01*
%TO.N,I2S_WS_AMP*%
X94673300Y-34000000D02*
X81080000Y-34000000D01*
X105500000Y-50500000D02*
X106786700Y-49213300D01*
X106786700Y-49213300D02*
X106786700Y-45029500D01*
X104923300Y-44250000D02*
X94673300Y-34000000D01*
X106786700Y-45029500D02*
X106007200Y-44250000D01*
X106007200Y-44250000D02*
X104923300Y-44250000D01*
%TO.N,I2S_DOUT_AMP*%
X105500000Y-45500000D02*
X86580000Y-45500000D01*
X86580000Y-45500000D02*
X81080000Y-40000000D01*
%TO.N,I2S_WS_SRC*%
X64988500Y-28068500D02*
X70920000Y-34000000D01*
X62921700Y-28068500D02*
X64988500Y-28068500D01*
%TO.N,I2S_WS_MIC*%
X105500000Y-26000000D02*
X83080000Y-26000000D01*
X83080000Y-26000000D02*
X81080000Y-28000000D01*
%TO.N,I2S_DIN_MIC*%
X70933200Y-31000000D02*
X73604700Y-31000000D01*
X62921700Y-22988500D02*
X70933200Y-31000000D01*
X73604700Y-31000000D02*
X105500000Y-31000000D01*
X73604700Y-31000000D02*
X73604700Y-31043700D01*
%TO.N,SW_DOOR_AB*%
X62921700Y-26798500D02*
X60497200Y-24374000D01*
X36842800Y-24374000D02*
X28966800Y-32250000D01*
X28966800Y-32250000D02*
X21500000Y-32250000D01*
X60497200Y-24374000D02*
X36842800Y-24374000D01*
%TO.N,AMP_SD*%
X62921700Y-33148500D02*
X62921700Y-33950200D01*
X62859400Y-37875800D02*
X62859400Y-34012500D01*
X70920000Y-46000000D02*
X87420000Y-62500000D01*
X70920000Y-46000000D02*
X70920000Y-45936400D01*
X70920000Y-45936400D02*
X62859400Y-37875800D01*
X62859400Y-34012500D02*
X62921700Y-33950200D01*
X87420000Y-62500000D02*
X105475000Y-62500000D01*
%TO.N,SW_WIN_C*%
X27372800Y-52377200D02*
X21500000Y-58250000D01*
X62921700Y-29338500D02*
X64400300Y-30817100D01*
X43981300Y-46365900D02*
X37970000Y-52377200D01*
X37970000Y-52377200D02*
X27372800Y-52377200D01*
X64400300Y-30817100D02*
X64400300Y-35513700D01*
X54935900Y-46365900D02*
X43981300Y-46365900D01*
%TO.N,I2S_DOUT_SRC*%
X72059800Y-33548500D02*
X64039800Y-25528500D01*
X70920000Y-40000000D02*
X72059800Y-38860200D01*
X72059800Y-38860200D02*
X72059800Y-33548500D01*
X64039800Y-25528500D02*
X62921700Y-25528500D01*
%TO.N,I2C_SCL*%
X64335900Y-43341300D02*
X64335900Y-40344600D01*
X55946200Y-51731000D02*
X64335900Y-43341300D01*
X45746900Y-51731000D02*
X55946200Y-51731000D01*
%TO.N,TFT_DC*%
X29696700Y-54305100D02*
X30190500Y-54798900D01*
X30190500Y-54798900D02*
X34344500Y-54798900D01*
X34344500Y-54798900D02*
X35732800Y-56187200D01*
X33814000Y-31000000D02*
X31316900Y-31000000D01*
X31316900Y-31000000D02*
X30354000Y-31962900D01*
%TO.N,TFT_SCK*%
X29876400Y-58040000D02*
X33103600Y-61267200D01*
X32384700Y-36000000D02*
X30168200Y-38216500D01*
X33103600Y-61267200D02*
X33192800Y-61267200D01*
X33814000Y-36000000D02*
X32384700Y-36000000D01*
%TO.N,SW_WIN_A*%
X24551500Y-20448500D02*
X21500000Y-23500000D01*
X47681700Y-20448500D02*
X24551500Y-20448500D01*
%TD*%
%TA.AperFunction,Conductor*%
%TO.N,GND*%
G36*
X51943039Y-10520185D02*
G01*
X51988794Y-10572989D01*
X52000000Y-10624500D01*
X52000000Y-18051362D01*
X51995861Y-18051362D01*
X51992723Y-18095237D01*
X51964222Y-18139584D01*
X48752603Y-21351202D01*
X48220980Y-21882825D01*
X48159657Y-21916310D01*
X48094981Y-21913075D01*
X47951110Y-21866329D01*
X47791021Y-21840973D01*
X47727886Y-21811044D01*
X47690955Y-21751732D01*
X47691953Y-21681870D01*
X47730563Y-21623637D01*
X47791021Y-21596027D01*
X47861125Y-21584922D01*
X47951109Y-21570671D01*
X48123339Y-21514711D01*
X48284694Y-21432496D01*
X48431201Y-21326053D01*
X48559253Y-21198001D01*
X48665696Y-21051494D01*
X48747911Y-20890139D01*
X48803871Y-20717909D01*
X48818465Y-20625759D01*
X48832200Y-20539051D01*
X48832200Y-20357948D01*
X48815719Y-20253897D01*
X48803871Y-20179091D01*
X48761278Y-20048000D01*
X48747912Y-20006863D01*
X48747911Y-20006860D01*
X48687295Y-19887897D01*
X48665696Y-19845506D01*
X48632842Y-19800286D01*
X48559258Y-19699005D01*
X48559254Y-19699000D01*
X48431199Y-19570945D01*
X48431194Y-19570941D01*
X48284697Y-19464506D01*
X48284696Y-19464505D01*
X48284694Y-19464504D01*
X48233000Y-19438164D01*
X48123339Y-19382288D01*
X48123336Y-19382287D01*
X47951110Y-19326329D01*
X47791021Y-19300973D01*
X47727886Y-19271044D01*
X47690955Y-19211732D01*
X47691953Y-19141870D01*
X47730563Y-19083637D01*
X47791021Y-19056027D01*
X47861125Y-19044922D01*
X47951109Y-19030671D01*
X48123339Y-18974711D01*
X48284694Y-18892496D01*
X48431201Y-18786053D01*
X48559253Y-18658001D01*
X48665696Y-18511494D01*
X48747911Y-18350139D01*
X48803871Y-18177909D01*
X48823914Y-18051362D01*
X48832200Y-17999051D01*
X48832200Y-17817948D01*
X48809559Y-17675003D01*
X48803871Y-17639091D01*
X48747911Y-17466861D01*
X48747911Y-17466860D01*
X48712932Y-17398211D01*
X48665696Y-17305506D01*
X48630961Y-17257697D01*
X48559258Y-17159005D01*
X48559254Y-17159000D01*
X48431199Y-17030945D01*
X48431194Y-17030941D01*
X48284697Y-16924506D01*
X48284696Y-16924505D01*
X48284694Y-16924504D01*
X48233000Y-16898164D01*
X48123339Y-16842288D01*
X48123336Y-16842287D01*
X47951110Y-16786329D01*
X47791021Y-16760973D01*
X47727886Y-16731044D01*
X47690955Y-16671732D01*
X47691953Y-16601870D01*
X47730563Y-16543637D01*
X47791021Y-16516027D01*
X47861125Y-16504922D01*
X47951109Y-16490671D01*
X48123339Y-16434711D01*
X48284694Y-16352496D01*
X48431201Y-16246053D01*
X48559253Y-16118001D01*
X48665696Y-15971494D01*
X48747911Y-15810139D01*
X48803871Y-15637909D01*
X48819072Y-15541932D01*
X48832200Y-15459051D01*
X48832200Y-15277948D01*
X48809559Y-15135003D01*
X48803871Y-15099091D01*
X48765218Y-14980127D01*
X48747912Y-14926863D01*
X48747911Y-14926860D01*
X48693570Y-14820212D01*
X48665696Y-14765506D01*
X48632844Y-14720289D01*
X48559258Y-14619005D01*
X48559254Y-14619000D01*
X48431199Y-14490945D01*
X48431194Y-14490941D01*
X48284697Y-14384506D01*
X48284696Y-14384505D01*
X48284694Y-14384504D01*
X48233000Y-14358164D01*
X48123339Y-14302288D01*
X48123336Y-14302287D01*
X47951110Y-14246329D01*
X47772251Y-14218000D01*
X47772246Y-14218000D01*
X47591154Y-14218000D01*
X47591149Y-14218000D01*
X47412289Y-14246329D01*
X47240063Y-14302287D01*
X47240060Y-14302288D01*
X47078702Y-14384506D01*
X46932205Y-14490941D01*
X46932200Y-14490945D01*
X46804145Y-14619000D01*
X46804141Y-14619005D01*
X46697706Y-14765502D01*
X46615488Y-14926860D01*
X46615487Y-14926863D01*
X46559529Y-15099089D01*
X46531200Y-15277948D01*
X46531200Y-15459051D01*
X46559529Y-15637910D01*
X46615487Y-15810136D01*
X46615488Y-15810139D01*
X46697706Y-15971497D01*
X46804141Y-16117994D01*
X46804145Y-16117999D01*
X46932200Y-16246054D01*
X46932205Y-16246058D01*
X47017959Y-16308361D01*
X47078706Y-16352496D01*
X47181756Y-16405003D01*
X47240060Y-16434711D01*
X47240063Y-16434712D01*
X47326176Y-16462691D01*
X47412291Y-16490671D01*
X47485339Y-16502240D01*
X47572378Y-16516027D01*
X47635513Y-16545956D01*
X47672444Y-16605268D01*
X47671446Y-16675131D01*
X47632836Y-16733363D01*
X47572378Y-16760973D01*
X47412289Y-16786329D01*
X47240063Y-16842287D01*
X47240060Y-16842288D01*
X47078702Y-16924506D01*
X46932205Y-17030941D01*
X46932200Y-17030945D01*
X46804145Y-17159000D01*
X46804141Y-17159005D01*
X46697706Y-17305502D01*
X46615488Y-17466860D01*
X46615487Y-17466863D01*
X46559529Y-17639089D01*
X46531200Y-17817948D01*
X46531200Y-17999051D01*
X46559529Y-18177910D01*
X46615487Y-18350136D01*
X46615488Y-18350139D01*
X46697706Y-18511497D01*
X46804141Y-18657994D01*
X46804145Y-18657999D01*
X46932200Y-18786054D01*
X46932205Y-18786058D01*
X47059987Y-18878896D01*
X47078706Y-18892496D01*
X47181746Y-18944998D01*
X47240060Y-18974711D01*
X47240063Y-18974712D01*
X47326176Y-19002691D01*
X47412291Y-19030671D01*
X47485339Y-19042240D01*
X47572378Y-19056027D01*
X47635513Y-19085956D01*
X47672444Y-19145268D01*
X47671446Y-19215131D01*
X47632836Y-19273363D01*
X47572378Y-19300973D01*
X47412289Y-19326329D01*
X47240063Y-19382287D01*
X47240060Y-19382288D01*
X47078702Y-19464506D01*
X46932205Y-19570941D01*
X46932200Y-19570945D01*
X46804145Y-19699000D01*
X46804141Y-19699005D01*
X46697706Y-19845502D01*
X46629025Y-19980295D01*
X46581050Y-20031091D01*
X46518540Y-20048000D01*
X24611839Y-20048000D01*
X24611823Y-20047999D01*
X24604227Y-20047999D01*
X24498773Y-20047999D01*
X24430866Y-20066195D01*
X24396912Y-20075293D01*
X24305584Y-20128022D01*
X22120426Y-22313181D01*
X22059103Y-22346666D01*
X22032745Y-22349500D01*
X20706898Y-22349500D01*
X20667853Y-22354188D01*
X20618438Y-22360122D01*
X20477656Y-22415639D01*
X20357077Y-22507077D01*
X20265639Y-22627656D01*
X20210122Y-22768438D01*
X20204386Y-22816211D01*
X20199500Y-22856898D01*
X20199500Y-24143102D01*
X20203889Y-24179653D01*
X20210122Y-24231561D01*
X20265639Y-24372343D01*
X20357077Y-24492922D01*
X20477656Y-24584360D01*
X20477657Y-24584360D01*
X20477658Y-24584361D01*
X20618436Y-24639877D01*
X20706898Y-24650500D01*
X20706903Y-24650500D01*
X22293097Y-24650500D01*
X22293102Y-24650500D01*
X22381564Y-24639877D01*
X22522342Y-24584361D01*
X22642922Y-24492922D01*
X22734361Y-24372342D01*
X22789877Y-24231564D01*
X22800500Y-24143102D01*
X22800500Y-22856898D01*
X22797929Y-22835493D01*
X22809478Y-22766589D01*
X22833360Y-22733031D01*
X24681073Y-20885319D01*
X24742396Y-20851834D01*
X24768754Y-20849000D01*
X32653153Y-20849000D01*
X32720192Y-20868685D01*
X32765947Y-20921489D01*
X32775891Y-20990647D01*
X32753472Y-21045885D01*
X32680003Y-21147006D01*
X32597788Y-21308360D01*
X32597787Y-21308363D01*
X32541829Y-21480589D01*
X32513500Y-21659448D01*
X32513500Y-21840551D01*
X32541829Y-22019410D01*
X32597787Y-22191636D01*
X32597788Y-22191639D01*
X32621923Y-22239005D01*
X32673530Y-22340289D01*
X32680006Y-22352997D01*
X32786441Y-22499494D01*
X32786445Y-22499499D01*
X32914500Y-22627554D01*
X32914505Y-22627558D01*
X33037514Y-22716928D01*
X33061006Y-22733996D01*
X33166484Y-22787740D01*
X33222360Y-22816211D01*
X33222363Y-22816212D01*
X33349649Y-22857569D01*
X33407324Y-22897006D01*
X33434523Y-22961364D01*
X33422609Y-23030211D01*
X33375365Y-23081687D01*
X33311331Y-23099500D01*
X33020898Y-23099500D01*
X32981853Y-23104188D01*
X32932438Y-23110122D01*
X32791656Y-23165639D01*
X32671077Y-23257077D01*
X32579639Y-23377656D01*
X32524122Y-23518438D01*
X32518188Y-23567853D01*
X32513500Y-23606898D01*
X32513500Y-24893102D01*
X32516713Y-24919858D01*
X32524122Y-24981561D01*
X32579639Y-25122343D01*
X32671077Y-25242922D01*
X32791656Y-25334360D01*
X32791657Y-25334360D01*
X32791658Y-25334361D01*
X32932436Y-25389877D01*
X33020898Y-25400500D01*
X33020903Y-25400500D01*
X34557097Y-25400500D01*
X34557102Y-25400500D01*
X34645564Y-25389877D01*
X34786342Y-25334361D01*
X34906922Y-25242922D01*
X34998361Y-25122342D01*
X35053877Y-24981564D01*
X35064500Y-24893102D01*
X35064500Y-23606898D01*
X35053877Y-23518436D01*
X34998361Y-23377658D01*
X34998360Y-23377657D01*
X34998360Y-23377656D01*
X34906922Y-23257077D01*
X34786343Y-23165639D01*
X34645561Y-23110122D01*
X34599926Y-23104642D01*
X34557102Y-23099500D01*
X34266669Y-23099500D01*
X34199630Y-23079815D01*
X34153875Y-23027011D01*
X34143931Y-22957853D01*
X34172956Y-22894297D01*
X34228351Y-22857569D01*
X34355636Y-22816212D01*
X34355639Y-22816211D01*
X34516994Y-22733996D01*
X34663501Y-22627553D01*
X34791553Y-22499501D01*
X34897996Y-22352994D01*
X34980211Y-22191639D01*
X35036171Y-22019409D01*
X35057566Y-21884326D01*
X35064500Y-21840551D01*
X35064500Y-21659448D01*
X35041575Y-21514711D01*
X35036171Y-21480591D01*
X34994131Y-21351202D01*
X34980212Y-21308363D01*
X34980211Y-21308360D01*
X34897996Y-21147006D01*
X34824528Y-21045885D01*
X34801049Y-20980078D01*
X34816875Y-20912024D01*
X34866981Y-20863330D01*
X34924847Y-20849000D01*
X46518540Y-20849000D01*
X46585579Y-20868685D01*
X46629025Y-20916705D01*
X46661340Y-20980127D01*
X46697706Y-21051497D01*
X46804141Y-21197994D01*
X46804145Y-21197999D01*
X46932200Y-21326054D01*
X46932205Y-21326058D01*
X47059987Y-21418896D01*
X47078706Y-21432496D01*
X47173093Y-21480589D01*
X47240060Y-21514711D01*
X47240063Y-21514712D01*
X47326176Y-21542691D01*
X47412291Y-21570671D01*
X47485339Y-21582240D01*
X47572378Y-21596027D01*
X47635513Y-21625956D01*
X47672444Y-21685268D01*
X47671446Y-21755131D01*
X47632836Y-21813363D01*
X47572378Y-21840973D01*
X47412289Y-21866329D01*
X47240063Y-21922287D01*
X47240060Y-21922288D01*
X47078702Y-22004506D01*
X46932205Y-22110941D01*
X46932200Y-22110945D01*
X46804145Y-22239000D01*
X46804141Y-22239005D01*
X46697706Y-22385502D01*
X46615488Y-22546860D01*
X46615487Y-22546863D01*
X46559529Y-22719089D01*
X46531200Y-22897948D01*
X46531200Y-23079051D01*
X46559529Y-23257910D01*
X46615487Y-23430136D01*
X46615488Y-23430139D01*
X46697706Y-23591497D01*
X46804141Y-23737994D01*
X46804145Y-23737999D01*
X46827965Y-23761819D01*
X46861450Y-23823142D01*
X46856466Y-23892834D01*
X46814594Y-23948767D01*
X46749130Y-23973184D01*
X46740284Y-23973500D01*
X36790073Y-23973500D01*
X36688210Y-24000793D01*
X36596887Y-24053520D01*
X36596884Y-24053522D01*
X28837226Y-31813181D01*
X28775903Y-31846666D01*
X28749545Y-31849500D01*
X22924500Y-31849500D01*
X22857461Y-31829815D01*
X22811706Y-31777011D01*
X22800500Y-31725500D01*
X22800500Y-31606903D01*
X22800500Y-31606898D01*
X22789877Y-31518436D01*
X22734361Y-31377658D01*
X22734360Y-31377657D01*
X22734360Y-31377656D01*
X22642922Y-31257077D01*
X22522343Y-31165639D01*
X22381561Y-31110122D01*
X22335926Y-31104642D01*
X22293102Y-31099500D01*
X20706898Y-31099500D01*
X20667853Y-31104188D01*
X20618438Y-31110122D01*
X20477656Y-31165639D01*
X20357077Y-31257077D01*
X20265639Y-31377656D01*
X20210122Y-31518438D01*
X20204188Y-31567853D01*
X20199500Y-31606898D01*
X20199500Y-32893102D01*
X20204412Y-32934006D01*
X20210122Y-32981561D01*
X20265639Y-33122343D01*
X20357077Y-33242922D01*
X20477656Y-33334360D01*
X20477657Y-33334360D01*
X20477658Y-33334361D01*
X20618436Y-33389877D01*
X20706898Y-33400500D01*
X20706903Y-33400500D01*
X22293097Y-33400500D01*
X22293102Y-33400500D01*
X22381564Y-33389877D01*
X22522342Y-33334361D01*
X22642922Y-33242922D01*
X22734361Y-33122342D01*
X22789877Y-32981564D01*
X22800500Y-32893102D01*
X22800500Y-32774500D01*
X22820185Y-32707461D01*
X22872989Y-32661706D01*
X22924500Y-32650500D01*
X29019525Y-32650500D01*
X29019527Y-32650500D01*
X29121388Y-32623207D01*
X29212713Y-32570480D01*
X29530320Y-32252872D01*
X29591639Y-32219390D01*
X29661330Y-32224374D01*
X29717264Y-32266245D01*
X29732554Y-32293093D01*
X29733221Y-32294704D01*
X29733228Y-32294717D01*
X29809885Y-32409441D01*
X29809888Y-32409445D01*
X29907454Y-32507011D01*
X29907458Y-32507014D01*
X30022182Y-32583671D01*
X30022195Y-32583678D01*
X30117628Y-32623207D01*
X30149672Y-32636480D01*
X30149676Y-32636480D01*
X30149677Y-32636481D01*
X30285004Y-32663400D01*
X30285007Y-32663400D01*
X30422995Y-32663400D01*
X30514041Y-32645289D01*
X30558328Y-32636480D01*
X30685811Y-32583675D01*
X30800542Y-32507014D01*
X30898114Y-32409442D01*
X30974775Y-32294711D01*
X31027580Y-32167228D01*
X31038274Y-32113466D01*
X31054500Y-32031895D01*
X31054500Y-31893908D01*
X31054410Y-31892995D01*
X31054500Y-31892520D01*
X31054500Y-31887815D01*
X31055392Y-31887815D01*
X31067429Y-31824348D01*
X31090129Y-31793163D01*
X31446474Y-31436819D01*
X31507797Y-31403334D01*
X31534155Y-31400500D01*
X32525840Y-31400500D01*
X32592879Y-31420185D01*
X32636325Y-31468205D01*
X32697269Y-31587814D01*
X32705006Y-31602997D01*
X32811441Y-31749494D01*
X32811445Y-31749499D01*
X32939500Y-31877554D01*
X32939505Y-31877558D01*
X33037736Y-31948926D01*
X33086006Y-31983996D01*
X33191484Y-32037740D01*
X33247360Y-32066211D01*
X33247363Y-32066212D01*
X33333476Y-32094191D01*
X33419591Y-32122171D01*
X33444291Y-32126083D01*
X33453406Y-32127527D01*
X33516540Y-32157457D01*
X33553471Y-32216768D01*
X33552473Y-32286631D01*
X33513863Y-32344863D01*
X33453406Y-32372473D01*
X33419589Y-32377829D01*
X33247363Y-32433787D01*
X33247360Y-32433788D01*
X33086002Y-32516006D01*
X32939505Y-32622441D01*
X32939500Y-32622445D01*
X32811445Y-32750500D01*
X32811441Y-32750505D01*
X32705006Y-32897002D01*
X32622788Y-33058360D01*
X32622787Y-33058363D01*
X32566829Y-33230589D01*
X32538500Y-33409448D01*
X32538500Y-33590551D01*
X32566829Y-33769410D01*
X32622787Y-33941636D01*
X32622788Y-33941639D01*
X32654016Y-34002926D01*
X32696656Y-34086611D01*
X32705006Y-34102997D01*
X32811441Y-34249494D01*
X32811445Y-34249499D01*
X32939500Y-34377554D01*
X32939505Y-34377558D01*
X33021072Y-34436819D01*
X33086006Y-34483996D01*
X33156503Y-34519916D01*
X33247360Y-34566211D01*
X33247363Y-34566212D01*
X33279914Y-34576788D01*
X33419591Y-34622171D01*
X33444291Y-34626083D01*
X33453406Y-34627527D01*
X33516540Y-34657457D01*
X33553471Y-34716768D01*
X33552473Y-34786631D01*
X33513863Y-34844863D01*
X33453406Y-34872473D01*
X33419589Y-34877829D01*
X33247363Y-34933787D01*
X33247360Y-34933788D01*
X33086002Y-35016006D01*
X32939505Y-35122441D01*
X32939500Y-35122445D01*
X32811445Y-35250500D01*
X32811441Y-35250505D01*
X32705006Y-35397002D01*
X32636325Y-35531795D01*
X32588350Y-35582591D01*
X32525840Y-35599500D01*
X32331973Y-35599500D01*
X32230113Y-35626793D01*
X32230110Y-35626794D01*
X32158243Y-35668287D01*
X32138790Y-35679518D01*
X32138784Y-35679522D01*
X30337938Y-37480367D01*
X30276615Y-37513852D01*
X30243285Y-37515789D01*
X30243285Y-37516000D01*
X30239663Y-37516000D01*
X30238115Y-37516090D01*
X30237200Y-37516000D01*
X30237193Y-37516000D01*
X30099207Y-37516000D01*
X30099205Y-37516000D01*
X29963877Y-37542918D01*
X29963867Y-37542921D01*
X29836395Y-37595721D01*
X29836382Y-37595728D01*
X29721658Y-37672385D01*
X29721654Y-37672388D01*
X29624088Y-37769954D01*
X29624085Y-37769958D01*
X29547428Y-37884682D01*
X29547421Y-37884695D01*
X29494621Y-38012167D01*
X29494618Y-38012177D01*
X29467700Y-38147504D01*
X29467700Y-38147507D01*
X29467700Y-38285493D01*
X29467700Y-38285495D01*
X29467699Y-38285495D01*
X29494618Y-38420822D01*
X29494621Y-38420832D01*
X29547421Y-38548304D01*
X29547428Y-38548317D01*
X29624085Y-38663041D01*
X29624088Y-38663045D01*
X29721654Y-38760611D01*
X29721658Y-38760614D01*
X29836382Y-38837271D01*
X29836395Y-38837278D01*
X29963867Y-38890078D01*
X29963872Y-38890080D01*
X29963876Y-38890080D01*
X29963877Y-38890081D01*
X30099204Y-38917000D01*
X30099207Y-38917000D01*
X30237195Y-38917000D01*
X30328241Y-38898889D01*
X30372528Y-38890080D01*
X30500011Y-38837275D01*
X30614742Y-38760614D01*
X30712314Y-38663042D01*
X30788975Y-38548311D01*
X30841780Y-38420828D01*
X30868700Y-38285493D01*
X30868700Y-38147507D01*
X30868699Y-38147506D01*
X30868610Y-38146595D01*
X30868700Y-38146120D01*
X30868700Y-38141415D01*
X30869592Y-38141415D01*
X30881629Y-38077948D01*
X30904329Y-38046762D01*
X32463853Y-36487239D01*
X32525174Y-36453756D01*
X32594866Y-36458740D01*
X32650799Y-36500612D01*
X32662017Y-36518627D01*
X32705006Y-36602998D01*
X32811441Y-36749494D01*
X32811445Y-36749499D01*
X32939500Y-36877554D01*
X32939505Y-36877558D01*
X33037660Y-36948871D01*
X33086006Y-36983996D01*
X33158063Y-37020711D01*
X33247360Y-37066211D01*
X33247363Y-37066212D01*
X33333476Y-37094191D01*
X33419591Y-37122171D01*
X33444291Y-37126083D01*
X33453406Y-37127527D01*
X33516540Y-37157457D01*
X33553471Y-37216768D01*
X33552473Y-37286631D01*
X33513863Y-37344863D01*
X33453406Y-37372473D01*
X33419589Y-37377829D01*
X33247363Y-37433787D01*
X33247360Y-37433788D01*
X33086002Y-37516006D01*
X32939505Y-37622441D01*
X32939500Y-37622445D01*
X32811445Y-37750500D01*
X32811441Y-37750505D01*
X32705006Y-37897002D01*
X32622788Y-38058360D01*
X32622787Y-38058363D01*
X32566829Y-38230589D01*
X32538500Y-38409448D01*
X32538500Y-38590551D01*
X32566829Y-38769410D01*
X32622787Y-38941636D01*
X32622788Y-38941639D01*
X32705006Y-39102997D01*
X32793729Y-39225115D01*
X32817209Y-39290921D01*
X32801383Y-39358975D01*
X32751278Y-39407670D01*
X32693411Y-39422000D01*
X22624773Y-39422000D01*
X22522912Y-39449293D01*
X22513908Y-39454491D01*
X22511494Y-39455886D01*
X22471540Y-39478953D01*
X22431588Y-39502019D01*
X22431585Y-39502021D01*
X22120426Y-39813181D01*
X22059103Y-39846666D01*
X22032745Y-39849500D01*
X20706898Y-39849500D01*
X20667853Y-39854188D01*
X20618438Y-39860122D01*
X20477656Y-39915639D01*
X20357077Y-40007077D01*
X20265639Y-40127656D01*
X20210122Y-40268438D01*
X20207975Y-40286320D01*
X20199500Y-40356898D01*
X20199500Y-41643102D01*
X20205126Y-41689954D01*
X20210122Y-41731561D01*
X20265639Y-41872343D01*
X20357077Y-41992922D01*
X20477656Y-42084360D01*
X20477657Y-42084360D01*
X20477658Y-42084361D01*
X20618436Y-42139877D01*
X20706898Y-42150500D01*
X20706903Y-42150500D01*
X22293097Y-42150500D01*
X22293102Y-42150500D01*
X22381564Y-42139877D01*
X22522342Y-42084361D01*
X22642922Y-41992922D01*
X22734361Y-41872342D01*
X22789877Y-41731564D01*
X22800500Y-41643102D01*
X22800500Y-40356898D01*
X22800499Y-40356894D01*
X22800351Y-40354416D01*
X22800500Y-40353767D01*
X22800500Y-40353192D01*
X22800632Y-40353192D01*
X22815991Y-40286320D01*
X22865964Y-40237488D01*
X22924129Y-40223000D01*
X32414871Y-40223000D01*
X32481910Y-40242685D01*
X32527665Y-40295489D01*
X32538421Y-40353192D01*
X32538500Y-40353192D01*
X32538500Y-40353616D01*
X32538649Y-40354416D01*
X32538500Y-40356894D01*
X32538500Y-40356898D01*
X32538500Y-41643102D01*
X32544126Y-41689954D01*
X32549122Y-41731561D01*
X32604639Y-41872343D01*
X32696077Y-41992922D01*
X32816656Y-42084360D01*
X32816657Y-42084360D01*
X32816658Y-42084361D01*
X32957436Y-42139877D01*
X33045898Y-42150500D01*
X33045903Y-42150500D01*
X34582097Y-42150500D01*
X34582102Y-42150500D01*
X34670564Y-42139877D01*
X34811342Y-42084361D01*
X34931922Y-41992922D01*
X35023361Y-41872342D01*
X35078877Y-41731564D01*
X35089500Y-41643102D01*
X35089500Y-40356898D01*
X35089499Y-40356894D01*
X35089351Y-40354416D01*
X35089500Y-40353767D01*
X35089500Y-40353192D01*
X35089632Y-40353192D01*
X35104991Y-40286320D01*
X35154964Y-40237488D01*
X35213129Y-40223000D01*
X50921645Y-40223000D01*
X50988684Y-40242685D01*
X51009326Y-40259319D01*
X54724667Y-43974659D01*
X54758152Y-44035982D01*
X54760091Y-44069315D01*
X54760300Y-44069315D01*
X54760300Y-44072912D01*
X54760391Y-44074477D01*
X54760300Y-44075402D01*
X54760300Y-44075407D01*
X54760300Y-44213393D01*
X54760300Y-44213395D01*
X54760299Y-44213395D01*
X54787218Y-44348722D01*
X54787221Y-44348732D01*
X54840021Y-44476204D01*
X54840028Y-44476217D01*
X54916685Y-44590941D01*
X54916688Y-44590945D01*
X55014254Y-44688511D01*
X55014258Y-44688514D01*
X55128982Y-44765171D01*
X55128995Y-44765178D01*
X55256467Y-44817978D01*
X55256472Y-44817980D01*
X55256476Y-44817980D01*
X55256477Y-44817981D01*
X55391804Y-44844900D01*
X55391807Y-44844900D01*
X55529795Y-44844900D01*
X55620841Y-44826789D01*
X55665128Y-44817980D01*
X55792611Y-44765175D01*
X55907342Y-44688514D01*
X56004914Y-44590942D01*
X56081575Y-44476211D01*
X56134380Y-44348728D01*
X56161300Y-44213393D01*
X56161300Y-44077931D01*
X56180985Y-44010892D01*
X56233789Y-43965137D01*
X56302947Y-43955193D01*
X56358183Y-43977612D01*
X56418033Y-44021095D01*
X56484007Y-44069029D01*
X56484011Y-44069031D01*
X56484012Y-44069032D01*
X56542595Y-44098881D01*
X56593390Y-44146853D01*
X56610300Y-44209365D01*
X56610300Y-47928216D01*
X56590615Y-47995255D01*
X56542596Y-48038700D01*
X56503214Y-48058766D01*
X56433142Y-48109677D01*
X56363072Y-48160586D01*
X56363070Y-48160588D01*
X56363069Y-48160588D01*
X56240588Y-48283069D01*
X56240588Y-48283070D01*
X56240586Y-48283072D01*
X56196859Y-48343256D01*
X56138768Y-48423211D01*
X56060128Y-48577552D01*
X56006597Y-48742302D01*
X55987029Y-48865854D01*
X55979500Y-48913389D01*
X55979500Y-49086611D01*
X55985132Y-49122171D01*
X56006597Y-49257697D01*
X56006597Y-49257699D01*
X56006598Y-49257701D01*
X56060127Y-49422445D01*
X56138768Y-49576788D01*
X56240586Y-49716928D01*
X56363072Y-49839414D01*
X56503212Y-49941232D01*
X56657555Y-50019873D01*
X56792208Y-50063624D01*
X56849883Y-50103062D01*
X56877081Y-50167420D01*
X56865166Y-50236267D01*
X56841570Y-50269236D01*
X55816626Y-51294181D01*
X55755303Y-51327666D01*
X55728945Y-51330500D01*
X46387447Y-51330500D01*
X46320408Y-51310815D01*
X46295472Y-51288614D01*
X46295322Y-51288765D01*
X46292735Y-51286178D01*
X46291587Y-51285156D01*
X46291010Y-51284453D01*
X46193445Y-51186888D01*
X46193441Y-51186885D01*
X46078717Y-51110228D01*
X46078704Y-51110221D01*
X45951232Y-51057421D01*
X45951222Y-51057418D01*
X45815895Y-51030500D01*
X45815893Y-51030500D01*
X45755254Y-51030500D01*
X45688215Y-51010815D01*
X45642460Y-50958011D01*
X45632516Y-50888853D01*
X45661541Y-50825297D01*
X45667573Y-50818819D01*
X45993470Y-50492922D01*
X46420401Y-50065990D01*
X46481722Y-50032507D01*
X46546393Y-50035741D01*
X46662299Y-50073402D01*
X46833389Y-50100500D01*
X46833390Y-50100500D01*
X47006610Y-50100500D01*
X47006611Y-50100500D01*
X47177701Y-50073402D01*
X47342445Y-50019873D01*
X47496788Y-49941232D01*
X47636928Y-49839414D01*
X47759414Y-49716928D01*
X47861232Y-49576788D01*
X47939873Y-49422445D01*
X47993402Y-49257701D01*
X48020500Y-49086611D01*
X48020500Y-48913389D01*
X47993402Y-48742299D01*
X47939873Y-48577555D01*
X47861232Y-48423212D01*
X47759414Y-48283072D01*
X47636928Y-48160586D01*
X47496788Y-48058768D01*
X47342445Y-47980127D01*
X47177701Y-47926598D01*
X47177699Y-47926597D01*
X47177698Y-47926597D01*
X47046271Y-47905781D01*
X47006611Y-47899500D01*
X46833389Y-47899500D01*
X46793728Y-47905781D01*
X46662302Y-47926597D01*
X46497552Y-47980128D01*
X46343211Y-48058768D01*
X46263256Y-48116859D01*
X46203072Y-48160586D01*
X46203070Y-48160588D01*
X46203069Y-48160588D01*
X46080588Y-48283069D01*
X46080588Y-48283070D01*
X46080586Y-48283072D01*
X46036859Y-48343256D01*
X45978768Y-48423211D01*
X45900128Y-48577552D01*
X45846597Y-48742302D01*
X45819500Y-48913389D01*
X45819500Y-49086610D01*
X45846597Y-49257698D01*
X45884256Y-49373600D01*
X45886251Y-49443441D01*
X45854006Y-49499599D01*
X39714087Y-55639520D01*
X38333226Y-57020381D01*
X38271903Y-57053866D01*
X38245545Y-57056700D01*
X36766533Y-57056700D01*
X36699494Y-57037015D01*
X36653739Y-56984211D01*
X36643795Y-56915053D01*
X36666214Y-56859815D01*
X36682605Y-56837253D01*
X36716796Y-56790194D01*
X36799011Y-56628839D01*
X36854971Y-56456609D01*
X36871935Y-56349500D01*
X36883300Y-56277751D01*
X36883300Y-56096648D01*
X36861656Y-55960000D01*
X36854971Y-55917791D01*
X36799011Y-55745561D01*
X36799011Y-55745560D01*
X36744980Y-55639520D01*
X36716796Y-55584206D01*
X36703196Y-55565487D01*
X36610358Y-55437705D01*
X36610354Y-55437700D01*
X36482299Y-55309645D01*
X36482294Y-55309641D01*
X36335797Y-55203206D01*
X36335796Y-55203205D01*
X36335794Y-55203204D01*
X36274761Y-55172106D01*
X36174439Y-55120988D01*
X36174436Y-55120987D01*
X36002210Y-55065029D01*
X35842121Y-55039673D01*
X35778986Y-55009744D01*
X35742055Y-54950432D01*
X35743053Y-54880570D01*
X35781663Y-54822337D01*
X35842121Y-54794727D01*
X35912225Y-54783622D01*
X36002209Y-54769371D01*
X36174439Y-54713411D01*
X36335794Y-54631196D01*
X36482301Y-54524753D01*
X36610353Y-54396701D01*
X36716796Y-54250194D01*
X36799011Y-54088839D01*
X36854971Y-53916609D01*
X36879619Y-53760988D01*
X36883300Y-53737751D01*
X36883300Y-53556648D01*
X36866819Y-53452597D01*
X36854971Y-53377791D01*
X36799011Y-53205561D01*
X36799011Y-53205560D01*
X36716796Y-53044206D01*
X36666214Y-52974585D01*
X36642735Y-52908778D01*
X36658561Y-52840724D01*
X36708667Y-52792030D01*
X36766533Y-52777700D01*
X38022725Y-52777700D01*
X38022727Y-52777700D01*
X38124588Y-52750407D01*
X38215913Y-52697680D01*
X44110874Y-46802719D01*
X44172197Y-46769234D01*
X44198555Y-46766400D01*
X54295353Y-46766400D01*
X54362392Y-46786085D01*
X54387327Y-46808285D01*
X54387478Y-46808135D01*
X54390064Y-46810721D01*
X54391213Y-46811744D01*
X54391789Y-46812446D01*
X54489354Y-46910011D01*
X54489358Y-46910014D01*
X54604082Y-46986671D01*
X54604095Y-46986678D01*
X54722550Y-47035743D01*
X54731572Y-47039480D01*
X54731576Y-47039480D01*
X54731577Y-47039481D01*
X54866904Y-47066400D01*
X54866907Y-47066400D01*
X55004895Y-47066400D01*
X55095941Y-47048289D01*
X55140228Y-47039480D01*
X55267711Y-46986675D01*
X55382442Y-46910014D01*
X55480014Y-46812442D01*
X55556675Y-46697711D01*
X55609480Y-46570228D01*
X55626633Y-46483996D01*
X55636400Y-46434895D01*
X55636400Y-46296904D01*
X55609481Y-46161577D01*
X55609480Y-46161576D01*
X55609480Y-46161572D01*
X55585218Y-46102997D01*
X55556678Y-46034095D01*
X55556671Y-46034082D01*
X55480014Y-45919358D01*
X55480011Y-45919354D01*
X55382445Y-45821788D01*
X55382441Y-45821785D01*
X55267717Y-45745128D01*
X55267704Y-45745121D01*
X55140232Y-45692321D01*
X55140222Y-45692318D01*
X55004895Y-45665400D01*
X55004893Y-45665400D01*
X54866907Y-45665400D01*
X54866905Y-45665400D01*
X54731577Y-45692318D01*
X54731567Y-45692321D01*
X54604095Y-45745121D01*
X54604082Y-45745128D01*
X54489358Y-45821785D01*
X54489354Y-45821788D01*
X54391789Y-45919353D01*
X54391213Y-45920056D01*
X54390817Y-45920325D01*
X54387478Y-45923665D01*
X54386844Y-45923031D01*
X54333471Y-45959396D01*
X54295353Y-45965400D01*
X43928573Y-45965400D01*
X43826710Y-45992693D01*
X43735387Y-46045420D01*
X43735384Y-46045422D01*
X37840426Y-51940381D01*
X37779103Y-51973866D01*
X37752745Y-51976700D01*
X36766533Y-51976700D01*
X36699494Y-51957015D01*
X36653739Y-51904211D01*
X36643795Y-51835053D01*
X36666214Y-51779815D01*
X36702037Y-51730508D01*
X36716796Y-51710194D01*
X36799011Y-51548839D01*
X36854971Y-51376609D01*
X36877944Y-51231564D01*
X36883300Y-51197751D01*
X36883300Y-51016648D01*
X36863058Y-50888853D01*
X36854971Y-50837791D01*
X36799011Y-50665561D01*
X36799011Y-50665560D01*
X36757637Y-50584360D01*
X36716796Y-50504206D01*
X36707545Y-50491474D01*
X36607490Y-50353757D01*
X36608391Y-50353102D01*
X36581983Y-50294183D01*
X36592413Y-50225096D01*
X36638538Y-50172616D01*
X36704842Y-50153400D01*
X37526125Y-50153400D01*
X37526127Y-50153400D01*
X37627988Y-50126107D01*
X37719313Y-50073380D01*
X45912874Y-41879819D01*
X45974197Y-41846334D01*
X46000555Y-41843500D01*
X46509273Y-41843500D01*
X46576312Y-41863185D01*
X46622067Y-41915989D01*
X46632011Y-41985147D01*
X46602986Y-42048703D01*
X46547591Y-42085430D01*
X46508301Y-42098197D01*
X46478352Y-42107928D01*
X46324011Y-42186568D01*
X46244056Y-42244659D01*
X46183872Y-42288386D01*
X46183870Y-42288388D01*
X46183869Y-42288388D01*
X46061388Y-42410869D01*
X46061388Y-42410870D01*
X46061386Y-42410872D01*
X46017659Y-42471056D01*
X45959568Y-42551011D01*
X45880928Y-42705352D01*
X45827397Y-42870102D01*
X45825582Y-42881564D01*
X45800300Y-43041189D01*
X45800300Y-43214411D01*
X45827398Y-43385501D01*
X45880927Y-43550245D01*
X45959568Y-43704588D01*
X46061386Y-43844728D01*
X46183872Y-43967214D01*
X46324012Y-44069032D01*
X46478355Y-44147673D01*
X46643099Y-44201202D01*
X46814189Y-44228300D01*
X46814190Y-44228300D01*
X46987410Y-44228300D01*
X46987411Y-44228300D01*
X47158501Y-44201202D01*
X47323245Y-44147673D01*
X47477588Y-44069032D01*
X47617728Y-43967214D01*
X47740214Y-43844728D01*
X47842032Y-43704588D01*
X47920673Y-43550245D01*
X47974202Y-43385501D01*
X48001300Y-43214411D01*
X48001300Y-43041189D01*
X47974202Y-42870099D01*
X47920673Y-42705355D01*
X47842032Y-42551012D01*
X47740214Y-42410872D01*
X47681099Y-42351757D01*
X47647614Y-42290434D01*
X47652598Y-42220742D01*
X47694470Y-42164809D01*
X47759934Y-42140392D01*
X47792973Y-42142459D01*
X47798206Y-42143500D01*
X47798207Y-42143500D01*
X47936195Y-42143500D01*
X48027241Y-42125389D01*
X48071528Y-42116580D01*
X48199011Y-42063775D01*
X48313742Y-41987114D01*
X48411314Y-41889542D01*
X48487975Y-41774811D01*
X48540780Y-41647328D01*
X48567700Y-41511993D01*
X48567700Y-41374007D01*
X48567700Y-41374004D01*
X48540781Y-41238677D01*
X48540780Y-41238676D01*
X48540780Y-41238672D01*
X48527619Y-41206898D01*
X48487978Y-41111195D01*
X48487971Y-41111182D01*
X48411314Y-40996458D01*
X48411311Y-40996454D01*
X48313745Y-40898888D01*
X48313741Y-40898885D01*
X48199017Y-40822228D01*
X48199004Y-40822221D01*
X48071532Y-40769421D01*
X48071522Y-40769418D01*
X47936195Y-40742500D01*
X47936193Y-40742500D01*
X47798207Y-40742500D01*
X47798205Y-40742500D01*
X47662877Y-40769418D01*
X47662867Y-40769421D01*
X47535395Y-40822221D01*
X47535382Y-40822228D01*
X47420658Y-40898885D01*
X47420654Y-40898888D01*
X47323089Y-40996453D01*
X47322513Y-40997156D01*
X47322117Y-40997425D01*
X47318778Y-41000765D01*
X47318144Y-41000131D01*
X47264771Y-41036496D01*
X47226653Y-41042500D01*
X45730573Y-41042500D01*
X45628710Y-41069793D01*
X45537387Y-41122520D01*
X45537384Y-41122522D01*
X37343826Y-49316081D01*
X37282503Y-49349566D01*
X37256145Y-49352400D01*
X37007300Y-49352400D01*
X36940261Y-49332715D01*
X36894506Y-49279911D01*
X36883300Y-49228400D01*
X36883299Y-47672343D01*
X36883299Y-47672337D01*
X36883299Y-47672336D01*
X36883297Y-47672317D01*
X36880386Y-47647212D01*
X36880385Y-47647210D01*
X36880385Y-47647209D01*
X36835006Y-47544435D01*
X36755565Y-47464994D01*
X36755563Y-47464993D01*
X36652792Y-47419615D01*
X36627665Y-47416700D01*
X34837943Y-47416700D01*
X34837917Y-47416702D01*
X34812812Y-47419613D01*
X34812808Y-47419615D01*
X34710035Y-47464993D01*
X34630594Y-47544434D01*
X34585215Y-47647206D01*
X34585215Y-47647208D01*
X34585215Y-47647209D01*
X34582300Y-47672335D01*
X34582300Y-48507078D01*
X34582301Y-49228400D01*
X34562616Y-49295439D01*
X34509813Y-49341194D01*
X34458301Y-49352400D01*
X22924500Y-49352400D01*
X22857461Y-49332715D01*
X22811706Y-49279911D01*
X22800500Y-49228400D01*
X22800500Y-48856903D01*
X22800500Y-48856898D01*
X22789877Y-48768436D01*
X22734361Y-48627658D01*
X22734360Y-48627657D01*
X22734360Y-48627656D01*
X22642922Y-48507077D01*
X22522343Y-48415639D01*
X22381561Y-48360122D01*
X22335926Y-48354642D01*
X22293102Y-48349500D01*
X20706898Y-48349500D01*
X20667853Y-48354188D01*
X20618438Y-48360122D01*
X20477656Y-48415639D01*
X20357077Y-48507077D01*
X20265639Y-48627656D01*
X20210122Y-48768438D01*
X20207525Y-48790071D01*
X20199500Y-48856898D01*
X20199500Y-50143102D01*
X20203044Y-50172616D01*
X20210122Y-50231561D01*
X20210122Y-50231563D01*
X20210123Y-50231564D01*
X20211978Y-50236267D01*
X20265639Y-50372343D01*
X20357077Y-50492922D01*
X20477656Y-50584360D01*
X20477657Y-50584360D01*
X20477658Y-50584361D01*
X20618436Y-50639877D01*
X20706898Y-50650500D01*
X20706903Y-50650500D01*
X22293097Y-50650500D01*
X22293102Y-50650500D01*
X22381564Y-50639877D01*
X22522342Y-50584361D01*
X22642922Y-50492922D01*
X22734361Y-50372342D01*
X22789741Y-50231908D01*
X22832646Y-50176766D01*
X22898554Y-50153573D01*
X22905095Y-50153400D01*
X34760758Y-50153400D01*
X34827797Y-50173085D01*
X34873552Y-50225889D01*
X34883496Y-50295047D01*
X34857224Y-50353113D01*
X34858110Y-50353757D01*
X34748806Y-50504202D01*
X34666588Y-50665560D01*
X34666587Y-50665563D01*
X34610629Y-50837789D01*
X34582300Y-51016648D01*
X34582300Y-51197751D01*
X34610629Y-51376610D01*
X34666587Y-51548836D01*
X34666588Y-51548839D01*
X34748803Y-51710193D01*
X34799386Y-51779815D01*
X34822865Y-51845622D01*
X34807039Y-51913676D01*
X34756933Y-51962370D01*
X34699067Y-51976700D01*
X27320073Y-51976700D01*
X27218213Y-52003993D01*
X27218210Y-52003994D01*
X27158767Y-52038314D01*
X27126890Y-52056718D01*
X27126884Y-52056722D01*
X22120426Y-57063181D01*
X22059103Y-57096666D01*
X22032745Y-57099500D01*
X20706898Y-57099500D01*
X20667853Y-57104188D01*
X20618438Y-57110122D01*
X20477656Y-57165639D01*
X20357077Y-57257077D01*
X20265639Y-57377656D01*
X20210122Y-57518438D01*
X20206363Y-57549744D01*
X20199500Y-57606898D01*
X20199500Y-58893102D01*
X20205126Y-58939954D01*
X20210122Y-58981561D01*
X20210122Y-58981563D01*
X20210123Y-58981564D01*
X20227722Y-59026192D01*
X20265639Y-59122343D01*
X20357077Y-59242922D01*
X20477656Y-59334360D01*
X20477657Y-59334360D01*
X20477658Y-59334361D01*
X20618436Y-59389877D01*
X20706898Y-59400500D01*
X20706903Y-59400500D01*
X22293097Y-59400500D01*
X22293102Y-59400500D01*
X22381564Y-59389877D01*
X22522342Y-59334361D01*
X22642922Y-59242922D01*
X22734361Y-59122342D01*
X22789877Y-58981564D01*
X22800500Y-58893102D01*
X22800500Y-57606898D01*
X22797929Y-57585493D01*
X22809478Y-57516589D01*
X22833360Y-57483031D01*
X27502374Y-52814019D01*
X27563697Y-52780534D01*
X27590055Y-52777700D01*
X32159067Y-52777700D01*
X32226106Y-52797385D01*
X32271861Y-52850189D01*
X32281805Y-52919347D01*
X32259386Y-52974585D01*
X32208803Y-53044206D01*
X32126588Y-53205560D01*
X32126587Y-53205563D01*
X32070629Y-53377789D01*
X32042300Y-53556648D01*
X32042300Y-53737751D01*
X32070629Y-53916610D01*
X32126587Y-54088836D01*
X32126588Y-54088839D01*
X32192454Y-54218105D01*
X32205350Y-54286774D01*
X32179074Y-54351514D01*
X32121968Y-54391772D01*
X32081969Y-54398400D01*
X30521200Y-54398400D01*
X30454161Y-54378715D01*
X30408406Y-54325911D01*
X30397200Y-54274400D01*
X30397200Y-54236104D01*
X30370281Y-54100777D01*
X30370280Y-54100776D01*
X30370280Y-54100772D01*
X30365336Y-54088836D01*
X30317478Y-53973295D01*
X30317471Y-53973282D01*
X30240814Y-53858558D01*
X30240811Y-53858554D01*
X30143245Y-53760988D01*
X30143241Y-53760985D01*
X30028517Y-53684328D01*
X30028504Y-53684321D01*
X29901032Y-53631521D01*
X29901022Y-53631518D01*
X29765695Y-53604600D01*
X29765693Y-53604600D01*
X29627707Y-53604600D01*
X29627705Y-53604600D01*
X29492377Y-53631518D01*
X29492367Y-53631521D01*
X29364895Y-53684321D01*
X29364882Y-53684328D01*
X29250158Y-53760985D01*
X29250154Y-53760988D01*
X29152588Y-53858554D01*
X29152585Y-53858558D01*
X29075928Y-53973282D01*
X29075921Y-53973295D01*
X29023121Y-54100767D01*
X29023118Y-54100777D01*
X28996200Y-54236104D01*
X28996200Y-54236107D01*
X28996200Y-54374093D01*
X28996200Y-54374095D01*
X28996199Y-54374095D01*
X29023118Y-54509422D01*
X29023121Y-54509432D01*
X29075921Y-54636904D01*
X29075928Y-54636917D01*
X29152585Y-54751641D01*
X29152588Y-54751645D01*
X29250154Y-54849211D01*
X29250158Y-54849214D01*
X29364882Y-54925871D01*
X29364895Y-54925878D01*
X29492367Y-54978678D01*
X29492372Y-54978680D01*
X29492376Y-54978680D01*
X29492377Y-54978681D01*
X29627704Y-55005600D01*
X29627707Y-55005600D01*
X29765694Y-55005600D01*
X29766597Y-55005511D01*
X29767066Y-55005600D01*
X29771785Y-55005600D01*
X29771785Y-55006494D01*
X29835244Y-55018526D01*
X29866438Y-55041231D01*
X29870019Y-55044812D01*
X29870020Y-55044813D01*
X29944587Y-55119380D01*
X30035913Y-55172107D01*
X30137773Y-55199401D01*
X30137775Y-55199401D01*
X30250823Y-55199401D01*
X30250839Y-55199400D01*
X32254184Y-55199400D01*
X32321223Y-55219085D01*
X32366978Y-55271889D01*
X32376922Y-55341047D01*
X32347897Y-55404603D01*
X32341865Y-55411081D01*
X32315245Y-55437700D01*
X32315241Y-55437705D01*
X32208806Y-55584202D01*
X32126588Y-55745560D01*
X32126587Y-55745563D01*
X32070629Y-55917789D01*
X32042300Y-56096648D01*
X32042300Y-56277751D01*
X32070629Y-56456610D01*
X32126587Y-56628836D01*
X32126588Y-56628839D01*
X32182464Y-56738500D01*
X32208803Y-56790193D01*
X32208806Y-56790197D01*
X32315241Y-56936694D01*
X32315245Y-56936699D01*
X32443300Y-57064754D01*
X32443305Y-57064758D01*
X32570373Y-57157077D01*
X32589806Y-57171196D01*
X32695284Y-57224940D01*
X32751160Y-57253411D01*
X32751163Y-57253412D01*
X32825784Y-57277657D01*
X32923391Y-57309371D01*
X32996439Y-57320940D01*
X33083478Y-57334727D01*
X33146613Y-57364656D01*
X33183544Y-57423968D01*
X33182546Y-57493831D01*
X33143936Y-57552063D01*
X33083478Y-57579673D01*
X32923389Y-57605029D01*
X32751163Y-57660987D01*
X32751160Y-57660988D01*
X32589802Y-57743206D01*
X32443305Y-57849641D01*
X32443300Y-57849645D01*
X32315245Y-57977700D01*
X32315241Y-57977705D01*
X32208806Y-58124202D01*
X32126588Y-58285560D01*
X32126587Y-58285563D01*
X32070629Y-58457789D01*
X32042300Y-58636648D01*
X32042300Y-58817751D01*
X32070629Y-58996610D01*
X32126587Y-59168836D01*
X32126588Y-59168839D01*
X32208806Y-59330197D01*
X32315241Y-59476694D01*
X32315245Y-59476699D01*
X32443300Y-59604754D01*
X32443305Y-59604758D01*
X32571087Y-59697596D01*
X32589806Y-59711196D01*
X32666942Y-59750499D01*
X32751160Y-59793411D01*
X32751163Y-59793412D01*
X32837276Y-59821391D01*
X32923391Y-59849371D01*
X32996439Y-59860940D01*
X33083478Y-59874727D01*
X33146613Y-59904656D01*
X33183544Y-59963968D01*
X33182546Y-60033831D01*
X33143936Y-60092063D01*
X33083478Y-60119673D01*
X32923389Y-60145029D01*
X32751161Y-60200988D01*
X32733799Y-60209835D01*
X32665130Y-60222731D01*
X32600389Y-60196454D01*
X32589824Y-60187031D01*
X30612532Y-58209739D01*
X30579047Y-58148416D01*
X30577111Y-58115085D01*
X30576900Y-58115085D01*
X30576900Y-58111449D01*
X30576810Y-58109900D01*
X30576898Y-58108999D01*
X30576900Y-58108993D01*
X30576900Y-57971007D01*
X30576900Y-57971004D01*
X30549981Y-57835677D01*
X30549980Y-57835676D01*
X30549980Y-57835672D01*
X30525958Y-57777677D01*
X30497178Y-57708195D01*
X30497171Y-57708182D01*
X30420514Y-57593458D01*
X30420511Y-57593454D01*
X30322945Y-57495888D01*
X30322941Y-57495885D01*
X30208217Y-57419228D01*
X30208204Y-57419221D01*
X30080732Y-57366421D01*
X30080722Y-57366418D01*
X29945395Y-57339500D01*
X29945393Y-57339500D01*
X29807407Y-57339500D01*
X29807405Y-57339500D01*
X29672077Y-57366418D01*
X29672067Y-57366421D01*
X29544595Y-57419221D01*
X29544582Y-57419228D01*
X29429858Y-57495885D01*
X29429854Y-57495888D01*
X29332288Y-57593454D01*
X29332285Y-57593458D01*
X29255628Y-57708182D01*
X29255621Y-57708195D01*
X29202821Y-57835667D01*
X29202818Y-57835677D01*
X29175900Y-57971004D01*
X29175900Y-57971007D01*
X29175900Y-58108993D01*
X29175900Y-58108995D01*
X29175899Y-58108995D01*
X29202818Y-58244322D01*
X29202821Y-58244332D01*
X29255621Y-58371804D01*
X29255628Y-58371817D01*
X29332285Y-58486541D01*
X29332288Y-58486545D01*
X29429854Y-58584111D01*
X29429858Y-58584114D01*
X29544582Y-58660771D01*
X29544595Y-58660778D01*
X29672067Y-58713578D01*
X29672072Y-58713580D01*
X29672076Y-58713580D01*
X29672077Y-58713581D01*
X29807404Y-58740500D01*
X29807407Y-58740500D01*
X29945387Y-58740500D01*
X29945393Y-58740500D01*
X29945398Y-58740498D01*
X29946300Y-58740410D01*
X29946775Y-58740500D01*
X29951485Y-58740500D01*
X29951485Y-58741393D01*
X30014947Y-58753427D01*
X30046139Y-58776132D01*
X32065250Y-60795243D01*
X32098735Y-60856566D01*
X32095500Y-60921241D01*
X32070629Y-60997787D01*
X32042300Y-61176648D01*
X32042300Y-61357751D01*
X32070629Y-61536610D01*
X32126587Y-61708836D01*
X32126588Y-61708839D01*
X32156955Y-61768436D01*
X32204721Y-61862181D01*
X32208806Y-61870197D01*
X32315241Y-62016694D01*
X32315245Y-62016699D01*
X32443300Y-62144754D01*
X32443305Y-62144758D01*
X32571087Y-62237596D01*
X32589806Y-62251196D01*
X32695284Y-62304940D01*
X32751160Y-62333411D01*
X32751163Y-62333412D01*
X32837276Y-62361391D01*
X32923391Y-62389371D01*
X32996439Y-62400940D01*
X33083478Y-62414727D01*
X33146613Y-62444656D01*
X33183544Y-62503968D01*
X33182546Y-62573831D01*
X33143936Y-62632063D01*
X33083478Y-62659673D01*
X32923389Y-62685029D01*
X32751163Y-62740987D01*
X32751160Y-62740988D01*
X32589802Y-62823206D01*
X32443305Y-62929641D01*
X32443300Y-62929645D01*
X32315245Y-63057700D01*
X32315241Y-63057705D01*
X32208806Y-63204202D01*
X32126588Y-63365560D01*
X32126587Y-63365563D01*
X32070629Y-63537789D01*
X32042300Y-63716648D01*
X32042300Y-63897751D01*
X32070629Y-64076610D01*
X32126587Y-64248836D01*
X32126588Y-64248839D01*
X32208806Y-64410197D01*
X32315241Y-64556694D01*
X32315245Y-64556699D01*
X32443300Y-64684754D01*
X32443305Y-64684758D01*
X32571087Y-64777596D01*
X32589806Y-64791196D01*
X32695284Y-64844940D01*
X32751160Y-64873411D01*
X32751163Y-64873412D01*
X32837276Y-64901391D01*
X32923391Y-64929371D01*
X33006229Y-64942491D01*
X33102249Y-64957700D01*
X33102254Y-64957700D01*
X33283351Y-64957700D01*
X33370059Y-64943965D01*
X33462209Y-64929371D01*
X33634439Y-64873411D01*
X33795794Y-64791196D01*
X33942301Y-64684753D01*
X34070353Y-64556701D01*
X34176796Y-64410194D01*
X34259011Y-64248839D01*
X34314971Y-64076609D01*
X34329565Y-63984459D01*
X34343300Y-63897751D01*
X34343300Y-63716648D01*
X34322347Y-63584360D01*
X34314971Y-63537791D01*
X34261215Y-63372343D01*
X34259012Y-63365563D01*
X34259011Y-63365560D01*
X34230540Y-63309684D01*
X34176796Y-63204206D01*
X34132397Y-63143096D01*
X34070358Y-63057705D01*
X34070354Y-63057700D01*
X33942299Y-62929645D01*
X33942294Y-62929641D01*
X33795797Y-62823206D01*
X33795796Y-62823205D01*
X33795794Y-62823204D01*
X33744100Y-62796864D01*
X33634439Y-62740988D01*
X33634436Y-62740987D01*
X33462210Y-62685029D01*
X33302121Y-62659673D01*
X33238986Y-62629744D01*
X33202055Y-62570432D01*
X33203053Y-62500570D01*
X33241663Y-62442337D01*
X33302121Y-62414727D01*
X33372225Y-62403622D01*
X33462209Y-62389371D01*
X33634439Y-62333411D01*
X33795794Y-62251196D01*
X33942301Y-62144753D01*
X34070353Y-62016701D01*
X34176796Y-61870194D01*
X34259011Y-61708839D01*
X34314971Y-61536609D01*
X34329565Y-61444459D01*
X34343300Y-61357751D01*
X34343300Y-61176648D01*
X34326819Y-61072597D01*
X34314971Y-60997791D01*
X34259011Y-60825561D01*
X34259011Y-60825560D01*
X34230400Y-60769409D01*
X34176796Y-60664206D01*
X34070878Y-60518421D01*
X34070358Y-60517705D01*
X34070354Y-60517700D01*
X33942299Y-60389645D01*
X33942294Y-60389641D01*
X33795797Y-60283206D01*
X33795796Y-60283205D01*
X33795794Y-60283204D01*
X33744100Y-60256864D01*
X33634439Y-60200988D01*
X33634436Y-60200987D01*
X33462210Y-60145029D01*
X33302121Y-60119673D01*
X33238986Y-60089744D01*
X33202055Y-60030432D01*
X33203053Y-59960570D01*
X33241663Y-59902337D01*
X33302121Y-59874727D01*
X33372225Y-59863622D01*
X33462209Y-59849371D01*
X33634439Y-59793411D01*
X33795794Y-59711196D01*
X33942301Y-59604753D01*
X34070353Y-59476701D01*
X34176796Y-59330194D01*
X34259011Y-59168839D01*
X34314971Y-58996609D01*
X34331366Y-58893096D01*
X34340327Y-58836521D01*
X34370256Y-58773386D01*
X34429568Y-58736455D01*
X34499430Y-58737453D01*
X34557663Y-58776063D01*
X34585273Y-58836521D01*
X34610629Y-58996610D01*
X34666587Y-59168836D01*
X34666588Y-59168839D01*
X34748806Y-59330197D01*
X34855241Y-59476694D01*
X34855245Y-59476699D01*
X34983300Y-59604754D01*
X34983305Y-59604758D01*
X35111087Y-59697596D01*
X35129806Y-59711196D01*
X35206942Y-59750499D01*
X35291160Y-59793411D01*
X35291163Y-59793412D01*
X35377276Y-59821391D01*
X35463391Y-59849371D01*
X35546229Y-59862491D01*
X35642249Y-59877700D01*
X35642254Y-59877700D01*
X35823351Y-59877700D01*
X35910059Y-59863965D01*
X36002209Y-59849371D01*
X36174439Y-59793411D01*
X36335794Y-59711196D01*
X36482301Y-59604753D01*
X36610353Y-59476701D01*
X36716796Y-59330194D01*
X36799011Y-59168839D01*
X36854971Y-58996609D01*
X36871366Y-58893096D01*
X36883300Y-58817751D01*
X36883300Y-58636648D01*
X36859525Y-58486545D01*
X36854971Y-58457791D01*
X36799011Y-58285561D01*
X36799011Y-58285560D01*
X36716796Y-58124206D01*
X36666214Y-58054585D01*
X36642735Y-57988778D01*
X36658561Y-57920724D01*
X36708667Y-57872030D01*
X36766533Y-57857700D01*
X38515525Y-57857700D01*
X38515527Y-57857700D01*
X38617388Y-57830407D01*
X38708713Y-57777680D01*
X39872318Y-56614072D01*
X39933641Y-56580588D01*
X40003332Y-56585572D01*
X40047680Y-56614073D01*
X55313181Y-71879574D01*
X55346666Y-71940897D01*
X55349500Y-71967255D01*
X55349500Y-73293102D01*
X55354744Y-73336773D01*
X55360122Y-73381561D01*
X55360122Y-73381563D01*
X55360123Y-73381564D01*
X55374194Y-73417246D01*
X55415639Y-73522343D01*
X55507077Y-73642922D01*
X55627656Y-73734360D01*
X55627657Y-73734360D01*
X55627658Y-73734361D01*
X55768436Y-73789877D01*
X55856898Y-73800500D01*
X55856903Y-73800500D01*
X57143097Y-73800500D01*
X57143102Y-73800500D01*
X57231564Y-73789877D01*
X57372342Y-73734361D01*
X57492922Y-73642922D01*
X57584361Y-73522342D01*
X57639877Y-73381564D01*
X57650500Y-73293102D01*
X57650500Y-71706898D01*
X57639877Y-71618436D01*
X57584361Y-71477658D01*
X57584360Y-71477657D01*
X57584360Y-71477656D01*
X57492922Y-71357077D01*
X57372343Y-71265639D01*
X57231561Y-71210122D01*
X57185926Y-71204642D01*
X57143102Y-71199500D01*
X55856898Y-71199500D01*
X55835487Y-71202070D01*
X55766579Y-71190516D01*
X55733028Y-71166635D01*
X44171524Y-59605131D01*
X49574500Y-59605131D01*
X49574500Y-61394856D01*
X49574502Y-61394882D01*
X49577413Y-61419987D01*
X49577415Y-61419991D01*
X49622793Y-61522764D01*
X49622794Y-61522765D01*
X49702235Y-61602206D01*
X49805009Y-61647585D01*
X49830135Y-61650500D01*
X50692059Y-61650499D01*
X50759098Y-61670183D01*
X50779740Y-61686818D01*
X62214707Y-73121786D01*
X62214711Y-73121789D01*
X62345814Y-73209390D01*
X62345818Y-73209392D01*
X62345821Y-73209394D01*
X62491503Y-73269738D01*
X62608935Y-73293096D01*
X62646153Y-73300499D01*
X62646157Y-73300500D01*
X62646158Y-73300500D01*
X70243761Y-73300500D01*
X70310800Y-73320185D01*
X70356555Y-73372989D01*
X70359115Y-73379010D01*
X70415637Y-73522339D01*
X70415638Y-73522341D01*
X70507077Y-73642922D01*
X70627656Y-73734360D01*
X70627657Y-73734360D01*
X70627658Y-73734361D01*
X70768436Y-73789877D01*
X70856898Y-73800500D01*
X71617060Y-73800500D01*
X71684099Y-73820185D01*
X71704741Y-73836819D01*
X72609770Y-74741847D01*
X72609791Y-74741870D01*
X72725607Y-74857686D01*
X72725611Y-74857689D01*
X72856714Y-74945290D01*
X72856727Y-74945297D01*
X73002398Y-75005635D01*
X73002403Y-75005637D01*
X73002407Y-75005637D01*
X73002408Y-75005638D01*
X73157054Y-75036400D01*
X73157057Y-75036400D01*
X92342944Y-75036400D01*
X92342945Y-75036399D01*
X92497597Y-75005637D01*
X92643279Y-74945294D01*
X92742927Y-74878711D01*
X104149500Y-74878711D01*
X104149500Y-75121288D01*
X104181161Y-75361785D01*
X104243947Y-75596104D01*
X104336773Y-75820205D01*
X104336776Y-75820212D01*
X104458064Y-76030289D01*
X104458066Y-76030292D01*
X104458067Y-76030293D01*
X104605733Y-76222736D01*
X104605739Y-76222743D01*
X104777256Y-76394260D01*
X104777262Y-76394265D01*
X104969711Y-76541936D01*
X105179788Y-76663224D01*
X105403900Y-76756054D01*
X105638211Y-76818838D01*
X105818586Y-76842584D01*
X105878711Y-76850500D01*
X105878712Y-76850500D01*
X106121289Y-76850500D01*
X106169388Y-76844167D01*
X106361789Y-76818838D01*
X106596100Y-76756054D01*
X106820212Y-76663224D01*
X107030289Y-76541936D01*
X107222738Y-76394265D01*
X107394265Y-76222738D01*
X107541936Y-76030289D01*
X107663224Y-75820212D01*
X107756054Y-75596100D01*
X107818838Y-75361789D01*
X107850500Y-75121288D01*
X107850500Y-74878712D01*
X107818838Y-74638211D01*
X107756054Y-74403900D01*
X107663224Y-74179788D01*
X107541936Y-73969711D01*
X107394265Y-73777262D01*
X107394260Y-73777256D01*
X107222743Y-73605739D01*
X107222736Y-73605733D01*
X107030293Y-73458067D01*
X107030292Y-73458066D01*
X107030289Y-73458064D01*
X106820212Y-73336776D01*
X106780158Y-73320185D01*
X106596104Y-73243947D01*
X106361785Y-73181161D01*
X106121289Y-73149500D01*
X106121288Y-73149500D01*
X105878712Y-73149500D01*
X105878711Y-73149500D01*
X105638214Y-73181161D01*
X105403895Y-73243947D01*
X105179794Y-73336773D01*
X105179785Y-73336777D01*
X104969706Y-73458067D01*
X104777263Y-73605733D01*
X104777256Y-73605739D01*
X104605739Y-73777256D01*
X104605733Y-73777263D01*
X104458067Y-73969706D01*
X104336777Y-74179785D01*
X104336773Y-74179794D01*
X104243947Y-74403895D01*
X104181161Y-74638214D01*
X104149500Y-74878711D01*
X92742927Y-74878711D01*
X92774389Y-74857689D01*
X92774392Y-74857686D01*
X92845107Y-74786972D01*
X93795258Y-73836819D01*
X93856581Y-73803334D01*
X93882939Y-73800500D01*
X94643097Y-73800500D01*
X94643102Y-73800500D01*
X94731564Y-73789877D01*
X94872342Y-73734361D01*
X94992922Y-73642922D01*
X95084361Y-73522342D01*
X95139877Y-73381564D01*
X95150500Y-73293102D01*
X95150500Y-71706898D01*
X95139877Y-71618436D01*
X95084361Y-71477658D01*
X95084360Y-71477657D01*
X95084360Y-71477656D01*
X94992922Y-71357077D01*
X94872343Y-71265639D01*
X94731561Y-71210122D01*
X94685926Y-71204642D01*
X94643102Y-71199500D01*
X93356898Y-71199500D01*
X93317853Y-71204188D01*
X93268438Y-71210122D01*
X93127656Y-71265639D01*
X93007077Y-71357077D01*
X92915639Y-71477656D01*
X92860122Y-71618438D01*
X92854750Y-71663181D01*
X92849500Y-71706898D01*
X92849500Y-71706903D01*
X92849500Y-72467060D01*
X92829815Y-72534099D01*
X92813181Y-72554741D01*
X91968841Y-73399081D01*
X91907518Y-73432566D01*
X91881160Y-73435400D01*
X84273193Y-73435400D01*
X84206154Y-73415715D01*
X84160399Y-73362911D01*
X84150078Y-73296613D01*
X84150500Y-73293102D01*
X84150500Y-71706898D01*
X84139877Y-71618436D01*
X84084361Y-71477658D01*
X84084360Y-71477657D01*
X84084360Y-71477656D01*
X83992922Y-71357077D01*
X83872343Y-71265639D01*
X83731561Y-71210122D01*
X83685926Y-71204642D01*
X83643102Y-71199500D01*
X82356898Y-71199500D01*
X82317853Y-71204188D01*
X82268438Y-71210122D01*
X82127656Y-71265639D01*
X82007077Y-71357077D01*
X81915639Y-71477656D01*
X81860122Y-71618438D01*
X81854750Y-71663181D01*
X81849500Y-71706898D01*
X81849500Y-73293102D01*
X81849921Y-73296613D01*
X81838373Y-73365520D01*
X81791403Y-73417246D01*
X81726807Y-73435400D01*
X73618839Y-73435400D01*
X73551800Y-73415715D01*
X73531158Y-73399081D01*
X72686819Y-72554741D01*
X72653334Y-72493418D01*
X72650500Y-72467060D01*
X72650500Y-71706903D01*
X72650500Y-71706898D01*
X72639877Y-71618436D01*
X72584361Y-71477658D01*
X72584360Y-71477657D01*
X72584360Y-71477656D01*
X72492922Y-71357077D01*
X72372343Y-71265639D01*
X72231561Y-71210122D01*
X72185926Y-71204642D01*
X72143102Y-71199500D01*
X70856898Y-71199500D01*
X70817853Y-71204188D01*
X70768438Y-71210122D01*
X70627656Y-71265639D01*
X70507077Y-71357077D01*
X70415638Y-71477658D01*
X70415637Y-71477660D01*
X70359115Y-71620990D01*
X70316209Y-71676134D01*
X70250302Y-71699327D01*
X70243761Y-71699500D01*
X63107940Y-71699500D01*
X63040901Y-71679815D01*
X63020259Y-71663181D01*
X53219259Y-61862181D01*
X53185774Y-61800858D01*
X53190758Y-61731166D01*
X53232630Y-61675233D01*
X53298094Y-61650816D01*
X53306940Y-61650500D01*
X53355551Y-61650500D01*
X53442259Y-61636765D01*
X53534409Y-61622171D01*
X53706639Y-61566211D01*
X53867994Y-61483996D01*
X54014501Y-61377553D01*
X54142553Y-61249501D01*
X54248996Y-61102994D01*
X54331211Y-60941639D01*
X54387171Y-60769409D01*
X54401765Y-60677259D01*
X54415500Y-60590551D01*
X54415500Y-60409448D01*
X54390361Y-60250735D01*
X54387171Y-60230591D01*
X54331211Y-60058361D01*
X54331211Y-60058360D01*
X54283115Y-59963968D01*
X54248996Y-59897006D01*
X54173731Y-59793412D01*
X54142558Y-59750505D01*
X54142554Y-59750500D01*
X54014499Y-59622445D01*
X54014494Y-59622441D01*
X53867997Y-59516006D01*
X53867996Y-59516005D01*
X53867994Y-59516004D01*
X53791906Y-59477235D01*
X53706639Y-59433788D01*
X53706636Y-59433787D01*
X53534410Y-59377829D01*
X53355551Y-59349500D01*
X53355546Y-59349500D01*
X53174454Y-59349500D01*
X53174449Y-59349500D01*
X52995589Y-59377829D01*
X52823363Y-59433787D01*
X52823360Y-59433788D01*
X52662002Y-59516006D01*
X52515505Y-59622441D01*
X52515500Y-59622445D01*
X52387445Y-59750500D01*
X52387441Y-59750505D01*
X52281006Y-59897002D01*
X52198788Y-60058360D01*
X52198787Y-60058363D01*
X52142829Y-60230589D01*
X52121972Y-60362273D01*
X52092043Y-60425408D01*
X52032731Y-60462339D01*
X51962868Y-60461341D01*
X51904636Y-60422731D01*
X51876522Y-60358767D01*
X51875499Y-60342875D01*
X51875499Y-59605143D01*
X51875499Y-59605136D01*
X51875455Y-59604753D01*
X51872586Y-59580012D01*
X51872585Y-59580010D01*
X51872585Y-59580009D01*
X51827206Y-59477235D01*
X51747765Y-59397794D01*
X51729835Y-59389877D01*
X51644992Y-59352415D01*
X51619865Y-59349500D01*
X49830143Y-59349500D01*
X49830117Y-59349502D01*
X49805012Y-59352413D01*
X49805008Y-59352415D01*
X49702235Y-59397793D01*
X49622794Y-59477234D01*
X49577415Y-59580006D01*
X49577415Y-59580008D01*
X49574500Y-59605131D01*
X44171524Y-59605131D01*
X40614073Y-56047680D01*
X40580588Y-55986357D01*
X40585572Y-55916665D01*
X40614069Y-55872323D01*
X41573003Y-54913389D01*
X48399500Y-54913389D01*
X48399500Y-55086610D01*
X48417966Y-55203204D01*
X48426598Y-55257701D01*
X48480127Y-55422445D01*
X48558768Y-55576788D01*
X48660586Y-55716928D01*
X48783072Y-55839414D01*
X48923212Y-55941232D01*
X49077555Y-56019873D01*
X49242299Y-56073402D01*
X49413389Y-56100500D01*
X49413390Y-56100500D01*
X49586610Y-56100500D01*
X49586611Y-56100500D01*
X49757701Y-56073402D01*
X49922445Y-56019873D01*
X50076788Y-55941232D01*
X50216928Y-55839414D01*
X50339414Y-55716928D01*
X50441232Y-55576788D01*
X50519873Y-55422445D01*
X50573402Y-55257701D01*
X50600500Y-55086611D01*
X50600500Y-54913389D01*
X50573402Y-54742299D01*
X50519873Y-54577555D01*
X50441232Y-54423212D01*
X50339414Y-54283072D01*
X50216928Y-54160586D01*
X50076788Y-54058768D01*
X49922445Y-53980127D01*
X49757701Y-53926598D01*
X49757699Y-53926597D01*
X49757698Y-53926597D01*
X49626271Y-53905781D01*
X49586611Y-53899500D01*
X49413389Y-53899500D01*
X49373728Y-53905781D01*
X49242302Y-53926597D01*
X49077552Y-53980128D01*
X48923211Y-54058768D01*
X48843256Y-54116859D01*
X48783072Y-54160586D01*
X48783070Y-54160588D01*
X48783069Y-54160588D01*
X48660588Y-54283069D01*
X48660588Y-54283070D01*
X48660586Y-54283072D01*
X48629462Y-54325911D01*
X48558768Y-54423211D01*
X48480128Y-54577552D01*
X48426597Y-54742302D01*
X48399500Y-54913389D01*
X41573003Y-54913389D01*
X44834719Y-51651672D01*
X44896042Y-51618188D01*
X44965734Y-51623172D01*
X45021667Y-51665044D01*
X45046084Y-51730508D01*
X45046400Y-51739354D01*
X45046400Y-51799993D01*
X45046400Y-51799995D01*
X45046399Y-51799995D01*
X45073318Y-51935322D01*
X45073321Y-51935332D01*
X45126121Y-52062804D01*
X45126128Y-52062817D01*
X45202785Y-52177541D01*
X45202788Y-52177545D01*
X45300354Y-52275111D01*
X45300358Y-52275114D01*
X45415082Y-52351771D01*
X45415095Y-52351778D01*
X45542567Y-52404578D01*
X45542572Y-52404580D01*
X45542576Y-52404580D01*
X45542577Y-52404581D01*
X45677904Y-52431500D01*
X45677907Y-52431500D01*
X45815895Y-52431500D01*
X45906941Y-52413389D01*
X45951228Y-52404580D01*
X46078711Y-52351775D01*
X46193442Y-52275114D01*
X46291014Y-52177542D01*
X46291017Y-52177537D01*
X46291587Y-52176844D01*
X46291982Y-52176574D01*
X46295322Y-52173235D01*
X46295955Y-52173868D01*
X46349329Y-52137504D01*
X46387447Y-52131500D01*
X55998925Y-52131500D01*
X55998927Y-52131500D01*
X56100788Y-52104207D01*
X56192113Y-52051480D01*
X56330204Y-51913389D01*
X69819500Y-51913389D01*
X69819500Y-52086610D01*
X69833902Y-52177545D01*
X69846598Y-52257701D01*
X69900127Y-52422445D01*
X69978768Y-52576788D01*
X70080586Y-52716928D01*
X70203072Y-52839414D01*
X70343212Y-52941232D01*
X70497555Y-53019873D01*
X70662299Y-53073402D01*
X70833389Y-53100500D01*
X70833390Y-53100500D01*
X71006610Y-53100500D01*
X71006611Y-53100500D01*
X71177701Y-53073402D01*
X71342445Y-53019873D01*
X71496788Y-52941232D01*
X71636928Y-52839414D01*
X71759414Y-52716928D01*
X71861232Y-52576788D01*
X71939873Y-52422445D01*
X71993402Y-52257701D01*
X72020500Y-52086611D01*
X72020500Y-51913389D01*
X71993402Y-51742299D01*
X71939873Y-51577555D01*
X71861232Y-51423212D01*
X71759414Y-51283072D01*
X71636928Y-51160586D01*
X71496788Y-51058768D01*
X71342445Y-50980127D01*
X71177701Y-50926598D01*
X71177699Y-50926597D01*
X71177698Y-50926597D01*
X71046271Y-50905781D01*
X71006611Y-50899500D01*
X70833389Y-50899500D01*
X70793728Y-50905781D01*
X70662302Y-50926597D01*
X70497552Y-50980128D01*
X70343211Y-51058768D01*
X70272393Y-51110221D01*
X70203072Y-51160586D01*
X70203070Y-51160588D01*
X70203069Y-51160588D01*
X70080588Y-51283069D01*
X70080588Y-51283070D01*
X70080586Y-51283072D01*
X70036859Y-51343256D01*
X69978768Y-51423211D01*
X69900128Y-51577552D01*
X69846597Y-51742302D01*
X69819500Y-51913389D01*
X56330204Y-51913389D01*
X64571603Y-43671987D01*
X64571608Y-43671984D01*
X64581811Y-43661780D01*
X64581813Y-43661780D01*
X64656380Y-43587213D01*
X64709107Y-43495887D01*
X64723037Y-43443900D01*
X64736401Y-43394026D01*
X64736401Y-43288573D01*
X64736401Y-43280978D01*
X64736400Y-43280960D01*
X64736400Y-40985147D01*
X64756085Y-40918108D01*
X64778285Y-40893172D01*
X64778135Y-40893022D01*
X64780721Y-40890435D01*
X64781744Y-40889287D01*
X64782437Y-40888717D01*
X64782442Y-40888714D01*
X64880014Y-40791142D01*
X64927584Y-40719947D01*
X64981194Y-40675145D01*
X65050519Y-40666437D01*
X65113547Y-40696591D01*
X65118366Y-40701159D01*
X69869603Y-45452396D01*
X69903088Y-45513719D01*
X69899853Y-45578394D01*
X69846598Y-45742297D01*
X69846597Y-45742301D01*
X69830266Y-45845413D01*
X69819500Y-45913389D01*
X69819500Y-46086611D01*
X69846598Y-46257701D01*
X69885542Y-46377558D01*
X69900128Y-46422447D01*
X69906471Y-46434895D01*
X69978768Y-46576788D01*
X70080586Y-46716928D01*
X70203072Y-46839414D01*
X70343212Y-46941232D01*
X70497555Y-47019873D01*
X70662299Y-47073402D01*
X70833389Y-47100500D01*
X70833390Y-47100500D01*
X71006610Y-47100500D01*
X71006611Y-47100500D01*
X71177701Y-47073402D01*
X71293602Y-47035742D01*
X71363442Y-47033748D01*
X71419600Y-47065993D01*
X87095179Y-62741571D01*
X87095189Y-62741582D01*
X87174088Y-62820481D01*
X87219750Y-62846843D01*
X87219752Y-62846845D01*
X87254421Y-62866861D01*
X87265412Y-62873207D01*
X87367273Y-62900500D01*
X104075500Y-62900500D01*
X104142539Y-62920185D01*
X104188294Y-62972989D01*
X104199500Y-63024500D01*
X104199500Y-63143102D01*
X104205126Y-63189954D01*
X104210122Y-63231561D01*
X104265639Y-63372343D01*
X104357077Y-63492922D01*
X104477656Y-63584360D01*
X104477657Y-63584360D01*
X104477658Y-63584361D01*
X104618436Y-63639877D01*
X104706898Y-63650500D01*
X104706903Y-63650500D01*
X106243097Y-63650500D01*
X106243102Y-63650500D01*
X106331564Y-63639877D01*
X106472342Y-63584361D01*
X106592922Y-63492922D01*
X106684361Y-63372342D01*
X106739877Y-63231564D01*
X106750500Y-63143102D01*
X106750500Y-61856898D01*
X106739877Y-61768436D01*
X106684361Y-61627658D01*
X106684360Y-61627657D01*
X106684360Y-61627656D01*
X106592922Y-61507077D01*
X106472343Y-61415639D01*
X106331561Y-61360122D01*
X106285926Y-61354642D01*
X106243102Y-61349500D01*
X104706898Y-61349500D01*
X104667853Y-61354188D01*
X104618438Y-61360122D01*
X104477656Y-61415639D01*
X104357077Y-61507077D01*
X104265639Y-61627656D01*
X104210122Y-61768438D01*
X104204188Y-61817853D01*
X104199500Y-61856898D01*
X104199500Y-61856903D01*
X104199500Y-61975500D01*
X104179815Y-62042539D01*
X104127011Y-62088294D01*
X104075500Y-62099500D01*
X87637254Y-62099500D01*
X87570215Y-62079815D01*
X87549573Y-62063181D01*
X83077268Y-57590876D01*
X82993292Y-57506900D01*
X87175500Y-57506900D01*
X87175500Y-59493091D01*
X87186123Y-59581562D01*
X87241639Y-59722342D01*
X87241640Y-59722344D01*
X87333077Y-59842922D01*
X87404398Y-59897006D01*
X87453658Y-59934361D01*
X87594436Y-59989876D01*
X87682901Y-60000500D01*
X89669098Y-60000499D01*
X89757564Y-59989876D01*
X89898342Y-59934361D01*
X90018922Y-59842922D01*
X90110361Y-59722342D01*
X90165876Y-59581564D01*
X90176500Y-59493099D01*
X90176499Y-57506902D01*
X90165876Y-57418436D01*
X90162332Y-57409448D01*
X104199500Y-57409448D01*
X104199500Y-57590551D01*
X104227829Y-57769410D01*
X104283787Y-57941636D01*
X104283788Y-57941639D01*
X104366006Y-58102997D01*
X104472441Y-58249494D01*
X104472445Y-58249499D01*
X104600500Y-58377554D01*
X104600505Y-58377558D01*
X104710935Y-58457789D01*
X104747006Y-58483996D01*
X104852484Y-58537740D01*
X104908360Y-58566211D01*
X104908363Y-58566212D01*
X104994476Y-58594191D01*
X105080591Y-58622171D01*
X105163429Y-58635291D01*
X105259449Y-58650500D01*
X105259454Y-58650500D01*
X105690551Y-58650500D01*
X105778004Y-58636648D01*
X105869409Y-58622171D01*
X106041639Y-58566211D01*
X106202994Y-58483996D01*
X106349501Y-58377553D01*
X106477553Y-58249501D01*
X106583996Y-58102994D01*
X106666211Y-57941639D01*
X106722171Y-57769409D01*
X106740290Y-57655010D01*
X106750500Y-57590551D01*
X106750500Y-57409448D01*
X106734019Y-57305397D01*
X106722171Y-57230591D01*
X106668576Y-57065639D01*
X106666212Y-57058363D01*
X106666211Y-57058360D01*
X106607663Y-56943455D01*
X106583996Y-56897006D01*
X106556975Y-56859815D01*
X106477558Y-56750505D01*
X106477554Y-56750500D01*
X106349499Y-56622445D01*
X106349494Y-56622441D01*
X106202997Y-56516006D01*
X106202996Y-56516005D01*
X106202994Y-56516004D01*
X106151300Y-56489664D01*
X106041639Y-56433788D01*
X106041636Y-56433787D01*
X105869410Y-56377829D01*
X105690551Y-56349500D01*
X105690546Y-56349500D01*
X105259454Y-56349500D01*
X105259449Y-56349500D01*
X105080589Y-56377829D01*
X104908363Y-56433787D01*
X104908360Y-56433788D01*
X104747002Y-56516006D01*
X104600505Y-56622441D01*
X104600500Y-56622445D01*
X104472445Y-56750500D01*
X104472441Y-56750505D01*
X104366006Y-56897002D01*
X104283788Y-57058360D01*
X104283787Y-57058363D01*
X104227829Y-57230589D01*
X104199500Y-57409448D01*
X90162332Y-57409448D01*
X90110361Y-57277658D01*
X90110359Y-57277655D01*
X90018922Y-57157077D01*
X89898344Y-57065640D01*
X89898342Y-57065639D01*
X89757564Y-57010124D01*
X89757561Y-57010123D01*
X89669099Y-56999500D01*
X87682908Y-56999500D01*
X87594437Y-57010123D01*
X87453657Y-57065639D01*
X87453655Y-57065640D01*
X87333077Y-57157077D01*
X87241640Y-57277655D01*
X87241639Y-57277658D01*
X87189669Y-57409448D01*
X87186124Y-57418437D01*
X87186123Y-57418438D01*
X87175500Y-57506900D01*
X82993292Y-57506900D01*
X79743145Y-54256753D01*
X71985993Y-46499600D01*
X71952508Y-46438277D01*
X71955742Y-46373603D01*
X71993402Y-46257701D01*
X72020500Y-46086611D01*
X72020500Y-45913389D01*
X71993402Y-45742299D01*
X71939873Y-45577555D01*
X71861232Y-45423212D01*
X71759414Y-45283072D01*
X71636928Y-45160586D01*
X71496788Y-45058768D01*
X71342445Y-44980127D01*
X71177701Y-44926598D01*
X71177699Y-44926597D01*
X71177698Y-44926597D01*
X71046271Y-44905781D01*
X71006611Y-44899500D01*
X70833389Y-44899500D01*
X70809996Y-44903204D01*
X70662299Y-44926597D01*
X70594398Y-44948659D01*
X70524557Y-44950653D01*
X70468401Y-44918408D01*
X63296219Y-37746226D01*
X63262734Y-37684903D01*
X63259900Y-37658545D01*
X63259900Y-37133505D01*
X63279585Y-37066466D01*
X63332389Y-37020711D01*
X63401547Y-37010767D01*
X63408082Y-37011886D01*
X63441029Y-37018439D01*
X63492105Y-37028600D01*
X63492107Y-37028600D01*
X63630095Y-37028600D01*
X63721141Y-37010489D01*
X63765428Y-37001680D01*
X63892911Y-36948875D01*
X64007642Y-36872214D01*
X64105214Y-36774642D01*
X64181875Y-36659911D01*
X64234680Y-36532428D01*
X64252740Y-36441636D01*
X64261600Y-36397095D01*
X64261600Y-36338200D01*
X64281285Y-36271161D01*
X64334089Y-36225406D01*
X64385600Y-36214200D01*
X64469295Y-36214200D01*
X64560341Y-36196089D01*
X64604628Y-36187280D01*
X64732111Y-36134475D01*
X64846842Y-36057814D01*
X64944414Y-35960242D01*
X65021075Y-35845511D01*
X65073880Y-35718028D01*
X65100800Y-35582693D01*
X65100800Y-35444707D01*
X65100800Y-35444704D01*
X65073881Y-35309377D01*
X65073880Y-35309376D01*
X65073880Y-35309372D01*
X65049494Y-35250499D01*
X65021078Y-35181895D01*
X65021071Y-35181882D01*
X64944414Y-35067158D01*
X64944411Y-35067154D01*
X64846846Y-34969589D01*
X64846133Y-34969004D01*
X64845859Y-34968602D01*
X64842535Y-34965278D01*
X64843165Y-34964647D01*
X64806800Y-34911257D01*
X64800800Y-34873152D01*
X64800800Y-30764375D01*
X64800800Y-30764373D01*
X64778064Y-30679520D01*
X64773507Y-30662512D01*
X64720780Y-30571187D01*
X63743306Y-29593713D01*
X63709821Y-29532390D01*
X63709370Y-29481839D01*
X63722200Y-29417343D01*
X63722200Y-29259655D01*
X63722199Y-29259653D01*
X63691438Y-29105010D01*
X63691437Y-29105003D01*
X63689572Y-29100500D01*
X63631097Y-28959327D01*
X63631090Y-28959314D01*
X63543489Y-28828211D01*
X63543486Y-28828207D01*
X63506460Y-28791181D01*
X63472975Y-28729858D01*
X63477959Y-28660166D01*
X63506460Y-28615819D01*
X63543486Y-28578792D01*
X63543489Y-28578789D01*
X63580025Y-28524110D01*
X63633637Y-28479304D01*
X63683127Y-28469000D01*
X64771245Y-28469000D01*
X64838284Y-28488685D01*
X64858926Y-28505319D01*
X67361604Y-31007997D01*
X69854006Y-33500398D01*
X69887491Y-33561721D01*
X69884256Y-33626396D01*
X69846598Y-33742297D01*
X69846597Y-33742301D01*
X69819500Y-33913389D01*
X69819500Y-34086611D01*
X69846598Y-34257701D01*
X69900127Y-34422445D01*
X69978768Y-34576788D01*
X70080586Y-34716928D01*
X70203072Y-34839414D01*
X70343212Y-34941232D01*
X70497555Y-35019873D01*
X70662299Y-35073402D01*
X70833389Y-35100500D01*
X70833390Y-35100500D01*
X71006610Y-35100500D01*
X71006611Y-35100500D01*
X71177701Y-35073402D01*
X71342445Y-35019873D01*
X71479007Y-34950291D01*
X71547674Y-34937396D01*
X71612415Y-34963672D01*
X71652672Y-35020779D01*
X71659300Y-35060777D01*
X71659300Y-38642944D01*
X71639615Y-38709983D01*
X71622981Y-38730625D01*
X71419599Y-38934006D01*
X71358276Y-38967491D01*
X71293600Y-38964256D01*
X71177698Y-38926597D01*
X71046271Y-38905781D01*
X71006611Y-38899500D01*
X70833389Y-38899500D01*
X70793728Y-38905781D01*
X70662302Y-38926597D01*
X70497552Y-38980128D01*
X70343211Y-39058768D01*
X70263256Y-39116859D01*
X70203072Y-39160586D01*
X70203070Y-39160588D01*
X70203069Y-39160588D01*
X70080588Y-39283069D01*
X70080588Y-39283070D01*
X70080586Y-39283072D01*
X70036859Y-39343256D01*
X69978768Y-39423211D01*
X69900128Y-39577552D01*
X69846597Y-39742302D01*
X69819500Y-39913389D01*
X69819500Y-40086610D01*
X69844219Y-40242685D01*
X69846598Y-40257701D01*
X69900127Y-40422445D01*
X69978768Y-40576788D01*
X70080586Y-40716928D01*
X70203072Y-40839414D01*
X70343212Y-40941232D01*
X70497555Y-41019873D01*
X70662299Y-41073402D01*
X70833389Y-41100500D01*
X70833390Y-41100500D01*
X71006610Y-41100500D01*
X71006611Y-41100500D01*
X71177701Y-41073402D01*
X71342445Y-41019873D01*
X71496788Y-40941232D01*
X71636928Y-40839414D01*
X71759414Y-40716928D01*
X71861232Y-40576788D01*
X71939873Y-40422445D01*
X71993402Y-40257701D01*
X72020500Y-40086611D01*
X72020500Y-39913389D01*
X71993402Y-39742299D01*
X71955741Y-39626394D01*
X71953747Y-39556557D01*
X71985989Y-39500402D01*
X72295503Y-39190887D01*
X72295508Y-39190884D01*
X72305711Y-39180680D01*
X72305713Y-39180680D01*
X72380280Y-39106113D01*
X72433007Y-39014787D01*
X72460301Y-38912927D01*
X72460301Y-38807473D01*
X72460301Y-38799878D01*
X72460300Y-38799860D01*
X72460300Y-33913389D01*
X79979500Y-33913389D01*
X79979500Y-34086611D01*
X80006598Y-34257701D01*
X80060127Y-34422445D01*
X80138768Y-34576788D01*
X80240586Y-34716928D01*
X80363072Y-34839414D01*
X80503212Y-34941232D01*
X80657555Y-35019873D01*
X80822299Y-35073402D01*
X80993389Y-35100500D01*
X80993390Y-35100500D01*
X81166610Y-35100500D01*
X81166611Y-35100500D01*
X81337701Y-35073402D01*
X81502445Y-35019873D01*
X81656788Y-34941232D01*
X81796928Y-34839414D01*
X81919414Y-34716928D01*
X82021232Y-34576788D01*
X82047136Y-34525948D01*
X82076557Y-34468206D01*
X82124531Y-34417409D01*
X82187042Y-34400500D01*
X94456045Y-34400500D01*
X94523084Y-34420185D01*
X94543726Y-34436819D01*
X104589744Y-44482838D01*
X104623229Y-44544161D01*
X104618245Y-44613853D01*
X104589745Y-44658199D01*
X104497445Y-44750500D01*
X104497441Y-44750505D01*
X104391006Y-44897002D01*
X104322325Y-45031795D01*
X104274350Y-45082591D01*
X104211840Y-45099500D01*
X86797254Y-45099500D01*
X86730215Y-45079815D01*
X86709573Y-45063181D01*
X82937266Y-41290873D01*
X82853291Y-41206898D01*
X87199500Y-41206898D01*
X87199500Y-42793102D01*
X87205126Y-42839954D01*
X87210122Y-42881561D01*
X87265639Y-43022343D01*
X87357077Y-43142922D01*
X87477656Y-43234360D01*
X87477657Y-43234360D01*
X87477658Y-43234361D01*
X87618436Y-43289877D01*
X87706898Y-43300500D01*
X87706903Y-43300500D01*
X89293097Y-43300500D01*
X89293102Y-43300500D01*
X89381564Y-43289877D01*
X89522342Y-43234361D01*
X89642922Y-43142922D01*
X89734361Y-43022342D01*
X89789877Y-42881564D01*
X89800500Y-42793102D01*
X89800500Y-41206898D01*
X89789877Y-41118436D01*
X89734361Y-40977658D01*
X89734360Y-40977657D01*
X89734360Y-40977656D01*
X89642922Y-40857077D01*
X89522343Y-40765639D01*
X89398825Y-40716930D01*
X89381564Y-40710123D01*
X89381563Y-40710122D01*
X89381561Y-40710122D01*
X89335926Y-40704642D01*
X89293102Y-40699500D01*
X87706898Y-40699500D01*
X87667853Y-40704188D01*
X87618438Y-40710122D01*
X87477656Y-40765639D01*
X87357077Y-40857077D01*
X87265639Y-40977656D01*
X87210122Y-41118438D01*
X87209632Y-41122522D01*
X87199500Y-41206898D01*
X82853291Y-41206898D01*
X82145993Y-40499600D01*
X82112508Y-40438277D01*
X82115742Y-40373603D01*
X82153402Y-40257701D01*
X82180500Y-40086611D01*
X82180500Y-39913389D01*
X82153402Y-39742299D01*
X82099873Y-39577555D01*
X82021232Y-39423212D01*
X81919414Y-39283072D01*
X81796928Y-39160586D01*
X81656788Y-39058768D01*
X81502445Y-38980127D01*
X81337701Y-38926598D01*
X81337699Y-38926597D01*
X81337698Y-38926597D01*
X81206271Y-38905781D01*
X81166611Y-38899500D01*
X80993389Y-38899500D01*
X80953728Y-38905781D01*
X80822302Y-38926597D01*
X80657552Y-38980128D01*
X80503211Y-39058768D01*
X80423256Y-39116859D01*
X80363072Y-39160586D01*
X80363070Y-39160588D01*
X80363069Y-39160588D01*
X80240588Y-39283069D01*
X80240588Y-39283070D01*
X80240586Y-39283072D01*
X80196859Y-39343256D01*
X80138768Y-39423211D01*
X80060128Y-39577552D01*
X80006597Y-39742302D01*
X79979500Y-39913389D01*
X79979500Y-40086610D01*
X80004219Y-40242685D01*
X80006598Y-40257701D01*
X80060127Y-40422445D01*
X80138768Y-40576788D01*
X80240586Y-40716928D01*
X80363072Y-40839414D01*
X80503212Y-40941232D01*
X80657555Y-41019873D01*
X80822299Y-41073402D01*
X80993389Y-41100500D01*
X80993390Y-41100500D01*
X81166610Y-41100500D01*
X81166611Y-41100500D01*
X81337701Y-41073402D01*
X81453602Y-41035742D01*
X81523442Y-41033748D01*
X81579600Y-41065993D01*
X86255179Y-45741571D01*
X86255189Y-45741582D01*
X86334088Y-45820481D01*
X86344883Y-45826713D01*
X86377271Y-45845412D01*
X86377272Y-45845413D01*
X86425407Y-45873204D01*
X86425410Y-45873206D01*
X86425412Y-45873206D01*
X86425413Y-45873207D01*
X86527273Y-45900501D01*
X86527275Y-45900501D01*
X86640323Y-45900501D01*
X86640339Y-45900500D01*
X104211840Y-45900500D01*
X104278879Y-45920185D01*
X104322325Y-45968205D01*
X104382656Y-46086611D01*
X104391006Y-46102997D01*
X104497441Y-46249494D01*
X104497445Y-46249499D01*
X104625500Y-46377554D01*
X104625505Y-46377558D01*
X104704421Y-46434893D01*
X104772006Y-46483996D01*
X104877484Y-46537740D01*
X104933360Y-46566211D01*
X104933363Y-46566212D01*
X104965914Y-46576788D01*
X105105591Y-46622171D01*
X105130291Y-46626083D01*
X105139406Y-46627527D01*
X105202540Y-46657457D01*
X105239471Y-46716768D01*
X105238473Y-46786631D01*
X105199863Y-46844863D01*
X105139406Y-46872473D01*
X105105589Y-46877829D01*
X104933363Y-46933787D01*
X104933360Y-46933788D01*
X104772002Y-47016006D01*
X104625505Y-47122441D01*
X104625500Y-47122445D01*
X104497445Y-47250500D01*
X104497441Y-47250505D01*
X104391006Y-47397002D01*
X104308788Y-47558360D01*
X104308787Y-47558363D01*
X104252829Y-47730589D01*
X104224500Y-47909448D01*
X104224500Y-48090551D01*
X104252829Y-48269410D01*
X104308787Y-48441636D01*
X104308788Y-48441639D01*
X104391006Y-48602997D01*
X104497441Y-48749494D01*
X104497445Y-48749499D01*
X104625500Y-48877554D01*
X104625505Y-48877558D01*
X104674823Y-48913389D01*
X104772006Y-48983996D01*
X104877484Y-49037740D01*
X104933360Y-49066211D01*
X104933363Y-49066212D01*
X105060649Y-49107569D01*
X105118324Y-49147006D01*
X105145523Y-49211364D01*
X105133609Y-49280211D01*
X105086365Y-49331687D01*
X105022331Y-49349500D01*
X104731898Y-49349500D01*
X104692853Y-49354188D01*
X104643438Y-49360122D01*
X104502656Y-49415639D01*
X104382077Y-49507077D01*
X104290639Y-49627656D01*
X104235122Y-49768438D01*
X104229188Y-49817853D01*
X104224500Y-49856898D01*
X104224500Y-51143102D01*
X104226600Y-51160586D01*
X104235122Y-51231561D01*
X104290639Y-51372343D01*
X104382077Y-51492922D01*
X104502656Y-51584360D01*
X104502657Y-51584360D01*
X104502658Y-51584361D01*
X104643436Y-51639877D01*
X104731898Y-51650500D01*
X104731903Y-51650500D01*
X106268097Y-51650500D01*
X106268102Y-51650500D01*
X106356564Y-51639877D01*
X106497342Y-51584361D01*
X106617922Y-51492922D01*
X106709361Y-51372342D01*
X106764877Y-51231564D01*
X106775500Y-51143102D01*
X106775500Y-49856898D01*
X106775500Y-49856895D01*
X106775279Y-49853204D01*
X106776403Y-49853136D01*
X106787141Y-49788942D01*
X106811040Y-49755350D01*
X107022403Y-49543988D01*
X107022408Y-49543984D01*
X107032611Y-49533780D01*
X107032613Y-49533780D01*
X107107180Y-49459213D01*
X107159907Y-49367887D01*
X107168200Y-49336937D01*
X107187201Y-49266027D01*
X107187201Y-49160573D01*
X107187201Y-49152978D01*
X107187200Y-49152960D01*
X107187200Y-44976775D01*
X107187200Y-44976773D01*
X107159907Y-44874913D01*
X107107180Y-44783587D01*
X107032613Y-44709020D01*
X106253113Y-43929520D01*
X106207450Y-43903156D01*
X106161789Y-43876793D01*
X106110857Y-43863146D01*
X106059927Y-43849500D01*
X106059926Y-43849500D01*
X105140555Y-43849500D01*
X105073516Y-43829815D01*
X105052874Y-43813181D01*
X94919215Y-33679522D01*
X94919213Y-33679520D01*
X94873550Y-33653156D01*
X94827889Y-33626793D01*
X94776957Y-33613146D01*
X94726027Y-33599500D01*
X94726026Y-33599500D01*
X82187042Y-33599500D01*
X82120003Y-33579815D01*
X82076557Y-33531794D01*
X82021233Y-33423213D01*
X81999944Y-33393912D01*
X81919414Y-33283072D01*
X81796928Y-33160586D01*
X81656788Y-33058768D01*
X81502445Y-32980127D01*
X81337701Y-32926598D01*
X81337699Y-32926597D01*
X81337698Y-32926597D01*
X81206271Y-32905781D01*
X81166611Y-32899500D01*
X80993389Y-32899500D01*
X80953728Y-32905781D01*
X80822302Y-32926597D01*
X80657552Y-32980128D01*
X80503211Y-33058768D01*
X80423256Y-33116859D01*
X80363072Y-33160586D01*
X80363070Y-33160588D01*
X80363069Y-33160588D01*
X80240588Y-33283069D01*
X80240588Y-33283070D01*
X80240586Y-33283072D01*
X80226407Y-33302588D01*
X80138768Y-33423211D01*
X80060128Y-33577552D01*
X80006597Y-33742302D01*
X79979500Y-33913389D01*
X72460300Y-33913389D01*
X72460300Y-33495775D01*
X72460299Y-33495771D01*
X72449811Y-33456627D01*
X72440858Y-33423213D01*
X72433007Y-33393912D01*
X72406643Y-33348250D01*
X72380280Y-33302587D01*
X72305713Y-33228020D01*
X72305712Y-33228019D01*
X72301382Y-33223689D01*
X72301371Y-33223679D01*
X70658177Y-31580485D01*
X70624692Y-31519162D01*
X70629676Y-31449470D01*
X70671548Y-31393537D01*
X70737012Y-31369120D01*
X70777951Y-31373029D01*
X70778609Y-31373205D01*
X70778612Y-31373207D01*
X70880473Y-31400500D01*
X70985927Y-31400500D01*
X72934343Y-31400500D01*
X73001382Y-31420185D01*
X73037446Y-31455610D01*
X73060587Y-31490244D01*
X73158154Y-31587811D01*
X73158158Y-31587814D01*
X73272882Y-31664471D01*
X73272895Y-31664478D01*
X73400367Y-31717278D01*
X73400372Y-31717280D01*
X73400376Y-31717280D01*
X73400377Y-31717281D01*
X73535704Y-31744200D01*
X73535707Y-31744200D01*
X73673695Y-31744200D01*
X73767704Y-31725500D01*
X73809028Y-31717280D01*
X73936511Y-31664475D01*
X74051242Y-31587814D01*
X74148814Y-31490242D01*
X74171955Y-31455609D01*
X74225566Y-31410804D01*
X74275057Y-31400500D01*
X104211840Y-31400500D01*
X104278879Y-31420185D01*
X104322325Y-31468205D01*
X104383269Y-31587814D01*
X104391006Y-31602997D01*
X104497441Y-31749494D01*
X104497445Y-31749499D01*
X104625500Y-31877554D01*
X104625505Y-31877558D01*
X104723736Y-31948926D01*
X104772006Y-31983996D01*
X104877484Y-32037740D01*
X104933360Y-32066211D01*
X104933363Y-32066212D01*
X105019476Y-32094191D01*
X105105591Y-32122171D01*
X105130291Y-32126083D01*
X105139406Y-32127527D01*
X105202540Y-32157457D01*
X105239471Y-32216768D01*
X105238473Y-32286631D01*
X105199863Y-32344863D01*
X105139406Y-32372473D01*
X105105589Y-32377829D01*
X104933363Y-32433787D01*
X104933360Y-32433788D01*
X104772002Y-32516006D01*
X104625505Y-32622441D01*
X104625500Y-32622445D01*
X104497445Y-32750500D01*
X104497441Y-32750505D01*
X104391006Y-32897002D01*
X104308788Y-33058360D01*
X104308787Y-33058363D01*
X104252829Y-33230589D01*
X104224500Y-33409448D01*
X104224500Y-33590551D01*
X104252829Y-33769410D01*
X104308787Y-33941636D01*
X104308788Y-33941639D01*
X104340016Y-34002926D01*
X104382656Y-34086611D01*
X104391006Y-34102997D01*
X104497441Y-34249494D01*
X104497445Y-34249499D01*
X104625500Y-34377554D01*
X104625505Y-34377558D01*
X104707072Y-34436819D01*
X104772006Y-34483996D01*
X104842503Y-34519916D01*
X104933360Y-34566211D01*
X104933363Y-34566212D01*
X104965914Y-34576788D01*
X105105591Y-34622171D01*
X105188429Y-34635291D01*
X105284449Y-34650500D01*
X105284454Y-34650500D01*
X105715551Y-34650500D01*
X105802259Y-34636765D01*
X105894409Y-34622171D01*
X106066639Y-34566211D01*
X106227994Y-34483996D01*
X106374501Y-34377553D01*
X106502553Y-34249501D01*
X106608996Y-34102994D01*
X106691211Y-33941639D01*
X106747171Y-33769409D01*
X106761765Y-33677259D01*
X106775500Y-33590551D01*
X106775500Y-33409448D01*
X106755483Y-33283070D01*
X106747171Y-33230591D01*
X106711999Y-33122342D01*
X106691212Y-33058363D01*
X106691211Y-33058360D01*
X106651349Y-32980128D01*
X106608996Y-32897006D01*
X106519991Y-32774500D01*
X106502558Y-32750505D01*
X106502554Y-32750500D01*
X106374499Y-32622445D01*
X106374494Y-32622441D01*
X106227997Y-32516006D01*
X106227996Y-32516005D01*
X106227994Y-32516004D01*
X106176300Y-32489664D01*
X106066639Y-32433788D01*
X106066636Y-32433787D01*
X105894410Y-32377829D01*
X105860594Y-32372473D01*
X105797459Y-32342544D01*
X105760528Y-32283232D01*
X105761526Y-32213370D01*
X105800136Y-32155137D01*
X105860594Y-32127527D01*
X105868388Y-32126292D01*
X105894409Y-32122171D01*
X106066639Y-32066211D01*
X106227994Y-31983996D01*
X106374501Y-31877553D01*
X106502553Y-31749501D01*
X106608996Y-31602994D01*
X106691211Y-31441639D01*
X106747171Y-31269409D01*
X106761765Y-31177259D01*
X106775500Y-31090551D01*
X106775500Y-30909448D01*
X106759019Y-30805397D01*
X106747171Y-30730591D01*
X106698182Y-30579815D01*
X106691212Y-30558363D01*
X106691211Y-30558360D01*
X106639999Y-30457853D01*
X106608996Y-30397006D01*
X106569904Y-30343200D01*
X106502558Y-30250505D01*
X106502554Y-30250500D01*
X106374499Y-30122445D01*
X106374494Y-30122441D01*
X106227997Y-30016006D01*
X106227996Y-30016005D01*
X106227994Y-30016004D01*
X106144576Y-29973500D01*
X106066639Y-29933788D01*
X106066636Y-29933787D01*
X105894410Y-29877829D01*
X105860594Y-29872473D01*
X105797459Y-29842544D01*
X105760528Y-29783232D01*
X105761526Y-29713370D01*
X105800136Y-29655137D01*
X105860594Y-29627527D01*
X105868388Y-29626292D01*
X105894409Y-29622171D01*
X106066639Y-29566211D01*
X106227994Y-29483996D01*
X106374501Y-29377553D01*
X106502553Y-29249501D01*
X106608996Y-29102994D01*
X106691211Y-28941639D01*
X106747171Y-28769409D01*
X106764473Y-28660166D01*
X106775500Y-28590551D01*
X106775500Y-28409448D01*
X106759019Y-28305397D01*
X106747171Y-28230591D01*
X106691211Y-28058361D01*
X106691211Y-28058360D01*
X106662740Y-28002484D01*
X106608996Y-27897006D01*
X106595396Y-27878287D01*
X106502558Y-27750505D01*
X106502554Y-27750500D01*
X106387004Y-27634950D01*
X106353519Y-27573627D01*
X106358503Y-27503935D01*
X106387004Y-27459588D01*
X106686006Y-27160586D01*
X107100180Y-26746413D01*
X107152907Y-26655088D01*
X107180200Y-26553227D01*
X107180200Y-26447773D01*
X107180200Y-25388873D01*
X107176191Y-25373912D01*
X107165594Y-25334361D01*
X107152908Y-25287013D01*
X107127451Y-25242922D01*
X107100180Y-25195687D01*
X106334013Y-24429520D01*
X106288350Y-24403156D01*
X106242689Y-24376793D01*
X106191757Y-24363146D01*
X106140827Y-24349500D01*
X106140826Y-24349500D01*
X90047254Y-24349500D01*
X89980215Y-24329815D01*
X89959573Y-24313181D01*
X82642591Y-16996198D01*
X82559782Y-16913389D01*
X87399500Y-16913389D01*
X87399500Y-17086611D01*
X87426598Y-17257701D01*
X87480127Y-17422445D01*
X87558768Y-17576788D01*
X87660586Y-17716928D01*
X87783072Y-17839414D01*
X87923212Y-17941232D01*
X88077555Y-18019873D01*
X88242299Y-18073402D01*
X88413389Y-18100500D01*
X88413390Y-18100500D01*
X88586610Y-18100500D01*
X88586611Y-18100500D01*
X88757701Y-18073402D01*
X88922445Y-18019873D01*
X89076788Y-17941232D01*
X89216928Y-17839414D01*
X89339414Y-17716928D01*
X89441232Y-17576788D01*
X89519873Y-17422445D01*
X89573402Y-17257701D01*
X89600500Y-17086611D01*
X89600500Y-16913389D01*
X89573402Y-16742299D01*
X89519873Y-16577555D01*
X89441232Y-16423212D01*
X89339414Y-16283072D01*
X89216928Y-16160586D01*
X89076788Y-16058768D01*
X88994246Y-16016711D01*
X88922447Y-15980128D01*
X88922446Y-15980127D01*
X88922445Y-15980127D01*
X88757701Y-15926598D01*
X88757699Y-15926597D01*
X88757698Y-15926597D01*
X88626271Y-15905781D01*
X88586611Y-15899500D01*
X88413389Y-15899500D01*
X88373728Y-15905781D01*
X88242302Y-15926597D01*
X88077552Y-15980128D01*
X87923211Y-16058768D01*
X87843256Y-16116859D01*
X87783072Y-16160586D01*
X87783070Y-16160588D01*
X87783069Y-16160588D01*
X87660588Y-16283069D01*
X87660588Y-16283070D01*
X87660586Y-16283072D01*
X87642211Y-16308363D01*
X87558768Y-16423211D01*
X87480128Y-16577552D01*
X87426597Y-16742302D01*
X87424111Y-16758000D01*
X87399500Y-16913389D01*
X82559782Y-16913389D01*
X82145993Y-16499600D01*
X82112508Y-16438277D01*
X82115742Y-16373603D01*
X82153402Y-16257701D01*
X82180500Y-16086611D01*
X82180500Y-15913389D01*
X82153402Y-15742299D01*
X82099873Y-15577555D01*
X82021232Y-15423212D01*
X81919414Y-15283072D01*
X81796928Y-15160586D01*
X81656788Y-15058768D01*
X81502445Y-14980127D01*
X81337701Y-14926598D01*
X81337699Y-14926597D01*
X81337698Y-14926597D01*
X81206271Y-14905781D01*
X81166611Y-14899500D01*
X80993389Y-14899500D01*
X80953728Y-14905781D01*
X80822302Y-14926597D01*
X80657552Y-14980128D01*
X80503211Y-15058768D01*
X80447715Y-15099089D01*
X80363072Y-15160586D01*
X80363070Y-15160588D01*
X80363069Y-15160588D01*
X80240588Y-15283069D01*
X80240588Y-15283070D01*
X80240586Y-15283072D01*
X80235801Y-15289658D01*
X80138768Y-15423211D01*
X80060128Y-15577552D01*
X80006597Y-15742302D01*
X79984980Y-15878789D01*
X79979500Y-15913389D01*
X79979500Y-16086611D01*
X80006598Y-16257701D01*
X80060127Y-16422445D01*
X80138768Y-16576788D01*
X80240586Y-16716928D01*
X80363072Y-16839414D01*
X80503212Y-16941232D01*
X80657555Y-17019873D01*
X80822299Y-17073402D01*
X80993389Y-17100500D01*
X80993390Y-17100500D01*
X81166610Y-17100500D01*
X81166611Y-17100500D01*
X81337701Y-17073402D01*
X81453602Y-17035742D01*
X81523442Y-17033748D01*
X81579600Y-17065993D01*
X89505179Y-24991571D01*
X89505189Y-24991582D01*
X89509519Y-24995912D01*
X89509520Y-24995913D01*
X89584087Y-25070480D01*
X89650288Y-25108701D01*
X89650290Y-25108702D01*
X89675411Y-25123206D01*
X89675412Y-25123206D01*
X89675413Y-25123207D01*
X89777273Y-25150501D01*
X89777275Y-25150501D01*
X89890323Y-25150501D01*
X89890339Y-25150500D01*
X104326737Y-25150500D01*
X104393776Y-25170185D01*
X104439531Y-25222989D01*
X104449475Y-25292147D01*
X104427055Y-25347385D01*
X104391006Y-25397002D01*
X104322325Y-25531795D01*
X104274350Y-25582591D01*
X104211840Y-25599500D01*
X83027273Y-25599500D01*
X82925410Y-25626793D01*
X82834087Y-25679520D01*
X82834084Y-25679522D01*
X81579599Y-26934006D01*
X81518276Y-26967491D01*
X81453600Y-26964256D01*
X81337698Y-26926597D01*
X81206271Y-26905781D01*
X81166611Y-26899500D01*
X80993389Y-26899500D01*
X80953728Y-26905781D01*
X80822302Y-26926597D01*
X80657552Y-26980128D01*
X80503211Y-27058768D01*
X80423256Y-27116859D01*
X80363072Y-27160586D01*
X80363070Y-27160588D01*
X80363069Y-27160588D01*
X80240588Y-27283069D01*
X80240588Y-27283070D01*
X80240586Y-27283072D01*
X80220602Y-27310578D01*
X80138768Y-27423211D01*
X80060128Y-27577552D01*
X80060127Y-27577554D01*
X80060127Y-27577555D01*
X80033362Y-27659927D01*
X80006597Y-27742302D01*
X79982095Y-27897002D01*
X79979500Y-27913389D01*
X79979500Y-28086611D01*
X80006598Y-28257701D01*
X80060127Y-28422445D01*
X80138768Y-28576788D01*
X80240586Y-28716928D01*
X80363072Y-28839414D01*
X80503212Y-28941232D01*
X80657555Y-29019873D01*
X80822299Y-29073402D01*
X80993389Y-29100500D01*
X80993390Y-29100500D01*
X81166610Y-29100500D01*
X81166611Y-29100500D01*
X81337701Y-29073402D01*
X81502445Y-29019873D01*
X81656788Y-28941232D01*
X81796928Y-28839414D01*
X81919414Y-28716928D01*
X82021232Y-28576788D01*
X82099873Y-28422445D01*
X82153402Y-28257701D01*
X82180500Y-28086611D01*
X82180500Y-27913389D01*
X82179472Y-27906898D01*
X88899500Y-27906898D01*
X88899500Y-29093102D01*
X88905126Y-29139954D01*
X88910122Y-29181561D01*
X88965639Y-29322343D01*
X89057077Y-29442922D01*
X89177656Y-29534360D01*
X89177657Y-29534360D01*
X89177658Y-29534361D01*
X89318436Y-29589877D01*
X89406898Y-29600500D01*
X89406903Y-29600500D01*
X90593097Y-29600500D01*
X90593102Y-29600500D01*
X90681564Y-29589877D01*
X90822342Y-29534361D01*
X90942922Y-29442922D01*
X91034361Y-29322342D01*
X91089877Y-29181564D01*
X91100500Y-29093102D01*
X91100500Y-27906898D01*
X91089877Y-27818436D01*
X91034361Y-27677658D01*
X91034360Y-27677657D01*
X91034360Y-27677656D01*
X90942922Y-27557077D01*
X90822343Y-27465639D01*
X90681561Y-27410122D01*
X90635926Y-27404642D01*
X90593102Y-27399500D01*
X89406898Y-27399500D01*
X89367853Y-27404188D01*
X89318438Y-27410122D01*
X89177656Y-27465639D01*
X89057077Y-27557077D01*
X88965639Y-27677656D01*
X88910122Y-27818438D01*
X88904188Y-27867853D01*
X88899500Y-27906898D01*
X82179472Y-27906898D01*
X82153402Y-27742299D01*
X82115741Y-27626393D01*
X82113747Y-27556558D01*
X82145990Y-27500401D01*
X83209574Y-26436819D01*
X83270897Y-26403334D01*
X83297255Y-26400500D01*
X104211840Y-26400500D01*
X104278879Y-26420185D01*
X104322325Y-26468205D01*
X104371646Y-26565003D01*
X104391006Y-26602997D01*
X104497441Y-26749494D01*
X104497445Y-26749499D01*
X104625500Y-26877554D01*
X104625505Y-26877558D01*
X104703200Y-26934006D01*
X104772006Y-26983996D01*
X104866197Y-27031989D01*
X104933360Y-27066211D01*
X104933366Y-27066213D01*
X105030816Y-27097876D01*
X105088492Y-27137313D01*
X105115691Y-27201671D01*
X105112274Y-27247900D01*
X105099500Y-27295573D01*
X105098439Y-27303633D01*
X105095526Y-27303249D01*
X105079815Y-27356755D01*
X105027011Y-27402510D01*
X105013818Y-27407647D01*
X104933363Y-27433787D01*
X104933360Y-27433788D01*
X104772002Y-27516006D01*
X104625505Y-27622441D01*
X104625500Y-27622445D01*
X104497445Y-27750500D01*
X104497441Y-27750505D01*
X104391006Y-27897002D01*
X104308788Y-28058360D01*
X104308787Y-28058363D01*
X104252829Y-28230589D01*
X104224500Y-28409448D01*
X104224500Y-28590551D01*
X104252829Y-28769410D01*
X104308787Y-28941636D01*
X104308788Y-28941639D01*
X104348650Y-29019871D01*
X104389733Y-29100500D01*
X104391006Y-29102997D01*
X104497441Y-29249494D01*
X104497445Y-29249499D01*
X104625500Y-29377554D01*
X104625505Y-29377558D01*
X104715472Y-29442922D01*
X104772006Y-29483996D01*
X104866984Y-29532390D01*
X104933360Y-29566211D01*
X104933363Y-29566212D01*
X105018005Y-29593713D01*
X105105591Y-29622171D01*
X105130291Y-29626083D01*
X105139406Y-29627527D01*
X105202540Y-29657457D01*
X105239471Y-29716768D01*
X105238473Y-29786631D01*
X105199863Y-29844863D01*
X105139406Y-29872473D01*
X105105589Y-29877829D01*
X104933363Y-29933787D01*
X104933360Y-29933788D01*
X104772002Y-30016006D01*
X104625505Y-30122441D01*
X104625500Y-30122445D01*
X104497445Y-30250500D01*
X104497441Y-30250505D01*
X104391006Y-30397002D01*
X104322325Y-30531795D01*
X104274350Y-30582591D01*
X104211840Y-30599500D01*
X74202519Y-30599500D01*
X74135480Y-30579815D01*
X74114838Y-30563181D01*
X74051245Y-30499588D01*
X74051241Y-30499585D01*
X73936517Y-30422928D01*
X73936504Y-30422921D01*
X73809032Y-30370121D01*
X73809022Y-30370118D01*
X73673695Y-30343200D01*
X73673693Y-30343200D01*
X73535707Y-30343200D01*
X73535705Y-30343200D01*
X73400377Y-30370118D01*
X73400367Y-30370121D01*
X73272895Y-30422921D01*
X73272882Y-30422928D01*
X73158158Y-30499585D01*
X73158154Y-30499588D01*
X73094562Y-30563181D01*
X73033239Y-30596666D01*
X73006881Y-30599500D01*
X71150455Y-30599500D01*
X71083416Y-30579815D01*
X71062774Y-30563181D01*
X68412982Y-27913389D01*
X69819500Y-27913389D01*
X69819500Y-28086611D01*
X69846598Y-28257701D01*
X69900127Y-28422445D01*
X69978768Y-28576788D01*
X70080586Y-28716928D01*
X70203072Y-28839414D01*
X70343212Y-28941232D01*
X70497555Y-29019873D01*
X70662299Y-29073402D01*
X70833389Y-29100500D01*
X70833390Y-29100500D01*
X71006610Y-29100500D01*
X71006611Y-29100500D01*
X71177701Y-29073402D01*
X71342445Y-29019873D01*
X71496788Y-28941232D01*
X71636928Y-28839414D01*
X71759414Y-28716928D01*
X71861232Y-28576788D01*
X71939873Y-28422445D01*
X71993402Y-28257701D01*
X72020500Y-28086611D01*
X72020500Y-27913389D01*
X71993402Y-27742299D01*
X71939873Y-27577555D01*
X71861232Y-27423212D01*
X71759414Y-27283072D01*
X71636928Y-27160586D01*
X71496788Y-27058768D01*
X71444254Y-27032001D01*
X71342447Y-26980128D01*
X71342446Y-26980127D01*
X71342445Y-26980127D01*
X71177701Y-26926598D01*
X71177699Y-26926597D01*
X71177698Y-26926597D01*
X71046271Y-26905781D01*
X71006611Y-26899500D01*
X70833389Y-26899500D01*
X70793728Y-26905781D01*
X70662302Y-26926597D01*
X70497552Y-26980128D01*
X70343211Y-27058768D01*
X70263256Y-27116859D01*
X70203072Y-27160586D01*
X70203070Y-27160588D01*
X70203069Y-27160588D01*
X70080588Y-27283069D01*
X70080588Y-27283070D01*
X70080586Y-27283072D01*
X70060602Y-27310578D01*
X69978768Y-27423211D01*
X69900128Y-27577552D01*
X69900127Y-27577554D01*
X69900127Y-27577555D01*
X69873362Y-27659927D01*
X69846597Y-27742302D01*
X69822095Y-27897002D01*
X69819500Y-27913389D01*
X68412982Y-27913389D01*
X63743306Y-23243713D01*
X63709821Y-23182390D01*
X63709370Y-23131839D01*
X63722200Y-23067343D01*
X63722200Y-22909655D01*
X63722199Y-22909653D01*
X63711705Y-22856898D01*
X63691437Y-22755003D01*
X63682736Y-22733996D01*
X63631097Y-22609327D01*
X63631090Y-22609314D01*
X63543489Y-22478211D01*
X63543486Y-22478207D01*
X63506460Y-22441181D01*
X63472975Y-22379858D01*
X63477959Y-22310166D01*
X63506460Y-22265819D01*
X63543486Y-22228792D01*
X63543489Y-22228789D01*
X63631094Y-22097679D01*
X63635679Y-22086611D01*
X63691435Y-21952001D01*
X63691437Y-21951997D01*
X63699117Y-21913389D01*
X69819500Y-21913389D01*
X69819500Y-22086611D01*
X69827677Y-22138239D01*
X69842018Y-22228788D01*
X69846598Y-22257701D01*
X69900127Y-22422445D01*
X69978768Y-22576788D01*
X70080586Y-22716928D01*
X70203072Y-22839414D01*
X70343212Y-22941232D01*
X70497555Y-23019873D01*
X70662299Y-23073402D01*
X70833389Y-23100500D01*
X70833390Y-23100500D01*
X71006610Y-23100500D01*
X71006611Y-23100500D01*
X71177701Y-23073402D01*
X71342445Y-23019873D01*
X71496788Y-22941232D01*
X71636928Y-22839414D01*
X71759414Y-22716928D01*
X71861232Y-22576788D01*
X71939873Y-22422445D01*
X71993402Y-22257701D01*
X72020500Y-22086611D01*
X72020500Y-21913389D01*
X79979500Y-21913389D01*
X79979500Y-22086611D01*
X79987677Y-22138239D01*
X80002018Y-22228788D01*
X80006598Y-22257701D01*
X80060127Y-22422445D01*
X80138768Y-22576788D01*
X80240586Y-22716928D01*
X80363072Y-22839414D01*
X80503212Y-22941232D01*
X80657555Y-23019873D01*
X80822299Y-23073402D01*
X80993389Y-23100500D01*
X80993390Y-23100500D01*
X81166610Y-23100500D01*
X81166611Y-23100500D01*
X81337701Y-23073402D01*
X81502445Y-23019873D01*
X81656788Y-22941232D01*
X81796928Y-22839414D01*
X81919414Y-22716928D01*
X82021232Y-22576788D01*
X82099873Y-22422445D01*
X82153402Y-22257701D01*
X82180500Y-22086611D01*
X82180500Y-21913389D01*
X82153402Y-21742299D01*
X82099873Y-21577555D01*
X82021232Y-21423212D01*
X81919414Y-21283072D01*
X81796928Y-21160586D01*
X81656788Y-21058768D01*
X81502445Y-20980127D01*
X81337701Y-20926598D01*
X81337699Y-20926597D01*
X81337698Y-20926597D01*
X81206271Y-20905781D01*
X81166611Y-20899500D01*
X80993389Y-20899500D01*
X80953728Y-20905781D01*
X80822302Y-20926597D01*
X80657552Y-20980128D01*
X80503211Y-21058768D01*
X80450989Y-21096710D01*
X80363072Y-21160586D01*
X80363070Y-21160588D01*
X80363069Y-21160588D01*
X80240588Y-21283069D01*
X80240588Y-21283070D01*
X80240586Y-21283072D01*
X80209358Y-21326054D01*
X80138768Y-21423211D01*
X80060128Y-21577552D01*
X80006597Y-21742302D01*
X79984341Y-21882825D01*
X79979500Y-21913389D01*
X72020500Y-21913389D01*
X71993402Y-21742299D01*
X71939873Y-21577555D01*
X71861232Y-21423212D01*
X71759414Y-21283072D01*
X71636928Y-21160586D01*
X71496788Y-21058768D01*
X71342445Y-20980127D01*
X71177701Y-20926598D01*
X71177699Y-20926597D01*
X71177698Y-20926597D01*
X71046271Y-20905781D01*
X71006611Y-20899500D01*
X70833389Y-20899500D01*
X70793728Y-20905781D01*
X70662302Y-20926597D01*
X70497552Y-20980128D01*
X70343211Y-21058768D01*
X70290989Y-21096710D01*
X70203072Y-21160586D01*
X70203070Y-21160588D01*
X70203069Y-21160588D01*
X70080588Y-21283069D01*
X70080588Y-21283070D01*
X70080586Y-21283072D01*
X70049358Y-21326054D01*
X69978768Y-21423211D01*
X69900128Y-21577552D01*
X69846597Y-21742302D01*
X69824341Y-21882825D01*
X69819500Y-21913389D01*
X63699117Y-21913389D01*
X63714113Y-21838000D01*
X63722200Y-21797344D01*
X63722200Y-21639655D01*
X63722199Y-21639653D01*
X63719013Y-21623637D01*
X63691437Y-21485003D01*
X63665842Y-21423211D01*
X63631097Y-21339327D01*
X63631090Y-21339314D01*
X63543489Y-21208211D01*
X63543486Y-21208207D01*
X63431992Y-21096713D01*
X63431988Y-21096710D01*
X63300885Y-21009109D01*
X63300872Y-21009102D01*
X63155201Y-20948764D01*
X63155189Y-20948761D01*
X63000545Y-20918000D01*
X63000542Y-20918000D01*
X62842858Y-20918000D01*
X62842855Y-20918000D01*
X62688210Y-20948761D01*
X62688198Y-20948764D01*
X62542527Y-21009102D01*
X62542514Y-21009109D01*
X62411411Y-21096710D01*
X62411407Y-21096713D01*
X62299913Y-21208207D01*
X62299910Y-21208211D01*
X62212309Y-21339314D01*
X62212302Y-21339327D01*
X62151964Y-21484998D01*
X62151961Y-21485010D01*
X62121200Y-21639653D01*
X62121200Y-21797346D01*
X62151961Y-21951989D01*
X62151964Y-21952001D01*
X62212302Y-22097672D01*
X62212309Y-22097685D01*
X62299910Y-22228788D01*
X62299913Y-22228792D01*
X62336940Y-22265819D01*
X62370425Y-22327142D01*
X62365441Y-22396834D01*
X62336940Y-22441181D01*
X62299913Y-22478207D01*
X62299910Y-22478211D01*
X62212309Y-22609314D01*
X62212302Y-22609327D01*
X62151964Y-22754998D01*
X62151961Y-22755010D01*
X62121200Y-22909653D01*
X62121200Y-23067346D01*
X62151961Y-23221989D01*
X62151964Y-23222001D01*
X62212302Y-23367672D01*
X62212309Y-23367685D01*
X62299910Y-23498788D01*
X62299913Y-23498792D01*
X62336940Y-23535819D01*
X62370425Y-23597142D01*
X62365441Y-23666834D01*
X62336940Y-23711181D01*
X62299913Y-23748207D01*
X62299910Y-23748211D01*
X62212309Y-23879314D01*
X62212302Y-23879327D01*
X62151964Y-24024998D01*
X62151961Y-24025010D01*
X62121200Y-24179653D01*
X62121200Y-24337346D01*
X62151961Y-24491989D01*
X62151964Y-24492001D01*
X62212302Y-24637672D01*
X62212309Y-24637685D01*
X62299910Y-24768788D01*
X62299913Y-24768792D01*
X62336940Y-24805819D01*
X62370425Y-24867142D01*
X62365441Y-24936834D01*
X62336940Y-24981181D01*
X62299913Y-25018207D01*
X62299910Y-25018211D01*
X62212309Y-25149314D01*
X62212304Y-25149324D01*
X62173959Y-25241897D01*
X62130118Y-25296301D01*
X62063823Y-25318365D01*
X61996124Y-25301085D01*
X61971717Y-25282125D01*
X60743115Y-24053522D01*
X60743114Y-24053521D01*
X60743113Y-24053520D01*
X60693712Y-24024998D01*
X60651789Y-24000793D01*
X60600857Y-23987146D01*
X60549927Y-23973500D01*
X60549926Y-23973500D01*
X48623116Y-23973500D01*
X48556077Y-23953815D01*
X48510322Y-23901011D01*
X48500378Y-23831853D01*
X48529403Y-23768297D01*
X48535435Y-23761819D01*
X48559253Y-23738001D01*
X48665696Y-23591494D01*
X48747911Y-23430139D01*
X48803871Y-23257909D01*
X48818485Y-23165639D01*
X48832200Y-23079051D01*
X48832200Y-22897948D01*
X48809558Y-22754998D01*
X48803871Y-22719091D01*
X48757124Y-22575216D01*
X48755129Y-22505375D01*
X48787372Y-22449219D01*
X53200273Y-18036318D01*
X53261596Y-18002834D01*
X53287954Y-18000000D01*
X62021954Y-18000000D01*
X62088993Y-18019685D01*
X62134748Y-18072489D01*
X62143571Y-18099809D01*
X62151961Y-18141989D01*
X62151963Y-18141998D01*
X62212302Y-18287672D01*
X62212309Y-18287685D01*
X62299910Y-18418788D01*
X62299913Y-18418792D01*
X62336940Y-18455819D01*
X62370425Y-18517142D01*
X62365441Y-18586834D01*
X62336940Y-18631181D01*
X62299913Y-18668207D01*
X62299910Y-18668211D01*
X62212309Y-18799314D01*
X62212302Y-18799327D01*
X62151964Y-18944998D01*
X62151961Y-18945010D01*
X62121200Y-19099653D01*
X62121200Y-19257346D01*
X62151961Y-19411989D01*
X62151964Y-19412001D01*
X62212302Y-19557672D01*
X62212309Y-19557685D01*
X62299910Y-19688788D01*
X62299913Y-19688792D01*
X62411407Y-19800286D01*
X62411411Y-19800289D01*
X62542514Y-19887890D01*
X62542527Y-19887897D01*
X62688198Y-19948235D01*
X62688203Y-19948237D01*
X62842853Y-19978999D01*
X62842856Y-19979000D01*
X62842858Y-19979000D01*
X63000544Y-19979000D01*
X63000545Y-19978999D01*
X63155197Y-19948237D01*
X63300879Y-19887894D01*
X63431989Y-19800289D01*
X63543489Y-19688789D01*
X63631094Y-19557679D01*
X63691437Y-19411997D01*
X63722200Y-19257342D01*
X63722200Y-19099658D01*
X63722200Y-19099655D01*
X63722199Y-19099653D01*
X63719013Y-19083637D01*
X63691437Y-18945003D01*
X63669687Y-18892493D01*
X63631097Y-18799327D01*
X63631090Y-18799314D01*
X63543489Y-18668211D01*
X63543486Y-18668207D01*
X63506460Y-18631181D01*
X63472975Y-18569858D01*
X63477959Y-18500166D01*
X63506460Y-18455819D01*
X63543486Y-18418792D01*
X63543489Y-18418789D01*
X63631094Y-18287679D01*
X63691437Y-18141997D01*
X63697491Y-18111560D01*
X63699829Y-18099809D01*
X63732213Y-18037898D01*
X63792929Y-18003324D01*
X63821446Y-18000000D01*
X70000000Y-18000000D01*
X70000000Y-16934950D01*
X70019685Y-16867911D01*
X70072489Y-16822156D01*
X70141647Y-16812212D01*
X70198216Y-16837808D01*
X70199131Y-16836550D01*
X70203069Y-16839411D01*
X70203072Y-16839414D01*
X70343212Y-16941232D01*
X70497555Y-17019873D01*
X70662299Y-17073402D01*
X70833389Y-17100500D01*
X70833390Y-17100500D01*
X71006610Y-17100500D01*
X71006611Y-17100500D01*
X71177701Y-17073402D01*
X71342445Y-17019873D01*
X71496788Y-16941232D01*
X71636928Y-16839414D01*
X71759414Y-16716928D01*
X71861232Y-16576788D01*
X71939873Y-16422445D01*
X71993402Y-16257701D01*
X72020500Y-16086611D01*
X72020500Y-15913389D01*
X71993402Y-15742299D01*
X71939873Y-15577555D01*
X71861232Y-15423212D01*
X71759414Y-15283072D01*
X71636928Y-15160586D01*
X71496788Y-15058768D01*
X71342445Y-14980127D01*
X71177701Y-14926598D01*
X71177699Y-14926597D01*
X71177698Y-14926597D01*
X71046271Y-14905781D01*
X71006611Y-14899500D01*
X70833389Y-14899500D01*
X70801192Y-14904599D01*
X70662301Y-14926597D01*
X70662297Y-14926598D01*
X70546397Y-14964256D01*
X70476556Y-14966251D01*
X70420399Y-14934006D01*
X70036319Y-14549926D01*
X70002834Y-14488603D01*
X70000000Y-14462245D01*
X70000000Y-13878711D01*
X104149500Y-13878711D01*
X104149500Y-14121288D01*
X104181161Y-14361785D01*
X104243947Y-14596104D01*
X104306331Y-14746711D01*
X104336776Y-14820212D01*
X104458064Y-15030289D01*
X104458066Y-15030292D01*
X104458067Y-15030293D01*
X104605733Y-15222736D01*
X104605739Y-15222743D01*
X104777256Y-15394260D01*
X104777263Y-15394266D01*
X104846433Y-15447342D01*
X104969711Y-15541936D01*
X105179788Y-15663224D01*
X105403900Y-15756054D01*
X105638211Y-15818838D01*
X105818586Y-15842584D01*
X105878711Y-15850500D01*
X105878712Y-15850500D01*
X106121289Y-15850500D01*
X106169388Y-15844167D01*
X106361789Y-15818838D01*
X106596100Y-15756054D01*
X106820212Y-15663224D01*
X107030289Y-15541936D01*
X107222738Y-15394265D01*
X107394265Y-15222738D01*
X107541936Y-15030289D01*
X107663224Y-14820212D01*
X107756054Y-14596100D01*
X107818838Y-14361789D01*
X107850500Y-14121288D01*
X107850500Y-13878712D01*
X107818838Y-13638211D01*
X107756054Y-13403900D01*
X107663224Y-13179788D01*
X107541936Y-12969711D01*
X107394265Y-12777262D01*
X107394260Y-12777256D01*
X107222743Y-12605739D01*
X107222736Y-12605733D01*
X107030293Y-12458067D01*
X107030292Y-12458066D01*
X107030289Y-12458064D01*
X106820212Y-12336776D01*
X106820205Y-12336773D01*
X106596104Y-12243947D01*
X106361785Y-12181161D01*
X106121289Y-12149500D01*
X106121288Y-12149500D01*
X105878712Y-12149500D01*
X105878711Y-12149500D01*
X105638214Y-12181161D01*
X105403895Y-12243947D01*
X105179794Y-12336773D01*
X105179785Y-12336777D01*
X104969706Y-12458067D01*
X104777263Y-12605733D01*
X104777256Y-12605739D01*
X104605739Y-12777256D01*
X104605733Y-12777263D01*
X104458067Y-12969706D01*
X104336777Y-13179785D01*
X104336773Y-13179794D01*
X104243947Y-13403895D01*
X104181161Y-13638214D01*
X104149500Y-13878711D01*
X70000000Y-13878711D01*
X70000000Y-10624500D01*
X70019685Y-10557461D01*
X70072489Y-10511706D01*
X70124000Y-10500500D01*
X109375500Y-10500500D01*
X109442539Y-10520185D01*
X109488294Y-10572989D01*
X109499500Y-10624500D01*
X109499500Y-78375500D01*
X109479815Y-78442539D01*
X109427011Y-78488294D01*
X109375500Y-78499500D01*
X18624500Y-78499500D01*
X18557461Y-78479815D01*
X18511706Y-78427011D01*
X18500500Y-78375500D01*
X18500500Y-74878711D01*
X20149500Y-74878711D01*
X20149500Y-75121288D01*
X20181161Y-75361785D01*
X20243947Y-75596104D01*
X20336773Y-75820205D01*
X20336776Y-75820212D01*
X20458064Y-76030289D01*
X20458066Y-76030292D01*
X20458067Y-76030293D01*
X20605733Y-76222736D01*
X20605739Y-76222743D01*
X20777256Y-76394260D01*
X20777262Y-76394265D01*
X20969711Y-76541936D01*
X21179788Y-76663224D01*
X21403900Y-76756054D01*
X21638211Y-76818838D01*
X21818586Y-76842584D01*
X21878711Y-76850500D01*
X21878712Y-76850500D01*
X22121289Y-76850500D01*
X22169388Y-76844167D01*
X22361789Y-76818838D01*
X22596100Y-76756054D01*
X22820212Y-76663224D01*
X23030289Y-76541936D01*
X23222738Y-76394265D01*
X23394265Y-76222738D01*
X23541936Y-76030289D01*
X23663224Y-75820212D01*
X23756054Y-75596100D01*
X23818838Y-75361789D01*
X23850500Y-75121288D01*
X23850500Y-74878712D01*
X23818838Y-74638211D01*
X23756054Y-74403900D01*
X23663224Y-74179788D01*
X23541936Y-73969711D01*
X23394265Y-73777262D01*
X23394260Y-73777256D01*
X23222743Y-73605739D01*
X23222736Y-73605733D01*
X23030293Y-73458067D01*
X23030292Y-73458066D01*
X23030289Y-73458064D01*
X22820212Y-73336776D01*
X22780158Y-73320185D01*
X22596104Y-73243947D01*
X22361785Y-73181161D01*
X22121289Y-73149500D01*
X22121288Y-73149500D01*
X21878712Y-73149500D01*
X21878711Y-73149500D01*
X21638214Y-73181161D01*
X21403895Y-73243947D01*
X21179794Y-73336773D01*
X21179785Y-73336777D01*
X20969706Y-73458067D01*
X20777263Y-73605733D01*
X20777256Y-73605739D01*
X20605739Y-73777256D01*
X20605733Y-73777263D01*
X20458067Y-73969706D01*
X20336777Y-74179785D01*
X20336773Y-74179794D01*
X20243947Y-74403895D01*
X20181161Y-74638214D01*
X20149500Y-74878711D01*
X18500500Y-74878711D01*
X18500500Y-72284448D01*
X43147800Y-72284448D01*
X43147800Y-72715551D01*
X43176129Y-72894410D01*
X43232087Y-73066636D01*
X43232088Y-73066639D01*
X43274309Y-73149500D01*
X43304827Y-73209395D01*
X43314306Y-73227997D01*
X43420741Y-73374494D01*
X43420745Y-73374499D01*
X43548800Y-73502554D01*
X43548805Y-73502558D01*
X43676587Y-73595396D01*
X43695306Y-73608996D01*
X43800784Y-73662740D01*
X43856660Y-73691211D01*
X43856663Y-73691212D01*
X43942776Y-73719191D01*
X44028891Y-73747171D01*
X44111729Y-73760291D01*
X44207749Y-73775500D01*
X44207754Y-73775500D01*
X44388851Y-73775500D01*
X44475559Y-73761765D01*
X44567709Y-73747171D01*
X44739939Y-73691211D01*
X44901294Y-73608996D01*
X45047801Y-73502553D01*
X45175853Y-73374501D01*
X45282296Y-73227994D01*
X45364511Y-73066639D01*
X45420471Y-72894409D01*
X45425827Y-72860594D01*
X45455756Y-72797459D01*
X45515068Y-72760528D01*
X45584930Y-72761526D01*
X45643163Y-72800136D01*
X45670773Y-72860594D01*
X45676129Y-72894410D01*
X45732087Y-73066636D01*
X45732088Y-73066639D01*
X45774309Y-73149500D01*
X45804827Y-73209395D01*
X45814306Y-73227997D01*
X45920741Y-73374494D01*
X45920745Y-73374499D01*
X46048800Y-73502554D01*
X46048805Y-73502558D01*
X46176587Y-73595396D01*
X46195306Y-73608996D01*
X46300784Y-73662740D01*
X46356660Y-73691211D01*
X46356663Y-73691212D01*
X46442776Y-73719191D01*
X46528891Y-73747171D01*
X46611729Y-73760291D01*
X46707749Y-73775500D01*
X46707754Y-73775500D01*
X46888851Y-73775500D01*
X46975559Y-73761765D01*
X47067709Y-73747171D01*
X47239939Y-73691211D01*
X47401294Y-73608996D01*
X47547801Y-73502553D01*
X47675853Y-73374501D01*
X47782296Y-73227994D01*
X47864511Y-73066639D01*
X47920471Y-72894409D01*
X47925827Y-72860594D01*
X47955756Y-72797459D01*
X48015068Y-72760528D01*
X48084930Y-72761526D01*
X48143163Y-72800136D01*
X48170773Y-72860594D01*
X48176129Y-72894410D01*
X48232087Y-73066636D01*
X48232088Y-73066639D01*
X48274309Y-73149500D01*
X48304827Y-73209395D01*
X48314306Y-73227997D01*
X48420741Y-73374494D01*
X48420745Y-73374499D01*
X48548800Y-73502554D01*
X48548805Y-73502558D01*
X48676587Y-73595396D01*
X48695306Y-73608996D01*
X48800784Y-73662740D01*
X48856660Y-73691211D01*
X48856663Y-73691212D01*
X48942776Y-73719191D01*
X49028891Y-73747171D01*
X49111729Y-73760291D01*
X49207749Y-73775500D01*
X49207754Y-73775500D01*
X49388851Y-73775500D01*
X49475559Y-73761765D01*
X49567709Y-73747171D01*
X49739939Y-73691211D01*
X49901294Y-73608996D01*
X50047801Y-73502553D01*
X50175853Y-73374501D01*
X50282296Y-73227994D01*
X50364511Y-73066639D01*
X50420471Y-72894409D01*
X50441676Y-72760528D01*
X50448800Y-72715551D01*
X50448800Y-72284448D01*
X50432319Y-72180397D01*
X50420471Y-72105591D01*
X50364511Y-71933361D01*
X50364511Y-71933360D01*
X50336040Y-71877484D01*
X50282296Y-71772006D01*
X50215316Y-71679815D01*
X50175858Y-71625505D01*
X50175854Y-71625500D01*
X50047799Y-71497445D01*
X50047794Y-71497441D01*
X49901297Y-71391006D01*
X49901296Y-71391005D01*
X49901294Y-71391004D01*
X49834709Y-71357077D01*
X49739939Y-71308788D01*
X49739936Y-71308787D01*
X49567710Y-71252829D01*
X49388851Y-71224500D01*
X49388846Y-71224500D01*
X49207754Y-71224500D01*
X49207749Y-71224500D01*
X49028889Y-71252829D01*
X48856663Y-71308787D01*
X48856660Y-71308788D01*
X48695302Y-71391006D01*
X48548805Y-71497441D01*
X48548800Y-71497445D01*
X48420745Y-71625500D01*
X48420741Y-71625505D01*
X48314306Y-71772002D01*
X48232088Y-71933360D01*
X48232087Y-71933363D01*
X48176129Y-72105589D01*
X48170773Y-72139406D01*
X48140843Y-72202540D01*
X48081532Y-72239471D01*
X48011669Y-72238473D01*
X47953437Y-72199863D01*
X47925827Y-72139406D01*
X47924383Y-72130291D01*
X47920471Y-72105591D01*
X47864511Y-71933361D01*
X47864511Y-71933360D01*
X47836040Y-71877484D01*
X47782296Y-71772006D01*
X47715316Y-71679815D01*
X47675858Y-71625505D01*
X47675854Y-71625500D01*
X47547799Y-71497445D01*
X47547794Y-71497441D01*
X47401297Y-71391006D01*
X47401296Y-71391005D01*
X47401294Y-71391004D01*
X47334709Y-71357077D01*
X47239939Y-71308788D01*
X47239936Y-71308787D01*
X47067710Y-71252829D01*
X46888851Y-71224500D01*
X46888846Y-71224500D01*
X46707754Y-71224500D01*
X46707749Y-71224500D01*
X46528889Y-71252829D01*
X46356663Y-71308787D01*
X46356660Y-71308788D01*
X46195302Y-71391006D01*
X46048805Y-71497441D01*
X46048800Y-71497445D01*
X45920745Y-71625500D01*
X45920741Y-71625505D01*
X45814306Y-71772002D01*
X45732088Y-71933360D01*
X45732087Y-71933363D01*
X45676129Y-72105589D01*
X45670773Y-72139406D01*
X45640843Y-72202540D01*
X45581532Y-72239471D01*
X45511669Y-72238473D01*
X45453437Y-72199863D01*
X45425827Y-72139406D01*
X45424383Y-72130291D01*
X45420471Y-72105591D01*
X45364511Y-71933361D01*
X45364511Y-71933360D01*
X45336040Y-71877484D01*
X45282296Y-71772006D01*
X45215316Y-71679815D01*
X45175858Y-71625505D01*
X45175854Y-71625500D01*
X45047799Y-71497445D01*
X45047794Y-71497441D01*
X44901297Y-71391006D01*
X44901296Y-71391005D01*
X44901294Y-71391004D01*
X44834709Y-71357077D01*
X44739939Y-71308788D01*
X44739936Y-71308787D01*
X44567710Y-71252829D01*
X44388851Y-71224500D01*
X44388846Y-71224500D01*
X44207754Y-71224500D01*
X44207749Y-71224500D01*
X44028889Y-71252829D01*
X43856663Y-71308787D01*
X43856660Y-71308788D01*
X43695302Y-71391006D01*
X43548805Y-71497441D01*
X43548800Y-71497445D01*
X43420745Y-71625500D01*
X43420741Y-71625505D01*
X43314306Y-71772002D01*
X43232088Y-71933360D01*
X43232087Y-71933363D01*
X43176129Y-72105589D01*
X43147800Y-72284448D01*
X18500500Y-72284448D01*
X18500500Y-66356898D01*
X20199500Y-66356898D01*
X20199500Y-67643102D01*
X20205126Y-67689954D01*
X20210122Y-67731561D01*
X20265639Y-67872343D01*
X20357077Y-67992922D01*
X20477656Y-68084360D01*
X20477657Y-68084360D01*
X20477658Y-68084361D01*
X20618436Y-68139877D01*
X20706898Y-68150500D01*
X20706903Y-68150500D01*
X22293097Y-68150500D01*
X22293102Y-68150500D01*
X22381564Y-68139877D01*
X22522342Y-68084361D01*
X22642922Y-67992922D01*
X22734361Y-67872342D01*
X22789877Y-67731564D01*
X22800500Y-67643102D01*
X22800500Y-66356898D01*
X22789877Y-66268436D01*
X22734361Y-66127658D01*
X22734360Y-66127657D01*
X22734360Y-66127656D01*
X22642922Y-66007077D01*
X22522343Y-65915639D01*
X22381561Y-65860122D01*
X22335926Y-65854642D01*
X22293102Y-65849500D01*
X20706898Y-65849500D01*
X20667853Y-65854188D01*
X20618438Y-65860122D01*
X20477656Y-65915639D01*
X20357077Y-66007077D01*
X20265639Y-66127656D01*
X20210122Y-66268438D01*
X20204188Y-66317853D01*
X20199500Y-66356898D01*
X18500500Y-66356898D01*
X18500500Y-16659448D01*
X32513500Y-16659448D01*
X32513500Y-16840551D01*
X32541829Y-17019410D01*
X32597787Y-17191636D01*
X32597788Y-17191639D01*
X32646231Y-17286711D01*
X32655805Y-17305502D01*
X32680006Y-17352997D01*
X32786441Y-17499494D01*
X32786445Y-17499499D01*
X32914500Y-17627554D01*
X32914505Y-17627558D01*
X33037514Y-17716928D01*
X33061006Y-17733996D01*
X33166484Y-17787740D01*
X33222360Y-17816211D01*
X33222363Y-17816212D01*
X33308476Y-17844191D01*
X33394591Y-17872171D01*
X33477429Y-17885291D01*
X33573449Y-17900500D01*
X33573454Y-17900500D01*
X34004551Y-17900500D01*
X34091259Y-17886765D01*
X34183409Y-17872171D01*
X34355639Y-17816211D01*
X34516994Y-17733996D01*
X34663501Y-17627553D01*
X34791553Y-17499501D01*
X34897996Y-17352994D01*
X34980211Y-17191639D01*
X35036171Y-17019409D01*
X35060166Y-16867911D01*
X35064500Y-16840551D01*
X35064500Y-16659448D01*
X35041783Y-16516027D01*
X35036171Y-16480591D01*
X34980211Y-16308361D01*
X34980211Y-16308360D01*
X34904915Y-16160586D01*
X34897996Y-16147006D01*
X34803332Y-16016711D01*
X34791558Y-16000505D01*
X34791554Y-16000500D01*
X34663499Y-15872445D01*
X34663494Y-15872441D01*
X34516997Y-15766006D01*
X34516996Y-15766005D01*
X34516994Y-15766004D01*
X34465300Y-15739664D01*
X34355639Y-15683788D01*
X34355636Y-15683787D01*
X34183410Y-15627829D01*
X34004551Y-15599500D01*
X34004546Y-15599500D01*
X33573454Y-15599500D01*
X33573449Y-15599500D01*
X33394589Y-15627829D01*
X33222363Y-15683787D01*
X33222360Y-15683788D01*
X33061002Y-15766006D01*
X32914505Y-15872441D01*
X32914500Y-15872445D01*
X32786445Y-16000500D01*
X32786441Y-16000505D01*
X32680006Y-16147002D01*
X32597788Y-16308360D01*
X32597787Y-16308363D01*
X32541829Y-16480589D01*
X32513500Y-16659448D01*
X18500500Y-16659448D01*
X18500500Y-13878711D01*
X20149500Y-13878711D01*
X20149500Y-14121288D01*
X20181161Y-14361785D01*
X20243947Y-14596104D01*
X20306331Y-14746711D01*
X20336776Y-14820212D01*
X20458064Y-15030289D01*
X20458066Y-15030292D01*
X20458067Y-15030293D01*
X20605733Y-15222736D01*
X20605739Y-15222743D01*
X20777256Y-15394260D01*
X20777263Y-15394266D01*
X20846433Y-15447342D01*
X20969711Y-15541936D01*
X21179788Y-15663224D01*
X21403900Y-15756054D01*
X21638211Y-15818838D01*
X21818586Y-15842584D01*
X21878711Y-15850500D01*
X21878712Y-15850500D01*
X22121289Y-15850500D01*
X22169388Y-15844167D01*
X22361789Y-15818838D01*
X22596100Y-15756054D01*
X22820212Y-15663224D01*
X23030289Y-15541936D01*
X23222738Y-15394265D01*
X23394265Y-15222738D01*
X23541936Y-15030289D01*
X23663224Y-14820212D01*
X23756054Y-14596100D01*
X23818838Y-14361789D01*
X23850500Y-14121288D01*
X23850500Y-13878712D01*
X23818838Y-13638211D01*
X23756054Y-13403900D01*
X23663224Y-13179788D01*
X23541936Y-12969711D01*
X23394265Y-12777262D01*
X23394260Y-12777256D01*
X23222743Y-12605739D01*
X23222736Y-12605733D01*
X23030293Y-12458067D01*
X23030292Y-12458066D01*
X23030289Y-12458064D01*
X22820212Y-12336776D01*
X22820205Y-12336773D01*
X22596104Y-12243947D01*
X22361785Y-12181161D01*
X22121289Y-12149500D01*
X22121288Y-12149500D01*
X21878712Y-12149500D01*
X21878711Y-12149500D01*
X21638214Y-12181161D01*
X21403895Y-12243947D01*
X21179794Y-12336773D01*
X21179785Y-12336777D01*
X20969706Y-12458067D01*
X20777263Y-12605733D01*
X20777256Y-12605739D01*
X20605739Y-12777256D01*
X20605733Y-12777263D01*
X20458067Y-12969706D01*
X20336777Y-13179785D01*
X20336773Y-13179794D01*
X20243947Y-13403895D01*
X20181161Y-13638214D01*
X20149500Y-13878711D01*
X18500500Y-13878711D01*
X18500500Y-10624500D01*
X18520185Y-10557461D01*
X18572989Y-10511706D01*
X18624500Y-10500500D01*
X51876000Y-10500500D01*
X51943039Y-10520185D01*
G37*
%TD.AperFunction*%
%TD*%
M02*
