%TF.GenerationSoftware,KiCad,Pcbnew,10.0.6*%
%TF.CreationDate,2026-09-14T21:58:51+09:00*%
%TF.ProjectId,stamp_s3a_interposer_tht,7374616d-705f-4733-9361-5f696e746572,rev?*%
%TF.SameCoordinates,Original*%
%TF.FileFunction,Soldermask,Bot*%
%TF.FilePolarity,Negative*%
%FSLAX46Y46*%
G04 Gerber Fmt 4.6, Leading zero omitted, Abs format (unit mm)*
G04 Created by KiCad (PCBNEW 10.0.6) date 2026-09-14 21:58:51*
%MOMM*%
%LPD*%
G01*
G04 APERTURE LIST*
G04 Aperture macros list*
%AMRoundRect*
0 Rectangle with rounded corners*
0 $1 Rounding radius*
0 $2 $3 $4 $5 $6 $7 $8 $9 X,Y pos of 4 corners*
0 Add a 4 corners polygon primitive as box body*
4,1,4,$2,$3,$4,$5,$6,$7,$8,$9,$2,$3,0*
0 Add four circle primitives for the rounded corners*
1,1,$1+$1,$2,$3*
1,1,$1+$1,$4,$5*
1,1,$1+$1,$6,$7*
1,1,$1+$1,$8,$9*
0 Add four rect primitives between the rounded corners*
20,1,$1+$1,$2,$3,$4,$5,0*
20,1,$1+$1,$4,$5,$6,$7,0*
20,1,$1+$1,$6,$7,$8,$9,0*
20,1,$1+$1,$8,$9,$2,$3,0*%
G04 Aperture macros list end*
%ADD10RoundRect,0.250000X-0.600000X-0.750000X0.600000X-0.750000X0.600000X0.750000X-0.600000X0.750000X0*%
%ADD11O,1.700000X2.000000*%
%ADD12C,1.600000*%
%ADD13C,3.200000*%
%ADD14RoundRect,0.250000X0.750000X-0.600000X0.750000X0.600000X-0.750000X0.600000X-0.750000X-0.600000X0*%
%ADD15O,2.000000X1.700000*%
%ADD16RoundRect,0.250000X0.725000X-0.600000X0.725000X0.600000X-0.725000X0.600000X-0.725000X-0.600000X0*%
%ADD17O,1.950000X1.700000*%
%ADD18RoundRect,0.250001X-0.949999X-0.949999X0.949999X-0.949999X0.949999X0.949999X-0.949999X0.949999X0*%
%ADD19C,2.400000*%
%ADD20R,1.000000X1.000000*%
%ADD21C,1.000000*%
%ADD22R,1.700000X1.700000*%
%ADD23C,1.700000*%
%ADD24RoundRect,0.250000X-0.750000X-0.750000X0.750000X-0.750000X0.750000X0.750000X-0.750000X0.750000X0*%
%ADD25C,2.000000*%
%ADD26RoundRect,0.250000X-0.550000X-0.550000X0.550000X-0.550000X0.550000X0.550000X-0.550000X0.550000X0*%
%ADD27RoundRect,0.250000X-0.600000X-0.725000X0.600000X-0.725000X0.600000X0.725000X-0.600000X0.725000X0*%
%ADD28O,1.700000X1.950000*%
G04 APERTURE END LIST*
D10*
%TO.C,J_PWR_SERVO*%
X94000000Y-72500000D03*
D11*
X96500000Y-72500000D03*
%TD*%
D12*
%TO.C,R2*%
X70920000Y-22000000D03*
X81080000Y-22000000D03*
%TD*%
%TO.C,C4*%
X88500000Y-17000000D03*
X93500000Y-17000000D03*
%TD*%
D13*
%TO.C,H2*%
X106000000Y-14000000D03*
%TD*%
D12*
%TO.C,R1*%
X70920000Y-16000000D03*
X81080000Y-16000000D03*
%TD*%
D14*
%TO.C,J_DOOR_BC*%
X21500000Y-49500000D03*
D15*
X21500000Y-47000000D03*
%TD*%
D14*
%TO.C,J_WIN_B*%
X21500000Y-41000000D03*
D15*
X21500000Y-38500000D03*
%TD*%
D14*
%TO.C,J_EXEC*%
X21500000Y-67000000D03*
D15*
X21500000Y-64500000D03*
%TD*%
D10*
%TO.C,J_SERVO_5V_OUT*%
X83000000Y-72500000D03*
D11*
X85500000Y-72500000D03*
%TD*%
D12*
%TO.C,C2*%
X49500000Y-55000000D03*
X54500000Y-55000000D03*
%TD*%
D10*
%TO.C,J_PCA_OE*%
X56500000Y-72500000D03*
D11*
X59000000Y-72500000D03*
%TD*%
D16*
%TO.C,J_AMP_SIG*%
X105500000Y-50500000D03*
D17*
X105500000Y-48000000D03*
X105500000Y-45500000D03*
X105500000Y-43000000D03*
%TD*%
D12*
%TO.C,R3*%
X70920000Y-28000000D03*
X81080000Y-28000000D03*
%TD*%
D16*
%TO.C,J_MIC*%
X105500000Y-36000000D03*
D17*
X105500000Y-33500000D03*
X105500000Y-31000000D03*
X105500000Y-28500000D03*
X105500000Y-26000000D03*
X105500000Y-23500000D03*
%TD*%
D14*
%TO.C,J_DOOR_AB*%
X21500000Y-32250000D03*
D15*
X21500000Y-29750000D03*
%TD*%
D12*
%TO.C,R7*%
X70920000Y-52000000D03*
X81080000Y-52000000D03*
%TD*%
D18*
%TO.C,C3*%
X88676000Y-58500000D03*
D19*
X93676000Y-58500000D03*
%TD*%
D20*
%TO.C,J_STAMP_17*%
X62921700Y-33148500D03*
D21*
X62921700Y-31878500D03*
X62921700Y-30608500D03*
X62921700Y-29338500D03*
X62921700Y-28068500D03*
X62921700Y-26798500D03*
X62921700Y-25528500D03*
X62921700Y-24258500D03*
X62921700Y-22988500D03*
X62921700Y-21718500D03*
X62921700Y-20448500D03*
X62921700Y-19178500D03*
X62921700Y-17908500D03*
X62921700Y-16638500D03*
X62921700Y-15368500D03*
X62921700Y-14098500D03*
X62921700Y-12828500D03*
%TD*%
D22*
%TO.C,J_SOLIST*%
X35732800Y-48567200D03*
D23*
X33192800Y-48567200D03*
X35732800Y-51107200D03*
X33192800Y-51107200D03*
X35732800Y-53647200D03*
X33192800Y-53647200D03*
X35732800Y-56187200D03*
X33192800Y-56187200D03*
X35732800Y-58727200D03*
X33192800Y-58727200D03*
X35732800Y-61267200D03*
X33192800Y-61267200D03*
X35732800Y-63807200D03*
X33192800Y-63807200D03*
%TD*%
D14*
%TO.C,J_WIN_A*%
X21500000Y-23500000D03*
D15*
X21500000Y-21000000D03*
%TD*%
D14*
%TO.C,J_WIN_C*%
X21500000Y-58250000D03*
D15*
X21500000Y-55750000D03*
%TD*%
D24*
%TO.C,C1*%
X88500000Y-42000000D03*
D25*
X93500000Y-42000000D03*
%TD*%
D12*
%TO.C,R9*%
X46900800Y-43127800D03*
X57060800Y-43127800D03*
%TD*%
D13*
%TO.C,H3*%
X22000000Y-75000000D03*
%TD*%
D23*
%TO.C,J_STAMP_6*%
X47681700Y-12828500D03*
X47681700Y-15368500D03*
X47681700Y-17908500D03*
X47681700Y-20448500D03*
X47681700Y-22988500D03*
D22*
X47681700Y-25528500D03*
%TD*%
D10*
%TO.C,J_PWR_LOGIC*%
X71500000Y-72500000D03*
D11*
X74000000Y-72500000D03*
%TD*%
D16*
%TO.C,J_TFT_SIG*%
X33814000Y-41000000D03*
D17*
X33814000Y-38500000D03*
X33814000Y-36000000D03*
X33814000Y-33500000D03*
X33814000Y-31000000D03*
%TD*%
D13*
%TO.C,H4*%
X106000000Y-75000000D03*
%TD*%
D26*
%TO.C,C5*%
X90000000Y-28500000D03*
D12*
X92000000Y-28500000D03*
%TD*%
D13*
%TO.C,H1*%
X22000000Y-14000000D03*
%TD*%
D16*
%TO.C,J_AMP_PWR*%
X105475000Y-62500000D03*
D17*
X105475000Y-60000000D03*
X105475000Y-57500000D03*
%TD*%
D12*
%TO.C,R6*%
X70920000Y-46000000D03*
X81080000Y-46000000D03*
%TD*%
%TO.C,R8*%
X46920000Y-49000000D03*
X57080000Y-49000000D03*
%TD*%
%TO.C,R5*%
X70920000Y-40000000D03*
X81080000Y-40000000D03*
%TD*%
D16*
%TO.C,J_TFT_PWR*%
X33789000Y-24250000D03*
D17*
X33789000Y-21750000D03*
X33789000Y-19250000D03*
X33789000Y-16750000D03*
%TD*%
D22*
%TO.C,JP_STAMP_5V*%
X50725000Y-60500000D03*
D23*
X53265000Y-60500000D03*
%TD*%
D12*
%TO.C,R4*%
X70920000Y-34000000D03*
X81080000Y-34000000D03*
%TD*%
D27*
%TO.C,J_SERVO_CTRL*%
X41798300Y-72500000D03*
D28*
X44298300Y-72500000D03*
X46798300Y-72500000D03*
X49298300Y-72500000D03*
%TD*%
M02*
