M48
; DRILL file KiCad 10.0.6 date 2026-09-14T21:58:51
; FORMAT={-:-/ absolute / metric / decimal}
; #@! TF.CreationDate,2026-09-14T21:58:51+09:00
; #@! TF.GenerationSoftware,Kicad,Pcbnew,10.0.6
; #@! TF.FileFunction,Plated,1,2,PTH
FMAT,2
METRIC
; #@! TA.AperFunction,Plated,PTH,ViaDrill
T1C0.400
; #@! TA.AperFunction,Plated,PTH,ComponentDrill
T2C0.700
; #@! TA.AperFunction,Plated,PTH,ComponentDrill
T3C0.800
; #@! TA.AperFunction,Plated,PTH,ComponentDrill
T4C0.950
; #@! TA.AperFunction,Plated,PTH,ComponentDrill
T5C1.000
; #@! TA.AperFunction,Plated,PTH,ComponentDrill
T6C1.200
%
G90
G05
T1
X29.697Y-54.305
X29.876Y-58.04
X30.168Y-38.216
X30.354Y-31.963
X33.157Y-43.712
X43.26Y-55.716
X45.747Y-51.731
X47.867Y-41.443
X54.936Y-46.366
X55.461Y-44.144
X63.561Y-36.328
X64.336Y-40.345
X64.4Y-35.514
X73.605Y-31.044
T2
X62.922Y-12.829
X62.922Y-14.098
X62.922Y-15.368
X62.922Y-16.639
X62.922Y-17.909
X62.922Y-19.178
X62.922Y-20.448
X62.922Y-21.718
X62.922Y-22.988
X62.922Y-24.258
X62.922Y-25.528
X62.922Y-26.798
X62.922Y-28.069
X62.922Y-29.338
X62.922Y-30.608
X62.922Y-31.878
X62.922Y-33.148
T3
X46.901Y-43.128
X46.92Y-49.0
X49.5Y-55.0
X54.5Y-55.0
X57.061Y-43.128
X57.08Y-49.0
X70.92Y-16.0
X70.92Y-22.0
X70.92Y-28.0
X70.92Y-34.0
X70.92Y-40.0
X70.92Y-46.0
X70.92Y-52.0
X81.08Y-16.0
X81.08Y-22.0
X81.08Y-28.0
X81.08Y-34.0
X81.08Y-40.0
X81.08Y-46.0
X81.08Y-52.0
X88.5Y-17.0
X90.0Y-28.5
X92.0Y-28.5
X93.5Y-17.0
T4
X33.789Y-16.75
X33.789Y-19.25
X33.789Y-21.75
X33.789Y-24.25
X33.814Y-31.0
X33.814Y-33.5
X33.814Y-36.0
X33.814Y-38.5
X33.814Y-41.0
X41.798Y-72.5
X44.298Y-72.5
X46.798Y-72.5
X49.298Y-72.5
X105.475Y-57.5
X105.475Y-60.0
X105.475Y-62.5
X105.5Y-23.5
X105.5Y-26.0
X105.5Y-28.5
X105.5Y-31.0
X105.5Y-33.5
X105.5Y-36.0
X105.5Y-43.0
X105.5Y-45.5
X105.5Y-48.0
X105.5Y-50.5
T5
X21.5Y-21.0
X21.5Y-23.5
X21.5Y-29.75
X21.5Y-32.25
X21.5Y-38.5
X21.5Y-41.0
X21.5Y-47.0
X21.5Y-49.5
X21.5Y-55.75
X21.5Y-58.25
X21.5Y-64.5
X21.5Y-67.0
X33.193Y-48.567
X33.193Y-51.107
X33.193Y-53.647
X33.193Y-56.187
X33.193Y-58.727
X33.193Y-61.267
X33.193Y-63.807
X35.733Y-48.567
X35.733Y-51.107
X35.733Y-53.647
X35.733Y-56.187
X35.733Y-58.727
X35.733Y-61.267
X35.733Y-63.807
X47.682Y-12.829
X47.682Y-15.368
X47.682Y-17.909
X47.682Y-20.448
X47.682Y-22.988
X47.682Y-25.528
X50.725Y-60.5
X53.265Y-60.5
X56.5Y-72.5
X59.0Y-72.5
X71.5Y-72.5
X74.0Y-72.5
X83.0Y-72.5
X85.5Y-72.5
X88.5Y-42.0
X93.5Y-42.0
X94.0Y-72.5
X96.5Y-72.5
T6
X88.676Y-58.5
X93.676Y-58.5
M30
